<?xml version="1.0" encoding="UTF-8"?><svg id="b" xmlns="http://www.w3.org/2000/svg" width="32" height="32" viewBox="0 0 32 32"><defs><style>.d{fill:#eb701f;}.d,.e{stroke-width:0px;}.e{fill:#fff;}</style></defs><g id="c"><rect class="d" width="32" height="32"/><path class="e" d="M29.9,15.1c-.09-.05-.2-.01-.25.08,0,.01-.23.44-.51.97-.24-.09-.45-.11-.65-.05-.22.07-.41.24-.55.5l-1.63,3.07c-.07.12-.11.29-.11.46l-.19,1.72c-.41.09-1.71.37-2.73.59.61-.76,1.2-1.62,1.51-2.29.51-1.13.75-2.12.75-3.11,0-1.09-.04-2.3-.3-3.1.08-.23.17-.48.23-.71.13-.52.07-1.3-.07-1.67-.12-.33-.19-.45-.49-.95l-.07-.12c-.38-.64-.7-.95-1.11-1.33-.43-.39-.86-.59-1.04-.63-.15-.03-.29.01-.38.11-.08.08-.15.24-.08.52.07.25.25.5.51.86.14.19.3.41.46.66.44.67,1.32,2.43,1.64,3.25,0,0,0,0,0,.02-.08.23-.15.41-.17.53-.03.15-.04.29-.04.42-.01.18-.02.35-.07.55-.01.05-.02.1-.04.15-.07.29-.13.55-.27.67-.06.05-.08.05-.08.05-.04,0-.14-.11-.23-.2-.09-.09-.23-.27-.38-.47-.22-.29-.48-.62-.68-.79-.21-.17-.63-.53-.92-.25-.18.18-.22.59-.14.84.09.24.2.41.36.63.12.17.17.36.13.52l-.03.11c-.04.16-.08.29-.17.47-.08.17-.26.37-.42.54-.05.06-.1.11-.14.16-.04.04-.08.09-.12.13-.2.21-.44.48-.5.78-.02.11-.08.32-.14.54-.1.36-.22.77-.26,1.04-.06.43-.32,1.08-.69,1.1-.23.01-.47-.08-.64-.24-.11-.1-.23-.27-.23-.53v-.22c0-.88,0-1.63-.18-1.93-.22-.36-.82-.69-1.18-.73-.52-.06-1.13-.23-1.26-.56-.12-.31-.29-.88,0-1.3.74-1.03,1.17-1.2,1.36-1.21.39-.02,1.16-.01,1.71,0,.21,0,.4,0,.52,0,.56,0,1.04-.1,1.43-.3.47-.23.66-.41.62-.91-.03-.36-.27-.92-.58-1.14-.17-.12-.32-.12-.41-.1-.44.11-.46.34-.41.58.02.1.06.18.09.25.02.05.06.13.05.15-.04.08-.07.12-.1.14,0,0-.02-.01-.03-.03-.06-.07-.12-.2-.19-.32-.11-.23-.22-.44-.4-.52-.16-.07-.53-.25-.86-.01-.15.11-.29.29-.44.47-.09.11-.18.23-.26.31-.19.19-.41.39-.76.51-.35.12-.74.08-.82-.07-.2-.35-.23-.58-.09-.68.1-.07.23-.13.35-.19.23-.11.46-.22.57-.43.15-.31.12-.62-.09-.85-.03-.04-.07-.08-.11-.11-.2-.2-.22-.25-.18-.31.08-.12.27-.32.46-.51.17-.17.34-.35.48-.51l.11-.13c.25-.29.4-.47.34-.65-.02-.05-.06-.15-.2-.19-.09-.03-.19-.03-.31-.03-.23,0-.41-.02-.47-.12-.09-.19.1-.47.34-.62.27-.18.71-.37.97-.37.33,0,.94.12,1.27.29.27.14,1.07.4,1.36.29.09-.03.13-.1.15-.14.1-.24-.15-.52-.6-.91-.27-.23-1.71-.98-2.42-1.23-.69-.24-1.5-.5-2.37-.59-.94-.1-1.73-.03-2.04,0-.34.04-.84.12-1.2.41-.11.09-.19.17-.25.27-.35-.03-.68-.04-.9,0-.49.1-.96.25-1.69.63-.68.35-1.11.65-1.63,1.02-.51.36-.69.59-.82.83-.1.18-.16.44-.02.6.05.06.18.16.42.09.33-.1.5-.17.89-.46.35-.26.93-.57,1.32-.61.28-.03.45,0,.63.05.03,0,.06.02.1.03.15.04.36.1.43.19.11.14.16.25.01.49-.06.1-.12.18-.16.24-.12.17-.19.28-.23.45-.05.24.04.66.24.83.18.15.49.29.79.27.2-.02.34-.08.44-.2.1-.12.14-.29.11-.49-.02-.14-.05-.26-.07-.37-.02-.09-.05-.21-.05-.23,0,0,.01-.01.04-.01.05,0,.14.02.21.08.03.03.08.07.14.11.17.14.63.52.69.69.1.31,0,.41-.04.44-.08.08-.22.21-.36.34-.09.09-.19.17-.28.26-.11.02-.23.04-.35.07l-.08.02c-.41.08-.58.12-.92.29-.37.18-.68.62-.54.92.03.06.09.15.23.19.25.08.64-.04.9-.19.34-.21.49-.41.62-.58.04-.06.08-.11.13-.17.04-.05.11-.12.19-.19.31-.05.57-.08.68-.1.13-.01.21,0,.22,0,0,0,0,.01,0,.04-.03.23-.21.63-.44.86-.09.09-.2.17-.3.24-.16.12-.32.23-.42.4-.14.23-.22.43-.17.74v.06c.05.24.08.47.19.64.02.04.05.08.09.12.04.06.14.19.14.22-.01.01-.1.02-.33-.16-.11-.09-.5-.32-.79-.28-.26.03-.88.2-1.06.52-.17.31-.23.61-.16.89.08.31.29.72.63.88.23.11.55.13.96.08l.12-.02c.31-.04.45-.06.58.04.17.14.38.28.58.42.12.09.25.17.36.26.27.2.62.48.84.68.22.2.29.29.29.48,0,.23-.01.36-.28.76-.15.23-.35.48-.55.73-.17.22-.34.44-.49.65-.27.39-.41.59-.62.98-.21.4-.3.65-.39.88l-.03.09c-.12.31-.19.39-.22.4-.1-.01-.31-.06-.31-.59,0-.16,0-.34.02-.52.02-.44.05-.9-.05-1.19l-.02-.07c-.11-.34-.2-.61-.61-.95-.16-.13-.31-.23-.45-.31-.2-.12-.31-.19-.33-.29-.09-.4-.08-.72,0-.9.09-.19.28-.34.45-.48.05-.04.1-.08.14-.12.13-.12.19-.27.15-.42-.03-.11-.13-.31-.51-.41-.43-.11-.72-.2-.84-.43-.12-.25-.23-.43-.37-.67-.05-.08-.1-.18-.16-.28-.15-.27-.39-.57-.62-.54-.1.01-.18.09-.21.2-.02.06-.04.14-.06.22-.17-.12-.4-.29-.55-.44-.07-.07-.14-.14-.22-.21-.22-.2-.44-.41-.43-.63,0-.17.03-.39.05-.6.03-.28.05-.55.05-.74,0-.33-.22-1.2-.66-1.34-.37-.12-.88.07-1.24.46-.36.4-.58.74-.74,1.43-.17.75-.26,1.86-.23,2.81.03.87.17,1.71.44,2.58.27.89,1.01,2.26,1.5,2.94.43.59,1.08,1.27,1.94,2.01.53.46,1.23.88,1.92,1.16l.34.13c.59.23,1.4.56,1.75.65.1.03.2-.03.23-.13.03-.1-.03-.2-.13-.23-.33-.09-1.13-.4-1.71-.64l-.34-.13c-.65-.26-1.31-.65-1.82-1.09-.84-.73-1.47-1.39-1.89-1.95-.47-.65-1.18-1.97-1.45-2.83-.26-.84-.4-1.65-.42-2.49-.03-.92.06-1.99.22-2.71.14-.61.33-.91.65-1.27.25-.28.62-.43.85-.36.18.06.41.67.41.99,0,.17-.03.44-.05.71-.02.21-.04.43-.05.61-.02.4.28.68.55.92.07.07.14.13.2.19.28.3.81.63.84.64.05.03.11.04.16.01.05-.02.09-.07.11-.12,0,0,.04-.16.08-.31.05.06.12.14.19.28.06.1.11.2.17.28.14.23.24.41.36.65.2.41.67.52,1.08.63.19.05.24.11.25.14,0,.01-.01.04-.04.06-.04.03-.08.07-.13.11-.19.15-.42.34-.55.6-.13.26-.14.64-.04,1.14.06.26.27.39.5.52.12.07.26.16.4.27.32.27.39.47.49.79l.02.07c.07.22.05.66.03,1.05-.01.19-.02.38-.02.54,0,.74.36.93.66.96.29.03.46-.31.58-.64l.04-.09c.08-.22.17-.45.37-.84.19-.37.32-.55.59-.94.14-.2.32-.42.48-.64.2-.25.4-.52.56-.76.3-.46.34-.65.34-.96,0-.35-.18-.54-.41-.75-.23-.21-.59-.5-.87-.71-.12-.08-.24-.17-.37-.26-.2-.14-.4-.28-.57-.41-.26-.2-.54-.16-.86-.12l-.12.02c-.34.05-.59.03-.76-.05-.2-.09-.37-.39-.43-.63-.05-.19,0-.39.12-.62.07-.12.48-.3.78-.34.13-.02.42.13.52.21.44.35.69.26.82.13.24-.24.01-.54-.11-.71-.03-.03-.05-.07-.07-.09-.06-.1-.1-.3-.13-.5v-.06c-.04-.2,0-.31.11-.49.06-.11.19-.2.33-.3.11-.08.23-.17.34-.28.26-.26.49-.72.54-1.06.02-.17-.04-.28-.09-.34-.15-.15-.39-.13-.53-.12-.04,0-.1,0-.17.02.1-.09.18-.17.25-.23.14-.14.27-.39.13-.82-.08-.25-.44-.56-.81-.85-.05-.04-.1-.08-.12-.1-.13-.12-.31-.18-.48-.17-.12.01-.23.06-.3.15-.12.15-.07.34-.02.55.02.1.05.21.06.33,0,.07,0,.16-.03.21-.04.05-.12.07-.19.07-.19.01-.4-.08-.52-.18-.08-.07-.15-.34-.12-.47.02-.09.07-.16.18-.32.05-.07.1-.15.17-.25.26-.41.13-.69-.03-.9-.14-.19-.41-.27-.63-.33-.03,0-.06-.02-.09-.03-.22-.07-.44-.1-.78-.07-.46.05-1.1.38-1.5.68-.34.26-.48.31-.77.4,0,0-.02,0-.02,0,0-.04.02-.1.06-.17.08-.15.21-.35.71-.7.51-.37.93-.65,1.59-1,.69-.36,1.14-.5,1.59-.6.15-.03.39-.03.71,0,0,.06,0,.13.02.2.09.37.43.69.79,1.02l.08.07c.39.35.82.75,1.29.85.22.05.48-.01.7-.16.17-.11.28-.26.31-.42.08-.39-.23-.89-.76-1.21-.45-.27-.88-.51-1.44-.61-.14-.02-.29-.05-.45-.07.01-.01.03-.02.04-.03.22-.17.54-.27,1.01-.33.23-.03,1.03-.1,1.95,0,.83.09,1.62.34,2.29.57.69.24,2.09.97,2.3,1.16.25.22.37.35.44.43-.23-.02-.68-.15-.94-.27-.39-.19-1.05-.33-1.43-.33s-.92.26-1.18.43c-.38.25-.65.71-.46,1.09.16.31.54.32.79.32.04,0,.07,0,.11,0-.05.07-.14.17-.21.26l-.11.13c-.13.16-.3.33-.46.49-.22.22-.41.42-.51.57-.2.33.06.59.23.76.03.03.07.07.1.1.13.15.09.32.03.44-.05.1-.22.18-.4.27-.13.06-.27.13-.4.22-.22.15-.4.48-.02,1.16.2.36.8.39,1.26.24.4-.13.67-.37.9-.6.1-.1.2-.22.29-.35.12-.16.25-.33.36-.4.11-.08.25-.06.49.05.06.03.16.23.22.35.07.14.15.29.24.4.13.15.27.17.35.16.21-.03.33-.23.38-.35.08-.17,0-.32-.04-.45-.03-.06-.05-.12-.06-.18-.01-.05-.02-.09-.02-.09,0,0,.03-.03.16-.06.03,0,.07,0,.11.04.21.15.41.6.43.87.02.28,0,.35-.42.56-.34.17-.77.26-1.27.26-.12,0-.3,0-.51,0-.56,0-1.33-.02-1.74,0-.46.03-1.01.48-1.64,1.36-.4.55-.2,1.27-.05,1.65.23.57,1.08.74,1.56.79.27.03.75.3.9.56.14.23.13,1.25.13,1.73v.23c0,.3.12.58.35.8.25.23.59.36.92.34.66-.04.96-.94,1.03-1.41.04-.25.15-.66.25-.99.07-.23.12-.44.15-.56.04-.19.25-.42.41-.6.05-.05.09-.1.13-.14.04-.05.09-.1.13-.15.17-.19.37-.41.47-.62.11-.22.15-.38.2-.54l.03-.1c.08-.26,0-.57-.18-.83-.15-.21-.24-.34-.31-.54-.05-.15,0-.4.04-.45.01,0,.11,0,.43.27.17.14.41.46.62.73.16.21.3.39.41.5.23.23.46.46.8.16.23-.2.31-.52.39-.87.01-.05.02-.1.04-.15.06-.23.07-.42.09-.61,0-.09.01-.18.02-.28.12.71.14,1.59.14,2.41,0,.94-.23,1.88-.72,2.96-.33.72-1.05,1.73-1.75,2.57-1.18.27-3.52.85-4.73,1.22-1.31.4-1.87.62-2.46.9-.48.23-1.05.59-1.04,1.05,0,.43.68.5.97.52.05,0,.1,0,.15,0,.49,0,1.14-.09,1.59-.19.46-.1,2.29-.62,2.96-.97.82-.43,1.5-.81,2.26-1.63.16-.17.33-.37.51-.58,1.22-.27,3.3-.72,3.32-.72,0,0,0,0,0,0,.02,0,.03-.01.04-.02,0,0,.01,0,.02,0,0,0,0,0,0,0l1.45-1.11s.06-.04.09-.07h.02s0-.02.01-.03c.07-.07.13-.14.18-.23,0,0,.44-.82.44-.83.05-.09.01-.2-.08-.25-.09-.05-.2-.01-.25.08,0,0-.44.83-.44.83-.02.05-.06.1-.11.14l-.09.07c-.15.1-.37.13-.62,0-.25-.13-.32-.39-.32-.61v-.09s0,0,0-.01c.01-.08.03-.14.06-.19l1.63-3.07c.09-.18.21-.29.34-.33.1-.03.23-.02.36.03-.42.8-.89,1.71-.96,1.83-.2.38-.15.73.15.91.13.08.28.11.43.07.17-.05.33-.18.42-.36l.74-1.4c.1-.19.13-.42.09-.64-.03-.16-.13-.38-.37-.56.28-.54.5-.96.51-.98.05-.09.01-.2-.08-.25h0ZM12.74,12.19c-.12.16-.24.32-.52.49-.24.15-.52.18-.6.15,0-.08.13-.31.37-.43.28-.14.41-.17.77-.24,0,0-.01.02-.02.03ZM13.79,6.92c.51.09.9.31,1.32.56.42.25.63.61.59.82-.01.06-.07.13-.16.18-.13.09-.3.13-.42.1-.37-.08-.77-.44-1.12-.77l-.08-.07c-.32-.29-.62-.57-.68-.83,0-.03-.01-.06-.01-.08.17.02.36.05.57.09h0ZM25.12,13.13c-.02.09-.05.18-.08.28-.38-.87-1.1-2.31-1.52-2.94-.17-.26-.33-.48-.47-.68-.23-.31-.4-.56-.45-.74-.03-.11-.01-.16,0-.17,0,0,0,0,.02,0,0,0,.01,0,.02,0,.11.02.48.19.86.54.38.35.68.65,1.04,1.25l.07.12c.3.5.36.59.46.89.11.32.16,1.02.06,1.46h0ZM22.12,23.23c-.77.83-1.51,1.22-2.16,1.56-.62.32-2.39.83-2.87.93-.48.11-1.2.2-1.64.18-.39-.02-.6-.12-.62-.15,0-.19.33-.47.83-.72.59-.28,1.12-.49,2.41-.88,1.05-.32,2.97-.81,4.21-1.1-.06.06-.11.13-.17.19h0ZM26.72,21.07c.08.04.16.07.24.1l-.55.42.07-.69c.06.06.14.12.23.17ZM29.48,16.96c.04.19-.03.35-.06.39l-.74,1.4c-.05.09-.12.15-.19.17-.05.01-.09,0-.14-.02-.16-.1-.08-.31-.02-.42.06-.12.53-1.02.95-1.82.1.08.16.19.19.31h0Z"/></g></svg>