<svg width="185" height="31" viewBox="0 0 185 31" fill="none" xmlns="http://www.w3.org/2000/svg">
<path fill-rule="evenodd" clip-rule="evenodd" d="M16.25 0.5C15.814 0.5 15.3872 0.624719 15.0198 0.859435C14.6572 1.09115 14.3674 1.42052 14.1838 1.80951L10.6959 8.85107C10.689 8.86491 10.6825 8.87888 10.6762 8.89301C10.6747 8.8965 10.6722 8.89956 10.6691 8.90182C10.666 8.90408 10.6624 8.90551 10.6586 8.90593C10.6452 8.9074 10.6318 8.90914 10.6185 8.91111L2.93874 10.0488C2.51428 10.0901 2.1095 10.2494 1.77047 10.5091C1.41967 10.7778 1.15432 11.1425 1.00655 11.5589C0.858775 11.9753 0.834931 12.4257 0.937902 12.8554C1.04047 13.2835 1.2645 13.6728 1.58299 13.9765L7.2046 19.4005L7.21741 19.4126C7.22543 19.4201 7.23147 19.4295 7.23494 19.44C7.23842 19.4504 7.23923 19.4615 7.2373 19.4723L7.23606 19.4795L5.89647 27.3192L5.89614 27.3212C5.82254 27.7461 5.86947 28.1831 6.03163 28.5825C6.19401 28.9828 6.46547 29.3293 6.81508 29.5828C7.16471 29.8361 7.57844 29.9864 8.00923 30.0163C8.43916 30.0461 8.86885 29.955 9.24959 29.7533L9.25189 29.752L16.1713 26.0951C16.1961 26.0843 16.2229 26.0786 16.25 26.0786C16.2772 26.0786 16.304 26.0843 16.3288 26.0951L23.2481 29.752L23.2495 29.7526C23.6304 29.955 24.0604 30.0464 24.4908 30.0163C24.9216 29.9864 25.3353 29.8361 25.6848 29.5828C26.0346 29.3293 26.3059 28.9828 26.4683 28.5825C26.6304 28.1831 26.6774 27.7463 26.6038 27.3217L26.6036 27.3192L25.2639 19.4795L25.2628 19.4723C25.2608 19.4615 25.2617 19.4504 25.265 19.44C25.2685 19.4295 25.2747 19.4201 25.2826 19.4126L25.2953 19.4005L30.9172 13.9764C31.2355 13.6727 31.4596 13.2835 31.562 12.8554C31.665 12.4257 31.6413 11.9753 31.4935 11.5589C31.3456 11.1425 31.0804 10.7778 30.7296 10.5091C30.3906 10.2494 29.9857 10.0901 29.5612 10.0488L21.8815 8.91111C21.8682 8.90914 21.8548 8.9074 21.8415 8.90593C21.8376 8.90551 21.834 8.90408 21.8309 8.90182C21.8278 8.89956 21.8253 8.8965 21.8238 8.89301C21.8175 8.87888 21.811 8.86491 21.8041 8.85107L18.3162 1.80948C18.1326 1.4205 17.8428 1.09115 17.4802 0.859435C17.1128 0.624719 16.6859 0.5 16.25 0.5Z" fill="#EB701F"/>
<path fill-rule="evenodd" clip-rule="evenodd" d="M92.75 0.5C92.314 0.5 91.8872 0.624719 91.5198 0.859435C91.1572 1.09115 90.8674 1.42052 90.6838 1.80951L87.1959 8.85107C87.189 8.86491 87.1825 8.87888 87.1762 8.89301C87.1747 8.8965 87.1722 8.89956 87.1691 8.90182C87.166 8.90408 87.1624 8.90551 87.1586 8.90593C87.1452 8.9074 87.1318 8.90914 87.1185 8.91111L79.4387 10.0488C79.0143 10.0901 78.6095 10.2494 78.2705 10.5091C77.9197 10.7778 77.6543 11.1425 77.5065 11.5589C77.3588 11.9753 77.3349 12.4257 77.4379 12.8554C77.5405 13.2835 77.7645 13.6728 78.083 13.9765L83.7046 19.4005L83.7174 19.4126C83.7254 19.4201 83.7315 19.4295 83.7349 19.44C83.7384 19.4504 83.7392 19.4615 83.7373 19.4723L83.7361 19.4795L82.3965 27.3192L82.3961 27.3212C82.3225 27.7461 82.3695 28.1831 82.5316 28.5825C82.694 28.9828 82.9655 29.3293 83.3151 29.5828C83.6647 29.8361 84.0784 29.9864 84.5092 30.0163C84.9392 30.0461 85.3688 29.955 85.7496 29.7533L85.7519 29.752L92.6713 26.0951C92.6961 26.0843 92.7229 26.0786 92.75 26.0786C92.7772 26.0786 92.804 26.0843 92.8288 26.0951L99.7481 29.752L99.7495 29.7526C100.13 29.955 100.56 30.0464 100.991 30.0163C101.422 29.9864 101.835 29.8361 102.185 29.5828C102.535 29.3293 102.806 28.9828 102.968 28.5825C103.13 28.1831 103.177 27.7463 103.104 27.3217L103.104 27.3192L101.764 19.4795L101.763 19.4723C101.761 19.4615 101.762 19.4504 101.765 19.44C101.769 19.4295 101.775 19.4201 101.783 19.4126L101.795 19.4005L107.417 13.9764C107.736 13.6727 107.96 13.2835 108.062 12.8554C108.165 12.4257 108.141 11.9753 107.993 11.5589C107.846 11.1425 107.58 10.7778 107.23 10.5091C106.891 10.2494 106.486 10.0901 106.061 10.0488L98.3815 8.91111C98.3682 8.90914 98.3548 8.9074 98.3415 8.90593C98.3376 8.90551 98.334 8.90408 98.3309 8.90182C98.3278 8.89956 98.3253 8.8965 98.3238 8.89301C98.3175 8.87888 98.311 8.86491 98.3041 8.85107L94.8162 1.80948C94.6326 1.4205 94.3428 1.09115 93.9802 0.859435C93.6128 0.624719 93.1859 0.5 92.75 0.5Z" fill="#EB701F"/>
<path fill-rule="evenodd" clip-rule="evenodd" d="M54.5 0.5C54.064 0.5 53.6372 0.624719 53.2698 0.859435C52.9072 1.09115 52.6174 1.42052 52.4338 1.80951L48.9459 8.85107C48.939 8.86491 48.9325 8.87888 48.9262 8.89301C48.9247 8.8965 48.9222 8.89956 48.9191 8.90182C48.916 8.90408 48.9124 8.90551 48.9086 8.90593C48.8952 8.9074 48.8818 8.90914 48.8685 8.91111L41.1887 10.0488C40.7643 10.0901 40.3595 10.2494 40.0205 10.5091C39.6697 10.7778 39.4043 11.1425 39.2565 11.5589C39.1088 11.9753 39.0849 12.4257 39.1879 12.8554C39.2905 13.2835 39.5145 13.6728 39.833 13.9765L45.4546 19.4005L45.4674 19.4126C45.4754 19.4201 45.4815 19.4295 45.4849 19.44C45.4884 19.4504 45.4892 19.4615 45.4873 19.4723L45.4861 19.4795L44.1465 27.3192L44.1461 27.3212C44.0725 27.7461 44.1195 28.1831 44.2816 28.5825C44.444 28.9828 44.7155 29.3293 45.0651 29.5828C45.4147 29.8361 45.8284 29.9864 46.2592 30.0163C46.6892 30.0461 47.1188 29.955 47.4996 29.7533L47.5019 29.752L54.4213 26.0951C54.4461 26.0843 54.4729 26.0786 54.5 26.0786C54.5272 26.0786 54.554 26.0843 54.5788 26.0951L61.4981 29.752L61.4995 29.7526C61.8804 29.955 62.3104 30.0464 62.7408 30.0163C63.1716 29.9864 63.5853 29.8361 63.9348 29.5828C64.2846 29.3293 64.5559 28.9828 64.7183 28.5825C64.8804 28.1831 64.9274 27.7463 64.8538 27.3217L64.8536 27.3192L63.5139 19.4795L63.5128 19.4723C63.5108 19.4615 63.5117 19.4504 63.515 19.44C63.5185 19.4295 63.5247 19.4201 63.5326 19.4126L63.5453 19.4005L69.1672 13.9764C69.4855 13.6727 69.7096 13.2835 69.812 12.8554C69.915 12.4257 69.8913 11.9753 69.7435 11.5589C69.5956 11.1425 69.3304 10.7778 68.9796 10.5091C68.6406 10.2494 68.2357 10.0901 67.8112 10.0488L60.1315 8.91111C60.1182 8.90914 60.1048 8.9074 60.0915 8.90593C60.0876 8.90551 60.084 8.90408 60.0809 8.90182C60.0778 8.89956 60.0753 8.8965 60.0738 8.89301C60.0675 8.87888 60.061 8.86491 60.0541 8.85107L56.5662 1.80948C56.3826 1.4205 56.0928 1.09115 55.7302 0.859435C55.3628 0.624719 54.9359 0.5 54.5 0.5Z" fill="#EB701F"/>
<path fill-rule="evenodd" clip-rule="evenodd" d="M131 0.5C130.564 0.5 130.137 0.624719 129.77 0.859435C129.407 1.09115 129.117 1.42052 128.934 1.80951L125.446 8.85107C125.439 8.86491 125.432 8.87888 125.426 8.89301C125.425 8.8965 125.422 8.89956 125.419 8.90182C125.416 8.90408 125.412 8.90551 125.409 8.90593C125.395 8.9074 125.382 8.90914 125.369 8.91111L117.689 10.0488C117.264 10.0901 116.859 10.2494 116.52 10.5091C116.17 10.7778 115.904 11.1425 115.757 11.5589C115.609 11.9753 115.585 12.4257 115.688 12.8554C115.79 13.2835 116.014 13.6728 116.333 13.9765L121.955 19.4005L121.967 19.4126C121.975 19.4201 121.981 19.4295 121.985 19.44C121.988 19.4504 121.989 19.4615 121.987 19.4723L121.986 19.4795L120.646 27.3192L120.646 27.3212C120.573 27.7461 120.619 28.1831 120.782 28.5825C120.944 28.9828 121.215 29.3293 121.565 29.5828C121.915 29.8361 122.328 29.9864 122.759 30.0163C123.189 30.0461 123.619 29.955 124 29.7533L124.002 29.752L130.921 26.0951C130.946 26.0843 130.973 26.0786 131 26.0786C131.027 26.0786 131.054 26.0843 131.079 26.0951L137.998 29.752L137.999 29.7526C138.38 29.955 138.81 30.0464 139.241 30.0163C139.672 29.9864 140.085 29.8361 140.435 29.5828C140.785 29.3293 141.056 28.9828 141.218 28.5825C141.38 28.1831 141.427 27.7463 141.354 27.3217L141.354 27.3192L140.014 19.4795L140.013 19.4723C140.011 19.4615 140.012 19.4504 140.015 19.44C140.019 19.4295 140.025 19.4201 140.033 19.4126L140.045 19.4005L145.667 13.9764C145.986 13.6727 146.21 13.2835 146.312 12.8554C146.415 12.4257 146.391 11.9753 146.243 11.5589C146.096 11.1425 145.83 10.7778 145.48 10.5091C145.141 10.2494 144.736 10.0901 144.311 10.0488L136.632 8.91111C136.618 8.90914 136.605 8.9074 136.591 8.90593C136.588 8.90551 136.584 8.90408 136.581 8.90182C136.578 8.89956 136.575 8.8965 136.574 8.89301C136.568 8.87888 136.561 8.86491 136.554 8.85107L133.066 1.80948C132.883 1.4205 132.593 1.09115 132.23 0.859435C131.863 0.624719 131.436 0.5 131 0.5Z" fill="#EB701F"/>
<path fill-rule="evenodd" clip-rule="evenodd" d="M169.25 0.5C168.814 0.5 168.387 0.624719 168.02 0.859435C167.657 1.09115 167.367 1.42052 167.184 1.80951L163.696 8.85107C163.689 8.86491 163.682 8.87888 163.676 8.89301C163.675 8.8965 163.672 8.89956 163.669 8.90182C163.666 8.90408 163.662 8.90551 163.659 8.90593C163.645 8.9074 163.632 8.90914 163.619 8.91111L155.939 10.0488C155.514 10.0901 155.109 10.2494 154.77 10.5091C154.42 10.7778 154.154 11.1425 154.007 11.5589C153.859 11.9753 153.835 12.4257 153.938 12.8554C154.04 13.2835 154.264 13.6728 154.583 13.9765L160.205 19.4005L160.217 19.4126C160.225 19.4201 160.231 19.4295 160.235 19.44C160.238 19.4504 160.239 19.4615 160.237 19.4723L160.236 19.4795L158.896 27.3192L158.896 27.3212C158.823 27.7461 158.869 28.1831 159.032 28.5825C159.194 28.9828 159.465 29.3293 159.815 29.5828C160.165 29.8361 160.578 29.9864 161.009 30.0163C161.439 30.0461 161.869 29.955 162.25 29.7533L162.252 29.752L169.171 26.0951C169.196 26.0843 169.223 26.0786 169.25 26.0786C169.277 26.0786 169.304 26.0843 169.329 26.0951L176.248 29.752L176.249 29.7526C176.63 29.955 177.06 30.0464 177.491 30.0163C177.922 29.9864 178.335 29.8361 178.685 29.5828C179.035 29.3293 179.306 28.9828 179.468 28.5825C179.63 28.1831 179.677 27.7463 179.604 27.3217L179.604 27.3192L178.264 19.4795L178.263 19.4723C178.261 19.4615 178.262 19.4504 178.265 19.44C178.269 19.4295 178.275 19.4201 178.283 19.4126L178.295 19.4005L183.917 13.9764C184.236 13.6727 184.46 13.2835 184.562 12.8554C184.665 12.4257 184.641 11.9753 184.493 11.5589C184.346 11.1425 184.08 10.7778 183.73 10.5091C183.391 10.2494 182.986 10.0901 182.561 10.0488L174.882 8.91111C174.868 8.90914 174.855 8.9074 174.841 8.90593C174.838 8.90551 174.834 8.90408 174.831 8.90182C174.828 8.89956 174.825 8.8965 174.824 8.89301C174.818 8.87888 174.811 8.86491 174.804 8.85107L171.316 1.80948C171.133 1.4205 170.843 1.09115 170.48 0.859435C170.113 0.624719 169.686 0.5 169.25 0.5Z" fill="#EB701F"/>
</svg>
