<svg width="47" height="29" viewBox="0 0 47 29" fill="none" xmlns="http://www.w3.org/2000/svg">
<path d="M20.444 27.131L20.4366 27.1217L20.4288 27.1126L1.79501 5.67111L1.78473 5.65928L1.77373 5.64812C0.653999 4.51194 0.778038 2.4873 1.96583 1.28205C3.08008 0.15143 5.06285 0.274202 6.24821 1.47698L6.42967 1.66111L22.7482 20.3623L22.7582 20.3737L22.7689 20.3845C22.9325 20.5505 23.1498 20.6797 23.4371 20.6797C23.6811 20.6797 23.9138 20.5839 24.1196 20.4794L24.2062 20.4355L24.2701 20.3623L40.5987 1.64968L40.6006 1.64746C41.7728 0.28809 43.5673 0.135454 44.8846 1.30498C46.2222 2.49261 46.3794 4.31835 45.2326 5.66035L45.0525 5.84304L45.0415 5.8542L45.0313 5.86603L26.4264 27.2742C25.5277 27.9958 24.4942 28.5 23.3171 28.5C22.1257 28.5 21.1177 27.9855 20.444 27.131Z" fill="white" stroke="#EB701F"/>
</svg>
