<svg width="45" height="45" viewBox="0 0 45 45" fill="none" xmlns="http://www.w3.org/2000/svg">
<path fill-rule="evenodd" clip-rule="evenodd" d="M37.8112 38.0475C41.9016 34.0178 44.4375 28.4144 44.4375 22.2188C44.4375 9.94767 34.4898 0 22.2188 0C9.94767 0 0 9.94767 0 22.2188C0 34.4898 9.94767 44.4375 22.2188 44.4375C22.321 44.4375 22.4232 44.4368 22.5251 44.4354L22.5234 44.4377H41.3942L37.8112 38.0475Z" fill="#EB701F"/>
<g clip-path="url(#clip0_170_1779)">
<path d="M12.727 24.1213L20.4694 31.3495C20.7907 31.6494 21.2149 31.8165 21.6562 31.8165C22.0976 31.8165 22.5218 31.6494 22.8431 31.3495L30.5855 24.1213C31.888 22.9087 32.625 21.2077 32.625 19.4296V19.181C32.625 16.1861 30.4612 13.6324 27.5091 13.1397C25.5553 12.814 23.5672 13.4524 22.1704 14.8492L21.6562 15.3634L21.1421 14.8492C19.7453 13.4524 17.7572 12.814 15.8034 13.1397C12.8513 13.6324 10.6875 16.1861 10.6875 19.181V19.4296C10.6875 21.2077 11.4245 22.9087 12.727 24.1213Z" fill="white"/>
</g>
<defs>
<clipPath id="clip0_170_1779">
<rect width="21.9375" height="21.9375" fill="white" transform="translate(10.6875 11.25)"/>
</clipPath>
</defs>
</svg>
