<svg width="42" height="44" viewBox="0 0 42 44" fill="none" xmlns="http://www.w3.org/2000/svg">
<path d="M6 3.57143C4.34062 3.57143 3 4.94397 3 6.64286V37.3571C3 39.056 4.34062 40.4286 6 40.4286H36C37.6594 40.4286 39 39.056 39 37.3571V6.64286C39 4.94397 37.6594 3.57143 36 3.57143H6ZM0 6.64286C0 3.25469 2.69062 0.5 6 0.5H36C39.3094 0.5 42 3.25469 42 6.64286V37.3571C42 40.7453 39.3094 43.5 36 43.5H6C2.69062 43.5 0 40.7453 0 37.3571V6.64286ZM31.0594 16.9417L19.0594 29.2275C18.4781 29.8225 17.5219 29.8225 16.9406 29.2275L10.9406 23.0846C10.3594 22.4895 10.3594 21.5105 10.9406 20.9154C11.5219 20.3203 12.4781 20.3203 13.0594 20.9154L18 25.9737L28.9406 14.7725C29.5219 14.1775 30.4781 14.1775 31.0594 14.7725C31.6406 15.3676 31.6406 16.3467 31.0594 16.9417Z" fill="#EB701F"/>
</svg>
