<svg width="55" height="52" viewBox="0 0 55 52" fill="none" xmlns="http://www.w3.org/2000/svg">
<path d="M54.7118 21.9877C54.7118 9.8605 42.5541 -0.00585938 27.6098 -0.00585938C12.6655 -0.00585938 0.507812 9.8605 0.507812 21.9877C0.507812 32.86 10.1506 41.9643 23.1745 43.6865C24.056 43.8771 25.2575 44.2683 25.5624 45.0227C25.8367 45.7086 25.7402 46.7806 25.6513 47.4741C25.6513 47.4741 25.3337 49.3869 25.2652 49.7933C25.1458 50.4792 24.7215 52.4733 27.6123 51.254C30.5057 50.0346 43.2197 42.0633 48.9048 35.5196C52.832 31.2113 54.7143 26.8421 54.7143 21.9877H54.7118Z" fill="white"/>
<path d="M45.7017 28.9908H38.0885C37.8015 28.9908 37.5703 28.7596 37.5703 28.4726V28.465V16.6579V16.6452C37.5703 16.3581 37.8015 16.127 38.0885 16.127H45.7017C45.9862 16.127 46.2199 16.3607 46.2199 16.6452V18.5681C46.2199 18.8552 45.9887 19.0864 45.7017 19.0864H40.5272V21.083H45.7017C45.9862 21.083 46.2199 21.3167 46.2199 21.6012V23.5242C46.2199 23.8112 45.9887 24.0424 45.7017 24.0424H40.5272V26.039H45.7017C45.9862 26.039 46.2199 26.2727 46.2199 26.5572V28.4802C46.2199 28.7673 45.9887 28.9984 45.7017 28.9984V28.9908Z" fill="#06C755"/>
<path d="M17.5323 28.9934C17.8168 28.9934 18.0506 28.7622 18.0506 28.4751V26.5522C18.0506 26.2677 17.8168 26.034 17.5323 26.034H12.3578V16.6452C12.3578 16.3607 12.1241 16.127 11.8396 16.127H9.91665C9.6296 16.127 9.39844 16.3581 9.39844 16.6452V28.465V28.4751C9.39844 28.7622 9.6296 28.9934 9.91665 28.9934H17.5298H17.5323Z" fill="#06C755"/>
<path d="M22.1183 16.127H20.1979C19.9117 16.127 19.6797 16.359 19.6797 16.6452V28.4726C19.6797 28.7588 19.9117 28.9908 20.1979 28.9908H22.1183C22.4045 28.9908 22.6365 28.7588 22.6365 28.4726V16.6452C22.6365 16.359 22.4045 16.127 22.1183 16.127Z" fill="#06C755"/>
<path d="M35.1978 16.127H33.2748C32.9878 16.127 32.7566 16.3581 32.7566 16.6452V23.669L27.3459 16.3607C27.3332 16.3429 27.3179 16.3251 27.3052 16.3073C27.3052 16.3073 27.3052 16.3073 27.3027 16.3048C27.2925 16.2946 27.2824 16.2819 27.2722 16.2717C27.2697 16.2692 27.2646 16.2667 27.2621 16.2641C27.2519 16.2565 27.2443 16.2489 27.2341 16.2413C27.229 16.2387 27.2239 16.2336 27.2189 16.2311C27.2112 16.2235 27.2011 16.2184 27.1909 16.2133C27.1858 16.2108 27.1808 16.2057 27.1757 16.2032C27.1655 16.1981 27.1579 16.193 27.1477 16.1879C27.1427 16.1854 27.1376 16.1828 27.1325 16.1803C27.1223 16.1752 27.1122 16.1701 27.102 16.1676C27.0969 16.1676 27.0919 16.1625 27.0842 16.1625C27.0741 16.16 27.0639 16.1549 27.0537 16.1524C27.0487 16.1524 27.0411 16.1498 27.036 16.1473C27.0258 16.1473 27.0156 16.1422 27.0055 16.1397C26.9979 16.1397 26.9902 16.1397 26.9826 16.1371C26.9725 16.1371 26.9648 16.1346 26.9547 16.1346C26.9445 16.1346 26.9369 16.1346 26.9267 16.1346C26.9217 16.1346 26.914 16.1346 26.909 16.1346H24.9987C24.7142 16.1346 24.4805 16.3657 24.4805 16.6528V28.4802C24.4805 28.7647 24.7116 28.9984 24.9987 28.9984H26.9217C27.2087 28.9984 27.4399 28.7673 27.4399 28.4802V21.4564L32.8582 28.7749C32.8963 28.8282 32.9421 28.8714 32.9929 28.9044C32.9929 28.9044 32.9979 28.907 32.9979 28.9095C33.0081 28.9171 33.0183 28.9222 33.031 28.9298C33.0361 28.9324 33.0411 28.9349 33.0462 28.9375C33.0538 28.9425 33.064 28.9451 33.0716 28.9502C33.0792 28.9552 33.0894 28.9578 33.097 28.9603C33.1021 28.9603 33.1072 28.9654 33.1123 28.9654C33.125 28.9705 33.1351 28.973 33.1478 28.9756C33.1478 28.9756 33.1529 28.9756 33.1554 28.9756C33.1986 28.9857 33.2444 28.9934 33.2901 28.9934H35.2004C35.4849 28.9934 35.7186 28.7622 35.7186 28.4751V16.6477C35.7186 16.3632 35.4874 16.1295 35.2004 16.1295L35.1978 16.127Z" fill="#06C755"/>
</svg>
