<svg width="70" height="70" viewBox="0 0 70 70" fill="none" xmlns="http://www.w3.org/2000/svg">
<rect width="70" height="70" rx="35" fill="white"/>
<path d="M43.0603 48.4409H56V54.5699H34.8113L43.0603 48.4409ZM14 35.0538C14 32.3298 14.5212 29.767 15.5635 27.3656C16.6059 24.9642 18.0436 22.8315 19.8768 20.9677C21.7099 19.1039 23.8306 17.6523 26.2388 16.6129C28.6829 15.5376 31.2888 15 34.0565 15C36.7882 15 39.3581 15.5376 41.7664 16.6129C44.2105 17.6523 46.3492 19.1039 48.1823 20.9677C50.0513 22.8315 51.5071 24.9642 52.5494 27.3656C53.6277 29.767 54.1669 32.3298 54.1669 35.0538C54.1669 37.8136 53.6277 40.3943 52.5494 42.7957C51.5071 45.1971 50.0513 47.3298 48.1823 49.1936C46.3492 51.0215 44.2105 52.4552 41.7664 53.4946C39.3581 54.4982 36.7882 55 34.0565 55C31.2529 55 28.647 54.4982 26.2388 53.4946C23.8306 52.4552 21.7099 51.0394 19.8768 49.2473C18.0436 47.4194 16.6059 45.3047 15.5635 42.9032C14.5212 40.466 14 37.8495 14 35.0538ZM20.4698 35.0538C20.4698 36.9534 20.8113 38.7455 21.4942 40.4301C22.2131 42.1147 23.2015 43.6022 24.4596 44.8925C25.7176 46.147 27.1733 47.1326 28.8267 47.8495C30.4801 48.5663 32.2773 48.9247 34.2182 48.9247C36.0873 48.9247 37.8305 48.5663 39.448 47.8495C41.1014 47.1326 42.5392 46.147 43.7612 44.8925C44.9833 43.638 45.9358 42.1685 46.6187 40.4839C47.3376 38.7993 47.697 36.9893 47.697 35.0538C47.697 33.1541 47.3376 31.362 46.6187 29.6774C45.8999 27.9928 44.9294 26.5233 43.7073 25.2688C42.4852 23.9785 41.0475 22.9749 39.3941 22.2581C37.7407 21.5412 35.9615 21.1828 34.0565 21.1828C32.1515 21.1828 30.3723 21.5412 28.7189 22.2581C27.0655 22.9749 25.6098 23.9785 24.3517 25.2688C23.1297 26.5591 22.1771 28.0466 21.4942 29.7312C20.8113 31.4158 20.4698 33.19 20.4698 35.0538Z" fill="#EB701F"/>
</svg>
