<svg width="253" height="276" viewBox="0 0 253 276" fill="none" xmlns="http://www.w3.org/2000/svg">
<path d="M-1.42206 2.9518C-0.776757 2.9981 -0.0949556 3.03043 0.5643 3.11325L0.458283 4.09517C-0.175742 4.02363 -0.820968 3.97733 -1.47755 3.95626L-1.43333 2.97701L-1.42206 2.9518Z" fill="#3E3E3E"/>
<path d="M6.38051 4.04863C7.64262 4.34042 8.91866 4.66866 10.1722 5.04742L9.87833 5.97562C8.65005 5.60815 7.38525 5.25461 6.1371 4.99934L6.35524 4.03734L6.38051 4.04863ZM15.7042 7.09672C15.8808 7.17568 16.0574 7.25465 16.2088 7.32233C17.218 7.7735 18.2412 8.26122 19.2418 8.79937L18.7965 9.65983C17.8211 9.13295 16.8232 8.65656 15.8392 8.21666C15.6626 8.13771 15.5113 8.07005 15.3346 7.99109L15.7407 7.0828L15.7042 7.09672ZM-38.3089 144.032C-37.7648 142.883 -37.1225 141.717 -36.4549 140.562L-35.617 141.058C-36.2733 142.187 -36.9043 143.328 -37.4371 144.452L-38.3455 144.046L-38.3089 144.032ZM-40.4704 149.544L-39.5422 149.838C-39.921 151.092 -40.238 152.343 -40.4455 153.551L-41.4049 153.395C-41.1749 152.136 -40.8605 150.823 -40.4704 149.544ZM-33.178 135.67C-32.4181 134.647 -31.56 133.608 -30.6992 132.631L-29.9541 133.267C-30.8149 134.244 -31.6365 135.269 -32.3851 136.267L-33.178 135.67ZM-41.8919 159.292L-40.9154 159.275C-40.8846 160.56 -40.7806 161.817 -40.5897 163.083L-41.5609 163.224C-41.7658 161.922 -41.8976 160.592 -41.9172 159.281L-41.8919 159.292ZM23.7372 12.6254L24.2834 11.8101C25.379 12.5421 26.4268 13.3132 27.4634 14.1096L26.8528 14.8659C25.8415 14.0808 24.7936 13.3096 23.7233 12.5889L23.7372 12.6254ZM-26.6799 128.312C-25.7659 127.419 -24.7902 126.523 -23.7754 125.675L-23.1372 126.415C-24.1155 127.249 -25.0912 128.145 -25.9938 129.013L-26.6799 128.312ZM-19.1962 122.001C-18.1535 121.226 -17.0602 120.473 -15.9895 119.771L-15.447 120.589C-16.5176 121.291 -17.5743 122.03 -18.6171 122.805L-19.1962 122.001ZM-40.002 168.947L-39.0893 168.598C-38.6289 169.803 -38.0842 170.954 -37.4552 172.053L-38.3122 172.548C-38.9551 171.413 -39.5277 170.188 -40.0133 168.972L-40.002 168.947ZM31.1995 18.6861L31.8745 17.9889C32.8042 18.8888 33.7252 19.8757 34.5958 20.8401L33.8564 21.4783C33.011 20.5252 32.1292 19.5861 31.1995 18.6861ZM-10.9402 116.671C-9.87817 116.056 -8.75438 115.438 -7.535 114.742L-7.06545 115.587C-8.27354 116.258 -9.39733 116.876 -10.4594 117.491L-10.9542 116.634L-10.9402 116.671ZM-34.8149 177.32L-34.0895 176.646C-33.2329 177.573 -32.3284 178.462 -31.3397 179.298L-31.9755 180.043C-32.9895 179.196 -33.9696 178.273 -34.8402 177.309L-34.8149 177.32ZM-2.39661 111.983C-1.24759 111.377 -0.0985698 110.77 1.05045 110.164L1.50875 111.035C0.359732 111.641 -0.789289 112.248 -1.93831 112.854L-2.39661 111.983ZM37.4186 26.0376L38.2112 25.4837C38.9636 26.5769 39.6796 27.6841 40.3338 28.7939L39.4768 29.2888C38.8479 28.1902 38.1319 27.083 37.3934 26.0263L37.4186 26.0376ZM6.25325 107.465C7.52308 106.791 8.63557 106.199 9.67505 105.634L10.1334 106.505C9.09387 107.07 7.97011 107.687 6.70028 108.361L6.24199 107.49L6.25325 107.465ZM-27.0665 183.418L-26.5961 182.569C-25.6572 183.11 -24.6593 183.586 -23.6501 184.037C-23.4735 184.116 -23.322 184.184 -23.1454 184.263L-23.5515 185.171C-23.7028 185.103 -23.8795 185.024 -24.0561 184.945C-25.0906 184.483 -26.1025 183.97 -27.0665 183.418ZM42.1118 34.4325L43.0106 34.0472C43.5327 35.2494 43.9818 36.4794 44.4197 37.7347L43.4929 38.047C43.0691 36.8282 42.6087 35.6234 42.1118 34.4325ZM14.7464 102.755C15.904 102.062 17.0252 101.382 18.0733 100.731L18.6045 101.574C17.5565 102.225 16.4241 102.93 15.2665 103.623L14.7716 102.766L14.7464 102.755ZM44.9961 43.6232L45.9647 43.4205C46.2425 44.695 46.4473 45.9975 46.6268 47.2887L45.6556 47.4297C45.5013 46.1498 45.2852 44.8726 45.0213 43.6345L44.9961 43.6232ZM-17.6945 186.155C-16.4802 186.486 -15.2068 186.752 -13.9221 186.994L-14.0786 187.953C-15.3745 187.737 -16.6618 187.434 -17.9014 187.092L-17.658 186.141L-17.6945 186.155ZM22.8815 97.4916C23.9495 96.7278 25.0036 95.9276 25.9594 95.144L26.5862 95.9086C25.5939 96.7062 24.5399 97.5064 23.4719 98.2701L22.8928 97.4663L22.8815 97.4916ZM46.0416 53.2027L47.0181 53.1852C47.0376 54.4957 47.0207 55.8201 46.9534 57.122L45.9741 57.0778C46.0302 55.8012 46.0724 54.488 46.0416 53.2027ZM30.3227 91.3427C31.2731 90.4356 32.1731 89.506 33.0114 88.579L33.7451 89.24C32.8956 90.1922 31.9591 91.1359 31.0087 92.043L30.3227 91.3427ZM45.3442 62.8205L46.3037 62.977C46.0876 64.2729 45.8097 65.5716 45.518 66.8337L44.5672 66.5903C44.8729 65.3647 45.1142 64.08 45.3442 62.8205ZM36.6636 84.0663C37.3982 83.0325 38.1302 81.9369 38.7752 80.8327L39.6132 81.3284C38.9316 82.4465 38.2249 83.5534 37.4424 84.6264L36.6383 84.055L36.6636 84.0663ZM42.9023 72.1427L43.8192 72.4618C43.3873 73.631 42.9189 74.8142 42.4 75.9748L42.3323 76.1262L41.4241 75.7201L41.4918 75.5687C41.9881 74.4586 42.4452 73.3007 42.8771 72.1315L42.9023 72.1427ZM-8.1907 187.649C-6.92533 187.73 -5.62609 187.736 -4.32686 187.741L-4.30934 188.718C-5.61984 188.737 -6.94429 188.72 -8.23491 188.628L-8.1907 187.649ZM1.43221 187.319C2.71213 187.165 3.9894 186.948 5.2527 186.696L5.4554 187.664C4.1921 187.917 2.87833 188.147 1.57318 188.29L1.45743 187.33L1.43221 187.319ZM10.8428 185.229C12.0756 184.842 13.2804 184.381 14.4712 183.885L14.8566 184.783C13.6657 185.28 12.4243 185.755 11.1551 186.156L10.8428 185.229ZM19.6682 181.334C20.7919 180.716 21.9018 180.062 22.9976 179.371L23.5037 180.203C22.3713 180.908 21.2363 181.551 20.1125 182.168L19.6429 181.323L19.6682 181.334ZM27.8312 176.144C28.8514 175.419 29.8942 174.644 30.9342 173.807L31.5246 174.586C30.4593 175.411 29.4165 176.186 28.3851 176.936L27.806 176.132L27.8312 176.144ZM35.4264 170.124C36.3682 169.304 37.3579 168.445 38.3336 167.549L39.0082 168.274C38.0326 169.17 37.0317 170.055 36.0898 170.875L35.4517 170.135L35.4264 170.124ZM42.5907 163.579C43.4821 162.736 44.396 161.843 45.3803 160.86L46.0662 161.561C45.0819 162.543 44.168 163.437 43.2767 164.279L42.5907 163.579ZM49.4946 156.736C50.3242 155.896 51.1538 155.056 51.947 154.23L52.2198 153.958L52.917 154.633L52.6442 154.905C51.8146 155.745 50.985 156.585 50.1666 157.4L49.4693 156.725L49.4946 156.736ZM96.1346 122.157C97.3786 121.744 98.6617 121.38 99.8971 121.054L100.136 122.009C98.901 122.334 97.6543 122.685 96.4355 123.109L96.1233 122.182L96.1346 122.157ZM105.672 119.852C107 119.658 108.305 119.515 109.576 119.448L109.655 120.421C108.409 120.5 107.104 120.643 105.813 120.823L105.672 119.852ZM115.503 119.463C116.818 119.567 118.137 119.733 119.408 119.938L119.251 120.897C118.017 120.678 116.724 120.524 115.433 120.431L115.503 119.463ZM125.151 121.446C126.068 121.765 127.013 122.157 127.896 122.552C128.199 122.687 128.502 122.823 128.804 122.958L128.398 123.866C128.096 123.731 127.793 123.595 127.49 123.46C126.607 123.065 125.713 122.696 124.821 122.388L125.14 121.471L125.151 121.446ZM133.348 126.745L133.919 125.941C134.978 126.687 136.04 127.494 137.043 128.366L136.407 129.111C135.443 128.287 134.418 127.466 133.373 126.756L133.348 126.745ZM140.43 133.181L141.17 132.542C142.004 133.521 142.815 134.55 143.604 135.629L142.8 136.208C142.037 135.14 141.239 134.148 140.43 133.181ZM145.919 141.083L146.776 140.589C147.405 141.687 148 142.861 148.584 144.061L147.699 144.483C147.115 143.283 146.534 142.145 145.905 141.047L145.919 141.083ZM150.033 149.825L150.946 149.476C151.417 150.656 151.866 151.886 152.329 153.152L151.403 153.465C150.965 152.209 150.505 151.005 150.033 149.825ZM153.201 158.991L154.141 158.715C154.49 159.9 154.866 161.158 155.219 162.467L154.278 162.742C153.914 161.459 153.549 160.176 153.189 159.016L153.201 158.991ZM155.784 168.38L156.739 168.141C157.037 169.303 157.337 170.528 157.682 171.923L156.727 172.162C156.382 170.767 156.093 169.517 155.784 168.38ZM158.098 177.831L159.053 177.591C159.367 178.852 159.67 180.138 159.996 181.373L159.041 181.613C158.727 180.352 158.413 179.091 158.098 177.831ZM160.598 187.273L161.538 186.997C161.926 188.23 162.338 189.474 162.773 190.668L161.835 191.005C161.412 189.786 160.999 188.542 160.598 187.273ZM163.965 196.468L164.863 196.082C165.386 197.284 165.919 198.461 166.464 199.613L165.579 200.035C165.034 198.883 164.487 197.67 163.965 196.468ZM168.303 205.249L169.16 204.754C169.803 205.889 170.494 206.985 171.171 208.044L170.353 208.587C169.651 207.516 168.971 206.395 168.303 205.249ZM173.814 213.373L174.578 212.747C175.39 213.775 176.26 214.74 177.117 215.668L176.392 216.342C175.51 215.403 174.65 214.414 173.814 213.373ZM180.71 220.362L181.32 219.605C182.346 220.427 183.38 221.162 184.436 221.846L183.915 222.672C182.833 221.977 181.76 221.195 180.71 220.362ZM189.56 224.469C190.743 224.938 191.985 225.342 193.222 225.622L192.979 226.573C191.717 226.281 190.449 225.866 189.215 225.375L189.571 224.444L189.56 224.469Z" fill="#3E3E3E"/>
<path d="M198.959 226.406C199.59 226.416 200.258 226.412 200.876 226.385L200.918 227.373C200.239 227.402 199.571 227.406 198.915 227.385L198.934 226.395L198.959 226.406Z" fill="#3E3E3E"/>
<path d="M94.153 123.056C96.5757 126.439 55.6983 153.816 54.1456 151.669C52.6181 149.533 91.7302 119.672 94.153 123.056Z" fill="#3E3E3E"/>
<path d="M51.1335 114.997L84.8633 127.715L74.5797 135.075L48.5422 116.866L51.1335 114.997Z" fill="#3E3E3E"/>
<path d="M87.8708 166.358L86.7455 130.345L76.4619 137.705L85.2794 168.227L87.8708 166.358Z" fill="#3E3E3E"/>
<path d="M59.0625 146.901L48.8653 144.25L46.9935 145.593L54.5724 150.918L59.0625 146.901Z" fill="#3E3E3E"/>
<path d="M60.2336 148.548L59.439 159.061L57.5672 160.403L55.0049 151.508L60.2336 148.548Z" fill="#3E3E3E"/>
<path d="M66.1729 121.171C64.2055 122.593 62.2678 123.27 61.8594 122.694C61.451 122.118 62.7172 120.504 64.6846 119.083C66.652 117.662 68.5897 116.984 68.9981 117.56C69.4065 118.137 68.1403 119.75 66.1729 121.171Z" fill="#3E3E3E"/>
<path d="M71.5909 123.747C69.6235 125.169 67.6858 125.846 67.2774 125.27C66.8689 124.694 68.1352 123.08 70.1026 121.659C72.0699 120.238 74.0076 119.56 74.4161 120.137C74.8245 120.713 73.5582 122.326 71.5909 123.747Z" fill="#3E3E3E"/>
<path d="M87.2822 150.683C85.3149 152.104 84.0486 153.717 84.457 154.294C84.8655 154.87 86.8032 154.192 88.7705 152.771C90.7379 151.35 92.0042 149.736 91.5957 149.16C91.1873 148.584 89.2496 149.262 87.2822 150.683Z" fill="#3E3E3E"/>
<path d="M86.6026 144.754C84.6352 146.175 83.3689 147.789 83.7774 148.365C84.1858 148.941 86.1235 148.263 88.0909 146.842C90.0583 145.421 91.3245 143.807 90.9161 143.231C90.5076 142.655 88.57 143.333 86.6026 144.754Z" fill="#3E3E3E"/>
</svg>
