<svg width="129" height="129" viewBox="0 0 129 129" fill="none" xmlns="http://www.w3.org/2000/svg">
<circle cx="64.2577" cy="64.6132" r="63.371" fill="white" stroke="black"/>
<path d="M55 49.5146L67.6181 42.7422L73 47.1102L67.1857 54.7422L55 49.5146Z" fill="#EB701F"/>
<path d="M60.1285 68.1813C81.8751 74.5397 106.681 81.7422 106.681 81.7422L112 65.8004L106.952 64.1207L99.3389 70.3853C99.3389 70.3853 58.3251 50.0973 43.8149 45.7105C34.3487 42.8479 23.7302 43.1292 19.7948 46.4139C16.1839 49.4279 17.355 55.4112 29.5168 59.1521C32.2999 60.0068 38.775 61.9231 46.8559 64.2976L60.1285 68.1813Z" fill="white"/>
<path d="M48.0824 56.7422L45 84.6844L51.7423 86.7422L63 62.755L48.0824 56.7422Z" fill="#EB701F"/>
<path d="M60.1285 68.1813C81.8751 74.5397 106.681 81.7422 106.681 81.7422L112 65.8004L106.952 64.1207L99.3389 70.3853C99.3389 70.3853 58.3251 50.0973 43.8149 45.7105C34.3487 42.8479 23.7302 43.1292 19.7948 46.4139C16.1839 49.4279 17.355 55.4112 29.5168 59.1521C32.2999 60.0068 38.775 61.9231 46.8559 64.2976" stroke="black" stroke-width="1.5" stroke-miterlimit="10"/>
<path d="M48.0824 56.7422L45 84.6844L51.7423 86.7422L63 62.755L48.0824 56.7422Z" stroke="black" stroke-width="1.5" stroke-miterlimit="10"/>
<path d="M55 49.5146L67.6181 42.7422L73 47.1102L67.1857 54.7422" stroke="black" stroke-width="1.5" stroke-miterlimit="10"/>
</svg>
