<svg width="255" height="177" viewBox="0 0 255 177" fill="none" xmlns="http://www.w3.org/2000/svg">
<path d="M252.066 172.485C250.788 172.273 249.494 172.025 248.22 171.725L248.455 170.78C249.704 171.07 250.988 171.344 252.25 171.521L252.092 172.495L252.066 172.485ZM242.571 170.024C242.389 169.956 242.208 169.889 242.053 169.83C241.017 169.443 239.966 169.02 238.934 168.545L239.325 167.659C240.331 168.124 241.357 168.537 242.366 168.915C242.547 168.983 242.702 169.041 242.884 169.108L242.535 170.04L242.571 170.024ZM287.945 29.9889C287.474 31.1699 286.905 32.3736 286.311 33.5676L285.444 33.125C286.029 31.9569 286.587 30.7791 287.049 29.624L287.981 29.9727L287.945 29.9889ZM289.759 24.3528L288.814 24.1174C289.114 22.8427 289.353 21.5745 289.484 20.3549L290.452 20.4513C290.301 21.7226 290.069 23.0522 289.759 24.3528ZM283.345 38.6546C282.651 39.7226 281.859 40.8132 281.061 41.8424L280.278 41.2542C281.076 40.225 281.832 39.1507 282.517 38.1086L283.345 38.6546ZM290.57 14.535L289.597 14.6134C289.486 13.3325 289.304 12.0841 289.034 10.8325L289.995 10.6312C290.281 11.9184 290.495 13.238 290.596 14.5447L290.57 14.535ZM234.209 165.007L233.714 165.855C232.575 165.192 231.481 164.488 230.397 163.758L230.959 162.965C232.018 163.685 233.112 164.39 234.225 165.042L234.209 165.007ZM277.318 46.4027C276.462 47.3511 275.544 48.306 274.584 49.2157L273.901 48.5175C274.825 47.624 275.743 46.6692 276.59 45.7467L277.318 46.4027ZM270.243 53.1683C269.25 54.0068 268.206 54.8259 267.181 55.5933L266.589 54.8109C267.613 54.0436 268.622 53.2406 269.615 52.4021L270.243 53.1683ZM288.082 5.01725L287.193 5.42224C286.659 4.24844 286.043 3.13292 285.347 2.0757L286.172 1.52844C286.884 2.62124 287.532 3.80786 288.092 4.99134L288.082 5.01725ZM226.383 159.423L225.753 160.161C224.769 159.321 223.788 158.393 222.859 157.485L223.557 156.802C224.461 157.7 225.399 158.583 226.383 159.423ZM262.335 59.0029C261.313 59.6829 260.23 60.3695 259.056 61.1402L258.535 60.3253C259.699 59.5805 260.782 58.894 261.804 58.214L262.351 59.0385L262.335 59.0029ZM282.384 -3.01675L281.702 -2.29819C280.789 -3.17088 279.831 -4.00152 278.792 -4.77385L279.38 -5.55704C280.445 -4.77502 281.481 -3.91532 282.41 -3.00706L282.384 -3.01675ZM254.1 64.2134C252.991 64.8902 251.882 65.5671 250.773 66.244L250.261 65.4033C251.37 64.7265 252.479 64.0496 253.588 63.3727L254.1 64.2134ZM219.718 152.473L218.961 153.075C218.142 152.031 217.359 150.971 216.637 149.904L217.461 149.357C218.157 150.414 218.941 151.474 219.744 152.483L219.718 152.473ZM245.748 69.2622C244.523 70.0136 243.45 70.6743 242.447 71.3025L241.936 70.4619C242.938 69.8336 244.021 69.1471 245.246 68.3958L245.758 69.2364L245.748 69.2622ZM274.27 -8.61976L273.854 -7.74284C272.883 -8.22411 271.857 -8.63746 270.822 -9.02487C270.641 -9.09266 270.485 -9.15079 270.304 -9.21858L270.653 -10.1504C270.808 -10.0923 270.989 -10.0244 271.171 -9.95665C272.232 -9.55955 273.274 -9.11071 274.27 -8.61976ZM214.511 144.387L213.638 144.828C213.042 143.66 212.517 142.461 212.002 141.235L212.907 140.866C213.406 142.056 213.941 143.23 214.511 144.387ZM237.565 74.4922C236.453 75.2563 235.377 76.0043 234.371 76.7199L233.788 75.9117C234.794 75.1961 235.88 74.4222 236.992 73.658L237.539 74.4825L237.565 74.4922ZM211.059 135.394L210.105 135.657C209.749 134.402 209.463 133.115 209.203 131.837L210.164 131.636C210.398 132.904 210.693 134.165 211.033 135.384L211.059 135.394ZM264.746 -10.7672C263.513 -11.0219 262.226 -11.2085 260.929 -11.3693L261.025 -12.3365C262.332 -12.2016 263.636 -11.9794 264.894 -11.7151L264.71 -10.751L264.746 -10.7672ZM229.774 80.2523C228.756 81.0811 227.754 81.9454 226.848 82.7871L226.175 82.063C227.116 81.2052 228.118 80.3408 229.136 79.512L229.764 80.2781L229.774 80.2523ZM209.419 125.898L208.445 125.977C208.344 124.67 208.279 123.347 208.265 122.043L209.245 122.027C209.268 123.304 209.308 124.617 209.419 125.898ZM222.73 86.8528C221.838 87.8174 220.998 88.8013 220.219 89.7788L219.446 89.1647C220.234 88.1614 221.11 87.1613 222.002 86.1967L222.73 86.8528ZM209.516 116.256L208.548 116.159C208.683 114.852 208.88 113.539 209.092 112.261L210.056 112.445C209.827 113.687 209.667 114.984 209.516 116.256ZM216.855 94.5103C216.187 95.5879 215.524 96.727 214.949 97.8692L214.082 97.4267C214.693 96.2682 215.329 95.1195 216.043 93.9998L216.881 94.52L216.855 94.5103ZM211.372 106.799L210.437 106.538C210.795 105.344 211.189 104.134 211.634 102.944L211.692 102.788L212.624 103.137L212.566 103.292C212.14 104.431 211.756 105.615 211.398 106.809L211.372 106.799ZM255.168 -11.6659C253.9 -11.6683 252.602 -11.5929 251.305 -11.5176L251.227 -12.4912C252.534 -12.5924 253.857 -12.658 255.151 -12.646L255.168 -11.6659ZM245.584 -10.7372C244.316 -10.5033 243.055 -10.208 241.81 -9.87719L241.547 -10.8312C242.792 -11.1621 244.089 -11.4735 245.383 -11.6977L245.558 -10.7468L245.584 -10.7372ZM236.322 -8.06504C235.116 -7.60161 233.942 -7.06709 232.784 -6.49696L232.344 -7.36999C233.501 -7.94013 234.711 -8.49089 235.952 -8.97051L236.322 -8.06504ZM227.756 -3.62739C226.673 -2.94085 225.606 -2.21879 224.556 -1.46113L223.999 -2.25964C225.085 -3.0335 226.178 -3.7459 227.261 -4.43243L227.782 -3.61769L227.756 -3.62739ZM219.933 2.06153C218.96 2.84825 217.967 3.68677 216.981 4.58672L216.343 3.84648C217.355 2.95622 218.348 2.11768 219.33 1.30507L219.958 2.07121L219.933 2.06153ZM212.727 8.54257C211.838 9.4198 210.904 10.3391 209.986 11.294L209.268 10.612C210.186 9.65709 211.129 8.71194 212.018 7.83471L212.701 8.53288L212.727 8.54257ZM205.985 15.5214C205.148 16.418 204.291 17.3663 203.37 18.4086L202.642 17.7524C203.563 16.7102 204.419 15.7618 205.257 14.8652L205.985 15.5214ZM199.521 22.7814C198.745 23.6715 197.969 24.5616 197.229 25.4355L196.974 25.7235L196.236 25.0933L196.491 24.8052C197.267 23.9151 198.043 23.0251 198.809 22.1608L199.547 22.7911L199.521 22.7814ZM155.126 60.1996C153.91 60.689 152.652 61.133 151.44 61.535L151.141 60.5971C152.354 60.1952 153.577 59.7673 154.767 59.2683L155.136 60.1738L155.126 60.1996ZM145.751 63.095C144.438 63.3709 143.144 63.595 141.88 63.7415L141.74 62.7744C142.979 62.6183 144.272 62.3941 145.55 62.1344L145.751 63.095ZM135.964 64.0951C134.644 64.0734 133.318 63.9903 132.037 63.865L132.133 62.8978C133.378 63.0392 134.679 63.1127 135.973 63.1247L135.964 64.0951ZM126.21 62.7177C125.275 62.4564 124.308 62.1239 123.402 61.7849C123.091 61.6687 122.781 61.5525 122.47 61.4363L122.819 60.5044C123.129 60.6206 123.44 60.7369 123.751 60.8531C124.657 61.1921 125.572 61.5052 126.481 61.7568L126.22 62.6918L126.21 62.7177ZM117.7 57.9398L117.179 58.778C116.076 58.0995 114.966 57.3596 113.911 56.5517L114.499 55.7684C115.512 56.5311 116.586 57.2872 117.674 57.9301L117.7 57.9398ZM110.23 51.9579L109.532 52.6409C108.638 51.7164 107.764 50.7402 106.909 49.7122L107.676 49.0841C108.504 50.1024 109.362 51.0431 110.23 51.9579ZM104.26 44.4125L103.435 44.9597C102.739 43.9025 102.072 42.7676 101.414 41.6069L102.271 41.1308C102.929 42.2915 103.58 43.3908 104.276 44.4481L104.26 44.4125ZM99.6085 35.9443L98.7193 36.3493C98.175 35.2014 97.6501 34.0017 97.1091 32.7664L98.0145 32.3971C98.5297 33.6226 99.0642 34.7964 99.6085 35.9443ZM95.8757 26.9935L94.954 27.3273C94.5327 26.1664 94.079 24.9343 93.6446 23.6505L94.5662 23.3166C95.0103 24.5746 95.4543 25.8325 95.8854 26.9676L95.8757 26.9935ZM92.712 17.7835L91.7742 18.0817C91.4046 16.9401 91.0285 15.7371 90.5973 14.3659L91.5351 14.0677C91.9663 15.4389 92.3328 16.6678 92.712 17.7835ZM89.8135 8.49566L88.8757 8.79393C88.4834 7.55534 88.1008 6.29081 87.6988 5.07811L88.6366 4.77984C89.0289 6.01843 89.4212 7.25706 89.8135 8.49566ZM86.7306 -0.772642L85.809 -0.438858C85.3456 -1.64505 84.8563 -2.86092 84.3476 -4.02503L85.2627 -4.42032C85.7617 -3.23033 86.251 -2.0144 86.7306 -0.772642ZM82.7973 -9.73952L81.9242 -9.29895C81.3282 -10.4662 80.7225 -11.6077 80.1071 -12.7232L80.964 -13.1993C81.5794 -12.0838 82.2013 -10.9068 82.7973 -9.73952ZM77.9198 -18.2335L77.0953 -17.6862C76.3829 -18.779 75.6252 -19.8297 74.8838 -20.8449L75.6661 -21.4373C76.4335 -20.4125 77.1815 -19.3359 77.9198 -18.2335ZM71.9138 -25.9987L71.1897 -25.3254C70.3157 -26.3016 69.3867 -27.2099 68.4739 -28.0826L69.1559 -28.8012C70.0946 -27.9188 71.0139 -26.9847 71.9138 -25.9987ZM64.5956 -32.5436L64.0333 -31.7507C62.9588 -32.5068 61.8812 -33.1756 60.7842 -33.7926L61.2526 -34.6502C62.3755 -34.0235 63.4952 -33.3095 64.5956 -32.5436ZM55.5068 -36.0919C54.2968 -36.4857 53.0318 -36.8115 51.7798 -37.0143L51.9635 -37.9784C53.2414 -37.7658 54.5322 -37.4304 55.794 -37.0173L55.4971 -36.066L55.5068 -36.0919Z" fill="#3E3E3E"/>
<path d="M157.042 59.1791C154.413 55.9528 193.505 26.0815 195.189 28.1278C196.846 30.1645 159.671 62.4054 157.042 59.1791Z" fill="#EB701F"/>
<path d="M200.48 64.5414L166.023 53.9502L175.828 45.9632L202.95 62.5147L200.48 64.5414Z" fill="#EB701F"/>
<path d="M160.615 15.5704L163.982 51.4435L173.787 43.4565L163.085 13.5437L160.615 15.5704Z" fill="#EB701F"/>
<path d="M190.578 33.1934L200.921 35.2043L202.705 33.7474L194.809 28.9044L190.578 33.1934Z" fill="#EB701F"/>
<path d="M189.308 31.6234L189.446 21.0816L191.23 19.6247L194.342 28.3431L189.308 31.6234Z" fill="#EB701F"/>
<path d="M185.084 59.3172C186.959 57.7761 188.851 56.979 189.294 57.5286C189.738 58.0782 188.574 59.7675 186.699 61.3086C184.824 62.8496 182.933 63.6467 182.489 63.0972C182.046 62.5476 183.209 60.8583 185.084 59.3172Z" fill="#EB701F"/>
<path d="M179.517 57.0828C181.392 55.5418 183.284 54.7447 183.728 55.2942C184.171 55.8438 183.008 57.5332 181.133 59.0742C179.258 60.6153 177.366 61.4124 176.923 60.8628C176.479 60.3132 177.642 58.6239 179.517 57.0828Z" fill="#EB701F"/>
<path d="M162.18 31.1777C164.055 29.6366 165.218 27.9473 164.775 27.3978C164.331 26.8482 162.439 27.6452 160.564 29.1863C158.689 30.7274 157.526 32.4167 157.97 32.9663C158.413 33.5159 160.305 32.7187 162.18 31.1777Z" fill="#EB701F"/>
<path d="M163.227 37.0528C165.102 35.5117 166.265 33.8223 165.821 33.2728C165.378 32.7232 163.486 33.5203 161.611 35.0614C159.736 36.6024 158.573 38.2917 159.017 38.8413C159.46 39.3909 161.352 38.5938 163.227 37.0528Z" fill="#EB701F"/>
</svg>
