<svg width="180" height="180" viewBox="0 0 180 180" fill="none" xmlns="http://www.w3.org/2000/svg">
<circle cx="90" cy="90" r="90" fill="#FAF7F0"/>
<path d="M44.766 154.189C44.71 153.909 44.64 153.594 44.556 153.244C44.472 152.88 44.36 152.565 44.22 152.299C45.018 152.313 45.627 152.285 46.047 152.215C46.467 152.131 46.754 151.984 46.908 151.774C47.062 151.564 47.132 151.277 47.118 150.913C47.118 150.745 47.111 150.402 47.097 149.884C47.083 149.352 47.062 148.701 47.034 147.931C47.006 147.161 46.978 146.349 46.95 145.495C46.264 146.461 45.452 147.378 44.514 148.246C43.59 149.1 42.603 149.877 41.553 150.577C40.517 151.277 39.474 151.879 38.424 152.383C38.298 152.103 38.123 151.816 37.899 151.522C37.675 151.228 37.451 150.99 37.227 150.808C37.969 150.514 38.739 150.129 39.537 149.653C40.335 149.177 41.119 148.645 41.889 148.057C42.673 147.455 43.401 146.825 44.073 146.167C44.745 145.495 45.326 144.816 45.816 144.13C44.92 144.158 44.045 144.186 43.191 144.214C42.351 144.242 41.581 144.27 40.881 144.298C40.181 144.312 39.607 144.333 39.159 144.361C38.711 144.375 38.438 144.389 38.34 144.403L38.214 142.534C38.522 142.548 38.97 142.555 39.558 142.555C40.16 142.541 40.853 142.534 41.637 142.534C42.421 142.52 43.261 142.506 44.157 142.492C45.053 142.464 45.949 142.436 46.845 142.408L46.698 137.809H48.651L48.798 142.345C49.932 142.317 50.961 142.282 51.885 142.24C52.823 142.184 53.53 142.142 54.006 142.114V143.962C53.908 143.948 53.614 143.948 53.124 143.962C52.648 143.962 52.039 143.969 51.297 143.983C50.555 143.997 49.743 144.018 48.861 144.046C48.889 144.844 48.91 145.628 48.924 146.398C48.952 147.168 48.98 147.882 49.008 148.54C49.036 149.198 49.057 149.751 49.071 150.199C49.085 150.647 49.092 150.941 49.092 151.081C49.148 152.271 48.833 153.09 48.147 153.538C47.461 153.972 46.334 154.189 44.766 154.189ZM62.217 153.223L61.125 151.27C62.119 151.032 63.162 150.675 64.254 150.199C65.346 149.709 66.424 149.142 67.488 148.498C68.566 147.854 69.595 147.168 70.575 146.44C71.555 145.698 72.437 144.956 73.221 144.214C74.019 143.472 74.67 142.758 75.174 142.072C75.216 142.226 75.293 142.443 75.405 142.723C75.517 142.989 75.636 143.255 75.762 143.521C75.888 143.773 75.986 143.962 76.056 144.088C75.384 144.928 74.53 145.796 73.494 146.692C72.458 147.588 71.317 148.456 70.071 149.296C68.825 150.122 67.53 150.878 66.186 151.564C64.842 152.25 63.519 152.803 62.217 153.223ZM64.716 143.899C64.562 143.731 64.317 143.514 63.981 143.248C63.659 142.968 63.302 142.688 62.91 142.408C62.518 142.114 62.133 141.848 61.755 141.61C61.391 141.358 61.083 141.176 60.831 141.064L62.133 139.426C62.385 139.566 62.693 139.762 63.057 140.014C63.435 140.266 63.82 140.532 64.212 140.812C64.604 141.092 64.968 141.365 65.304 141.631C65.64 141.897 65.899 142.114 66.081 142.282L64.716 143.899ZM85.758 154.525C85.702 154.399 85.611 154.224 85.485 154C85.359 153.762 85.219 153.531 85.065 153.307C84.925 153.069 84.799 152.894 84.687 152.782C87.235 152.04 89.328 150.955 90.966 149.527C92.618 148.099 93.815 146.391 94.557 144.403C93.913 144.431 93.157 144.466 92.289 144.508C91.421 144.55 90.518 144.599 89.58 144.655C88.656 144.697 87.767 144.739 86.913 144.781C86.059 144.823 85.31 144.858 84.666 144.886C84.036 144.914 83.588 144.942 83.322 144.97L83.154 142.954C83.49 142.968 83.987 142.975 84.645 142.975C85.303 142.961 86.059 142.947 86.913 142.933C87.767 142.905 88.642 142.877 89.538 142.849C90.448 142.821 91.316 142.793 92.142 142.765C92.982 142.723 93.717 142.681 94.347 142.639C94.977 142.597 95.432 142.555 95.712 142.513L96.825 143.185C96.181 145.887 94.942 148.197 93.108 150.115C91.274 152.019 88.824 153.489 85.758 154.525ZM85.254 140.161V138.229C85.87 138.243 86.591 138.257 87.417 138.271C88.257 138.285 89.139 138.292 90.063 138.292C90.959 138.292 91.82 138.285 92.646 138.271C93.486 138.257 94.249 138.243 94.935 138.229V140.161C94.235 140.133 93.486 140.119 92.688 140.119C91.89 140.105 91.015 140.098 90.063 140.098C89.531 140.098 88.964 140.098 88.362 140.098C87.774 140.098 87.207 140.105 86.661 140.119C86.115 140.119 85.646 140.133 85.254 140.161ZM112.029 154.231V144.592C110.881 145.39 109.705 146.125 108.501 146.797C107.311 147.469 106.142 148.057 104.994 148.561C104.854 148.323 104.658 148.036 104.406 147.7C104.168 147.35 103.93 147.077 103.692 146.881C104.868 146.447 106.1 145.887 107.388 145.201C108.676 144.501 109.929 143.717 111.147 142.849C112.379 141.981 113.499 141.078 114.507 140.14C115.515 139.202 116.334 138.278 116.964 137.368L118.644 138.544C118.042 139.328 117.342 140.105 116.544 140.875C115.76 141.645 114.92 142.387 114.024 143.101V154.231H112.029ZM128.367 153.223L127.275 151.27C128.269 151.032 129.312 150.675 130.404 150.199C131.496 149.709 132.574 149.142 133.638 148.498C134.716 147.854 135.745 147.168 136.725 146.44C137.705 145.698 138.587 144.956 139.371 144.214C140.169 143.472 140.82 142.758 141.324 142.072C141.366 142.226 141.443 142.443 141.555 142.723C141.667 142.989 141.786 143.255 141.912 143.521C142.038 143.773 142.136 143.962 142.206 144.088C141.534 144.928 140.68 145.796 139.644 146.692C138.608 147.588 137.467 148.456 136.221 149.296C134.975 150.122 133.68 150.878 132.336 151.564C130.992 152.25 129.669 152.803 128.367 153.223ZM130.866 143.899C130.712 143.731 130.467 143.514 130.131 143.248C129.809 142.968 129.452 142.688 129.06 142.408C128.668 142.114 128.283 141.848 127.905 141.61C127.541 141.358 127.233 141.176 126.981 141.064L128.283 139.426C128.535 139.566 128.843 139.762 129.207 140.014C129.585 140.266 129.97 140.532 130.362 140.812C130.754 141.092 131.118 141.365 131.454 141.631C131.79 141.897 132.049 142.114 132.231 142.282L130.866 143.899Z" fill="#3E3E3E"/>
<path d="M40.1303 104.069V52.1272C40.1879 51.4511 40.5187 48.4951 43.0576 46.2224C45.1361 44.3596 47.4736 44.0647 48.2575 44H134.391C138.879 44 142.519 47.6393 142.519 52.1272V104.069C142.497 106.342 142.475 108.615 142.447 110.88C108.334 110.665 74.2142 110.449 40.1016 110.233C40.1088 108.176 40.1231 106.119 40.1303 104.062V104.069Z" fill="white" stroke="#3E3E3E" stroke-width="2" stroke-linejoin="round"/>
<path d="M103.167 105.615C103.102 107.881 101.261 109.7 98.9741 109.7H83.6763C81.3963 109.7 79.5479 107.881 79.4832 105.615H33V111.872C33 116.36 36.6393 120 41.1272 120H141.523C146.011 120 149.65 116.36 149.65 111.872V105.615H103.167Z" fill="#E0E0E0" stroke="#3E3E3E" stroke-width="2" stroke-linejoin="round"/>
<path d="M96.7872 78.7453C95.4782 78.2706 93.6586 77.8535 91.3139 77.8103C91.3139 77.8103 91.3139 77.8032 91.3139 77.796C91.1197 77.796 90.9543 77.8032 90.7673 77.8032C90.5803 77.8032 90.4077 77.7888 90.2135 77.796C90.2135 77.796 90.2135 77.8031 90.2135 77.8103C87.8689 77.8535 86.0421 78.2706 84.7403 78.7453C77.3035 81.4568 73.2543 89.8357 74.4266 99.7394H107.108C108.28 89.8357 104.231 81.4496 96.7944 78.7453H96.7872Z" fill="#EB701F" stroke="#3E3E3E" stroke-width="2" stroke-linecap="round" stroke-linejoin="round"/>
<path d="M99.6384 66.6207C100.437 61.7242 97.1145 57.1075 92.2179 56.3092C87.3214 55.5109 82.7048 58.8332 81.9064 63.7297C81.1081 68.6263 84.4304 73.2429 89.3269 74.0412C94.2235 74.8395 98.8401 71.5173 99.6384 66.6207Z" fill="white" stroke="#3E3E3E" stroke-width="2" stroke-miterlimit="10"/>
<path d="M126.119 62.6567C125.745 62.5201 125.22 62.405 124.551 62.3906C124.493 62.3906 124.45 62.3906 124.393 62.3906C124.335 62.3906 124.292 62.3906 124.234 62.3906C123.565 62.405 123.04 62.5201 122.666 62.6567C120.53 63.4335 119.372 65.8357 119.71 68.6766H129.075C129.413 65.8357 128.248 63.4335 126.119 62.6567Z" fill="#4CC764" stroke="#3E3E3E" stroke-linecap="round" stroke-linejoin="round"/>
<path d="M124.395 61.341C125.817 61.341 126.97 60.1882 126.97 58.7662C126.97 57.3442 125.817 56.1914 124.395 56.1914C122.973 56.1914 121.82 57.3442 121.82 58.7662C121.82 60.1882 122.973 61.341 124.395 61.341Z" fill="white" stroke="#3E3E3E" stroke-miterlimit="10"/>
<path d="M135.365 52.127H113.422C112.87 52.127 112.422 52.5747 112.422 53.127V68.0142C112.422 68.5665 112.87 69.0142 113.422 69.0142H135.365C135.917 69.0142 136.365 68.5665 136.365 68.0142V53.127C136.365 52.5747 135.917 52.127 135.365 52.127Z" stroke="#3E3E3E" stroke-linecap="round" stroke-linejoin="round"/>
</svg>
