<svg width="105" height="219" viewBox="0 0 105 219" fill="none" xmlns="http://www.w3.org/2000/svg">
<circle opacity="0.1" cx="52.5" cy="166.5" r="52.5" fill="#EB701F"/>
<circle opacity="0.2" cx="53" cy="167" r="24" fill="#EB701F"/>
<path d="M66.75 6.36875C66.75 4.66875 67.225 3.26875 68.175 2.16875C68.4083 1.85208 68.6667 1.68542 68.95 1.66875C69.2333 1.66875 69.4917 1.78542 69.725 2.01875C69.9583 2.25208 70.0667 2.49375 70.05 2.74375C70.0333 2.99375 69.9167 3.27708 69.7 3.59375C69.05 4.34375 68.725 5.30208 68.725 6.46875C68.725 7.20208 68.8583 7.78542 69.125 8.21875C69.3917 8.65208 69.8333 8.86875 70.45 8.86875C70.95 8.86875 71.3167 8.64375 71.55 8.19375C71.8 7.74375 72.0333 6.94375 72.25 5.79375C72.4 5.04375 72.6 4.36875 72.85 3.76875C73.1 3.18542 73.4583 2.71875 73.925 2.36875C74.4083 2.01875 75.0333 1.84375 75.8 1.84375C76.5333 1.84375 77.1583 2.04375 77.675 2.44375C78.2083 2.84375 78.6167 3.36875 78.9 4.01875C79.1833 4.68542 79.325 5.41875 79.325 6.21875C79.325 7.66875 78.9417 8.83542 78.175 9.71875C77.975 10.0521 77.7333 10.2354 77.45 10.2688C77.1833 10.3188 76.9333 10.2354 76.7 10.0188C76.4333 9.80208 76.3083 9.56875 76.325 9.31875C76.3417 9.06875 76.4333 8.77708 76.6 8.44375C77.0833 7.89375 77.325 7.16042 77.325 6.24375C77.325 5.52708 77.175 4.99375 76.875 4.64375C76.5917 4.29375 76.25 4.11875 75.85 4.11875C75.3833 4.11875 75.0417 4.31875 74.825 4.71875C74.6083 5.11875 74.3833 5.84375 74.15 6.89375C73.9667 7.72708 73.725 8.46042 73.425 9.09375C73.125 9.74375 72.7333 10.2438 72.25 10.5938C71.7667 10.9604 71.1417 11.1438 70.375 11.1438C69.225 11.1438 68.3333 10.7021 67.7 9.81875C67.0667 8.95208 66.75 7.80208 66.75 6.36875ZM66.725 19.9428C66.725 18.8428 66.9833 17.8594 67.5 16.9928C68.0333 16.1428 68.7667 15.4678 69.7 14.9678C70.65 14.4844 71.75 14.2428 73 14.2428C74.25 14.2428 75.35 14.4844 76.3 14.9678C77.25 15.4678 77.9833 16.1428 78.5 16.9928C79.0333 17.8594 79.3 18.8428 79.3 19.9428C79.3 21.3428 78.8667 22.5428 78 23.5428C77.7667 23.8594 77.5 24.0011 77.2 23.9678C76.9 23.9511 76.65 23.8011 76.45 23.5178C76.2333 23.2344 76.1417 22.9844 76.175 22.7678C76.2083 22.5511 76.3333 22.2761 76.55 21.9428C77.0167 21.3761 77.25 20.7094 77.25 19.9428C77.25 18.9261 76.875 18.0928 76.125 17.4428C75.375 16.8094 74.3333 16.4928 73 16.4928C71.6833 16.4928 70.65 16.8094 69.9 17.4428C69.15 18.0928 68.775 18.9261 68.775 19.9428C68.775 20.6928 68.9917 21.3511 69.425 21.9178C69.6417 22.2178 69.775 22.4844 69.825 22.7178C69.875 22.9511 69.8 23.2094 69.6 23.4928C69.3833 23.7761 69.1333 23.9344 68.85 23.9678C68.5667 24.0011 68.3 23.8678 68.05 23.5678C67.1667 22.5511 66.725 21.3428 66.725 19.9428ZM67 29.4748C67 28.7248 67.4 28.3498 68.2 28.3498H77.825C78.6083 28.3498 79 28.7415 79 29.5248C79 29.7915 78.9333 30.0248 78.8 30.2248C78.6667 30.4248 78.4167 30.5248 78.05 30.5248H77.125C77.775 30.8581 78.3 31.3581 78.7 32.0248C79.1 32.7081 79.3 33.4415 79.3 34.2248C79.3 35.2415 78.8917 35.7498 78.075 35.7498C77.725 35.7498 77.4667 35.6498 77.3 35.4498C77.15 35.2665 77.0833 35.0581 77.1 34.8248C77.1167 34.7081 77.125 34.5748 77.125 34.4248C77.1417 34.2748 77.15 34.1165 77.15 33.9498C77.15 33.0165 76.8417 32.2248 76.225 31.5748C75.625 30.9248 74.8333 30.5998 73.85 30.5998H68.2C67.4 30.5998 67 30.2248 67 29.4748ZM66.725 44.1225C66.725 43.0225 66.9833 42.0391 67.5 41.1725C68.0333 40.3225 68.775 39.6475 69.725 39.1475C70.675 38.6641 71.775 38.4225 73.025 38.4225C74.275 38.4225 75.3667 38.6641 76.3 39.1475C77.25 39.6475 77.9833 40.3225 78.5 41.1725C79.0333 42.0391 79.3 43.0225 79.3 44.1225C79.3 45.2225 79.0333 46.1975 78.5 47.0475C77.9833 47.9141 77.25 48.5891 76.3 49.0725C75.3667 49.5725 74.275 49.8225 73.025 49.8225C71.775 49.8225 70.675 49.5725 69.725 49.0725C68.775 48.5891 68.0333 47.9141 67.5 47.0475C66.9833 46.1975 66.725 45.2225 66.725 44.1225ZM68.775 44.1225C68.775 45.1391 69.15 45.9641 69.9 46.5975C70.6667 47.2475 71.7083 47.5725 73.025 47.5725C74.3417 47.5725 75.375 47.2475 76.125 46.5975C76.875 45.9641 77.25 45.1391 77.25 44.1225C77.25 43.1058 76.875 42.2725 76.125 41.6225C75.375 40.9891 74.3417 40.6725 73.025 40.6725C71.7083 40.6725 70.6667 40.9891 69.9 41.6225C69.15 42.2725 68.775 43.1058 68.775 44.1225ZM67 54.8996C67 54.1496 67.4 53.7746 68.2 53.7746H83.75C84.5333 53.7746 84.925 54.1496 84.925 54.8996C84.925 55.6496 84.5333 56.0246 83.75 56.0246H68.2C67.4 56.0246 67 55.6496 67 54.8996ZM67 61.7404C67 60.9904 67.4 60.6154 68.2 60.6154H83.75C84.5333 60.6154 84.925 60.9904 84.925 61.7404C84.925 62.4904 84.5333 62.8654 83.75 62.8654H68.2C67.4 62.8654 67 62.4904 67 61.7404Z" fill="#3E3E3E"/>
<path d="M54 173.793C54 172.965 53.3284 172.293 52.5 172.293C51.6716 172.293 51 172.965 51 173.793H54ZM51.4393 176.268C52.0251 176.854 52.9749 176.854 53.5607 176.268L63.1066 166.722C63.6924 166.136 63.6924 165.186 63.1066 164.601C62.5208 164.015 61.5711 164.015 60.9853 164.601L52.5 173.086L44.0147 164.601C43.4289 164.015 42.4792 164.015 41.8934 164.601C41.3076 165.186 41.3076 166.136 41.8934 166.722L51.4393 176.268ZM51 173.793V175.207H54V173.793H51Z" fill="#3E3E3E"/>
<mask id="mask0_170_3813" style="mask-type:alpha" maskUnits="userSpaceOnUse" x="34" y="0" width="27" height="174">
<rect x="34" width="27" height="174" fill="#D9D9D9"/>
</mask>
<g mask="url(#mask0_170_3813)">
<path d="M46.5 324C36.5 308.667 36.5 293.333 46.5 278C56.5 262.667 56.5 247.333 46.5 232C36.5 216.667 36.5 201.333 46.5 186C56.5 170.667 56.5 155.333 46.5 140C36.5 124.667 36.5 109.333 46.5 94C56.5 78.6667 56.5 63.3333 46.5 48C36.5 32.6667 36.5 17.3333 46.5 2C56.5 -13.3333 56.5 -28.6667 46.5 -44C36.5 -59.3333 36.5 -74.6667 46.5 -90C56.5 -105.333 56.5 -120.667 46.5 -136" stroke="#3E3E3E" stroke-width="3"/>
</g>
</svg>
