<?xml version="1.0" encoding="UTF-8"?><svg id="a" xmlns="http://www.w3.org/2000/svg" width="275" height="275" xmlns:xlink="http://www.w3.org/1999/xlink" viewBox="0 0 275 275"><defs><style>.d{mask:url(#b);}.e,.f{fill:#3e3e3e;}.e,.f,.g,.h,.i,.j{stroke-width:0px;}.e,.g{fill-rule:evenodd;}.g{fill:#757575;}.h{fill:#f6f6f6;}.i{fill:#fff;}.j{fill:#ffef16;}</style><mask id="b" x="0" y="0" width="275" height="275" maskUnits="userSpaceOnUse"><g id="c"><circle class="i" cx="137.5" cy="137.5" r="137.5"/></g></mask></defs><circle class="i" cx="137.5" cy="137.5" r="137.5"/><g class="d"><circle class="h" cx="231.25" cy="142.25" r="35.25" transform="translate(53.79 347.73) rotate(-80.78)"/><path class="i" d="M248.26,142.69l-31.14-10.25-5.03,15.28c-.17.53-.36,1.05-.52,1.58-.41,1.38.39,2.58,1.69,3.02,1.75.59,3.51,1.15,5.26,1.73l20.28,6.68c.43.14.88.34,1.33.41,2.56.39,3.05-3.05,3.63-4.8l4.49-13.64h0ZM216.59,147.92c-.88-.29-.43-1.66.45-1.37.88.29.43,1.66-.45,1.37ZM218.05,143.49c-.88-.29-.43-1.66.45-1.37s.43,1.66-.45,1.37ZM219.5,139.07c-.88-.29-.43-1.66.45-1.37.88.29.43,1.66-.45,1.37ZM221.2,149.43c-.88-.29-.43-1.66.45-1.37.88.29.43,1.66-.45,1.37ZM222.65,145.01c-.88-.29-.43-1.66.45-1.37.88.29.43,1.66-.45,1.37ZM224.11,140.59c-.88-.29-.43-1.66.45-1.37.88.29.43,1.66-.45,1.37ZM225.8,150.95c-.88-.29-.43-1.66.45-1.37.88.29.43,1.66-.45,1.37ZM227.26,146.53c-.89-.29-.43-1.66.45-1.37.88.29.43,1.66-.45,1.37ZM228.71,142.1c-.89-.29-.43-1.66.45-1.37.88.29.43,1.66-.45,1.37ZM230.4,152.46c-.89-.29-.43-1.66.45-1.37.88.29.43,1.66-.45,1.37ZM231.86,148.04c-.89-.29-.43-1.66.45-1.37.88.29.43,1.66-.45,1.37ZM233.32,143.62c-.89-.29-.43-1.66.45-1.37s.43,1.66-.45,1.37ZM235.01,153.98c-.89-.29-.43-1.66.45-1.37.88.29.43,1.66-.45,1.37ZM236.46,149.56c-.89-.29-.43-1.66.45-1.37.88.29.43,1.66-.45,1.37ZM237.92,145.14c-.89-.29-.43-1.66.45-1.37.88.29.43,1.66-.45,1.37ZM239.61,155.5c-.89-.29-.43-1.66.45-1.37.88.29.43,1.66-.45,1.37ZM241.07,151.07c-.88-.29-.43-1.66.45-1.37.88.29.43,1.66-.45,1.37ZM242.52,146.65c-.89-.29-.43-1.66.45-1.37s.43,1.66-.45,1.37Z"/><path class="j" d="M248.42,134.69c-.15-.06-.31-.1-.47-.15l-1.77-.58c-.18.55-.34,1.11-.54,1.65-.36.95-1.21,1.42-2.18,1.26-.06,0-.12-.01-.18-.04-.04-.01-.08-.02-.11-.04-.87-.28-1.81-.55-2.08-1.56-.19-.7.11-1.34.32-1.99.09-.26.17-.52.25-.78l-13.15-4.33c-.18.55-.34,1.11-.54,1.65-.36.95-1.21,1.41-2.18,1.26-.06,0-.12-.01-.18-.04-.04,0-.08-.02-.11-.04-.87-.28-1.81-.55-2.08-1.56-.19-.7.11-1.34.32-1.99.09-.26.17-.53.26-.8-.73-.24-1.46-.48-2.2-.7-.75-.22-1.51-.15-2.15.32-.61.44-.82,1.07-1.04,1.74l-1.02,3.09,31.14,10.25,1.21-3.67c.37-1.25-.27-2.51-1.5-2.96Z"/><path class="f" d="M249.71,142.89l1.58-4.79s.02-.06.02-.09c.55-2.02-.52-4.02-2.5-4.71-.62-.22-1.24-.41-1.86-.61l-.32-.1.3-.91c.2-.6.42-1.17.2-1.82-.31-.94-1.22-1.22-2.08-1.48-1.04-.31-2.04.13-2.44,1.16-.2.51-.37,1.03-.54,1.55l-3.83-1.26c-3.1-1.02-6.19-2.08-9.29-3.11l.29-.87c.2-.61.42-1.18.2-1.82-.31-.94-1.22-1.22-2.08-1.48-1.04-.31-2.04.13-2.44,1.16-.19.5-.36,1.01-.53,1.52-.72-.23-1.43-.45-2.15-.67-2.08-.64-4.18.41-4.88,2.47-.49,1.42-.94,2.85-1.41,4.27l-4.87,14.8c-.28.85-.56,1.69-.84,2.54-.51,1.56-.16,3.25,1.15,4.32.58.47,1.25.67,1.93.9l20.71,6.82c1.71.56,3.42,1.14,5.13,1.69,1.6.51,3.34.04,4.36-1.33.47-.64.67-1.45.91-2.19l5.26-15.96h0ZM244.21,129.74c.29-.15,1.21.16,1.44.38.28.26.05.67-.04.96l-1.14,3.47c-.12.36-.21,1.04-.74.91-.35-.11-1.14-.21-1.25-.61-.08-.27.14-.68.23-.94l1.1-3.32c.08-.24.15-.71.41-.84h0ZM226.52,123.92c.29-.15,1.21.16,1.44.38.28.26.05.67-.04.96l-1.14,3.47c-.12.36-.21,1.04-.74.91-.35-.11-1.13-.21-1.25-.61-.08-.27.14-.68.23-.94l1.09-3.32c.08-.24.15-.71.41-.84h0ZM218.59,127.97c.22-.67.43-1.3,1.04-1.74.64-.46,1.41-.54,2.15-.32.74.22,1.47.46,2.2.7-.08.27-.17.53-.26.8-.21.65-.51,1.3-.32,1.99.27,1.01,1.21,1.27,2.08,1.56.04.01.07.03.11.04.07.02.13.03.19.04.96.16,1.82-.3,2.18-1.26.21-.54.36-1.1.55-1.65l13.15,4.33c-.08.26-.16.52-.25.78-.21.65-.51,1.3-.32,1.99.27,1.01,1.21,1.27,2.08,1.56.03.01.07.03.11.04.07.02.13.03.19.04.96.16,1.82-.3,2.18-1.26.21-.54.36-1.1.54-1.65l1.77.58c.15.05.31.1.47.15,1.23.45,1.86,1.7,1.5,2.96l-1.21,3.67-31.14-10.25,1.02-3.09ZM240.14,161.13c-.45-.07-.9-.26-1.33-.41l-20.28-6.68c-1.75-.58-3.51-1.15-5.26-1.73-1.3-.44-2.1-1.64-1.69-3.02.16-.53.35-1.05.52-1.58l5.03-15.28,31.14,10.25-4.49,13.64c-.58,1.75-1.07,5.19-3.62,4.8h0Z"/><path class="i" d="M227.4,126.85l.53-1.6c.1-.29.32-.7.04-.96-.23-.21-1.16-.52-1.45-.38-.26.13-.33.6-.41.84l-1.09,3.32c-.08.25-.31.66-.23.93.12.4.9.5,1.25.61.53.13.62-.55.74-.91l.61-1.87h0Z"/><path class="i" d="M245.09,132.67l.53-1.6c.09-.29.32-.7.04-.96-.23-.21-1.16-.52-1.45-.38-.26.13-.33.6-.41.84l-1.09,3.32c-.08.25-.31.66-.23.94.12.4.91.5,1.25.61.53.13.62-.55.74-.91l.62-1.87Z"/><path class="f" d="M219.96,137.7c-.88-.29-1.34,1.08-.45,1.37.88.29,1.34-1.08.45-1.37Z"/><path class="f" d="M224.56,139.22c-.88-.29-1.34,1.08-.45,1.37.89.29,1.34-1.08.45-1.37Z"/><path class="f" d="M229.16,140.73c-.88-.29-1.34,1.08-.45,1.37.89.29,1.34-1.08.45-1.37Z"/><path class="f" d="M233.77,142.25c-.88-.29-1.34,1.08-.45,1.37.88.29,1.34-1.08.45-1.37Z"/><path class="f" d="M238.37,143.76c-.88-.29-1.34,1.08-.45,1.37.89.29,1.34-1.08.45-1.37Z"/><path class="f" d="M242.98,145.28c-.88-.29-1.34,1.08-.45,1.37.89.29,1.34-1.08.45-1.37Z"/><path class="f" d="M218.5,142.12c-.88-.29-1.34,1.08-.45,1.37.88.29,1.34-1.08.45-1.37Z"/><path class="f" d="M223.1,143.64c-.88-.29-1.34,1.08-.45,1.37.88.29,1.34-1.08.45-1.37Z"/><path class="f" d="M227.71,145.15c-.88-.29-1.34,1.08-.45,1.37.89.29,1.34-1.08.45-1.37Z"/><path class="f" d="M232.31,146.67c-.88-.29-1.34,1.08-.45,1.37.88.29,1.34-1.08.45-1.37Z"/><path class="f" d="M236.92,148.19c-.88-.29-1.34,1.08-.45,1.37.89.29,1.34-1.08.45-1.37Z"/><path class="f" d="M241.53,149.7c-.88-.29-1.34,1.08-.45,1.37.89.29,1.34-1.08.45-1.37Z"/><path class="f" d="M217.05,146.54c-.88-.29-1.34,1.08-.45,1.37.88.29,1.34-1.08.45-1.37Z"/><path class="f" d="M221.65,148.06c-.88-.29-1.34,1.08-.45,1.37.88.29,1.34-1.08.45-1.37Z"/><path class="f" d="M226.25,149.57c-.88-.29-1.34,1.08-.45,1.37.89.29,1.34-1.08.45-1.37Z"/><path class="f" d="M230.86,151.09c-.88-.29-1.34,1.08-.45,1.37.89.29,1.34-1.08.45-1.37Z"/><path class="f" d="M235.46,152.61c-.88-.29-1.34,1.08-.45,1.37.89.29,1.34-1.08.45-1.37Z"/><path class="f" d="M240.07,154.12c-.88-.29-1.34,1.08-.45,1.37.89.29,1.34-1.08.45-1.37Z"/><circle class="h" cx="46.43" cy="143.44" r="35.25"/><path class="i" d="M61.14,150.6c.34,0,.52-.31.74-.54.43-.45.86-.9,1.28-1.35.98-1.03,1.96-2.05,2.94-3.08.2-.21.7-.56.79-.83.09-.27-.1-.32-.36-.48-.3-.19-.74-.54-1.1-.47-.28.05-.63.33-.89.46-1.11.58-2.22,1.16-3.32,1.74-.77.4-1.53.88-2.33,1.22-.7.29-1.18-.16-1.76-.51-.98-.59-1.97-1.18-2.96-1.78-1.61-.97-3.23-1.94-4.84-2.91-.45-.27-.6-.95-.18-1.33.64-.58,1.09-1.44,1.58-2.15,1.94-2.8,3.89-5.6,5.83-8.4.73-1.05,1.47-2.11,2.2-3.17.15-.21.31-.42.44-.63.6-1-.34-2.08-1.39-1.44-.67.47-1.35.94-2.02,1.41-2.86,2-5.72,4-8.58,6-1.25.88-2.5,1.75-3.75,2.62-.6.42-1.43.81-1.76,1.48-.2.4-.77.55-1.15.32-1.76-1.06-3.53-2.12-5.29-3.18-.92-.55-1.85-1.11-2.77-1.67-.63-.38-1.23-.76-1.95-.95-1.46-.38-3.35-.02-3.93,1.56-.62,1.68.67,3.43,2.08,4.23,2.99,1.7,6.09,3.22,9.12,4.83.4.21.54.76.32,1.15-.41.72-.29,1.84-.34,2.64-.12,1.76-.24,3.52-.36,5.27-.23,3.34-.45,6.68-.68,10.02-.04.62-.2,1.36-.12,1.98.16,1.18,1.51,1.07,1.96.19.13-.25.24-.53.35-.79,1.3-2.91,2.61-5.81,3.91-8.72.66-1.47,1.31-2.93,1.97-4.39.29-.65.69-1.34.85-2.01.13-.55.76-.78,1.23-.53,2.96,1.56,5.91,3.13,8.87,4.69.33.1.61.38.64.79.08,1.29.16,2.57.24,3.86.05.76.09,1.51.14,2.26.02.29-.06.82.07,1.08.13.27,1.06.83,1.35.82.31-.01.3-.46.38-.74.39-1.43.78-2.87,1.17-4.3.18-.67.37-1.34.55-2.01.09-.32.3-.7.11-1.01-.33-.54.09-1.27.72-1.27h0Z"/><path class="f" d="M61.23,155.92c.25-.91.5-1.83.75-2.74.11-.41.21-.8.2-1.18.95-.52,1.73-1.64,2.4-2.34,1.14-1.19,2.3-2.37,3.42-3.59.55-.6.84-1.3.51-2.11-.33-.79-1.23-1.23-1.96-1.59-1.42-.69-2.95.53-4.19,1.17-1.3.68-2.6,1.36-3.9,2.04-2.47-1.49-4.94-2.97-7.41-4.46.37-.5.69-1.04,1.02-1.52,1.04-1.5,2.08-3,3.12-4.5,1.8-2.59,3.64-5.16,5.4-7.78,1.59-2.36-.97-5.25-3.46-3.94-.06.02-.11.06-.17.1-.04.02-.06.04-.09.07-4.72,3.3-9.45,6.61-14.17,9.91-.63.44-1.4.88-1.96,1.46-1.48-.89-2.96-1.78-4.43-2.67-1.76-1.06-3.74-2.65-5.81-3.01-1.75-.3-3.68.14-4.82,1.58-1.11,1.41-1.11,3.29-.32,4.85,1.09,2.15,3.45,3.06,5.46,4.13,1.84.98,3.69,1.95,5.53,2.93-.16.67-.15,1.39-.2,2.06-.11,1.59-.22,3.18-.32,4.77-.25,3.65-.49,7.3-.74,10.95-.05.75-.19,1.55-.12,2.3.25,2.73,3.91,3.25,5.1.89,1.26-2.5,2.3-5.14,3.45-7.69.84-1.88,1.68-3.75,2.52-5.63.29-.65.66-1.33.95-2.03,2.6,1.37,5.19,2.75,7.79,4.12.07,1.18.15,2.36.22,3.55.05.82.1,1.64.15,2.46.04.62.05,1.22.45,1.74.44.56,1.43,1.12,2.11,1.32,1.06.31,2.03-.29,2.35-1.3.45-1.42.78-2.88,1.18-4.31h0ZM58.22,159.92c-.29.01-1.22-.55-1.35-.82-.13-.26-.05-.8-.07-1.08-.05-.76-.09-1.51-.14-2.26-.08-1.29-.16-2.57-.24-3.86-.02-.4-.31-.69-.64-.79-2.96-1.56-5.91-3.13-8.87-4.69-.48-.25-1.11-.02-1.23.53-.16.67-.56,1.37-.85,2.02-.66,1.46-1.31,2.93-1.97,4.39-1.3,2.91-2.61,5.81-3.91,8.72-.12.26-.22.53-.35.79-.45.88-1.8.98-1.96-.19-.08-.63.08-1.36.12-1.98.23-3.34.45-6.68.68-10.02.12-1.76.24-3.52.36-5.27.05-.79-.08-1.92.34-2.64.22-.39.08-.94-.32-1.15-3.04-1.61-6.13-3.13-9.12-4.83-1.4-.8-2.7-2.54-2.08-4.23.58-1.58,2.47-1.94,3.93-1.56.72.19,1.32.57,1.95.95.92.55,1.85,1.11,2.77,1.66,1.76,1.06,3.53,2.12,5.29,3.18.38.23.95.08,1.15-.32.34-.67,1.17-1.06,1.76-1.48,1.25-.87,2.5-1.75,3.75-2.62,2.86-2,5.72-4,8.58-6,.67-.47,1.35-.94,2.02-1.41,1.05-.64,1.99.43,1.39,1.44-.13.22-.29.42-.44.63-.73,1.06-1.47,2.11-2.2,3.17-1.94,2.8-3.89,5.6-5.83,8.4-.49.71-.94,1.57-1.58,2.15-.42.38-.27,1.06.18,1.33,1.61.97,3.23,1.94,4.84,2.91.98.59,1.97,1.18,2.96,1.78.58.35,1.06.8,1.76.51.8-.33,1.56-.82,2.33-1.22,1.11-.58,2.22-1.16,3.32-1.74.25-.13.6-.41.89-.46.36-.06.8.28,1.1.47.25.16.45.21.36.48-.1.27-.6.63-.79.83-.98,1.03-1.96,2.05-2.94,3.08-.43.45-.86.9-1.28,1.35-.22.23-.39.54-.74.54-.63,0-1.04.73-.72,1.27.19.31-.02.69-.11,1.01-.18.67-.37,1.34-.55,2-.39,1.43-.78,2.87-1.17,4.3-.08.28-.07.73-.38.74h0Z"/><circle class="h" cx="89.04" cy="62.04" r="35.25"/><path class="i" d="M102.12,60.54l-1.14-3.11c-.04-.1-.07-.2-.11-.31-.03.01-.06.03-.08.04-.15.08-.32.13-.48.19l1.5,4.1c.2-.06.43-.12.6-.17-.01-.05-.05-.11-.07-.15l-.21-.58h0Z"/><path class="i" d="M86.77,46.45l1.1-.4-1.13-3.09-1.1.4,1.13,3.09Z"/><path class="i" d="M102.9,79.51c.62,1.69,3.15.74,2.61-.96-.69-1.65-3.23-.73-2.61.96Z"/><path class="i" d="M86.99,85.35c.62,1.69,3.15.74,2.61-.96-.69-1.65-3.23-.73-2.61.96Z"/><path class="i" d="M79.19,49.22c.37-.13.73-.27,1.1-.4l-1.13-3.08-1.1.4,1.13,3.08Z"/><path class="i" d="M84.64,38.58c-.16.03-.34.12-.49.18l-6.07,2.23c-.43.16-1.71.38-1.52,1.05l1.04,2.85,1.1-.4-.42-1.16c-.12-.34.06-.73.39-.85l5.23-1.92c.34-.12.73.06.85.39l.42,1.16,1.1-.4-.86-2.35c-.14-.39-.24-.88-.78-.77h0Z"/><path class="f" d="M102.23,56.97c-.2-.55-.45-1.08-1.1-1.18-.39-.06-.87.1-1.29.27l-.59-1.61c-.97-2.64-1.86-5.32-2.91-7.93-.56-1.39-1.92-2.33-3.44-2.2-.52.04-.99.24-1.48.41l-2.3.84-2.48-6.77c-.21-.56-.44-1.08-1-1.38-.52-.27-1.06-.23-1.6-.04-2.24.77-4.45,1.63-6.68,2.45-.32.12-.64.22-.95.35-.9.38-1.31,1.22-1.13,2.14,0,.05.02.11.04.17.01.04.02.07.04.1l.75,2.04,1.85,5.03c-.84.31-1.67.62-2.51.93-1.89.7-2.86,2.58-2.17,4.51.36,1.02.74,2.03,1.12,3.04l4.64,12.66c1.14,3.11,2.27,6.22,3.42,9.32.7,1.88,2.56,2.86,4.49,2.18,1.33-.47,2.65-.97,3.97-1.46l12.73-4.67s.07-.03.1-.04c1.52-.67,2.41-2.28,2.01-3.92-.07-.29-.18-.57-.29-.85l-3.16-8.61c.24-.1.47-.2.67-.28.07-.03.14-.06.19-.1,1.22-.73.13-2.56-.22-3.52l-.7-1.9h0ZM76.55,42.04c-.19-.67,1.09-.89,1.52-1.05l6.07-2.23c.16-.06.33-.15.49-.18.54-.1.63.38.78.77l.86,2.35-1.1.4-.42-1.16c-.12-.34-.51-.52-.85-.39l-5.23,1.92c-.34.12-.52.51-.39.85l.42,1.16-1.1.4-1.04-2.85h0ZM86.74,42.95l1.13,3.09-1.1.4-1.13-3.09,1.1-.4ZM83.74,42.04l1.78,4.86c-1.33.49-2.66.97-3.99,1.46l-1.78-4.86,3.99-1.46ZM78.05,46.14l1.1-.4,1.13,3.08c-.37.13-.73.27-1.1.4l-1.13-3.08ZM104.37,72.28c.37,1.1-.11,2.23-1.19,2.67l-14.81,5.43c-1.1.4-2.56,1.23-3.7.58-.88-.5-1.12-1.66-1.45-2.55l-8.14-22.19c-.28-.76-.81-1.73-.73-2.56.14-1.58,1.81-1.91,3.03-2.35l5.71-2.09c3.12-1.14,6.22-2.39,9.38-3.44,1.1-.36,2.21.16,2.64,1.23.1.25.18.5.27.75l6.08,16.59c.97,2.64,2.01,5.27,2.91,7.94h0ZM101.81,61.45l-1.5-4.1c.17-.05.34-.11.48-.19.02-.01.05-.03.08-.04.04.1.07.2.11.31l1.36,3.7s.05.1.07.15c-.17.05-.39.1-.6.17h0Z"/><path class="j" d="M96.84,51.76l-1.47-4.01c-.09-.25-.18-.5-.27-.75-.43-1.07-1.54-1.6-2.64-1.23-3.16,1.05-6.26,2.3-9.38,3.44l-5.71,2.09c-1.22.45-2.89.77-3.03,2.35-.08.83.45,1.81.73,2.56l8.14,22.19c.33.89.57,2.05,1.45,2.55,1.14.65,2.6-.18,3.7-.58l14.81-5.43c1.09-.44,1.56-1.57,1.19-2.67-.9-2.67-1.94-5.3-2.91-7.94l-4.61-12.58h0ZM82.48,58.46l5.78,15.77c.29.8-.95,1.26-1.25.46l-6.61-18.03c-.29-.8.95-1.26,1.25-.46l.83,2.26h0ZM87.58,56.59l5.78,15.77c.29.8-.95,1.26-1.25.46l-6.61-18.03c-.29-.8.95-1.26,1.25-.46l.83,2.26h0ZM92.68,54.72l5.78,15.77c.29.8-.95,1.26-1.25.46l-6.61-18.03c-.29-.8.95-1.26,1.25-.46l.83,2.26h0Z"/><path class="f" d="M80.41,56.66l6.61,18.03c.29.8,1.54.35,1.25-.46l-6.61-18.03c-.29-.8-1.54-.35-1.25.46Z"/><path class="f" d="M85.51,54.79l6.61,18.03c.29.8,1.54.35,1.25-.46l-6.61-18.03c-.29-.8-1.54-.35-1.25.46Z"/><path class="f" d="M90.61,52.92l6.61,18.03c.29.8,1.54.35,1.25-.46l-6.61-18.03c-.29-.8-1.54-.35-1.25.46Z"/><path class="f" d="M87.35,82.32c-1.39.51-2.12,2.1-1.61,3.48.51,1.39,2.1,2.12,3.48,1.61,1.38-.51,2.01-1.95,1.66-3.3,0-.06-.02-.12-.05-.18-.02-.06-.05-.12-.08-.17-.62-1.26-2.04-1.95-3.41-1.45ZM86.99,85.35c-.62-1.69,1.92-2.6,2.61-.96.54,1.7-1.99,2.65-2.61.96Z"/><path class="f" d="M103.27,76.48c-1.38.51-2.12,2.1-1.61,3.48.51,1.39,2.1,2.12,3.49,1.61,1.38-.51,2-1.95,1.66-3.3,0-.06-.02-.12-.05-.18-.02-.06-.05-.12-.08-.17-.62-1.26-2.04-1.95-3.41-1.45ZM102.9,79.51c-.62-1.69,1.92-2.6,2.61-.96.54,1.7-1.99,2.65-2.61.96Z"/><circle class="h" cx="189.08" cy="59.08" r="35.25"/><path class="i" d="M189.37,60.97c-4.68-.34-9.35-.68-14.03-1.01-.39-.03-.72-.38-.69-.78.04-.57.08-1.14.12-1.71,0-.11.02-.22.02-.34l-3.63,10.46,21.46,7.44.14-.41c-.36-.11-.66-.46-.5-.92l3.25-9.38c.16-.46.61-.56.96-.42l.14-.41-7.26-2.52Z"/><path class="f" d="M208.82,49.63c.04-.57.08-1.14.12-1.71.03-.4-.29-.75-.69-.78-2.81-.2-5.63-.41-8.44-.61-6.83-.49-13.65-.99-20.48-1.48-.97-.07-1.94-.14-2.91-.21-.4-.03-.75.29-.78.69-.21,2.97-.43,5.94-.64,8.9h-.03c-.38-.14-.81.07-.94.44l-4.49,12.93c-.13.38.08.81.45.94l30.15,10.46c.38.13.81-.08.94-.45l4.49-12.93c.13-.38-.08-.81-.45-.94l-10.07-3.49c.35.03.7.05,1.04.08.97.07,1.94.14,2.91.21,2.73.2,5.45.39,8.17.59.4.03.75-.29.78-.69.29-3.98.57-7.96.86-11.94ZM196.64,63.49l7.3,2.53-4,11.54-28.76-9.98,3.63-10.46c0,.11-.02.22-.03.34-.04.57-.08,1.14-.12,1.71-.03.4.29.75.69.78,4.68.34,9.35.68,14.03,1.01l7.26,2.52h0ZM198.84,60.18c-6.83-.49-13.66-.99-20.49-1.48-.72-.05-1.44-.1-2.17-.16.27-3.74.54-7.47.81-11.21.02-.32.05-.65.07-.97,6.67.48,13.35.96,20.02,1.45.88.06,1.76.13,2.63.19,0,0,0,0,0,0,2.57.19,5.13.37,7.7.56-.27,3.74-.54,7.47-.81,11.21-.02.32-.05.65-.07.97-2.57-.19-5.14-.37-7.71-.56h0Z"/><path class="j" d="M196.64,63.49l-.14.41c.33.13.58.47.43.9l-3.25,9.38c-.15.43-.55.54-.89.44l-.14.41,7.3,2.53,4-11.54-7.3-2.53h0Z"/><path class="f" d="M196.5,63.9c-.35-.14-.8-.05-.96.42l-3.25,9.38c-.16.46.13.81.5.92.34.1.74,0,.9-.44l3.25-9.38c.15-.43-.1-.77-.43-.9Z"/><path class="i" d="M198.15,58.98c.24-3.3.48-6.6.72-9.9.04-.49.44-.7.82-.66l.03-.43c-.88-.06-1.76-.13-2.63-.19-6.67-.48-13.35-.96-20.02-1.45-.02.32-.05.65-.07.97-.27,3.74-.54,7.47-.81,11.21.72.05,1.45.1,2.17.16,6.83.49,13.66.99,20.49,1.48l.03-.43c-.38,0-.75-.27-.72-.76h0Z"/><path class="j" d="M207.42,48.55c-2.57-.19-5.13-.37-7.7-.56,0,0,0,0,0,0l-.03.43c.35.04.68.3.65.75-.24,3.3-.48,6.6-.72,9.9-.03.46-.39.67-.75.66l-.03.44c2.57.18,5.14.37,7.71.56.02-.32.05-.65.07-.97.27-3.74.54-7.47.81-11.21h0Z"/><path class="f" d="M200.33,49.18c.03-.46-.29-.71-.65-.75-.38-.04-.79.17-.82.66-.24,3.3-.48,6.6-.72,9.9-.03.49.34.75.72.76.36,0,.72-.2.75-.66.24-3.3.48-6.6.72-9.9Z"/><path class="i" d="M186.7,175.78c-44.53,5.57-21.99,69.37-49.12,69.37-39.46-27.34-36.96-44.22-36.96-82.53s9.84-56.2,36.96-56.2,49.12,31.06,49.12,69.37Z"/><path class="g" d="M181.92,132.96c-1.73-4.32-5.08-11.28-9.43-15.99.46-1.06.36-2.32-.78-3.35-5.09-4.62-10.45-7.61-16.22-9.35-4.35-6.65-17.55-4.7-23.84-1.33-.07.04-.12.09-.19.13-5.92.79-12.95,2.66-14.39,7.63-.06.04-.12.07-.19.12-12.55,9.62-22.24,29.36-19.22,45.37.61,3.23,4.54,2.88,5.91.63.78,2.78,5.43,3.49,6.32.03,2.71-10.52,6.5-20.45,11.37-30.06,1.77,3.83,4.52,7,6.91,10.51,2.38,3.46,8.07.19,5.67-3.31-2.23-3.26-5.11-6.28-6.68-9.95,5.08,4.57,11.2,7.45,17.64,10.13,6.53,2.71,16.91,5.3,20.11,12.32.65,1.41,1.82,1.85,2.96,1.66,2.16,9.24,6.54,25.09-.15,32.42-.12.13-.21.28-.31.42-3.21-.7-5.62,4.12-2.31,6.05,16.56,9.63,21-13.15,21.86-24.82.73-9.93-1.37-20.03-5.05-29.23h0Z"/><path class="e" d="M112.26,272.85c-.58-.95-1.23-1.52-1.2-2.05.06-1.05.44-2.1.77-3.12,2.08-6.31,4.21-12.6,6.28-18.9,1.14-3.48,1.12-3.49,5.39-4.26,1.33-3.27,1.35-6.86,1.98-10.68-1.12-.59-2.17-1.6-3.23-1.62-3.88-.08-7.39-1.54-10.9-2.79-2.6-.92-4.84-.87-7.24.3-4.19,2.05-8.52,3.83-12.61,6.05-4.65,2.54-8.12,6.49-11.26,10.67-.94,1.25-1.48,2.86-1.99,4.38-2.12,6.35-3.07,12.91-3.27,19.58-.06,1.85-.19,1.91-2.93,2.35-.17-1.02-.5-2.05-.47-3.07.19-7.61,1.36-15.08,4.36-22.09,2.85-6.68,8.06-11.41,14.31-14.88,4.08-2.26,8.41-4.07,12.64-6.04,1.94-.91,3.92-1.75,6.24-2.77-3.21-3.07-7.03-4.72-10.35-7.38-.33-1.02-.54-2.29-1.12-3.36-4.86-8.93-5.3-18.53-4.33-28.32.48-4.9,1-5.48,5.33-8.04-.4-1.48-.79-3.03-1.26-4.55-1.7-5.54-2.62-11.26-2.49-17,.19-8.31,1.87-16.41,5.23-24.09,1.15-2.63,2.42-5.22,3.59-7.84,2.3-5.16,5.6-9.63,9.51-13.65,1.1-1.14,2.47-2.53,3.88-2.74,2.5-.38,4.11-1.82,5.95-3.2,5.07-3.81,11.06-4.99,17.21-5.59,5.31-.51,10.37.37,15.26,2.49,8.66,3.74,15.62,9.48,20.77,17.4,5.48,8.42,8.85,17.66,10.62,27.48,1.44,7.99,1.96,16.07,1.48,24.18-.13,2.14-.52,4.27-.91,6.39-1.11,6.12-5.05,10.23-9.99,13.46-2.6,1.7-5.52,2.55-8.69,1.32-.99-.38-2.09-.49-3.4-.78-2.45,2.03-3.81,5.02-5.7,7.57-.37.5-.35,1.39-.31,2.09.49,7.93,2.89,14.82,10.45,18.82,3.17,1.68,6.34,3.37,9.56,4.93,4.53,2.19,9.13,4.21,13.65,6.42,5.49,2.68,9.39,7.17,13.08,11.85.76.97,1.25,2.19,1.7,3.35,3.18,8.33,4.61,16.97,4.33,25.88-.01.51-.27,1.02-.4,1.5-2.45.06-2.81-.14-2.94-1.82-.29-3.75-.59-7.51-.81-11.27-.24-4.18-1.59-8.1-2.85-12.03-.43-1.35-1.1-2.7-1.98-3.8-3.83-4.79-7.93-9.25-13.77-11.76-5.09-2.19-10.05-4.69-15.4-7.2-.98,2.05-2.33,3.24-4.19,4.05-6.48,2.81-13.26,4.46-20.21,5.52-.87.14-1.74.29-2.82.47-.95,4.66-.78,9.28-.85,13.65,3.64,2.92,3.58,2.92,3.96,7.3.28,3.24.45,6.43-.21,9.65-.24,1.18.16,2.49.17,3.74,0,1.03.18,2.2-1.07,2.74-.82.36-1.52-.71-1.66-2.79-.09-1.43-.04-2.87-.01-4.3.05-2.7.19-5.39.17-8.08,0-1.23-.3-2.45-.46-3.7-1.16-.45-2.12-1.02-3.16-1.2-7.22-1.29-14.45-2.5-21.63-3.73-1.66,1.4-1.96,3.23-2.52,4.89-1.94,5.79-3.8,11.6-5.74,17.39-.26.78-.83,1.47-1.52,2.64h-.01ZM164.1,185.75c3.24,1.46,5.79,2.1,8.57,1.53,5.44-1.11,8.92-4.57,10.86-9.5.97-2.46,1.37-5.22,1.57-7.88.58-7.93.03-15.83-1.36-23.64-1.72-9.65-5-18.73-10.45-26.96-4.27-6.46-10.04-11.09-16.84-14.75-10.6-5.7-26.91-3.36-33.96,3.71-.71.71-1.77,1.48-2.68,1.5-2.27.06-3.63,1.39-4.98,2.84-2.58,2.77-5,5.67-6.7,9.08-1.44,2.9-2.79,5.84-4.25,8.72-3.82,7.53-5.28,15.62-5.72,23.94-.05,1.01-.27,2.18.84,2.89,4.41-2.4,5.94-2.45,8.66-.13,1.07.91,1.51,2.02.14,3.42-.84-.52-1.68-1.15-2.62-1.59-1.61-.75-3.36-.19-4.13,1.38-.46.95-.85,2.02-.91,3.06-.25,4.57,2.05,7.82,5.64,10.32.9.63,1.67.35,2.19-.55-.18-1.8-.39-3.56-.51-5.34-.01-.2.44-.55.73-.63.3-.08.83,0,.96.19.48.74,1.07,1.51,1.19,2.34.45,3.17,2.56,5.29,5.08,6.42,2.87,1.29,4.12,3.39,4.76,6.06.59,2.43.85,4.95,1.17,7.44.19,1.42.16,2.87.33,4.3.23,1.89,1.18,3.28,2.89,4.28,5.91,3.46,12.21,5.28,19.08,4.45,4.95-.6,9.39-2.48,12.71-6.35,1.98-2.31,3.71-4.81,5.63-7.33-1.83-3.58-.65-6.38,1.86-8.85.38-.38.71-.81,1.05-1.23,2.62-3.18,3.75-6.74,3.77-10.94.02-5.11-.92-10.01-2.06-14.9-1.29-5.53-4.77-9.61-9.38-12.71-2.68-1.8-5.48-3.44-8.26-5.09-4.47-2.66-8.97-5.28-13.47-7.9-3.19-1.86-5.44-4.65-7.62-7.53-.42-.56-.75-1.27-.84-1.95-.05-.4.39-.94.75-1.28.19-.18.76-.23.99-.08.57.39,1.14.85,1.52,1.41,2.28,3.31,5.1,6.01,8.61,8,2.96,1.69,5.86,3.5,8.78,5.26,4,2.41,8.05,4.75,11.98,7.27,4.72,3.03,8.09,7.22,9.4,12.71,1.12,4.7,1.97,9.49,2.53,14.29.76,6.59-1.16,12.41-5.84,17.27-.67.69-.97,1.75-1.64,3h.01ZM98.09,182.1c-1.93,3.49-2.73,7.24-2.29,11.17.26,2.32.44,4.65.82,6.95.35,2.11.72,4.26,1.42,6.28,2.8,8.15,3.1,8.41,10.27,12.79,5.51,3.37,10.96,6.83,16.46,10.22,2.55,1.57,3.78,3.7,3.17,6.76-.38,1.93-.69,3.89-.91,5.85-.13,1.19-.02,2.4-.02,3.82,1.9.43,3.62.87,5.36,1.19,1.76.32,3.54.56,5.32.76,1.71.19,3.45.69,5.08.15.4-3.24.54-20.64.21-22.89-.54-3.66-1.9-6.93-4.79-9.36-1.78-1.5-3.54-3.16-5.58-4.18-4.01-1.99-6.81-5.25-9.56-8.53-2.07-2.48-3.55-5.41-3.98-8.72-.32-2.49-.48-5-.87-7.47-.33-2.11-.82-4.21-1.4-6.26-.13-.46-.95-.72-1.86-1.36-1.4,7.9-1.2,15.15.76,22.35.33,1.21.89,2.38,1.05,3.61.06.48-.61,1.12-1.08,1.54-.1.09-1.06-.4-1.14-.74-1.01-4.17-2.31-8.33-2.76-12.57-.47-4.44-.07-8.96-.11-13.44-.01-1.05-.18-2.11-.39-3.15-.05-.23-.52-.5-.82-.53-.29-.03-.81.15-.89.37-.48,1.32-1.1,2.65-1.23,4.03-.75,7.94,0,15.77,2.01,23.48.26.98.38,1.99.69,3.61-1.18-.37-2.02-.37-2.28-.76-.57-.88-1.01-1.91-1.23-2.94-1.24-5.79-2.6-11.57-2.28-17.57.14-2.51.23-5.02.33-7.53.06-1.41-.54-2.41-1.97-2.93-1.7,1.06-2.05,2.71-2.08,4.59-.19,9.22.51,18.29,4.29,26.87.14.32.35.72.27,1.01-.13.48-.38,1.09-.76,1.29-.37.19-1.18.1-1.43-.19-.57-.66-1.09-1.46-1.31-2.29-1-3.81-2.1-7.62-2.77-11.49-.78-4.56-1.15-9.18-1.71-13.78h0ZM155.76,201.28c-4.39,2.51-8.64,4.29-13.35,4.85-4.66.55-8.96-1.35-13.75-2.12,1.51,2.99,3.75,4.38,6.14,5.71,6.78,3.75,10.66,9.47,11.32,17.26.1,1.21.11,2.43.16,3.73,4.72,1.3,8.92-.25,12.97-1.31,4.26-1.11,8.63-2.38,12.43-5.47-1.69-1.16-3.17-2.15-4.62-3.18-5.5-3.9-9.45-8.77-10.14-15.79-.11-1.17-.71-2.29-1.15-3.68h0ZM114.34,227.1c-.08-.1-.13-.27-.24-.3-.13-.04-.29.01-.44.03.1.16.19.35.31.48.03.03.24-.13.36-.2h0Z"/><path class="e" d="M188.97,273c-.81-.48-1.77-.72-2.09-1.31-.39-.72-.3-1.74-.32-2.63-.14-4.84-.26-9.68-.33-14.53-.01-.67.26-1.37.52-2,.11-.25.57-.48.88-.49.3-.01.71.18.89.42.3.42.64.94.65,1.43.16,5.75.27,11.5.36,17.24,0,.5-.3,1-.57,1.86Z"/><path class="e" d="M92.41,272.51c-.88.34-1.81.54-2.14-.64-.23-.85-.22-1.77-.22-2.67,0-3.78-.06-7.55.08-11.32.03-.94.7-1.86,1.3-3.34.81,1.16,1.49,1.77,1.68,2.5.4,1.58-.27,13.4-.7,15.47h0Z"/><path class="e" d="M130.17,193.67c0-1.74-.28-2.61.04-3.01,4.57-5.7,14.09-7.21,19.35-1.09.23.27.59.54.64.85.07.48.1,1.14-.16,1.46-.26.31-.91.39-1.39.39-.31,0-.68-.28-.91-.53-1.78-1.94-3.82-2.99-6.59-3.08-3.07-.1-5.62.82-8,2.57-.7.51-1.35,1.11-2.98,2.45h0Z"/><path class="e" d="M130.71,136.27c-.66.44-1.07.91-1.5.94-.47.04-1.07-.23-1.44-.55-3.12-2.76-5.58-6.03-7.13-9.92-.25-.64-.37-1.4-.29-2.07.05-.43.49-1.01.89-1.15.38-.13,1.03.11,1.37.4.38.32.64.87.77,1.36,1,3.57,2.94,6.48,5.89,8.76.63.48.92,1.4,1.43,2.23h0Z"/><path class="e" d="M116.73,151.04c2.36,0,4.67.2,6.92-.06,2.26-.26,4.46-.97,6.63-1.48.96.64,1.32,1.67.42,2.18-4.01,2.28-8.31,2.96-12.83,1.75-.54-.14-.53-.18-1.14-2.39h0Z"/><path class="e" d="M153.72,151.71c-3.49.03-5.78-.32-7.78-1.6-.45-.29-.57-1.18-.65-1.82-.01-.13.97-.66,1.28-.52,3.62,1.63,7.25,1.34,10.93.25.37-.11,1.31.37,1.31.56-.01.6-.2,1.57-.59,1.72-1.8.7-3.68,1.17-4.49,1.41Z"/><path class="e" d="M127.37,162.8c-.95,0-1.71-1.02-1.65-2.23.06-1.21.86-2.07,1.9-2.04,1.07.04,1.57.82,1.72,1.66.23,1.24-.91,2.6-1.97,2.61Z"/><path class="e" d="M151.77,158.08c.27.51.87,1.19.96,1.93.17,1.35-1.17,2.67-2.18,2.19-.67-.32-1.35-1.14-1.53-1.87-.26-1.06,1.23-2.35,2.75-2.25h0Z"/><path class="e" d="M137.55,177.52c.26-.6.31-1.04.54-1.2,1.05-.73,2.66-.63,3.43.21.19.21.24.69.16.99-.29,1.02-1.14,1.45-2.05,1.22-.76-.19-1.42-.81-2.08-1.22Z"/></g></svg>