<svg width="133" height="106" viewBox="0 0 133 106" fill="none" xmlns="http://www.w3.org/2000/svg">
<mask id="mask0_170_1938" style="mask-type:luminance" maskUnits="userSpaceOnUse" x="19" y="9" width="95" height="88">
<path d="M21.5161 91.841C51.4048 107.732 81.2935 73.2827 111.182 89.1707C112.463 89.8503 113.499 89.4778 113.501 88.2068V17.7337C113.501 16.4652 112.463 14.779 111.182 14.0995C81.2935 -1.79105 51.4048 32.6578 21.5161 16.7698C20.2374 16.0928 19.1973 16.4627 19.1973 17.7337V88.2068C19.1973 89.4753 20.2349 91.1615 21.5161 91.841Z" fill="white"/>
</mask>
<g mask="url(#mask0_170_1938)">
<path d="M111.328 8.45996H21.5879V97.2624H111.328V8.45996Z" fill="#F6F5F4"/>
<path d="M79.9687 62.9948L95.8403 51.2794L91.2432 49.2258L93.2931 40.4877L84.4034 42.1286L82.5412 37.4802L74.9403 46.3064L75.0265 45.8232L77.9264 29.467L72.4667 31.8554L66.6848 22.2969L60.9055 31.8554L55.4432 29.467L58.3431 45.8232L58.4293 46.3064L50.8309 37.4802L48.9687 42.1286L40.079 40.4877L42.1264 49.2258L37.5293 51.2794L53.4035 62.9948L51.587 68.1817L65.1093 65.9091L63.8535 79.7209H70.0159L68.7702 65.9972L81.7826 68.2069L79.9687 62.9948Z" fill="#C91E1D"/>
<path d="M116.401 8.67871H98.0664V97.4812H116.401V8.67871Z" fill="#C91E1D"/>
<path d="M34.8528 8.67871H16.2539V97.4812H34.8528V8.67871Z" fill="#C91E1D"/>
</g>
</svg>
