<?xml version="1.0" encoding="UTF-8"?><svg id="a" xmlns="http://www.w3.org/2000/svg" width="275" height="275" xmlns:xlink="http://www.w3.org/1999/xlink" viewBox="0 0 275 275"><defs><style>.d{mask:url(#b);}.e{fill:#757575;}.e,.f,.g,.h,.i,.j,.k{stroke-width:0px;}.f{fill:#c9caca;}.g{fill:#3e3e3e;}.h{fill:#65afb3;}.i{fill:#f6f6f6;}.j{fill:#fff;}.k{fill:#ffef16;}</style><mask id="b" x="0" y="0" width="275" height="308.15" maskUnits="userSpaceOnUse"><g id="c"><circle class="j" cx="137.5" cy="137.5" r="137.5"/></g></mask></defs><circle class="j" cx="137.5" cy="137.5" r="137.5"/><g class="d"><circle class="i" cx="81" cy="87" r="53"/><path class="j" d="M118.69,73.99l-58.47,5.51,2.46,26.11,58.47-5.51-2.46-26.11Z"/><path class="g" d="M62.52,106.6c-.17-.03-.34-.1-.48-.22-.2-.17-.33-.41-.36-.67l-2.46-26.11c-.05-.55.35-1.03.9-1.09l9.24-.87c.55-.05,1.03.35,1.09.9.05.55-.35,1.03-.9,1.09l-8.25.77,2.27,24.12,40.41-3.8c.55-.05,1.03.35,1.09.9.05.55-.35,1.04-.9,1.09l-41.41,3.9c-.09,0-.17,0-.25,0Z"/><path class="g" d="M108.86,102.24c-.44-.07-.79-.43-.83-.89-.05-.55.35-1.03.9-1.09l11.13-1.05-2.27-24.12-43.69,4.11c-.55.05-1.03-.35-1.09-.9-.05-.55.35-1.03.9-1.09l44.69-4.21c.26-.02.53.06.73.22.2.17.33.41.36.67l2.46,26.11c.02.26-.06.53-.22.73-.17.2-.41.33-.68.36l-12.13,1.14c-.09,0-.17,0-.25,0h0Z"/><path class="k" d="M114.81,78.46l-49.95,4.7,1.69,17.97,49.95-4.7-1.69-17.97Z"/><path class="h" d="M66.23,101.54l-1.76-18.7,50.68-4.77,1.76,18.7-50.68,4.77ZM65.26,83.5l1.62,17.25,49.22-4.63-1.62-17.25-49.22,4.63Z"/><path class="k" d="M66.4,102.12c-.44-.07-.79-.43-.83-.89l-1.69-17.98c-.02-.26.06-.53.22-.73.17-.2.41-.33.67-.36l49.95-4.7c.55-.05,1.03.35,1.09.9l1.69,17.98c.02.26-.06.53-.22.73-.17.2-.41.33-.68.36l-49.95,4.7c-.09,0-.17,0-.25,0ZM65.95,84.07l1.5,15.99,47.96-4.51-1.5-15.99-47.96,4.51Z"/><path class="j" d="M91.27,96.03c3.17-.3,5.48-3.33,5.15-6.77-.32-3.44-3.16-5.98-6.32-5.69-3.17.3-5.48,3.33-5.15,6.77.32,3.44,3.16,5.98,6.32,5.69Z"/><path class="j" d="M106.55,58l-56.84,14.75,6.59,25.39,56.84-14.75-6.59-25.39Z"/><path class="g" d="M56.29,99.14c-.18,0-.35-.05-.51-.14-.23-.13-.39-.35-.46-.61l-6.59-25.39c-.14-.53.18-1.08.72-1.22l8.98-2.33c.54-.14,1.08.18,1.22.72.14.53-.18,1.08-.72,1.22l-8.02,2.08,6.08,23.45,39.29-10.19c.53-.14,1.08.18,1.22.72.14.53-.18,1.08-.72,1.22l-40.26,10.45c-.08.02-.17.03-.25.03h0Z"/><path class="g" d="M101.34,87.44c-.44,0-.85-.3-.97-.75-.14-.53.18-1.08.72-1.22l10.83-2.81-6.08-23.45-42.48,11.02c-.53.14-1.08-.18-1.22-.72-.14-.53.18-1.08.72-1.22l43.45-11.27c.26-.07.53-.03.76.11.23.13.4.35.46.61l6.59,25.39c.07.26.03.53-.11.76-.14.23-.35.39-.61.46l-11.79,3.06c-.08.02-.17.03-.25.03h0Z"/><path class="k" d="M103.44,63.02l-48.57,12.61,4.54,17.47,48.57-12.61-4.54-17.47Z"/><path class="f" d="M59.15,93.55l-4.72-18.18,49.27-12.79,4.72,18.18-49.27,12.79ZM55.32,75.89l4.35,16.77,47.86-12.42-4.35-16.77-47.86,12.42Z"/><path class="k" d="M59.41,94.11c-.44,0-.85-.3-.97-.75l-4.53-17.48c-.07-.26-.03-.53.11-.76.13-.23.35-.39.61-.46l48.57-12.6c.54-.14,1.08.18,1.22.72l4.54,17.48c.07.26.03.53-.11.76-.14.23-.35.39-.61.46l-48.57,12.6c-.08.02-.17.03-.25.03ZM56.09,76.35l4.03,15.55,46.63-12.1-4.03-15.55-46.63,12.1Z"/><path class="j" d="M83,84.12c3.08-.8,4.87-4.16,4.01-7.5-.87-3.34-4.07-5.41-7.15-4.61-3.08.8-4.87,4.16-4.01,7.5.87,3.34,4.07,5.41,7.15,4.61Z"/><path class="j" d="M59.75,101.46c-2.1-.86-5.08-1.39-8.38-1.39s-6.29.54-8.39,1.39h-3.12v3.02c0,2.44,5.15,4.41,11.5,4.41s11.5-1.97,11.5-4.41v-3.02h-3.12Z"/><path class="g" d="M51.37,109.19c-6.62,0-11.8-2.07-11.8-4.71v-3.32h3.36c2.23-.9,5.22-1.39,8.44-1.39s6.21.49,8.44,1.39h3.36v3.32c0,2.64-5.19,4.71-11.8,4.71ZM40.16,101.76v2.72c0,2.23,5.13,4.12,11.2,4.12s11.2-1.89,11.2-4.12v-2.72h-2.88l-.06-.02c-2.13-.87-5.15-1.37-8.27-1.37s-6.14.5-8.27,1.37l-.06.02h-2.88Z"/><path class="g" d="M51.36,109.46c-6.88,0-12.06-2.14-12.06-4.98v-3.02c0-.31.25-.56.56-.56h3.01c2.26-.9,5.26-1.39,8.49-1.39s6.24.49,8.49,1.39h3.01c.31,0,.56.25.56.56v3.02c0,2.84-5.19,4.98-12.06,4.98ZM40.42,102.02v2.46c0,1.82,4.49,3.85,10.94,3.85s10.94-2.03,10.94-3.85v-2.46h-2.56c-.07,0-.15-.01-.21-.04-2.1-.86-5.08-1.35-8.17-1.35s-6.07.5-8.17,1.35c-.07.03-.14.04-.21.04h-2.56Z"/><path class="g" d="M51.36,109.76c-7.16,0-12.36-2.22-12.36-5.27v-3.02c0-.47.39-.86.86-.86h2.95c2.28-.9,5.32-1.39,8.55-1.39s6.27.49,8.55,1.39h2.95c.47,0,.86.39.86.86v3.02c0,3.06-5.2,5.27-12.36,5.27ZM39.86,101.2c-.15,0-.26.12-.26.26v3.02c0,2.62,5.17,4.68,11.76,4.68s11.76-2.06,11.76-4.68v-3.02c0-.14-.12-.26-.26-.26h-3.06l-.05-.02c-2.22-.89-5.2-1.37-8.38-1.37s-6.16.49-8.38,1.37l-.05.02h-3.07ZM51.36,108.64c-6.09,0-11.24-1.9-11.24-4.15v-2.76h2.86s.07,0,.1-.02c2.14-.88,5.16-1.37,8.28-1.37s6.15.5,8.28,1.37c.03.01.07.02.1.02h2.86v2.76c0,2.25-5.15,4.15-11.24,4.15h0ZM40.72,102.32v2.16c0,1.48,4.05,3.55,10.64,3.55s10.64-2.07,10.64-3.55v-2.16h-2.26c-.11,0-.22-.02-.33-.06-2.07-.84-5.01-1.33-8.06-1.33s-5.99.48-8.06,1.33c-.1.04-.21.06-.33.06h-2.26,0Z"/><path class="j" d="M59.75,97.76c-2.1-.86-5.08-1.39-8.38-1.39s-6.29.54-8.39,1.39h-3.12v3.02c0,2.44,5.15,4.41,11.5,4.41s11.5-1.98,11.5-4.41v-3.02h-3.12Z"/><path class="g" d="M51.37,105.5c-6.62,0-11.8-2.07-11.8-4.72v-3.32h3.36c2.23-.9,5.22-1.39,8.44-1.39s6.21.49,8.44,1.39h3.36v3.32c0,2.64-5.19,4.72-11.8,4.72ZM40.16,98.06v2.72c0,2.23,5.13,4.12,11.2,4.12s11.2-1.89,11.2-4.12v-2.72h-2.88l-.06-.02c-2.13-.87-5.15-1.37-8.27-1.37s-6.14.5-8.27,1.37l-.06.02h-2.88Z"/><path class="g" d="M51.36,105.76c-6.88,0-12.06-2.14-12.06-4.98v-3.02c0-.31.25-.56.56-.56h3.01c2.26-.9,5.26-1.39,8.49-1.39s6.24.49,8.49,1.39h3.01c.31,0,.56.25.56.56v3.02c0,2.84-5.19,4.98-12.06,4.98ZM40.42,98.32v2.46c0,1.82,4.49,3.85,10.94,3.85s10.94-2.03,10.94-3.85v-2.46h-2.56c-.07,0-.15-.01-.21-.04-2.1-.86-5.08-1.35-8.17-1.35s-6.07.49-8.17,1.35c-.07.03-.14.04-.21.04h-2.56Z"/><path class="g" d="M51.36,106.06c-7.16,0-12.36-2.22-12.36-5.28v-3.02c0-.47.39-.86.86-.86h2.95c2.28-.9,5.32-1.39,8.55-1.39s6.27.49,8.55,1.39h2.95c.47,0,.86.39.86.86v3.02c0,3.06-5.2,5.28-12.36,5.28ZM39.86,97.5c-.15,0-.26.12-.26.26v3.02c0,2.62,5.17,4.68,11.76,4.68s11.76-2.05,11.76-4.68v-3.02c0-.15-.12-.26-.26-.26h-3.06l-.05-.02c-2.22-.89-5.2-1.37-8.38-1.37s-6.16.49-8.38,1.37l-.05.02h-3.07ZM51.36,104.93c-6.09,0-11.24-1.9-11.24-4.15v-2.76h2.86s.07,0,.1-.02c2.14-.88,5.16-1.37,8.28-1.37s6.15.5,8.28,1.37c.03.01.07.02.1.02h2.86v2.76c0,2.25-5.15,4.15-11.24,4.15h0ZM40.72,98.62v2.16c0,1.48,4.05,3.56,10.64,3.56s10.64-2.07,10.64-3.56v-2.16h-2.26c-.11,0-.22-.02-.33-.07-2.07-.84-5.01-1.33-8.06-1.33s-5.99.48-8.06,1.33c-.1.04-.21.07-.33.07h-2.26,0Z"/><path class="j" d="M59.75,94.06c-2.1-.86-5.08-1.39-8.38-1.39s-6.29.54-8.39,1.39h-3.12v3.02c0,2.44,5.15,4.41,11.5,4.41s11.5-1.97,11.5-4.41v-3.02h-3.12Z"/><path class="g" d="M51.37,101.79c-6.62,0-11.8-2.07-11.8-4.72v-3.32h3.36c2.23-.9,5.22-1.39,8.44-1.39s6.21.49,8.44,1.39h3.36v3.32c0,2.64-5.19,4.72-11.8,4.72ZM40.16,94.36v2.72c0,2.23,5.13,4.12,11.2,4.12s11.2-1.89,11.2-4.12v-2.72h-2.88l-.06-.02c-2.13-.87-5.15-1.37-8.27-1.37s-6.14.5-8.27,1.37l-.06.02h-2.88Z"/><path class="g" d="M51.36,102.06c-6.88,0-12.06-2.14-12.06-4.98v-3.02c0-.31.25-.56.56-.56h3.01c2.26-.9,5.26-1.39,8.49-1.39s6.24.49,8.49,1.39h3.01c.31,0,.56.25.56.56v3.02c0,2.84-5.19,4.98-12.06,4.98ZM40.42,94.62v2.46c0,1.82,4.49,3.85,10.94,3.85s10.94-2.03,10.94-3.85v-2.46h-2.56c-.07,0-.15-.01-.21-.04-2.1-.86-5.08-1.35-8.17-1.35s-6.07.49-8.17,1.35c-.07.03-.14.04-.21.04h-2.56Z"/><path class="g" d="M51.36,102.35c-7.16,0-12.36-2.22-12.36-5.28v-3.02c0-.47.39-.86.86-.86h2.95c2.28-.9,5.32-1.39,8.55-1.39s6.27.49,8.55,1.39h2.95c.47,0,.86.39.86.86v3.02c0,3.06-5.2,5.28-12.36,5.28ZM39.86,93.8c-.15,0-.26.12-.26.26v3.02c0,2.62,5.17,4.68,11.76,4.68s11.76-2.05,11.76-4.68v-3.02c0-.15-.12-.26-.26-.26h-3.06l-.05-.02c-2.22-.89-5.2-1.37-8.38-1.37s-6.16.49-8.38,1.37l-.05.02h-3.07ZM51.36,101.23c-6.09,0-11.24-1.9-11.24-4.15v-2.76h2.86s.07,0,.1-.02c2.14-.88,5.16-1.37,8.28-1.37s6.15.5,8.28,1.37c.03.01.07.02.1.02h2.86v2.76c0,2.25-5.15,4.15-11.24,4.15h0ZM40.72,94.92v2.16c0,1.48,4.05,3.55,10.64,3.55s10.64-2.07,10.64-3.55v-2.16h-2.26c-.11,0-.22-.02-.33-.07-2.07-.84-5.01-1.33-8.06-1.33s-5.99.48-8.06,1.33c-.1.04-.21.07-.33.07h-2.26,0Z"/><path class="j" d="M59.75,90.36c-2.1-.86-5.08-1.39-8.38-1.39s-6.29.54-8.39,1.39h-3.12v3.02c0,2.44,5.15,4.41,11.5,4.41s11.5-1.98,11.5-4.41v-3.02h-3.12Z"/><path class="g" d="M51.37,98.09c-6.62,0-11.8-2.07-11.8-4.71v-3.32h3.36c2.23-.9,5.22-1.39,8.44-1.39s6.21.49,8.44,1.39h3.36v3.32c0,2.64-5.19,4.71-11.8,4.71ZM40.16,90.65v2.72c0,2.23,5.13,4.12,11.2,4.12s11.2-1.89,11.2-4.12v-2.72h-2.88l-.06-.02c-2.13-.87-5.15-1.37-8.27-1.37s-6.14.5-8.27,1.37l-.06.02h-2.88Z"/><path class="g" d="M51.36,98.35c-6.88,0-12.06-2.14-12.06-4.98v-3.02c0-.31.25-.56.56-.56h3.01c2.26-.9,5.26-1.39,8.49-1.39s6.24.49,8.49,1.39h3.01c.31,0,.56.25.56.56v3.02c0,2.84-5.19,4.98-12.06,4.98ZM40.42,90.92v2.46c0,1.82,4.49,3.85,10.94,3.85s10.94-2.03,10.94-3.85v-2.46h-2.56c-.07,0-.15-.01-.21-.04-2.1-.86-5.08-1.35-8.17-1.35s-6.07.49-8.17,1.35c-.07.03-.14.04-.21.04h-2.56Z"/><path class="g" d="M51.36,98.66c-7.16,0-12.36-2.22-12.36-5.28v-3.02c0-.47.39-.86.86-.86h2.95c2.28-.9,5.32-1.39,8.55-1.39s6.27.49,8.55,1.39h2.95c.47,0,.86.39.86.86v3.02c0,3.06-5.2,5.28-12.36,5.28ZM39.86,90.1c-.15,0-.26.12-.26.26v3.02c0,2.62,5.17,4.68,11.76,4.68s11.76-2.05,11.76-4.68v-3.02c0-.15-.12-.26-.26-.26h-3.06l-.05-.02c-2.22-.89-5.2-1.37-8.38-1.37s-6.16.49-8.38,1.37l-.05.02h-3.07ZM51.36,97.53c-6.09,0-11.24-1.9-11.24-4.15v-2.76h2.86s.07,0,.1-.02c2.14-.88,5.16-1.37,8.28-1.37s6.15.5,8.28,1.37c.03.01.07.02.1.02h2.86v2.76c0,2.25-5.15,4.15-11.24,4.15h0ZM40.72,91.22v2.16c0,1.48,4.05,3.56,10.64,3.56s10.64-2.07,10.64-3.56v-2.16h-2.26c-.11,0-.22-.02-.33-.07-2.07-.84-5.01-1.33-8.06-1.33s-5.99.48-8.06,1.33c-.1.04-.21.07-.33.07h-2.26,0Z"/><path class="j" d="M59.75,86.66c-2.1-.86-5.08-1.39-8.38-1.39s-6.29.54-8.39,1.39h-3.12v3.02c0,2.44,5.15,4.41,11.5,4.41s11.5-1.98,11.5-4.41v-3.02h-3.12Z"/><path class="g" d="M51.37,94.39c-6.62,0-11.8-2.07-11.8-4.71v-3.32h3.36c2.23-.9,5.22-1.39,8.44-1.39s6.21.49,8.44,1.39h3.36v3.32c0,2.64-5.19,4.71-11.8,4.71ZM40.16,86.96v2.72c0,2.23,5.13,4.12,11.2,4.12s11.2-1.89,11.2-4.12v-2.72h-2.88l-.06-.02c-2.13-.87-5.15-1.37-8.27-1.37s-6.14.5-8.27,1.37l-.06.02h-2.88Z"/><path class="g" d="M51.36,94.65c-6.88,0-12.06-2.14-12.06-4.98v-3.02c0-.31.25-.56.56-.56h3.01c2.26-.9,5.26-1.39,8.49-1.39s6.24.49,8.49,1.39h3.01c.31,0,.56.25.56.56v3.02c0,2.84-5.19,4.98-12.06,4.98ZM40.42,87.22v2.46c0,1.82,4.49,3.85,10.94,3.85s10.94-2.03,10.94-3.85v-2.46h-2.56c-.07,0-.15-.01-.21-.04-2.1-.86-5.08-1.35-8.17-1.35s-6.07.49-8.17,1.35c-.07.03-.14.04-.21.04h-2.56Z"/><path class="g" d="M51.36,94.95c-7.16,0-12.36-2.22-12.36-5.28v-3.02c0-.47.39-.86.86-.86h2.95c2.28-.9,5.32-1.39,8.55-1.39s6.27.49,8.55,1.39h2.95c.47,0,.86.39.86.86v3.02c0,3.06-5.2,5.28-12.36,5.28ZM39.86,86.4c-.15,0-.26.12-.26.26v3.02c0,2.62,5.17,4.68,11.76,4.68s11.76-2.05,11.76-4.68v-3.02c0-.15-.12-.26-.26-.26h-3.06l-.05-.02c-2.22-.89-5.2-1.37-8.38-1.37s-6.16.49-8.38,1.37l-.05.02h-3.07ZM51.36,93.83c-6.09,0-11.24-1.9-11.24-4.15v-2.76h2.86s.07,0,.1-.02c2.14-.88,5.16-1.37,8.28-1.37s6.15.5,8.28,1.37c.03.01.07.02.1.02h2.86v2.76c0,2.25-5.15,4.15-11.24,4.15h0ZM40.72,87.52v2.16c0,1.48,4.05,3.56,10.64,3.56s10.64-2.07,10.64-3.56v-2.16h-2.26c-.11,0-.22-.02-.33-.07-2.07-.84-5.01-1.33-8.06-1.33s-5.99.48-8.06,1.33c-.1.04-.21.07-.33.07h-2.26,0Z"/><path class="j" d="M51.37,90.35c6.35,0,11.5-1.98,11.5-4.41s-5.15-4.41-11.5-4.41-11.5,1.98-11.5,4.41,5.15,4.41,11.5,4.41Z"/><path class="g" d="M51.37,90.65c-6.62,0-11.8-2.07-11.8-4.71s5.19-4.71,11.8-4.71,11.8,2.07,11.8,4.71-5.19,4.71-11.8,4.71ZM51.37,81.82c-6.07,0-11.2,1.89-11.2,4.12s5.13,4.12,11.2,4.12,11.2-1.89,11.2-4.12-5.13-4.12-11.2-4.12Z"/><path class="g" d="M51.36,90.92c-6.88,0-12.06-2.14-12.06-4.98s5.19-4.98,12.06-4.98,12.06,2.14,12.06,4.98-5.19,4.98-12.06,4.98ZM51.36,82.09c-6.45,0-10.94,2.03-10.94,3.85s4.49,3.85,10.94,3.85,10.94-2.03,10.94-3.85-4.49-3.85-10.94-3.85Z"/><path class="g" d="M51.36,91.22c-7.16,0-12.36-2.22-12.36-5.28s5.2-5.28,12.36-5.28,12.36,2.22,12.36,5.28-5.2,5.28-12.36,5.28ZM51.36,81.26c-6.6,0-11.76,2.05-11.76,4.68s5.17,4.68,11.76,4.68,11.76-2.05,11.76-4.68-5.17-4.68-11.76-4.68ZM51.36,90.09c-6.09,0-11.24-1.9-11.24-4.15s5.15-4.15,11.24-4.15,11.24,1.9,11.24,4.15-5.15,4.15-11.24,4.15ZM51.36,82.39c-6.59,0-10.64,2.07-10.64,3.56s4.05,3.55,10.64,3.55,10.64-2.07,10.64-3.55-4.05-3.56-10.64-3.56Z"/><path class="g" d="M50.43,88.17c-1.43,0-2.45-.09-2.57-.11-.18-.02-.31-.18-.3-.36.02-.18.18-.31.36-.3.08,0,8.35.77,11.41-2.18.13-.13.34-.12.47,0,.13.13.12.34,0,.47-2.17,2.1-6.56,2.47-9.37,2.47h0Z"/><path class="g" d="M50.43,88.47c-1.45,0-2.48-.1-2.59-.11-.35-.03-.6-.34-.56-.69.03-.35.35-.6.69-.57.08,0,8.22.76,11.17-2.1.12-.12.28-.18.45-.18.17,0,.33.07.44.19.12.12.18.28.18.45,0,.17-.07.33-.19.44-2.18,2.11-6.41,2.55-9.58,2.55h0ZM47.9,87.71s-.03.01-.03.03c0,.02.01.03.03.03.11.01,1.12.1,2.54.1,2.5,0,7.01-.31,9.16-2.39.01-.01.01-.03,0-.04h-.05c-3.15,3.05-11.56,2.27-11.65,2.26h0Z"/><path class="j" d="M73.12,111.65c-2.1-.86-5.08-1.39-8.39-1.39s-6.29.54-8.39,1.39h-3.12v3.02c0,2.44,5.15,4.41,11.5,4.41s11.5-1.98,11.5-4.41v-3.02h-3.12Z"/><path class="g" d="M64.73,119.39c-6.62,0-11.8-2.07-11.8-4.71v-3.32h3.36c2.23-.9,5.22-1.39,8.44-1.39s6.21.5,8.44,1.39h3.36v3.32c0,2.64-5.19,4.71-11.8,4.71ZM53.53,111.96v2.72c0,2.23,5.13,4.12,11.2,4.12s11.2-1.89,11.2-4.12v-2.72h-2.88l-.06-.02c-2.13-.87-5.15-1.37-8.27-1.37s-6.14.5-8.27,1.37l-.06.02h-2.88Z"/><path class="g" d="M64.73,119.65c-6.88,0-12.06-2.14-12.06-4.98v-3.02c0-.31.25-.56.56-.56h3.01c2.26-.9,5.26-1.39,8.49-1.39s6.24.49,8.49,1.39h3.01c.31,0,.56.25.56.56v3.02c0,2.84-5.19,4.98-12.06,4.98ZM53.79,112.22v2.46c0,1.82,4.49,3.85,10.94,3.85s10.94-2.03,10.94-3.85v-2.46h-2.56c-.07,0-.15-.01-.21-.04-2.1-.86-5.08-1.35-8.17-1.35s-6.07.5-8.17,1.35c-.07.03-.14.04-.21.04h-2.56Z"/><path class="g" d="M64.73,119.95c-7.16,0-12.36-2.22-12.36-5.28v-3.02c0-.47.39-.86.86-.86h2.95c2.28-.9,5.32-1.39,8.55-1.39s6.27.5,8.55,1.39h2.95c.47,0,.86.39.86.86v3.02c0,3.06-5.2,5.28-12.36,5.28ZM53.23,111.4c-.15,0-.26.12-.26.26v3.02c0,2.62,5.17,4.68,11.76,4.68s11.76-2.05,11.76-4.68v-3.02c0-.15-.12-.26-.26-.26h-3.06l-.05-.02c-2.22-.89-5.2-1.37-8.38-1.37s-6.16.49-8.38,1.37l-.05.02h-3.07ZM64.73,118.83c-6.09,0-11.24-1.9-11.24-4.15v-2.76h2.86s.07,0,.1-.02c2.14-.88,5.16-1.37,8.28-1.37s6.15.5,8.28,1.37c.03.01.07.02.1.02h2.86v2.76c0,2.25-5.15,4.15-11.24,4.15h0ZM54.09,112.52v2.16c0,1.48,4.05,3.55,10.64,3.55s10.64-2.07,10.64-3.55v-2.16h-2.26c-.11,0-.22-.02-.33-.07-2.07-.84-5.01-1.33-8.06-1.33s-5.99.48-8.06,1.33c-.1.04-.21.07-.33.07h-2.26,0Z"/><path class="j" d="M73.12,107.96c-2.1-.86-5.08-1.39-8.39-1.39s-6.29.54-8.39,1.39h-3.12v3.02c0,2.44,5.15,4.41,11.5,4.41s11.5-1.97,11.5-4.41v-3.02h-3.12Z"/><path class="g" d="M64.73,115.69c-6.62,0-11.8-2.07-11.8-4.71v-3.32h3.36c2.23-.9,5.22-1.39,8.44-1.39s6.21.49,8.44,1.39h3.36v3.32c0,2.64-5.19,4.71-11.8,4.71ZM53.53,108.25v2.72c0,2.23,5.13,4.12,11.2,4.12s11.2-1.89,11.2-4.12v-2.72h-2.88l-.06-.02c-2.13-.87-5.15-1.37-8.27-1.37s-6.14.5-8.27,1.37l-.06.02h-2.88Z"/><path class="g" d="M64.73,115.95c-6.88,0-12.06-2.14-12.06-4.98v-3.02c0-.31.25-.56.56-.56h3.01c2.26-.9,5.26-1.39,8.49-1.39s6.24.49,8.49,1.39h3.01c.31,0,.56.25.56.56v3.02c0,2.84-5.19,4.98-12.06,4.98ZM53.79,108.51v2.46c0,1.82,4.49,3.85,10.94,3.85s10.94-2.03,10.94-3.85v-2.46h-2.56c-.07,0-.15-.01-.21-.04-2.1-.86-5.08-1.35-8.17-1.35s-6.07.49-8.17,1.35c-.07.03-.14.04-.21.04h-2.56Z"/><path class="g" d="M64.73,116.25c-7.16,0-12.36-2.22-12.36-5.28v-3.02c0-.47.39-.86.86-.86h2.95c2.28-.9,5.32-1.39,8.55-1.39s6.27.49,8.55,1.39h2.95c.47,0,.86.39.86.86v3.02c0,3.06-5.2,5.28-12.36,5.28ZM53.23,107.69c-.15,0-.26.12-.26.26v3.02c0,2.62,5.17,4.68,11.76,4.68s11.76-2.06,11.76-4.68v-3.02c0-.15-.12-.26-.26-.26h-3.06l-.05-.02c-2.22-.89-5.2-1.37-8.38-1.37s-6.16.49-8.38,1.37l-.05.02h-3.07ZM64.73,115.13c-6.09,0-11.24-1.9-11.24-4.16v-2.76h2.86s.07,0,.1-.02c2.14-.88,5.16-1.37,8.28-1.37s6.15.5,8.28,1.37c.03.01.07.02.1.02h2.86v2.76c0,2.25-5.15,4.16-11.24,4.16h0ZM54.09,108.82v2.16c0,1.48,4.05,3.55,10.64,3.55s10.64-2.07,10.64-3.55v-2.16h-2.26c-.11,0-.22-.02-.33-.07-2.07-.84-5.01-1.33-8.06-1.33s-5.99.49-8.06,1.33c-.1.04-.21.07-.33.07h-2.26,0Z"/><path class="j" d="M73.12,104.26c-2.1-.86-5.08-1.39-8.39-1.39s-6.29.54-8.39,1.39h-3.12v3.02c0,2.44,5.15,4.41,11.5,4.41s11.5-1.98,11.5-4.41v-3.02h-3.12Z"/><path class="g" d="M64.73,111.99c-6.62,0-11.8-2.07-11.8-4.71v-3.32h3.36c2.23-.9,5.22-1.39,8.44-1.39s6.21.5,8.44,1.39h3.36v3.32c0,2.64-5.19,4.71-11.8,4.71ZM53.53,104.55v2.72c0,2.23,5.13,4.12,11.2,4.12s11.2-1.88,11.2-4.12v-2.72h-2.88l-.06-.02c-2.13-.87-5.15-1.37-8.27-1.37s-6.14.5-8.27,1.37l-.06.02h-2.88Z"/><path class="g" d="M64.73,112.25c-6.88,0-12.06-2.14-12.06-4.98v-3.02c0-.31.25-.56.56-.56h3.01c2.26-.9,5.26-1.39,8.49-1.39s6.24.49,8.49,1.39h3.01c.31,0,.56.25.56.56v3.02c0,2.84-5.19,4.98-12.06,4.98ZM53.79,104.82v2.46c0,1.82,4.49,3.85,10.94,3.85s10.94-2.03,10.94-3.85v-2.46h-2.56c-.07,0-.15-.01-.21-.04-2.1-.86-5.08-1.35-8.17-1.35s-6.07.5-8.17,1.35c-.07.03-.14.04-.21.04h-2.56Z"/><path class="g" d="M64.73,112.55c-7.16,0-12.36-2.22-12.36-5.28v-3.02c0-.47.39-.86.86-.86h2.95c2.28-.9,5.32-1.39,8.55-1.39s6.27.5,8.55,1.39h2.95c.47,0,.86.39.86.86v3.02c0,3.06-5.2,5.28-12.36,5.28ZM53.23,103.99c-.15,0-.26.12-.26.26v3.02c0,2.62,5.17,4.68,11.76,4.68s11.76-2.06,11.76-4.68v-3.02c0-.14-.12-.26-.26-.26h-3.06l-.05-.02c-2.22-.89-5.2-1.37-8.38-1.37s-6.16.49-8.38,1.37l-.05.02h-3.07ZM64.73,111.43c-6.09,0-11.24-1.9-11.24-4.15v-2.76h2.86s.07,0,.1-.02c2.14-.88,5.16-1.37,8.28-1.37s6.15.5,8.28,1.37c.03.01.07.02.1.02h2.86v2.76c0,2.25-5.15,4.15-11.24,4.15h0ZM54.09,105.12v2.16c0,1.48,4.05,3.55,10.64,3.55s10.64-2.07,10.64-3.55v-2.16h-2.26c-.11,0-.22-.02-.33-.07-2.07-.84-5.01-1.33-8.06-1.33s-5.99.48-8.06,1.33c-.1.04-.21.07-.33.07h-2.26,0Z"/><path class="j" d="M73.12,100.55c-2.1-.86-5.08-1.39-8.39-1.39s-6.29.54-8.39,1.39h-3.12v3.02c0,2.44,5.15,4.41,11.5,4.41s11.5-1.97,11.5-4.41v-3.02h-3.12Z"/><path class="g" d="M64.73,108.29c-6.62,0-11.8-2.07-11.8-4.72v-3.32h3.36c2.23-.9,5.22-1.39,8.44-1.39s6.21.49,8.44,1.39h3.36v3.32c0,2.64-5.19,4.72-11.8,4.72ZM53.53,100.85v2.72c0,2.23,5.13,4.12,11.2,4.12s11.2-1.89,11.2-4.12v-2.72h-2.88l-.06-.02c-2.13-.87-5.15-1.37-8.27-1.37s-6.14.5-8.27,1.37l-.06.02h-2.88Z"/><path class="g" d="M64.73,108.55c-6.88,0-12.06-2.14-12.06-4.98v-3.02c0-.31.25-.56.56-.56h3.01c2.26-.9,5.26-1.39,8.49-1.39s6.24.49,8.49,1.39h3.01c.31,0,.56.25.56.56v3.02c0,2.84-5.19,4.98-12.06,4.98ZM53.79,101.11v2.46c0,1.82,4.49,3.85,10.94,3.85s10.94-2.03,10.94-3.85v-2.46h-2.56c-.07,0-.15-.01-.21-.04-2.1-.86-5.08-1.35-8.17-1.35s-6.07.5-8.17,1.35c-.07.03-.14.04-.21.04h-2.56Z"/><path class="g" d="M64.73,108.85c-7.16,0-12.36-2.22-12.36-5.28v-3.02c0-.47.39-.86.86-.86h2.95c2.28-.9,5.32-1.39,8.55-1.39s6.27.49,8.55,1.39h2.95c.47,0,.86.39.86.86v3.02c0,3.06-5.2,5.28-12.36,5.28ZM53.23,100.29c-.15,0-.26.12-.26.26v3.02c0,2.62,5.17,4.68,11.76,4.68s11.76-2.05,11.76-4.68v-3.02c0-.15-.12-.26-.26-.26h-3.06l-.05-.02c-2.22-.89-5.2-1.37-8.38-1.37s-6.16.49-8.38,1.37l-.05.02h-3.07ZM64.73,107.73c-6.09,0-11.24-1.9-11.24-4.15v-2.76h2.86s.07,0,.1-.02c2.14-.87,5.16-1.37,8.28-1.37s6.15.5,8.28,1.37c.03.01.07.02.1.02h2.86v2.76c0,2.25-5.15,4.15-11.24,4.15h0ZM54.09,101.42v2.16c0,1.48,4.05,3.56,10.64,3.56s10.64-2.07,10.64-3.56v-2.16h-2.26c-.11,0-.22-.02-.33-.07-2.07-.84-5.01-1.33-8.06-1.33s-5.99.48-8.06,1.33c-.1.04-.21.07-.33.07h-2.26,0Z"/><path class="j" d="M73.12,96.85c-2.1-.86-5.08-1.39-8.39-1.39s-6.29.54-8.39,1.39h-3.12v3.02c0,2.44,5.15,4.41,11.5,4.41s11.5-1.98,11.5-4.41v-3.02h-3.12Z"/><path class="g" d="M64.73,104.59c-6.62,0-11.8-2.07-11.8-4.71v-3.32h3.36c2.23-.9,5.22-1.39,8.44-1.39s6.21.49,8.44,1.39h3.36v3.32c0,2.64-5.19,4.71-11.8,4.71ZM53.53,97.15v2.72c0,2.23,5.13,4.12,11.2,4.12s11.2-1.88,11.2-4.12v-2.72h-2.88l-.06-.02c-2.13-.87-5.15-1.37-8.27-1.37s-6.14.5-8.27,1.37l-.06.02h-2.88Z"/><path class="g" d="M64.73,104.85c-6.88,0-12.06-2.14-12.06-4.98v-3.02c0-.31.25-.56.56-.56h3.01c2.26-.9,5.26-1.39,8.49-1.39s6.24.49,8.49,1.39h3.01c.31,0,.56.25.56.56v3.02c0,2.84-5.19,4.98-12.06,4.98ZM53.79,97.41v2.46c0,1.82,4.49,3.85,10.94,3.85s10.94-2.03,10.94-3.85v-2.46h-2.56c-.07,0-.15-.01-.21-.04-2.1-.86-5.08-1.35-8.17-1.35s-6.07.49-8.17,1.35c-.07.03-.14.04-.21.04h-2.56Z"/><path class="g" d="M64.73,105.15c-7.16,0-12.36-2.22-12.36-5.28v-3.02c0-.47.39-.86.86-.86h2.95c2.28-.9,5.32-1.39,8.55-1.39s6.27.49,8.55,1.39h2.95c.47,0,.86.39.86.86v3.02c0,3.06-5.2,5.28-12.36,5.28ZM53.23,96.59c-.15,0-.26.12-.26.26v3.02c0,2.62,5.17,4.68,11.76,4.68s11.76-2.06,11.76-4.68v-3.02c0-.15-.12-.26-.26-.26h-3.06l-.05-.02c-2.22-.89-5.2-1.37-8.38-1.37s-6.16.49-8.38,1.37l-.05.02h-3.07ZM64.73,104.03c-6.09,0-11.24-1.9-11.24-4.15v-2.76h2.86s.07,0,.1-.02c2.14-.88,5.16-1.37,8.28-1.37s6.15.5,8.28,1.37c.03.01.07.02.1.02h2.86v2.76c0,2.25-5.15,4.15-11.24,4.15h0ZM54.09,97.71v2.16c0,1.48,4.05,3.55,10.64,3.55s10.64-2.07,10.64-3.55v-2.16h-2.26c-.11,0-.22-.02-.33-.07-2.07-.84-5.01-1.33-8.06-1.33s-5.99.48-8.06,1.33c-.1.04-.21.07-.33.07h-2.26,0Z"/><path class="j" d="M64.73,100.55c6.35,0,11.5-1.98,11.5-4.41s-5.15-4.41-11.5-4.41-11.5,1.98-11.5,4.41,5.15,4.41,11.5,4.41Z"/><path class="g" d="M64.73,100.85c-6.62,0-11.8-2.07-11.8-4.71s5.19-4.71,11.8-4.71,11.8,2.07,11.8,4.71-5.19,4.71-11.8,4.71ZM64.73,92.02c-6.07,0-11.2,1.89-11.2,4.12s5.13,4.12,11.2,4.12,11.2-1.89,11.2-4.12-5.13-4.12-11.2-4.12Z"/><path class="g" d="M64.73,101.11c-6.88,0-12.06-2.14-12.06-4.98s5.19-4.98,12.06-4.98,12.06,2.14,12.06,4.98-5.19,4.98-12.06,4.98ZM64.73,92.28c-6.45,0-10.94,2.03-10.94,3.85s4.49,3.85,10.94,3.85,10.94-2.03,10.94-3.85-4.49-3.85-10.94-3.85Z"/><path class="g" d="M64.73,101.41c-7.16,0-12.36-2.22-12.36-5.28s5.2-5.28,12.36-5.28,12.36,2.22,12.36,5.28-5.2,5.28-12.36,5.28ZM64.73,91.46c-6.6,0-11.76,2.05-11.76,4.68s5.17,4.68,11.76,4.68,11.76-2.05,11.76-4.68-5.17-4.68-11.76-4.68ZM64.73,100.29c-6.09,0-11.24-1.9-11.24-4.15s5.15-4.15,11.24-4.15,11.24,1.9,11.24,4.15-5.15,4.15-11.24,4.15ZM64.73,92.58c-6.59,0-10.64,2.07-10.64,3.56s4.05,3.55,10.64,3.55,10.64-2.07,10.64-3.55-4.05-3.56-10.64-3.56Z"/><path class="g" d="M63.8,98.37c-1.43,0-2.45-.09-2.57-.11-.18-.02-.31-.18-.3-.36.02-.18.18-.31.36-.3.08,0,8.35.77,11.41-2.18.13-.13.34-.12.47,0,.13.13.12.34,0,.47-2.17,2.1-6.56,2.47-9.37,2.47h0Z"/><path class="g" d="M63.79,98.67c-1.45,0-2.48-.1-2.59-.11-.35-.03-.6-.34-.56-.69.03-.35.35-.6.69-.57.08,0,8.22.76,11.17-2.1.12-.12.28-.18.45-.18.17,0,.33.07.44.19.12.12.18.28.18.45,0,.17-.07.33-.19.44-2.18,2.11-6.41,2.55-9.58,2.55h0ZM61.26,97.9s-.03.01-.03.03c0,.02.01.03.03.03.11.01,1.12.1,2.54.1,2.5,0,7.01-.31,9.16-2.39.01-.01.01-.03,0-.04h-.04c-3.15,3.05-11.56,2.27-11.65,2.26h0Z"/><path class="j" d="M191.05,222.72c8.58-.47,29.65-21.46,29.65-21.46l-20.78-9.76c-5.02-13.13-2.7-27.81-2.7-27.81l-16.07,9.03-16.07-9.03s2.32,14.68-2.71,27.81l-23.24,10.93s-.41,6.95,8.17,7.41l6.24,4.29c10.92,5.07,16.26,5.85,16.38,5.85.13,0,11.48.39,11.6.39l9.52,2.34Z"/><path class="g" d="M191.05,224.3c-.13,0-.25-.01-.38-.04l-9.35-2.3c-.54-.01-2.34-.08-8.31-.28-1.72-.06-3.04-.1-3.12-.1-.94-.06-6.67-1.2-17.01-6-.08-.04-.16-.08-.23-.13l-5.88-4.05c-3.06-.25-5.44-1.29-7.06-3.12-2.32-2.6-2.16-5.81-2.15-5.94.03-.58.38-1.1.91-1.34l22.65-10.65c4.51-12.42,2.42-26.26,2.4-26.4-.09-.6.16-1.2.66-1.55.5-.35,1.15-.38,1.68-.08l15.29,8.59,15.29-8.59c.53-.3,1.19-.26,1.68.08.5.35.76.95.66,1.55-.02.14-2.12,13.99,2.4,26.4l20.2,9.48c.47.22.8.66.89,1.16.09.51-.08,1.03-.44,1.4-2.2,2.19-21.76,21.43-30.68,21.92h-.09,0ZM170.06,218.4c.43.01,1.6.05,3.05.1,3.34.11,8.21.28,8.45.28.12,0,.24.02.35.04l9.27,2.28c6.12-.61,20.11-12.98,26.77-19.39l-18.71-8.78c-.37-.17-.66-.49-.81-.87-3.76-9.84-3.55-20.36-3.14-25.48l-13.37,7.52c-.48.27-1.07.27-1.55,0l-13.38-7.52c.41,5.12.63,15.64-3.14,25.48-.15.38-.44.69-.8.87l-22.27,10.47c.24,1.57,1.38,4.57,6.61,4.85.29.01.57.11.81.28l6.13,4.21c10.32,4.78,15.37,5.6,15.73,5.65h0Z"/><path class="j" d="M225.43,285.79c5.04.14,22.83-1.56,19.55-32.99l-4.19-24.56s-3.7-24.04-18.51-35.97l-24.39-9.48c-26.17,11.02-42.84,0-42.84,0l-24.82,9.48c-14.81,11.93-18.08,35.97-18.08,35.97l-.73,4.64s-13.32,49.07,10.8,51.99l3.02-.12"/><path class="j" d="M234.52,302.43c5.43.15,24.59-1.68,21.07-35.54l-4.52-26.45s-3.98-25.89-19.94-38.74l-26.27-10.21c-28.19,11.87-46.15,0-46.15,0l-26.74,10.21c-15.96,12.86-19.48,38.74-19.48,38.74l-.79,5s-10.09,58,15.9,61.14l46.39-6.04,60.53,1.89h0Z"/><path class="g" d="M112.5,242.02c-.08,0-.16,0-.25-.02-.87-.13-1.46-.95-1.33-1.81.15-.94,3.7-23.06,16.17-36.17.6-.63,1.61-.66,2.25-.06.63.6.66,1.61.06,2.25-11.78,12.38-15.3,34.25-15.33,34.47-.12.78-.8,1.35-1.57,1.35h0Z"/><path class="g" d="M131.51,242.03c-.83,0-1.54-.64-1.59-1.49l-1.05-15.73-7.3-10.47c-.5-.72-.33-1.72.4-2.22.72-.5,1.72-.33,2.22.4l7.56,10.84c.17.24.27.52.28.8l1.08,16.18c.06.88-.61,1.64-1.49,1.7h-.11Z"/><path class="g" d="M231.4,242.03h-.11c-.88-.06-1.54-.82-1.49-1.7l1.08-16.18c.02-.29.12-.57.28-.8l7.55-10.84c.5-.72,1.5-.9,2.22-.39.72.5.9,1.5.4,2.22l-7.3,10.48-1.05,15.73c-.06.84-.76,1.49-1.59,1.49h0Z"/><path class="g" d="M251.07,242.02c-.77,0-1.45-.56-1.57-1.35-.04-.25-4.06-25.23-19.18-37.6l-25.41-9.88c-24.43,11.17-42.57,2.2-46.36.03l-22.33,8.4c-.82.31-1.74-.1-2.05-.93-.31-.82.11-1.74.93-2.05l23.05-8.67c.47-.18,1-.12,1.42.15.19.12,19,11.92,44.61-.1.4-.19.85-.2,1.25-.04l26.28,10.21c.15.06.29.14.42.24,16.25,13.09,20.35,38.66,20.51,39.74.13.87-.46,1.68-1.33,1.81-.08.01-.16.02-.25.02Z"/><path class="j" d="M150.42,273.97l-4.35-.23-3.44,4.12c-3.44,3.66-4.77,3.37-4.77,3.37-3.75,0-2.79-3.59-2.79-3.59l-1.6,1.38c-4.05.91-4.35-1.83-4.35-1.83-.27-3.08,1.61-8.89,1.61-8.89-.85.85-1.83,1.43-2.57,1.79-.87.43-1.92.41-2.71-.15-1.77-1.26-.69-3.73-.69-3.73,1.83-6.87,5.95-10.76,5.95-10.76,2.75-3.21,11.45-2.98,11.45-2.98-1.6-.68-1.55-.04-7.5-.3-8.63-.38-7.32-4.32-7.32-4.32-.38-3.57,14.13-2.71,14.13-2.71,3.89.69,8.01,1.83,10.99,5.5,2.98,3.66,17.53,21.6,17.53,21.6l-19.59,1.75h0Z"/><path class="g" d="M137.96,282.87c-.07,0-.14,0-.21-.01-1.98-.03-3.05-.88-3.59-1.58-.16-.21-.29-.43-.41-.66-1.93.42-3.5.2-4.66-.63-1.39-1-1.59-2.48-1.61-2.65-.14-1.58.19-3.67.58-5.49-1.24.33-2.54.13-3.57-.6-2.19-1.56-1.83-4.27-1.29-5.61,1.84-6.78,5.75-10.8,6.32-11.36.34-.38.73-.71,1.16-1.02-2.04-.5-3.49-1.36-4.32-2.56-.85-1.23-.78-2.44-.67-3.04,0-.74.29-1.44.84-2.01.65-.69,3.67-2.86,15.04-2.19.06,0,.13.01.19.02,4.06.72,8.67,2,11.98,6.08,2.98,3.66,17.53,21.61,17.53,21.61.38.47.47,1.12.24,1.68-.24.56-.76.94-1.37,1l-19.59,1.75c-.08,0-.15,0-.23,0l-3.53-.19-2.91,3.49s-.04.05-.06.07c-2.92,3.12-4.77,3.89-5.87,3.89h0ZM138.21,279.61h.01-.01ZM135.09,275.98c.3,0,.61.08.88.25.61.38.9,1.12.71,1.82-.07.28-.11.95.11,1.23.15.19.57.31,1.13.3.22-.06,1.32-.49,3.5-2.81l3.4-4.08c.33-.4.83-.62,1.35-.59l4.23.22,16.4-1.46c-4.07-5.01-13.29-16.37-15.59-19.21-2.6-3.2-6.29-4.25-9.9-4.9-5.61-.32-11.2.19-12.29,1.1.01.17,0,.29-.09.49,0,0-.02.26.21.56.32.42,1.52,1.42,5.62,1.6,2.65.12,4.05.05,4.98,0,1.21-.06,1.88-.09,3.1.43.72.31,1.12,1.09.96,1.86-.17.77-.88,1.31-1.65,1.29-3.06-.07-8.53.51-10.16,2.4-.04.04-.08.09-.12.13-.03.03-3.82,3.7-5.49,9.99-.02.08-.05.16-.08.23,0,0-.51,1.28.14,1.74.26.19.66.19,1.02.01.58-.28,1.42-.77,2.13-1.48.54-.54,1.37-.63,2.02-.24.65.39.94,1.18.71,1.91-.49,1.52-1.71,5.91-1.54,8.18.02.07.08.25.28.38.33.21.93.26,1.7.13l1.27-1.09c.31-.26.68-.4,1.07-.4h0Z"/><path class="g" d="M145.37,254.91c-.27,0-.55-.07-.81-.21-.04-.02-1.05-.56-2.45-.61-.9-.03-1.61-.8-1.58-1.7.03-.91.8-1.62,1.7-1.58,2.22.08,3.78.94,3.95,1.04.79.45,1.06,1.45.61,2.24-.31.53-.86.83-1.43.83h0Z"/><path class="g" d="M130.73,269.92c-.29,0-.6-.08-.86-.25-.77-.48-1.01-1.49-.53-2.27l4.32-6.94c.07-.11.14-.2.24-.29,2.4-2.4,9.96-2.7,11.44-2.73.91.02,1.66.7,1.68,1.61.02.91-.7,1.66-1.61,1.68-3.53.08-7.9.74-9.08,1.67l-4.2,6.75c-.31.5-.85.77-1.4.77h0Z"/><path class="g" d="M135.08,279.27c-.21,0-.43-.04-.64-.13-.84-.35-1.23-1.32-.87-2.15l3.73-8.79c.03-.07.07-.15.12-.22,2.27-3.68,8.11-3.61,8.76-3.6.91.03,1.62.78,1.59,1.69-.03.91-.77,1.64-1.69,1.6-1.17-.03-4.67.27-5.81,1.94l-3.67,8.66c-.27.63-.88,1-1.51,1h0Z"/><path class="g" d="M226.07,273.24c-.16,0-.33-.03-.49-.08-.83-.27-1.28-1.16-1.01-1.99,2.03-6.23,3.69-23.09,3.7-23.26.09-.87.85-1.5,1.73-1.42.87.09,1.5.86,1.42,1.73-.07.71-1.71,17.38-3.85,23.93-.22.67-.83,1.09-1.5,1.09h0Z"/><path class="j" d="M225.57,275.24s-10.62-3.24-22.92-1.36l3.14,14.78c-3.69,1.33,6.46-2.3,17.94-6.5.92-4.15,0,0,1.85-6.93h0Z"/><path class="g" d="M206.06,290.24c-.32,0-.54-.13-.84-.38-.43-.36-.64-.93-.54-1.49.08-.44.24-.7.52-.91l-4.1-13.25c-.09-.42,0-.87.25-1.23.25-.36.63-.6,1.06-.66,12.51-1.9,23.17,1.28,23.62,1.41.81.25,1.29,1.1,1.07,1.92-.93,3.51-1.17,4.21-1.3,4.59-.06.18-.24.94-.53,2.27-.12.52-.49.95-1,1.14-4.92,1.8-9.6,3.5-13.05,4.74l-4.12,1.49c-.4.14-.74.27-1.03.36-.29.1.78-.14.74-.12l-1.23.28c-.31.09.68-.16.49-.16h0ZM204.54,275.22l2.41,11.35c3.16-1.14,9.01-3.25,15.42-5.59.29-1.32.31-1.38.43-1.74.09-.27.26-.77.83-2.88-3.08-.72-10.59-2.14-19.09-1.15h0Z"/><path class="g" d="M208.25,293.44c-.05-.58-1.42-14.25-5.51-23.34-.31-.69-1.07-1.06-1.81-.89-.11.03-11.26,2.68-24.87,3.99-.87.08-1.5.86-1.42,1.72.08.87.84,1.51,1.72,1.42,11.12-1.08,20.63-3.03,24-3.77,2.81,6.95,4.17,16.38,4.59,19.83-24.1,6.07-72.68,12.05-73.24,12.12-.86.1-1.48.89-1.38,1.75.09.8.93,1.39,1.72,1.39.06,0,.3-.05.37-.05,1.05-.16,51.07-6.28,74.66-12.5.75-.2,1.24-.91,1.17-1.68Z"/><path class="g" d="M126.37,305.26c-23.72-4.99-13.22-58.98-13.11-59.52.17-.85-.38-1.69-1.24-1.86-.85-.17-1.68.38-1.86,1.24-.12.58-2.83,14.34-2.44,29.03.52,19.36,6.36,31.06,16.92,33.95,0,0,2.88.53,2.96-1.52-.1-.65-.59-1.17-1.24-1.31h0Z"/><path class="g" d="M227.3,287.97c-.46,0-.92-.01-1.4-.05-.81-.05-1.42-.75-1.37-1.55.05-.81.76-1.42,1.55-1.37,4.83.3,8.52-1.12,11.3-4.35,10.44-12.1,3.67-44.65,3.6-44.97-.17-.79.34-1.57,1.13-1.74.79-.17,1.57.34,1.74,1.13.3,1.4,7.13,34.31-4.25,47.5-3.1,3.59-7.23,5.4-12.31,5.4h0Z"/><path class="e" d="M138.98,177.17c-.73.77-1.62,1.21-2.66,1.32-1.04.11-2.02-.27-2.92-1.12-.8-.75-1.21-1.66-1.23-2.74-.02-1.07.35-2.01,1.12-2.82.75-.8,1.66-1.21,2.72-1.24,1.06-.03,1.99.33,2.78,1.08.89.84,1.32,1.78,1.29,2.83-.03,1.05-.4,1.95-1.1,2.7h0ZM109.39,166.81c-1.2-1.14-2.06-2.67-2.57-4.61-.51-1.94-.47-4.03.12-6.28.59-2.25,1.81-4.36,3.68-6.34,1.73-1.84,3.6-3.14,5.61-3.91,2-.77,3.95-.98,5.84-.65,1.89.33,3.52,1.14,4.89,2.43,1.08,1.02,1.81,2.12,2.22,3.33.4,1.2.61,2.38.63,3.54.02,1.16,0,3.17-.08,6.05-.01.8,0,1.47.06,2.01.05.54.14.99.27,1.35s.28.69.46,1c.18.3.52.82,1.01,1.54,1.09,1.49,1.04,2.86-.15,4.13-.62.66-1.36,1.01-2.22,1.05-.86.04-1.71-.33-2.56-1.13-1.06-1-1.83-2.04-2.3-3.1-.47-1.06-.74-2.15-.82-3.25-.08-1.1-.08-2.5-.02-4.19.05-1.48.07-2.57.05-3.27-.02-.7-.14-1.39-.35-2.05-.21-.66-.58-1.24-1.1-1.73-1.02-.96-2.22-1.38-3.63-1.29-1.41.1-2.67.74-3.8,1.93-1.32,1.39-1.93,2.75-1.85,4.08.08,1.32.59,2.86,1.53,4.61,1.03,1.78.97,3.27-.16,4.48-.67.71-1.48,1.07-2.44,1.09-.96.01-1.73-.25-2.32-.8h0Z"/><path class="e" d="M220.83,86.19c-26.02-28-52.37-10.62-55.5-8.38-1.98.48-11.09,3.23-16.57,14.25-.3.57-7.34,14.13-2.92,30.34.23.84,1.1,1.33,1.94,1.11.6-.16,1.02-.65,1.13-1.22l72.12,14.01c-.11.57.1,1.19.6,1.56.21.16.45.26.69.29.56.09,1.15-.13,1.51-.61.19-.26,19.11-26.14-3-51.35h0Z"/><path class="j" d="M174.75,95.48c.05-.02.08-.03.08-.03-.15-.25-.18-.22-.08.03Z"/><path class="j" d="M219.08,132.03c-.74-.25-1.52-.26-2.31-.07l-.69-.18.04-.15s3.47-7.98-20.75-18.05c-14.01-5.82-19.99-16.52-20.62-18.1-1.24.41-16.88,5.85-20.38,20.61l-.56-.14-.65,5.74c-.69-.43-1.43-.67-2.22-.66-3.37.03-6.07,4.45-6.03,9.88.04,5.43,2.28,13,5.65,12.98.53,0,1.04-.13,1.53-.34.38,4.96,2.49,17.96,14.15,27.85,0,0,9.47,8.53,22.46,3.63,14.18-5.72,20.28-17.39,22.2-21.99.4.35.85.63,1.35.8,3.19,1.08,7.7-5.4,9.45-10.54,1.74-5.14.57-10.19-2.62-11.27h0Z"/><path class="g" d="M176.82,177.83c-6.94-1.12-11.36-5.01-11.63-5.26-10.84-9.21-13.73-21-14.49-27.11h-.13c-5.05.03-7.21-9.45-7.24-14.54-.04-6.4,3.29-11.43,7.6-11.46.3,0,.59.02.89.07l.43-3.74c.1-.87.88-1.49,1.74-1.39.89.09,1.49.88,1.39,1.74l-.65,5.74c-.06.54-.39,1.01-.88,1.24-.49.23-1.06.2-1.52-.08-.46-.29-.92-.43-1.38-.43-2.14.01-4.49,3.42-4.46,8.29.04,5.67,2.41,11.41,4.07,11.41.29,0,.6-.07.92-.21.47-.2,1.01-.16,1.44.1.44.26.72.72.75,1.23.37,4.89,2.43,17.29,13.6,26.77.39.35,8.99,7.84,20.88,3.35,13.54-5.47,19.4-16.59,21.3-21.12.2-.47.61-.82,1.1-.93.5-.11,1.02.02,1.4.35.27.23.53.4.82.49,1.57.52,5.62-4.18,7.45-9.55,1.56-4.61.4-8.59-1.63-9.27-.43-.14-.91-.15-1.44-.03-.85.2-1.7-.32-1.9-1.17-.2-.85.32-1.7,1.17-1.9,1.11-.26,2.18-.23,3.18.11,4.08,1.39,5.66,7.21,3.6,13.27-1.57,4.61-6.24,12.42-10.82,11.68-.21-.03-.42-.09-.63-.16l-.12-.04c-2.64,5.56-9.1,15.86-22.32,21.2-4.67,1.76-8.9,1.92-12.47,1.35h0Z"/><path class="g" d="M176.82,177.83c-6.94-1.12-11.36-5.02-11.63-5.26-10.84-9.2-13.73-21-14.49-27.11h-.13c-5.05.03-7.21-9.45-7.24-14.54-.04-6.4,3.29-11.43,7.6-11.46.3,0,.59.02.89.07l.43-3.75c.1-.86.88-1.49,1.74-1.39.89.08,1.49.88,1.39,1.74l-.65,5.74c-.06.54-.39,1.01-.88,1.24-.49.23-1.06.2-1.52-.08-.46-.29-.92-.43-1.38-.43-2.14.01-4.49,3.43-4.46,8.29.04,5.67,2.41,11.41,4.07,11.41.29,0,.6-.07.92-.21.47-.2,1.01-.16,1.44.1.44.26.72.72.75,1.23.37,4.89,2.43,17.29,13.6,26.77.39.35,8.99,7.84,20.88,3.35,13.54-5.47,19.4-16.59,21.3-21.12.2-.47.61-.82,1.1-.93.5-.11,1.02.02,1.4.35.27.24.53.4.82.49,1.57.52,5.62-4.18,7.45-9.55,1.56-4.61.4-8.59-1.63-9.27-.43-.14-.91-.15-1.44-.03-.85.2-1.7-.32-1.9-1.17-.2-.85.32-1.7,1.17-1.9,1.11-.26,2.18-.23,3.18.11,4.08,1.39,5.66,7.21,3.6,13.27-1.57,4.6-6.24,12.42-10.82,11.68-.21-.03-.42-.09-.63-.16-.04-.01-.08-.03-.12-.04-2.64,5.56-9.1,15.86-22.32,21.2-4.67,1.76-8.9,1.92-12.47,1.35h0Z"/><path class="g" d="M217.14,130.43c-.85-.21-1.7.31-1.91,1.15l-1.75,7.1c-.21.85.31,1.7,1.15,1.91.04.01.09.02.13.03.8.13,1.58-.38,1.78-1.18l1.75-7.1c.21-.85-.31-1.7-1.15-1.91Z"/><path class="g" d="M153.28,120.12c-.87-.07-1.63.58-1.7,1.45l-.57,7.28c-.06.82.52,1.55,1.32,1.68.04,0,.09.01.13.01.87.07,1.63-.58,1.7-1.45l.57-7.28c.07-.87-.57-1.62-1.45-1.7Z"/><path class="g" d="M155.87,110.95c-.09-.01-.18-.04-.28-.07-.82-.29-1.25-1.19-.96-2.01,2.53-7.15,9.08-9.77,9.35-9.87.81-.32,1.73.09,2.04.9.31.81-.08,1.72-.89,2.04-.09.04-5.5,2.25-7.52,7.98-.26.73-1,1.15-1.74,1.03Z"/><path class="g" d="M198.99,116.59c-.13-.02-.26-.06-.39-.12-30.14-13.37-25.34-29.45-25.12-30.12.27-.83,1.15-1.28,1.99-1.01.82.27,1.28,1.15,1.02,1.97-.06.21-3.89,14.19,23.39,26.28.8.35,1.15,1.28.8,2.08-.3.67-1,1.03-1.69.92Z"/><path class="g" d="M198.62,127.76c-1.41-.23-2.75.73-2.97,2.14-.23,1.41.73,2.74,2.15,2.97,1.41.23,2.74-.73,2.97-2.15.23-1.41-.73-2.74-2.15-2.97h0Z"/><path class="g" d="M171.71,123.41c-1.41-.23-2.74.73-2.97,2.14-.23,1.41.74,2.74,2.15,2.97,1.41.23,2.74-.73,2.97-2.15.23-1.41-.73-2.74-2.15-2.97h0Z"/><path class="g" d="M178.15,116.4c.4-.78.08-1.72-.69-2.12-.19-.1-4.76-2.38-10.09-1.85-.86.09-1.5.86-1.41,1.73.09.87.86,1.5,1.72,1.41,4.37-.44,8.29,1.49,8.36,1.52.15.07.3.12.46.15.66.11,1.34-.22,1.66-.85h0Z"/><path class="g" d="M179.54,151.35l2.84.46c.86.14,1.67-.45,1.81-1.3.14-.86-.45-1.67-1.3-1.81l-2.84-.46c-.86-.14-1.67.45-1.81,1.3-.14.86.45,1.67,1.3,1.81Z"/><path class="g" d="M212.75,111.36c-4.94-.8-10.1-3.46-15.17-7.87-5.31-4.62-8.67-9.48-8.81-9.68-.49-.72-.31-1.7.41-2.19.72-.49,1.7-.31,2.19.41.13.19,12.92,18.54,26.92,16.25.86-.14,1.67.44,1.81,1.3.14.86-.44,1.67-1.3,1.81-1.96.32-3.99.31-6.04-.02h0Z"/><path class="j" d="M183.65,161.29c-.3,1.92-2.1,3.23-4.02,2.93-1.92-.3-3.23-2.1-2.93-4.02.3-1.92,2.1-3.23,4.02-2.93,1.92.3,3.23,2.1,2.93,4.02h0Z"/><path class="g" d="M179.39,165.76c-2.76-.44-4.66-3.04-4.23-5.8s3.04-4.66,5.8-4.23c2.76.44,4.66,3.04,4.23,5.8s-3.04,4.66-5.8,4.23ZM180.49,158.81c-1.07-.17-2.07.56-2.23,1.63-.17,1.07.56,2.07,1.63,2.23,1.07.17,2.07-.56,2.24-1.63.17-1.07-.56-2.07-1.63-2.24h0Z"/></g></svg>