<svg width="180" height="180" viewBox="0 0 180 180" fill="none" xmlns="http://www.w3.org/2000/svg">
<circle cx="90" cy="90" r="90" fill="#FAF7F0"/>
<path d="M70.134 155.651C70.008 155.455 69.805 155.217 69.525 154.937C69.245 154.643 69 154.433 68.79 154.307C70.778 153.103 72.423 151.451 73.725 149.351C73.067 148.567 72.416 147.839 71.772 147.167C71.128 146.481 70.547 145.921 70.029 145.487L71.31 144.311C71.842 144.759 72.388 145.27 72.948 145.844C73.522 146.404 74.096 147.006 74.67 147.65C74.992 146.95 75.272 146.222 75.51 145.466C75.762 144.71 75.965 143.933 76.119 143.135H69.588V141.413H73.746V137.801H75.825V141.413H79.731V143.135H78.009C77.827 144.213 77.561 145.256 77.211 146.264C76.861 147.272 76.441 148.231 75.951 149.141C76.609 149.939 77.239 150.744 77.841 151.556C78.443 152.354 78.961 153.103 79.395 153.803C79.255 153.859 79.073 153.964 78.849 154.118C78.639 154.258 78.429 154.412 78.219 154.58C78.009 154.734 77.855 154.86 77.757 154.958C77.407 154.342 76.987 153.684 76.497 152.984C76.007 152.27 75.482 151.556 74.922 150.842C73.564 152.844 71.968 154.447 70.134 155.651ZM81.81 156.323C81.782 156.043 81.719 155.7 81.621 155.294C81.537 154.888 81.446 154.573 81.348 154.349H83.511C83.805 154.349 84.015 154.3 84.141 154.202C84.267 154.09 84.33 153.894 84.33 153.614V145.067H79.353V143.345H84.33V137.822H86.304V143.345H88.803V145.067H86.304V154.328C86.304 155.014 86.108 155.518 85.716 155.84C85.338 156.162 84.757 156.323 83.973 156.323H81.81ZM81.285 151.451C81.117 151.073 80.879 150.632 80.571 150.128C80.277 149.61 79.955 149.099 79.605 148.595C79.269 148.091 78.947 147.671 78.639 147.335L80.109 146.306C80.459 146.698 80.809 147.139 81.159 147.629C81.523 148.105 81.852 148.588 82.146 149.078C82.454 149.554 82.706 149.995 82.902 150.401C82.692 150.499 82.419 150.66 82.083 150.884C81.747 151.094 81.481 151.283 81.285 151.451ZM92.646 155.819V142.673H99.135C99.289 142.309 99.443 141.896 99.597 141.434C99.751 140.958 99.884 140.517 99.996 140.111H91.491V138.473H110.58V140.111H102.222C102.11 140.503 101.97 140.937 101.802 141.413C101.634 141.875 101.473 142.295 101.319 142.673H109.404V155.819H92.646ZM94.557 154.055H97.329V144.374H94.557V154.055ZM104.721 154.055H107.493V144.374H104.721V154.055ZM99.198 154.055H102.831V151.829H99.198V154.055ZM99.198 146.6H102.831V144.374H99.198V146.6ZM99.198 150.317H102.831V148.112H99.198V150.317Z" fill="#3E3E3E"/>
<path d="M139.435 53.9373C140.577 49.0772 137.564 44.211 132.703 43.0684C127.843 41.9257 122.977 44.9394 121.835 49.7995C120.692 54.6597 123.706 59.5259 128.566 60.6685C133.426 61.8111 138.292 58.7975 139.435 53.9373Z" fill="white" stroke="#3E3E3E" stroke-width="2" stroke-miterlimit="10"/>
<path d="M141.127 66.4229H120.487C119.737 66.4229 119.077 66.7929 118.667 67.3529L112.827 69.7629L105.607 66.6929C103.937 65.9729 101.987 66.7629 101.267 68.4429C100.547 70.1229 101.337 72.0629 103.017 72.7829L111.507 76.4029C111.917 76.5829 112.357 76.6629 112.807 76.6629C113.257 76.6629 113.667 76.5829 114.067 76.4129L118.227 74.7029V97.3329C118.227 98.5829 119.237 99.5928 120.487 99.5928H123.647V122.853C123.647 124.103 124.657 125.113 125.907 125.113H135.687C136.937 125.113 137.947 124.103 137.947 122.853V99.5928H141.107C142.357 99.5928 143.367 98.5829 143.367 97.3329V68.7029C143.367 67.4529 142.357 66.4429 141.107 66.4429L141.127 66.4229Z" fill="#4CC764"/>
<path d="M141.127 66.4229H120.487C119.737 66.4229 119.077 66.7929 118.667 67.3529L112.827 69.7629L105.607 66.6929C103.937 65.9729 101.987 66.7629 101.267 68.4429C100.547 70.1229 101.337 72.0629 103.017 72.7829L111.507 76.4029C111.917 76.5829 112.357 76.6629 112.807 76.6629C113.257 76.6629 113.667 76.5829 114.067 76.4129L118.227 74.7029V97.3329C118.227 98.5829 119.237 99.5928 120.487 99.5928H123.647V122.853C123.647 124.103 124.657 125.113 125.907 125.113H135.687C136.937 125.113 137.947 124.103 137.947 122.853V99.5928H141.107C142.357 99.5928 143.367 98.5829 143.367 97.3329V68.7029C143.367 67.4529 142.357 66.4429 141.107 66.4429L141.127 66.4229Z" stroke="#3E3E3E" stroke-width="2" stroke-miterlimit="10"/>
<path d="M42.9325 53.9373C41.7899 49.0772 44.8035 44.211 49.6637 43.0684C54.5238 41.9257 59.39 44.9394 60.5327 49.7995C61.6753 54.6597 58.6616 59.5259 53.8015 60.6685C48.9413 61.8111 44.0751 58.7975 42.9325 53.9373Z" fill="white" stroke="#3E3E3E" stroke-width="2" stroke-miterlimit="10"/>
<path d="M41.2406 66.4229H61.8806C62.6306 66.4229 63.2906 66.7929 63.7006 67.3529L69.5406 69.7629L76.7606 66.6929C78.4306 65.9729 80.3806 66.7629 81.1006 68.4429C81.8206 70.1229 81.0306 72.0629 79.3506 72.7829L70.8606 76.4029C70.4506 76.5829 70.0106 76.6629 69.5606 76.6629C69.1106 76.6629 68.7006 76.5829 68.3006 76.4129L64.1406 74.7029V97.3329C64.1406 98.5829 63.1306 99.5928 61.8806 99.5928H58.7206V122.853C58.7206 124.103 57.7106 125.113 56.4606 125.113H46.6806C45.4306 125.113 44.4206 124.103 44.4206 122.853V99.5928H41.2606C40.0106 99.5928 39.0006 98.5829 39.0006 97.3329V68.7029C39.0006 67.4529 40.0106 66.4429 41.2606 66.4429L41.2406 66.4229Z" fill="#EB701F"/>
<path d="M41.2406 66.4229H61.8806C62.6306 66.4229 63.2906 66.7929 63.7006 67.3529L69.5406 69.7629L76.7606 66.6929C78.4306 65.9729 80.3806 66.7629 81.1006 68.4429C81.8206 70.1229 81.0306 72.0629 79.3506 72.7829L70.8606 76.4029C70.4506 76.5829 70.0106 76.6629 69.5606 76.6629C69.1106 76.6629 68.7006 76.5829 68.3006 76.4129L64.1406 74.7029V97.3329C64.1406 98.5829 63.1306 99.5928 61.8806 99.5928H58.7206V122.853C58.7206 124.103 57.7106 125.113 56.4606 125.113H46.6806C45.4306 125.113 44.4206 124.103 44.4206 122.853V99.5928H41.2606C40.0106 99.5928 39.0006 98.5829 39.0006 97.3329V68.7029C39.0006 67.4529 40.0106 66.4429 41.2606 66.4429L41.2406 66.4229Z" stroke="#3E3E3E" stroke-width="2" stroke-miterlimit="10"/>
<rect x="77" y="82" width="30" height="5" fill="#3E3E3E"/>
<rect x="89" y="125" width="42" height="7" transform="rotate(-90 89 125)" fill="#3E3E3E"/>
</svg>
