<svg width="180" height="180" viewBox="0 0 180 180" fill="none" xmlns="http://www.w3.org/2000/svg">
<circle cx="90" cy="90" r="90" fill="#FAF7F0"/>
<path d="M58.6305 136.319C50.9408 136.319 44.6797 130.058 44.6797 122.368V65.027C44.6797 57.3372 50.9408 51.0762 58.6305 51.0762H64.2361V56.9591C64.2361 60.7661 67.3372 63.8672 71.1443 63.8672C74.9513 63.8672 78.0524 60.7661 78.0524 56.9591V51.0762H104.878V56.9591C104.878 60.7661 107.98 63.8672 111.787 63.8672C115.594 63.8672 118.695 60.7661 118.695 56.9591V51.0762H124.3C131.99 51.0762 138.251 57.3372 138.251 65.027V122.368C138.251 130.058 131.99 136.319 124.3 136.319H58.6305Z" fill="#EB701F"/>
<mask id="path-3-inside-1_170_4318" fill="white">
<path d="M124.285 52.7572C131.05 52.7572 136.555 58.2619 136.555 65.0272V122.368C136.555 129.134 131.05 134.638 124.285 134.638H58.6317C51.8663 134.638 46.3616 129.134 46.3616 122.368V65.0272C46.3616 58.2619 51.8663 52.7572 58.6317 52.7572H62.5564V56.9592C62.5564 61.6907 66.4055 65.5482 71.1454 65.5482C75.8853 65.5482 79.7344 61.6991 79.7344 56.9592V52.7572H103.199V56.9592C103.199 61.6907 107.048 65.5482 111.788 65.5482C116.528 65.5482 120.377 61.6991 120.377 56.9592V52.7572H124.301M124.301 49.3955H117.015V56.9592C117.015 59.8334 114.662 62.1866 111.788 62.1866C108.914 62.1866 106.56 59.8334 106.56 56.9592V49.3955H76.3728V56.9592C76.3728 59.8334 74.0196 62.1866 71.1454 62.1866C68.2712 62.1866 65.918 59.8334 65.918 56.9592V49.3955H58.6317C50.0342 49.3955 43 56.4298 43 65.0272V122.368C43 130.966 50.0342 138 58.6317 138H124.285C132.882 138 139.916 130.966 139.916 122.368V65.0272C139.916 56.4298 132.882 49.3955 124.285 49.3955H124.301Z"/>
</mask>
<path d="M124.285 52.7572C131.05 52.7572 136.555 58.2619 136.555 65.0272V122.368C136.555 129.134 131.05 134.638 124.285 134.638H58.6317C51.8663 134.638 46.3616 129.134 46.3616 122.368V65.0272C46.3616 58.2619 51.8663 52.7572 58.6317 52.7572H62.5564V56.9592C62.5564 61.6907 66.4055 65.5482 71.1454 65.5482C75.8853 65.5482 79.7344 61.6991 79.7344 56.9592V52.7572H103.199V56.9592C103.199 61.6907 107.048 65.5482 111.788 65.5482C116.528 65.5482 120.377 61.6991 120.377 56.9592V52.7572H124.301M124.301 49.3955H117.015V56.9592C117.015 59.8334 114.662 62.1866 111.788 62.1866C108.914 62.1866 106.56 59.8334 106.56 56.9592V49.3955H76.3728V56.9592C76.3728 59.8334 74.0196 62.1866 71.1454 62.1866C68.2712 62.1866 65.918 59.8334 65.918 56.9592V49.3955H58.6317C50.0342 49.3955 43 56.4298 43 65.0272V122.368C43 130.966 50.0342 138 58.6317 138H124.285C132.882 138 139.916 130.966 139.916 122.368V65.0272C139.916 56.4298 132.882 49.3955 124.285 49.3955H124.301Z" fill="#3E3E3E"/>
<path d="M62.5564 52.7572H63.5564V51.7572H62.5564V52.7572ZM79.7344 52.7572V51.7572H78.7344V52.7572H79.7344ZM103.199 52.7572H104.199V51.7572H103.199V52.7572ZM120.377 52.7572V51.7572H119.377V52.7572H120.377ZM117.015 49.3955V48.3955H116.015V49.3955H117.015ZM106.56 49.3955H107.56V48.3955H106.56V49.3955ZM76.3728 49.3955V48.3955H75.3728V49.3955H76.3728ZM65.918 49.3955H66.918V48.3955H65.918V49.3955ZM124.285 53.7572C130.498 53.7572 135.555 58.8141 135.555 65.0272H137.555C137.555 57.7096 131.602 51.7572 124.285 51.7572V53.7572ZM135.555 65.0272V122.368H137.555V65.0272H135.555ZM135.555 122.368C135.555 128.581 130.498 133.638 124.285 133.638V135.638C131.602 135.638 137.555 129.686 137.555 122.368H135.555ZM124.285 133.638H58.6317V135.638H124.285V133.638ZM58.6317 133.638C52.4186 133.638 47.3616 128.581 47.3616 122.368H45.3616C45.3616 129.686 51.3141 135.638 58.6317 135.638V133.638ZM47.3616 122.368V65.0272H45.3616V122.368H47.3616ZM47.3616 65.0272C47.3616 58.8141 52.4186 53.7572 58.6317 53.7572V51.7572C51.3141 51.7572 45.3616 57.7096 45.3616 65.0272H47.3616ZM58.6317 53.7572H62.5564V51.7572H58.6317V53.7572ZM61.5564 52.7572V56.9592H63.5564V52.7572H61.5564ZM61.5564 56.9592C61.5564 62.2424 65.8526 66.5482 71.1454 66.5482V64.5482C66.9584 64.5482 63.5564 61.1391 63.5564 56.9592H61.5564ZM71.1454 66.5482C76.4376 66.5482 80.7344 62.2514 80.7344 56.9592H78.7344C78.7344 61.1469 75.333 64.5482 71.1454 64.5482V66.5482ZM80.7344 56.9592V52.7572H78.7344V56.9592H80.7344ZM79.7344 53.7572H103.199V51.7572H79.7344V53.7572ZM102.199 52.7572V56.9592H104.199V52.7572H102.199ZM102.199 56.9592C102.199 62.2424 106.495 66.5482 111.788 66.5482V64.5482C107.601 64.5482 104.199 61.1391 104.199 56.9592H102.199ZM111.788 66.5482C117.08 66.5482 121.377 62.2514 121.377 56.9592H119.377C119.377 61.1469 115.975 64.5482 111.788 64.5482V66.5482ZM121.377 56.9592V52.7572H119.377V56.9592H121.377ZM120.377 53.7572H124.301V51.7572H120.377V53.7572ZM124.301 48.3955H117.015V50.3955H124.301V48.3955ZM116.015 49.3955V56.9592H118.015V49.3955H116.015ZM116.015 56.9592C116.015 59.2811 114.11 61.1866 111.788 61.1866V63.1866C115.214 63.1866 118.015 60.3857 118.015 56.9592H116.015ZM111.788 61.1866C109.466 61.1866 107.56 59.2811 107.56 56.9592H105.56C105.56 60.3857 108.361 63.1866 111.788 63.1866V61.1866ZM107.56 56.9592V49.3955H105.56V56.9592H107.56ZM106.56 48.3955H76.3728V50.3955H106.56V48.3955ZM75.3728 49.3955V56.9592H77.3728V49.3955H75.3728ZM75.3728 56.9592C75.3728 59.2811 73.4673 61.1866 71.1454 61.1866V63.1866C74.5719 63.1866 77.3728 60.3857 77.3728 56.9592H75.3728ZM71.1454 61.1866C68.8235 61.1866 66.918 59.2811 66.918 56.9592H64.918C64.918 60.3857 67.7189 63.1866 71.1454 63.1866V61.1866ZM66.918 56.9592V49.3955H64.918V56.9592H66.918ZM65.918 48.3955H58.6317V50.3955H65.918V48.3955ZM58.6317 48.3955C49.482 48.3955 42 55.8775 42 65.0272H44C44 56.982 50.5865 50.3955 58.6317 50.3955V48.3955ZM42 65.0272V122.368H44V65.0272H42ZM42 122.368C42 131.518 49.482 139 58.6317 139V137C50.5865 137 44 130.414 44 122.368H42ZM58.6317 139H124.285V137H58.6317V139ZM124.285 139C133.434 139 140.916 131.518 140.916 122.368H138.916C138.916 130.414 132.33 137 124.285 137V139ZM140.916 122.368V65.0272H138.916V122.368H140.916ZM140.916 65.0272C140.916 55.8775 133.434 48.3955 124.285 48.3955V50.3955C132.33 50.3955 138.916 56.982 138.916 65.0272H140.916ZM124.285 50.3955H124.301V48.3955H124.285V50.3955Z" fill="#EB701F" mask="url(#path-3-inside-1_170_4318)"/>
<path d="M51.9922 78.751H130.461V120.956C130.461 125.596 126.696 129.361 122.057 129.361H60.3963C55.7572 129.361 51.9922 125.596 51.9922 120.956V78.751Z" fill="white"/>
<path d="M86.506 107.258H79.8836C78.1616 107.258 76.7656 108.654 76.7656 110.376V118.015C76.7656 119.737 78.1616 121.133 79.8836 121.133H86.506C88.228 121.133 89.6239 119.737 89.6239 118.015V110.376C89.6239 108.654 88.228 107.258 86.506 107.258Z" fill="white" stroke="#3E3E3E" stroke-width="2"/>
<path d="M69.9669 107.258H63.3445C61.6225 107.258 60.2266 108.654 60.2266 110.376V118.015C60.2266 119.737 61.6225 121.133 63.3445 121.133H69.9669C71.6889 121.133 73.0849 119.737 73.0849 118.015V110.376C73.0849 108.654 71.6889 107.258 69.9669 107.258Z" fill="white" stroke="#3E3E3E" stroke-width="2"/>
<path d="M103.037 107.258H96.4148C94.6928 107.258 93.2969 108.654 93.2969 110.376V118.015C93.2969 119.737 94.6928 121.133 96.4148 121.133H103.037C104.759 121.133 106.155 119.737 106.155 118.015V110.376C106.155 108.654 104.759 107.258 103.037 107.258Z" fill="white" stroke="#3E3E3E" stroke-width="2"/>
<path d="M119.569 107.258H112.946C111.224 107.258 109.828 108.654 109.828 110.376V118.015C109.828 119.737 111.224 121.133 112.946 121.133H119.569C121.29 121.133 122.686 119.737 122.686 118.015V110.376C122.686 108.654 121.29 107.258 119.569 107.258Z" fill="white" stroke="#3E3E3E" stroke-width="2"/>
<path d="M86.506 87.6094H79.8836C78.1616 87.6094 76.7656 89.0053 76.7656 90.7273V98.3666C76.7656 100.089 78.1616 101.485 79.8836 101.485H86.506C88.228 101.485 89.6239 100.089 89.6239 98.3666V90.7273C89.6239 89.0053 88.228 87.6094 86.506 87.6094Z" fill="white" stroke="#3E3E3E" stroke-width="2"/>
<path d="M103.037 87.6094H96.4148C94.6928 87.6094 93.2969 89.0053 93.2969 90.7273V98.3666C93.2969 100.089 94.6928 101.485 96.4148 101.485H103.037C104.759 101.485 106.155 100.089 106.155 98.3666V90.7273C106.155 89.0053 104.759 87.6094 103.037 87.6094Z" fill="#4CC764" stroke="#3E3E3E" stroke-width="2"/>
<path d="M119.569 87.6094H112.946C111.224 87.6094 109.828 89.0053 109.828 90.7273V98.3666C109.828 100.089 111.224 101.485 112.946 101.485H119.569C121.29 101.485 122.686 100.089 122.686 98.3666V90.7273C122.686 89.0053 121.29 87.6094 119.569 87.6094Z" fill="white" stroke="#3E3E3E" stroke-width="2"/>
<path d="M111.328 58.9005C110.517 58.9005 109.828 58.1441 109.828 57.2449V45.6556C109.828 44.7564 110.511 44 111.328 44C112.146 44 112.828 44.7564 112.828 45.6556V57.2449C112.828 58.1441 112.146 58.9005 111.328 58.9005Z" fill="#3E3E3E"/>
<path d="M70.875 58.9005C70.0642 58.9005 69.375 58.1441 69.375 57.2449V45.6556C69.375 44.7564 70.0574 44 70.875 44C71.6926 44 72.375 44.7564 72.375 45.6556V57.2449C72.375 58.1441 71.6926 58.9005 70.875 58.9005Z" fill="#3E3E3E"/>
</svg>
