<svg width="128" height="128" viewBox="0 0 128 128" fill="none" xmlns="http://www.w3.org/2000/svg">
<circle cx="63.871" cy="63.871" r="63.371" fill="white" stroke="black"/>
<g clip-path="url(#clip0_170_5382)">
<path d="M65.4105 59.4834H61.6211V63.2896H65.4105V59.4834Z" fill="#EB701F"/>
<path d="M65.4105 48.5972H61.6211V52.4034H65.4105V48.5972Z" fill="#EB701F"/>
<path d="M65.4105 70.3652H61.6211V74.1714H65.4105V70.3652Z" fill="#EB701F"/>
<path d="M55.1917 48.5972H51.4023V52.4034H55.1917V48.5972Z" fill="#EB701F"/>
<path d="M79.4134 41.4077H44.5566V91.1545H58.7539V84.8868C58.7539 82.2496 60.8875 80.1065 63.5131 80.1065C66.1387 80.1065 68.2723 82.2496 68.2723 84.8868V91.1545H82.4695V41.4077H79.4371C79.4371 41.4077 79.4229 41.4077 79.4134 41.4077ZM56.748 74.9555C56.748 75.3879 56.3979 75.7396 55.9674 75.7396H50.6216C50.1911 75.7396 49.841 75.3879 49.841 74.9555V69.586C49.841 69.1536 50.1911 68.8019 50.6216 68.8019H55.9674C56.3979 68.8019 56.748 69.1536 56.748 69.586V74.9555ZM56.748 64.0691C56.748 64.5015 56.3979 64.8532 55.9674 64.8532H50.6216C50.1911 64.8532 49.841 64.5015 49.841 64.0691V58.6996C49.841 58.2672 50.1911 57.9155 50.6216 57.9155H55.9674C56.3979 57.9155 56.748 58.2672 56.748 58.6996V64.0691ZM56.748 53.1827C56.748 53.6151 56.3979 53.9668 55.9674 53.9668H50.6216C50.1911 53.9668 49.841 53.6151 49.841 53.1827V47.8132C49.841 47.3807 50.1911 47.0291 50.6216 47.0291H55.9674C56.3979 47.0291 56.748 47.3807 56.748 47.8132V53.1827ZM66.9666 74.9555C66.9666 75.3879 66.6165 75.7396 66.186 75.7396H60.8402C60.4097 75.7396 60.0596 75.3879 60.0596 74.9555V69.586C60.0596 69.1536 60.4097 68.8019 60.8402 68.8019H66.186C66.6165 68.8019 66.9666 69.1536 66.9666 69.586V74.9555ZM66.9666 64.0691C66.9666 64.5015 66.6165 64.8532 66.186 64.8532H60.8402C60.4097 64.8532 60.0596 64.5015 60.0596 64.0691V58.6996C60.0596 58.2672 60.4097 57.9155 60.8402 57.9155H66.186C66.6165 57.9155 66.9666 58.2672 66.9666 58.6996V64.0691ZM66.9666 53.1827C66.9666 53.6151 66.6165 53.9668 66.186 53.9668H60.8402C60.4097 53.9668 60.0596 53.6151 60.0596 53.1827V47.8132C60.0596 47.3807 60.4097 47.0291 60.8402 47.0291H66.186C66.6165 47.0291 66.9666 47.3807 66.9666 47.8132V53.1827ZM77.1852 74.9555C77.1852 75.3879 76.8351 75.7396 76.4046 75.7396H71.0588C70.6283 75.7396 70.2782 75.3879 70.2782 74.9555V69.586C70.2782 69.1536 70.6283 68.8019 71.0588 68.8019H76.4046C76.8351 68.8019 77.1852 69.1536 77.1852 69.586V74.9555ZM77.1852 64.0691C77.1852 64.5015 76.8351 64.8532 76.4046 64.8532H71.0588C70.6283 64.8532 70.2782 64.5015 70.2782 64.0691V58.6996C70.2782 58.2672 70.6283 57.9155 71.0588 57.9155H76.4046C76.8351 57.9155 77.1852 58.2672 77.1852 58.6996V64.0691ZM77.1852 53.1827C77.1852 53.6151 76.8351 53.9668 76.4046 53.9668H71.0588C70.6283 53.9668 70.2782 53.6151 70.2782 53.1827V47.8132C70.2782 47.3807 70.6283 47.0291 71.0588 47.0291H76.4046C76.8351 47.0291 77.1852 47.3807 77.1852 47.8132V53.1827Z" fill="white"/>
<path d="M75.6234 48.5972H71.834V52.4034H75.6234V48.5972Z" fill="#EB701F"/>
<path d="M75.6234 59.4834H71.834V63.2896H75.6234V59.4834Z" fill="#EB701F"/>
<path d="M75.6234 70.3652H71.834V74.1714H75.6234V70.3652Z" fill="#EB701F"/>
<path d="M55.1917 70.3652H51.4023V74.1714H55.1917V70.3652Z" fill="#EB701F"/>
<path d="M55.1917 59.4834H51.4023V63.2896H55.1917V59.4834Z" fill="#EB701F"/>
<path d="M99.4442 31.8089C99.4442 25.451 94.2971 20.281 87.9672 20.281C81.6374 20.281 76.4902 25.451 76.4902 31.8089C76.4902 34.8406 77.6446 37.6821 79.7403 39.8442H83.2459C83.6764 39.8442 84.0264 40.1959 84.0264 40.6283V42.643C85.2849 43.104 86.6095 43.3416 87.9672 43.3416C94.2971 43.3416 99.4442 38.1716 99.4442 31.8137V31.8089ZM83.7331 35.9858V34.2656H86.846V32.6785H83.7331V30.9583H86.0276L83.1134 24.4103H84.9868L87.7449 30.849L90.8767 24.4103H92.8163L89.4433 30.9583H91.7188L91.7614 32.6785H88.6485V34.2656H91.7614V35.9858H88.6485V39.2027H86.846V35.9858H83.7331Z" fill="white"/>
<path d="M63.5133 81.665C61.7487 81.665 60.3105 83.1096 60.3105 84.882V90.9738H66.7161V84.882C66.7161 83.1096 65.2779 81.665 63.5133 81.665Z" fill="#EB701F"/>
<path d="M90.8813 24.4153L87.7495 30.854L84.9914 24.4153H83.1133L86.0275 30.9633H83.733V32.6834H86.8459V34.2705H83.733V35.986H86.8459V39.2077H88.6531V35.986H91.766V34.2705H88.6531V32.6834H91.766L91.7234 30.9633H89.4479L92.8209 24.4153H90.8813Z" fill="black"/>
<path d="M55.9663 68.8018H50.6204C50.1899 68.8018 49.8398 69.1534 49.8398 69.5858V74.9554C49.8398 75.3878 50.1899 75.7394 50.6204 75.7394H55.9663C56.3968 75.7394 56.7469 75.3878 56.7469 74.9554V69.5858C56.7469 69.1534 56.3968 68.8018 55.9663 68.8018ZM55.1857 74.1713H51.3963V70.3651H55.1857V74.1713Z" fill="black"/>
<path d="M66.185 68.8018H60.8392C60.4087 68.8018 60.0586 69.1534 60.0586 69.5858V74.9554C60.0586 75.3878 60.4087 75.7394 60.8392 75.7394H66.185C66.6155 75.7394 66.9656 75.3878 66.9656 74.9554V69.5858C66.9656 69.1534 66.6155 68.8018 66.185 68.8018ZM65.4044 74.1713H61.615V70.3651H65.4044V74.1713Z" fill="black"/>
<path d="M76.4038 68.8018H71.0579C70.6274 68.8018 70.2773 69.1534 70.2773 69.5858V74.9554C70.2773 75.3878 70.6274 75.7394 71.0579 75.7394H76.4038C76.8343 75.7394 77.1844 75.3878 77.1844 74.9554V69.5858C77.1844 69.1534 76.8343 68.8018 76.4038 68.8018ZM75.6232 74.1713H71.8338V70.3651H75.6232V74.1713Z" fill="black"/>
<path d="M55.9663 57.9155H50.6204C50.1899 57.9155 49.8398 58.2672 49.8398 58.6996V64.0691C49.8398 64.5015 50.1899 64.8532 50.6204 64.8532H55.9663C56.3968 64.8532 56.7469 64.5015 56.7469 64.0691V58.6996C56.7469 58.2672 56.3968 57.9155 55.9663 57.9155ZM55.1857 63.2851H51.3963V59.4789H55.1857V63.2851Z" fill="black"/>
<path d="M66.185 57.9155H60.8392C60.4087 57.9155 60.0586 58.2672 60.0586 58.6996V64.0691C60.0586 64.5015 60.4087 64.8532 60.8392 64.8532H66.185C66.6155 64.8532 66.9656 64.5015 66.9656 64.0691V58.6996C66.9656 58.2672 66.6155 57.9155 66.185 57.9155ZM65.4044 63.2851H61.615V59.4789H65.4044V63.2851Z" fill="black"/>
<path d="M76.4038 57.9155H71.0579C70.6274 57.9155 70.2773 58.2672 70.2773 58.6996V64.0691C70.2773 64.5015 70.6274 64.8532 71.0579 64.8532H76.4038C76.8343 64.8532 77.1844 64.5015 77.1844 64.0691V58.6996C77.1844 58.2672 76.8343 57.9155 76.4038 57.9155ZM75.6232 63.2851H71.8338V59.4789H75.6232V63.2851Z" fill="black"/>
<path d="M55.9663 47.0339H50.6204C50.1899 47.0339 49.8398 47.3856 49.8398 47.818V53.1875C49.8398 53.62 50.1899 53.9716 50.6204 53.9716H55.9663C56.3968 53.9716 56.7469 53.62 56.7469 53.1875V47.818C56.7469 47.3856 56.3968 47.0339 55.9663 47.0339ZM55.1857 52.4035H51.3963V48.5973H55.1857V52.4035Z" fill="black"/>
<path d="M66.185 47.0339H60.8392C60.4087 47.0339 60.0586 47.3856 60.0586 47.818V53.1875C60.0586 53.62 60.4087 53.9716 60.8392 53.9716H66.185C66.6155 53.9716 66.9656 53.62 66.9656 53.1875V47.818C66.9656 47.3856 66.6155 47.0339 66.185 47.0339ZM65.4044 52.4035H61.615V48.5973H65.4044V52.4035Z" fill="black"/>
<path d="M76.4038 47.0339H71.0579C70.6274 47.0339 70.2773 47.3856 70.2773 47.818V53.1875C70.2773 53.62 70.6274 53.9716 71.0579 53.9716H76.4038C76.8343 53.9716 77.1844 53.62 77.1844 53.1875V47.818C77.1844 47.3856 76.8343 47.0339 76.4038 47.0339ZM75.6232 52.4035H71.8338V48.5973H75.6232V52.4035Z" fill="black"/>
<path d="M87.9666 18.7178C80.7804 18.7178 74.9331 24.591 74.9331 31.809C74.9331 34.7647 75.8982 37.5587 77.677 39.8443H43.7806C43.3501 39.8443 43 40.196 43 40.6284V91.9385C43 92.3709 43.3501 92.7225 43.7806 92.7225H83.2499C83.6804 92.7225 84.0305 92.3709 84.0305 91.9385V44.2873C85.2984 44.6912 86.623 44.9003 87.9713 44.9003C95.1574 44.9003 101.005 39.027 101.005 31.809C101.005 24.591 95.1574 18.7178 87.9666 18.7178ZM60.3101 90.9739V84.882C60.3101 83.1096 61.7483 81.6651 63.5129 81.6651C65.2775 81.6651 66.7157 83.1096 66.7157 84.882V90.9739H60.3101ZM82.4693 91.1497H68.2721V84.882C68.2721 82.2448 66.1385 80.1017 63.5129 80.1017C60.8873 80.1017 58.7537 82.2448 58.7537 84.882V91.1497H44.5564V41.4077H82.4693V91.1544V91.1497ZM87.9666 43.3322C86.6088 43.3322 85.2842 43.0946 84.0258 42.6337V40.6189C84.0258 40.1865 83.6757 39.8348 83.2452 39.8348H79.7396C77.6439 37.6728 76.4896 34.8312 76.4896 31.7995C76.4896 25.4416 81.6367 20.2716 87.9666 20.2716C94.2964 20.2716 99.4436 25.4416 99.4436 31.7995C99.4436 38.1574 94.2964 43.3274 87.9666 43.3274V43.3322Z" fill="black"/>
</g>
<defs>
<clipPath id="clip0_170_5382">
<rect width="58" height="74" fill="white" transform="translate(43 18.7178)"/>
</clipPath>
</defs>
</svg>
