<?xml version="1.0" encoding="UTF-8"?><svg id="b" xmlns="http://www.w3.org/2000/svg" width="197.45" height="183.63" xmlns:xlink="http://www.w3.org/1999/xlink" viewBox="0 0 197.45 183.63"><defs><style>.t{mask:url(#j);}.u{mask:url(#p);}.v{mask:url(#l);}.w{mask:url(#r);}.x{mask:url(#h);}.y{mask:url(#n);}.z{mask:url(#d);}.aa{mask:url(#f);}.ab{fill:#2a69ef;}.ab,.ac,.ad,.ae,.af,.ag,.ah,.ai,.aj,.ak,.al{stroke-width:0px;}.ac{fill:#3e3e3e;}.ad{fill:#209038;}.ae{fill:#616365;}.af,.aj{fill:#eb701f;}.ag{fill:#e32a20;}.am{fill:#d9d9d9;stroke:#eb701f;stroke-width:.6px;}.ah{fill:#fff;}.ah,.aj{fill-rule:evenodd;}.ai{fill:#faa404;}.ak{fill:#e6d703;}.al{fill:#2968ef;}</style><mask id="d" x="57.31" y="153.75" width="15.11" height="14.6" maskUnits="userSpaceOnUse"><g id="e"><path class="ah" d="M64.87,154.35c-.2,0-.39.06-.56.16-.16.1-.3.25-.38.43l-1.58,3.2s0,.01,0,.02c0,0,0,0,0,0,0,0,0,0,0,0,0,0-.01,0-.02,0l-3.47.52c-.19.02-.38.09-.53.21-.16.12-.28.29-.35.48-.07.19-.08.39-.03.59.05.19.15.37.29.51l2.54,2.46h0s0,.01,0,.02,0,0,0,.01h0s-.61,3.56-.61,3.56h0c-.03.19-.01.39.06.57.07.18.2.34.35.45.16.11.35.18.54.2.19.01.39-.03.56-.12h0l3.13-1.66s.02,0,.04,0,.02,0,.04,0l3.13,1.66h0c.17.09.37.13.56.12.19-.01.38-.08.54-.2.16-.12.28-.27.35-.45.07-.18.09-.38.06-.57h0s-.61-3.56-.61-3.56h0s0-.01,0-.02c0,0,0,0,0-.01h0s2.54-2.47,2.54-2.47c.14-.14.25-.31.29-.51.05-.2.04-.4-.03-.59-.07-.19-.19-.35-.35-.48-.15-.12-.34-.19-.53-.21l-3.47-.52s-.01,0-.02,0c0,0,0,0,0,0,0,0,0,0,0,0,0,0,0-.01,0-.02l-1.58-3.2c-.08-.18-.21-.33-.38-.43-.17-.11-.36-.16-.56-.16Z"/></g></mask><mask id="f" x="91.55" y="153.75" width="15.11" height="14.6" maskUnits="userSpaceOnUse"><g id="g"><path class="ah" d="M99.11,154.35c-.2,0-.39.06-.56.16-.16.1-.29.25-.38.43l-1.58,3.2s0,.01,0,.02c0,0,0,0,0,0,0,0,0,0,0,0,0,0-.01,0-.02,0l-3.47.52c-.19.02-.38.09-.53.21-.16.12-.28.29-.35.48-.07.19-.08.39-.03.59.05.19.15.37.29.51l2.54,2.46h0s0,.01,0,.02c0,0,0,0,0,.01h0s-.61,3.56-.61,3.56h0c-.03.19-.01.39.06.57.07.18.2.34.35.45.16.11.35.18.54.2.19.01.39-.03.56-.12h0l3.13-1.66s.02,0,.04,0c.01,0,.02,0,.04,0l3.13,1.66h0c.17.09.37.13.56.12.19-.01.38-.08.54-.2.16-.12.28-.27.35-.45.07-.18.1-.38.06-.57h0s-.61-3.56-.61-3.56h0s0-.01,0-.02c0,0,0,0,0-.01h0s2.54-2.47,2.54-2.47c.14-.14.25-.31.29-.51.05-.2.03-.4-.03-.59-.07-.19-.19-.35-.35-.48-.15-.12-.34-.19-.53-.21l-3.47-.52s-.01,0-.02,0c0,0,0,0,0,0,0,0,0,0,0,0,0,0,0-.01,0-.02l-1.58-3.2c-.08-.18-.21-.33-.38-.43-.17-.11-.36-.16-.56-.16Z"/></g></mask><mask id="h" x="74.44" y="153.75" width="15.11" height="14.6" maskUnits="userSpaceOnUse"><g id="i"><path class="ah" d="M81.99,154.35c-.2,0-.39.06-.56.16-.16.1-.3.25-.38.43l-1.58,3.2s0,.01,0,.02c0,0,0,0,0,0,0,0,0,0,0,0,0,0-.01,0-.02,0l-3.47.52c-.19.02-.38.09-.53.21-.16.12-.28.29-.35.48-.07.19-.08.39-.03.59.05.19.15.37.29.51l2.54,2.46h0s0,.01,0,.02,0,0,0,.01h0s-.61,3.56-.61,3.56h0c-.03.19-.01.39.06.57.07.18.2.34.35.45.16.11.35.18.54.2.19.01.39-.03.56-.12h0l3.13-1.66s.02,0,.04,0,.02,0,.04,0l3.13,1.66h0c.17.09.37.13.56.12.19-.01.38-.08.54-.2.16-.12.28-.27.35-.45.07-.18.09-.38.06-.57h0s-.61-3.56-.61-3.56h0s0-.01,0-.02c0,0,0,0,0-.01h0s2.54-2.47,2.54-2.47c.14-.14.25-.31.29-.51.05-.2.04-.4-.03-.59-.07-.19-.19-.35-.35-.48-.15-.12-.34-.19-.53-.21l-3.47-.52s-.01,0-.02,0c0,0,0,0,0,0,0,0,0,0,0,0,0,0,0-.01,0-.02l-1.58-3.2c-.08-.18-.21-.33-.38-.43-.17-.11-.36-.16-.56-.16Z"/></g></mask><mask id="j" x="108.68" y="153.75" width="15.11" height="14.6" maskUnits="userSpaceOnUse"><g id="k"><path class="ah" d="M116.24,154.35c-.2,0-.39.06-.56.16-.16.1-.29.25-.38.43l-1.58,3.2s0,.01,0,.02c0,0,0,0,0,0,0,0,0,0,0,0,0,0-.01,0-.02,0l-3.47.52c-.19.02-.38.09-.53.21-.16.12-.28.29-.35.48-.07.19-.08.39-.03.59.05.19.15.37.29.51l2.54,2.46h0s0,.01,0,.02,0,0,0,.01h0s-.61,3.56-.61,3.56h0c-.03.19-.01.39.06.57.07.18.2.34.35.45.16.11.35.18.54.2.19.01.39-.03.56-.12h0l3.13-1.66s.02,0,.03,0c.01,0,.03,0,.04,0l3.13,1.66h0c.17.09.37.13.56.12.19-.01.38-.08.54-.2.16-.12.28-.27.35-.45.07-.18.1-.38.06-.57h0s-.61-3.56-.61-3.56h0s0-.01,0-.02c0,0,0,0,0-.01h0s2.54-2.47,2.54-2.47c.14-.14.25-.31.29-.51.05-.2.04-.4-.03-.59-.07-.19-.19-.35-.35-.48-.15-.12-.34-.19-.53-.21l-3.47-.52s-.01,0-.02,0c0,0,0,0,0,0,0,0,0,0,0,0,0,0,0-.01,0-.02l-1.58-3.2c-.08-.18-.21-.33-.38-.43-.17-.11-.36-.16-.56-.16Z"/></g></mask><mask id="l" x="125.2" y="153.75" width="15.7" height="14.6" maskUnits="userSpaceOnUse"><g id="m"><rect class="am" x="125.5" y="154.65" width="11.76" height="13.18"/></g></mask><mask id="n" x="125.79" y="153.75" width="15.11" height="14.6" maskUnits="userSpaceOnUse"><g id="o"><path class="ah" d="M133.35,154.35c-.2,0-.39.06-.56.16-.16.1-.29.25-.38.43l-1.58,3.2s0,.01,0,.02c0,0,0,0,0,0,0,0,0,0,0,0,0,0-.01,0-.02,0l-3.47.52c-.19.02-.38.09-.53.21-.16.12-.28.29-.35.48-.07.19-.08.39-.03.59.05.2.15.37.29.51l2.54,2.46h0s0,.01,0,.02c0,0,0,0,0,.01h0s-.61,3.56-.61,3.56h0c-.03.19-.01.39.06.57.07.18.2.34.35.45.16.12.35.18.54.2.19.01.39-.03.56-.12h0l3.13-1.66s.02,0,.04,0,.02,0,.04,0l3.13,1.66h0c.17.09.37.13.56.12.2-.01.38-.08.54-.2.16-.11.28-.27.35-.45.07-.18.09-.38.06-.57h0s-.61-3.56-.61-3.56h0s0-.01,0-.02c0,0,0,0,0-.01h0s2.54-2.47,2.54-2.47c.14-.14.25-.31.29-.51.05-.19.04-.4-.03-.59-.07-.19-.19-.35-.35-.48-.15-.12-.34-.19-.53-.21l-3.48-.52s-.01,0-.02,0c0,0,0,0,0,0,0,0,0,0,0,0,0,0,0-.01,0-.02l-1.58-3.2c-.08-.18-.21-.33-.38-.43-.17-.11-.36-.16-.56-.16Z"/></g></mask><mask id="p" x="125.8" y="153.75" width="15.11" height="14.6" maskUnits="userSpaceOnUse"><g id="q"><rect class="am" x="136.49" y="154.65" width="3.52" height="13.18"/></g></mask><mask id="r" x="125.8" y="153.75" width="15.11" height="14.6" maskUnits="userSpaceOnUse"><g id="s"><path class="ah" d="M133.35,154.35c-.2,0-.39.06-.56.16-.16.1-.29.25-.38.43l-1.58,3.2s0,.01,0,.02c0,0,0,0,0,0,0,0,0,0,0,0,0,0-.01,0-.02,0l-3.47.52c-.19.02-.38.09-.53.21-.16.12-.28.29-.35.48-.07.19-.08.39-.03.59.05.2.15.37.29.51l2.54,2.46h0s0,.01,0,.02c0,0,0,0,0,.01h0s-.61,3.56-.61,3.56h0c-.03.19-.01.39.06.57.07.18.2.34.35.45.16.12.35.18.54.2.19.01.39-.03.56-.12h0l3.13-1.66s.02,0,.04,0c.01,0,.02,0,.04,0l3.13,1.66h0c.17.09.37.13.56.12.19-.01.38-.08.54-.2.16-.11.28-.27.35-.45.07-.18.1-.38.06-.57h0s-.61-3.56-.61-3.56h0s0-.01,0-.02c0,0,0,0,0-.01h0s2.54-2.47,2.54-2.47c.14-.14.24-.31.29-.51.05-.19.04-.4-.03-.59-.07-.19-.19-.35-.35-.48-.15-.12-.34-.19-.53-.21l-3.47-.52s-.01,0-.02,0c0,0,0,0,0,0,0,0,0,0,0,0,0,0,0-.01,0-.02l-1.58-3.2c-.08-.18-.21-.33-.38-.43-.17-.11-.36-.16-.56-.16Z"/></g></mask></defs><g id="c"><path class="ak" d="M43.01,175.91c.79-.26,1.58-.29,2.33-.19.75.1,1.48.3,2.1.55.31.12.6.26.86.39.26.12.49.24.68.35.38.21.6.36.6.36,0,0-.32,1.18-1.02,2.52-.35.67-.8,1.39-1.36,2.01-.56.62-1.24,1.17-2.04,1.45-.8.29-1.64.32-2.47.21-.41-.05-.81-.16-1.19-.29-.38-.13-.75-.28-1.09-.45-.34-.16-.66-.33-.94-.49-.28-.17-.52-.34-.72-.48-.4-.29-.63-.49-.63-.49,0,0,.43-1.13,1.26-2.37.42-.62.93-1.27,1.54-1.82.61-.56,1.3-1,2.09-1.27h0Z"/><path class="ak" d="M45.76,170.13c.18.9.56,1.69,1.01,2.38.46.68,1.02,1.21,1.54,1.65.26.22.52.41.76.57.24.15.46.28.65.38.37.2.61.29.61.29,0,0,.53-1.07.93-2.57.2-.75.38-1.62.45-2.5.07-.89.04-1.79-.15-2.67-.19-.88-.54-1.62-.95-2.24-.21-.3-.42-.6-.64-.87-.22-.26-.45-.5-.67-.71-.22-.21-.44-.39-.64-.54-.2-.16-.38-.3-.53-.4-.31-.22-.51-.32-.51-.32,0,0-.62.99-1.17,2.43-.28.72-.53,1.55-.68,2.43-.14.88-.19,1.83,0,2.72h0Z"/><path class="ak" d="M32.64,167.39c.4-.04.8-.03,1.18.03.39.05.77.14,1.14.27.73.24,1.39.63,1.98.99,1.17.73,1.94,1.53,1.94,1.53,0,0-.49,1.1-1.37,2.28-.88,1.18-2.17,2.44-3.83,2.7-.41.07-.83.07-1.25.01-.41-.06-.81-.17-1.2-.32-.39-.15-.77-.33-1.13-.53-.36-.2-.7-.42-1.01-.66-.61-.47-1.13-.95-1.48-1.31-.18-.18-.32-.33-.41-.44-.1-.1-.14-.17-.14-.17,0,0,.58-1.03,1.58-2.08,1-1.05,2.41-2.14,4.02-2.32h0Z"/><path class="ak" d="M36.18,162.25c.02.47.09.92.21,1.35.11.43.27.82.45,1.2.36.75.81,1.43,1.27,1.96.93,1.05,1.8,1.64,1.8,1.64,0,0,.67-.94,1.29-2.35.62-1.4,1.19-3.27,1.05-5.06-.03-.45-.11-.87-.22-1.27-.1-.41-.24-.79-.39-1.14-.15-.36-.33-.68-.51-.98-.19-.3-.38-.57-.56-.84-.37-.51-.74-.91-1.02-1.18-.14-.14-.26-.24-.34-.31-.08-.07-.13-.11-.13-.11,0,0-.75.85-1.5,2.16-.75,1.3-1.48,3.06-1.4,4.93Z"/><path class="ak" d="M23.63,156.85c.81.07,1.57.36,2.24.77.17.1.33.21.49.32.16.11.32.22.47.34.31.23.59.48.84.72.51.49.92.98,1.23,1.32.3.35.46.59.46.59,0,0-.64.98-1.67,1.97-.52.49-1.14.98-1.85,1.35-.35.18-.72.33-1.11.43-.39.1-.79.14-1.2.11-.83-.05-1.63-.36-2.37-.8-.73-.45-1.37-1.05-1.92-1.62-.27-.29-.52-.57-.73-.85-.21-.28-.39-.53-.53-.75-.29-.43-.45-.72-.45-.72,0,0,.72-.9,1.85-1.73,1.13-.83,2.66-1.6,4.26-1.44h0Z"/><path class="ak" d="M27.86,152.5c-.08.92.05,1.82.28,2.65.06.21.12.41.2.61.07.2.16.38.24.56.17.36.35.71.54,1.01.37.62.74,1.14,1.04,1.47.29.34.49.52.49.52,0,0,.8-.79,1.6-2.05.4-.63.81-1.37,1.13-2.18.16-.4.3-.83.4-1.26.11-.43.19-.88.22-1.34.07-.91-.05-1.75-.26-2.5-.2-.77-.48-1.46-.79-2.03-.15-.29-.31-.54-.45-.77-.14-.23-.27-.44-.39-.6-.23-.33-.39-.51-.39-.51,0,0-.86.69-1.78,1.82-.92,1.13-1.91,2.73-2.09,4.59h0Z"/><path class="ak" d="M16.35,144.58c1.54.5,2.8,1.77,3.65,2.97.89,1.16,1.39,2.23,1.39,2.23,0,0-.77.84-1.93,1.6-1.16.75-2.72,1.42-4.36,1-.83-.2-1.55-.69-2.2-1.29-.65-.6-1.23-1.3-1.66-1.99-.45-.69-.79-1.35-1.02-1.83-.12-.24-.21-.44-.26-.58-.05-.14-.08-.22-.08-.22,0,0,.84-.74,2.06-1.32,1.22-.58,2.85-1.03,4.41-.55h0Z"/><path class="ak" d="M21.12,141.16c-.46,1.81,0,3.65.53,5.05.57,1.37,1.23,2.27,1.23,2.27,0,0,.89-.62,1.87-1.69.98-1.07,2.04-2.61,2.41-4.35.18-.87.21-1.74.11-2.53-.09-.79-.29-1.52-.49-2.16-.21-.63-.44-1.16-.63-1.53-.09-.18-.17-.33-.22-.43-.05-.1-.08-.15-.08-.15,0,0-.94.5-2.02,1.43-1.08.93-2.26,2.29-2.7,4.09h0Z"/><path class="ak" d="M10.92,130.96c1.49.79,2.47,2.35,3.18,3.68.35.67.59,1.3.77,1.75.18.45.27.74.27.74,0,0-.87.67-2.12,1.18-1.25.5-2.91.86-4.43.08-.76-.39-1.43-1-2-1.72-.54-.73-.99-1.55-1.34-2.32-.36-.76-.58-1.5-.73-2.03-.15-.53-.22-.86-.22-.86,0,0,.93-.55,2.22-.88,1.29-.32,2.95-.43,4.4.38h0Z"/><path class="ak" d="M16.1,128.58c-.67,1.67-.56,3.62-.19,5.09.18.74.38,1.38.56,1.81.18.44.31.69.31.69,0,0,.97-.43,2.08-1.29,1.12-.86,2.35-2.14,2.99-3.8.32-.83.44-1.66.46-2.46.04-.81-.04-1.57-.16-2.23-.13-.66-.26-1.24-.39-1.64-.12-.4-.22-.64-.22-.64,0,0-1,.3-2.19.99s-2.56,1.79-3.27,3.48h0Z"/><path class="ak" d="M7.58,116.38c1.3,1.1,2.12,2.82,2.57,4.3.51,1.46.67,2.67.67,2.67,0,0-.95.48-2.26.72-1.3.24-2.95.23-4.36-.84-.72-.53-1.25-1.29-1.7-2.12-.44-.83-.78-1.73-.99-2.57-.22-.84-.35-1.6-.43-2.15-.04-.28-.07-.5-.08-.66,0-.15-.02-.24-.02-.24,0,0,.99-.35,2.31-.4,1.31-.05,2.97.19,4.29,1.29Z"/><path class="ak" d="M13.01,115.11c-.95,1.52-1.05,3.45-.95,4.99.15,1.53.5,2.65.5,2.65,0,0,1.01-.22,2.23-.84,1.22-.61,2.65-1.63,3.49-3.12.41-.74.69-1.56.83-2.34.14-.78.15-1.55.16-2.23-.01-.68-.08-1.27-.15-1.7-.03-.21-.07-.38-.09-.5-.02-.12-.03-.18-.03-.18,0,0-1.02.08-2.29.52-1.28.44-2.76,1.23-3.69,2.75h0Z"/><path class="ak" d="M6.39,101.3c.58.68.99,1.48,1.28,2.32.3.83.52,1.68.64,2.46.13.77.18,1.47.22,1.97.04.5.04.81.04.81,0,0-1.01.27-2.32.24-.66-.02-1.39-.12-2.12-.38-.73-.26-1.45-.68-2.05-1.36-.6-.67-1.04-1.53-1.37-2.44-.17-.45-.28-.92-.37-1.38-.09-.46-.16-.92-.21-1.35-.1-.87-.14-1.65-.12-2.21.01-.56.04-.9.04-.9,0,0,1.02-.14,2.33.08.65.11,1.37.31,2.07.65.69.34,1.36.83,1.95,1.5h0Z"/><path class="ak" d="M11.92,101.17c-.56.65-.94,1.45-1.21,2.28-.26.83-.37,1.68-.43,2.45-.05.77-.04,1.45.01,1.94.04.49.09.78.09.78,0,0,1.03,0,2.31-.36.64-.18,1.35-.44,2.02-.82.68-.38,1.31-.88,1.86-1.53.54-.65.9-1.39,1.15-2.14.12-.37.23-.75.31-1.12.08-.37.14-.73.18-1.06.08-.68.08-1.28.1-1.71,0-.43-.02-.7-.02-.7,0,0-1.02-.13-2.33.04-.66.08-1.38.25-2.09.55-.71.3-1.4.75-1.95,1.4h0Z"/><path class="ak" d="M7.38,86.17c.46.79.77,1.67.94,2.55.09.44.15.88.18,1.31.05.43.08.85.09,1.25.02.79-.02,1.49-.06,1.99-.02.25-.04.45-.05.59-.02.14-.02.22-.02.22,0,0-1.03.06-2.32-.24-.64-.15-1.36-.4-2.03-.81-.67-.4-1.31-.97-1.81-1.76-.25-.39-.46-.83-.62-1.28-.17-.45-.3-.93-.38-1.41-.17-.96-.21-1.95-.2-2.82,0-.44.04-.85.08-1.22.04-.37.09-.7.13-.98.09-.55.17-.88.17-.88,0,0,1.03.07,2.28.56,1.25.49,2.72,1.39,3.63,2.95Z"/><path class="ak" d="M12.83,87.17c-.65.53-1.12,1.24-1.5,2-.19.38-.34.78-.48,1.17-.12.39-.22.79-.29,1.16-.15.75-.23,1.43-.27,1.92-.02.24-.02.44-.02.58,0,.14,0,.21,0,.21,0,0,1.01.21,2.33.12.66-.04,1.38-.16,2.11-.4.72-.24,1.44-.6,2.06-1.13.31-.27.58-.57.81-.88.23-.32.43-.65.62-.99.37-.68.61-1.4.78-2.05.08-.33.16-.64.22-.92.06-.28.1-.53.13-.75.06-.43.08-.69.08-.69,0,0-.99-.34-2.29-.44-1.31-.1-2.94.04-4.26,1.1h0Z"/><path class="ak" d="M10.55,71.43c.66,1.74.65,3.73.43,5.29-.17,1.57-.53,2.73-.53,2.73,0,0-1.02-.15-2.24-.72-1.22-.57-2.64-1.56-3.41-3.34-.4-.89-.54-1.87-.58-2.86-.03-.99.04-1.98.21-2.83.16-.86.36-1.61.52-2.14.16-.53.29-.84.29-.84,0,0,1,.28,2.15,1.03,1.15.74,2.48,1.94,3.16,3.68h0Z"/><path class="ak" d="M15.76,73.56c-1.45.76-2.33,2.39-2.88,3.79-.5,1.42-.66,2.62-.66,2.62,0,0,.96.41,2.27.6,1.31.19,2.95.15,4.3-.65.66-.41,1.24-.95,1.68-1.55.45-.6.77-1.26,1.06-1.86.27-.6.46-1.16.57-1.57.11-.41.18-.67.18-.67,0,0-.92-.54-2.19-.91-1.28-.38-2.9-.57-4.32.2h0Z"/><path class="ak" d="M15.78,57.54c.44,1.88.07,3.8-.32,5.32-.2.76-.46,1.39-.62,1.85-.17.46-.3.73-.3.73,0,0-.98-.36-2.1-1.18-.56-.41-1.15-.93-1.67-1.6-.26-.33-.5-.7-.71-1.1-.2-.4-.37-.84-.49-1.31-.24-.95-.27-1.97-.17-2.96.12-.98.36-1.92.63-2.74.26-.83.58-1.51.83-2,.24-.49.41-.77.41-.77,0,0,.94.49,1.97,1.46,1.03.97,2.14,2.42,2.55,4.28h0Z"/><path class="ak" d="M20.59,60.73c-1.49.48-2.66,1.86-3.36,3.15-.36.64-.64,1.24-.8,1.7-.16.45-.24.74-.24.74,0,0,.89.61,2.14,1.06.63.23,1.34.42,2.08.49.37.03.74.04,1.12,0,.38-.03.75-.11,1.12-.23.73-.25,1.35-.68,1.87-1.19.53-.5.98-1.06,1.32-1.61.34-.55.62-1.05.8-1.43.18-.38.27-.62.27-.62,0,0-.83-.72-2.02-1.36-1.19-.63-2.77-1.17-4.29-.71h0Z"/><path class="ak" d="M22.94,44.93c.12,1.91-.45,3.79-1.1,5.17-.61,1.42-1.28,2.36-1.28,2.36,0,0-.91-.56-1.89-1.6-.98-1.04-2.02-2.55-2.24-4.55-.12-1,.02-1.99.27-2.94.25-.95.6-1.85,1-2.59.39-.75.79-1.37,1.09-1.81.15-.22.28-.39.37-.5.09-.11.14-.17.14-.17,0,0,.86.68,1.72,1.85.86,1.17,1.76,2.84,1.91,4.77h0Z"/><path class="ak" d="M27.21,49.07c-1.57.13-2.86,1.3-3.78,2.4-.88,1.13-1.37,2.2-1.37,2.2,0,0,.78.79,1.95,1.5,1.17.71,2.72,1.36,4.21,1.15.74-.11,1.43-.39,2.02-.78.59-.39,1.09-.88,1.52-1.33.43-.46.76-.91.99-1.25.11-.17.2-.31.26-.41.06-.1.09-.15.09-.15,0,0-.7-.88-1.79-1.76-1.09-.88-2.55-1.73-4.1-1.58h0Z"/><path class="ak" d="M31.78,33.94c-.06.97-.31,1.89-.65,2.7-.17.41-.37.79-.56,1.16-.19.37-.4.72-.6,1.03-.41.63-.82,1.13-1.11,1.49-.29.37-.49.57-.49.57,0,0-.81-.74-1.63-1.97-.81-1.23-1.64-2.97-1.55-4.95.05-.99.3-1.97.68-2.86.39-.87.88-1.67,1.36-2.34.12-.17.24-.33.36-.48.12-.14.24-.28.36-.41.23-.26.44-.48.62-.66.36-.36.6-.56.6-.56,0,0,.74.84,1.43,2.18.69,1.34,1.33,3.17,1.18,5.08h0Z"/><path class="ak" d="M35.38,38.91c-.77-.08-1.52.1-2.21.4-.34.16-.68.33-.98.54-.3.21-.59.44-.85.67-.52.46-.95.92-1.23,1.28s-.44.6-.44.6c0,0,.66.94,1.7,1.88,1.05.95,2.46,1.88,3.97,2.01.76.06,1.45-.1,2.09-.36.64-.25,1.22-.61,1.69-.99.12-.09.23-.19.34-.28.11-.09.22-.18.31-.26.19-.17.36-.34.5-.48.28-.28.43-.48.43-.48,0,0-.57-1.02-1.51-2.1-.94-1.08-2.26-2.23-3.82-2.42h0Z"/><path class="ak" d="M42.04,24.94c-.1.47-.25.91-.43,1.33s-.39.8-.61,1.19c-.44.75-.96,1.4-1.46,1.92-.49.53-.95.97-1.3,1.26-.34.29-.57.45-.57.45,0,0-.7-.9-1.32-2.28-.63-1.38-1.17-3.24-.81-5.21.18-.99.59-1.87,1.09-2.67.25-.4.52-.77.8-1.12.29-.33.58-.64.87-.91.58-.55,1.13-.98,1.53-1.27.41-.28.68-.42.68-.42,0,0,.61.99,1.09,2.45.24.73.45,1.58.55,2.47.1.9.09,1.86-.11,2.8h0Z"/><path class="ak" d="M44.87,30.59c-.37-.12-.75-.18-1.13-.19-.38-.01-.75.02-1.11.11-.72.17-1.39.48-1.98.82-.58.34-1.05.74-1.38,1.02-.33.29-.52.49-.52.49,0,0,.51,1.06,1.4,2.21.89,1.15,2.16,2.38,3.61,2.79.73.2,1.45.22,2.11.09.33-.06.65-.16.95-.28.31-.1.59-.22.86-.36.53-.26.97-.56,1.27-.79.31-.22.49-.37.49-.37,0,0-.41-1.12-1.18-2.39-.39-.63-.86-1.3-1.43-1.88-.57-.57-1.22-1.04-1.97-1.28h0Z"/><path class="ak" d="M55.05,25.03c-.7.36-1.44.49-2.16.47-.72,0-1.42-.11-2.05-.28-.62-.16-1.17-.39-1.56-.54-.38-.16-.62-.28-.62-.28,0,0,.21-1.22.85-2.63.32-.7.73-1.48,1.26-2.16.54-.67,1.19-1.26,1.96-1.66.77-.39,1.59-.49,2.35-.47.39.02.76.06,1.11.14.36.09.7.2,1.01.32,1.25.49,2.09,1.15,2.09,1.15,0,0-.39,1.16-1.11,2.47-.18.33-.38.66-.6.98-.22.32-.46.67-.72.98-.52.63-1.13,1.15-1.83,1.5h0Z"/><path class="ak" d="M154.44,175.91c-.79-.26-1.58-.29-2.33-.19-.75.1-1.48.3-2.1.55-.31.12-.6.26-.85.39-.26.12-.49.24-.68.35-.38.21-.6.36-.6.36,0,0,.32,1.18,1.02,2.52.35.67.8,1.39,1.36,2.01.56.62,1.24,1.17,2.04,1.45.8.29,1.64.32,2.46.21.42-.05.81-.16,1.19-.29.38-.13.75-.28,1.09-.45.34-.16.66-.33.94-.49.28-.17.52-.34.72-.48.4-.29.63-.49.63-.49,0,0-.43-1.13-1.26-2.37-.42-.62-.93-1.27-1.54-1.82-.61-.56-1.3-1-2.09-1.27h0Z"/><path class="ak" d="M151.68,170.13c-.18.9-.56,1.69-1.01,2.38-.46.68-1.02,1.21-1.54,1.65-.26.22-.52.41-.76.57-.24.15-.46.28-.65.38-.37.2-.61.29-.61.29,0,0-.53-1.07-.93-2.57-.2-.75-.38-1.62-.45-2.5-.07-.89-.04-1.79.15-2.67.19-.88.54-1.62.95-2.24.21-.3.42-.6.64-.87.22-.26.45-.5.67-.71.22-.21.44-.39.64-.54.2-.16.38-.3.54-.4.31-.22.51-.32.51-.32,0,0,.62.99,1.17,2.43.28.72.53,1.55.68,2.43.14.88.19,1.83,0,2.72h0Z"/><path class="ak" d="M164.81,167.4c-.4-.04-.8-.03-1.18.03-.39.05-.77.14-1.14.27-.73.24-1.39.63-1.98.99-1.17.73-1.94,1.53-1.94,1.53,0,0,.49,1.1,1.37,2.28.88,1.18,2.17,2.44,3.83,2.7.42.07.84.07,1.25.01.41-.06.81-.17,1.2-.32.39-.15.77-.33,1.13-.53.36-.2.7-.42,1.01-.66.61-.47,1.12-.95,1.48-1.31.18-.18.32-.33.41-.44.1-.1.14-.17.14-.17,0,0-.58-1.03-1.58-2.08-1-1.05-2.41-2.14-4.02-2.32h0Z"/><path class="ak" d="M161.27,162.26c-.02.47-.09.92-.2,1.35-.11.43-.27.82-.45,1.2-.36.75-.81,1.43-1.27,1.96-.93,1.05-1.8,1.64-1.8,1.64,0,0-.67-.94-1.29-2.35-.62-1.4-1.19-3.27-1.05-5.06.03-.45.11-.87.22-1.27.1-.41.24-.79.39-1.14.16-.36.33-.68.51-.98.19-.3.38-.57.56-.84.37-.51.74-.91,1.02-1.18.14-.14.26-.24.34-.31s.13-.11.13-.11c0,0,.75.85,1.5,2.16.75,1.3,1.48,3.06,1.39,4.93Z"/><path class="ak" d="M173.82,156.85c-.81.07-1.57.36-2.24.77-.17.1-.33.21-.49.32-.16.11-.32.22-.47.34-.31.23-.59.48-.84.72-.51.49-.92.98-1.23,1.32-.3.35-.46.59-.46.59,0,0,.64.98,1.67,1.97.52.49,1.14.98,1.85,1.35.35.18.72.33,1.11.43.39.1.79.14,1.2.11.83-.05,1.63-.36,2.37-.8.73-.45,1.37-1.05,1.92-1.62.27-.29.53-.57.73-.85.21-.28.39-.53.53-.75.29-.43.45-.72.45-.72,0,0-.72-.9-1.85-1.73-1.13-.83-2.66-1.6-4.26-1.44h0Z"/><path class="ak" d="M169.59,152.5c.08.92-.04,1.82-.28,2.65-.06.21-.12.41-.2.61-.07.2-.16.38-.24.56-.17.36-.35.71-.54,1.01-.37.62-.74,1.14-1.04,1.47-.29.34-.49.52-.49.52,0,0-.8-.79-1.6-2.05-.4-.63-.81-1.37-1.13-2.18-.16-.4-.3-.83-.4-1.26-.11-.43-.19-.88-.22-1.34-.07-.91.05-1.75.26-2.5.2-.77.48-1.46.79-2.03.15-.29.31-.54.45-.77.14-.23.27-.44.39-.6.23-.33.39-.51.39-.51,0,0,.86.69,1.78,1.82.92,1.13,1.91,2.73,2.09,4.59h0Z"/><path class="ak" d="M181.09,144.58c-1.54.5-2.8,1.77-3.65,2.97-.89,1.16-1.39,2.23-1.39,2.23,0,0,.76.84,1.93,1.6,1.16.75,2.73,1.42,4.36,1,.83-.2,1.55-.69,2.21-1.29.65-.6,1.23-1.3,1.66-1.99.44-.69.79-1.35,1.02-1.83.12-.24.21-.44.26-.58.05-.14.09-.22.09-.22,0,0-.84-.74-2.07-1.32-1.22-.58-2.85-1.03-4.41-.55h0Z"/><path class="ak" d="M176.32,141.16c.46,1.81,0,3.65-.53,5.05-.57,1.37-1.23,2.27-1.23,2.27,0,0-.9-.62-1.87-1.69-.97-1.07-2.03-2.61-2.41-4.35-.18-.87-.21-1.74-.11-2.53.09-.79.29-1.52.49-2.16.21-.63.44-1.16.63-1.53.09-.18.17-.33.22-.43.05-.1.08-.15.08-.15,0,0,.94.5,2.02,1.43,1.08.93,2.26,2.29,2.7,4.09h0Z"/><path class="ak" d="M186.54,130.96c-1.49.79-2.47,2.35-3.18,3.68-.35.67-.59,1.3-.77,1.75-.18.45-.27.74-.27.74,0,0,.87.67,2.12,1.18,1.25.5,2.91.86,4.43.08.76-.39,1.43-1,2-1.72.55-.73.99-1.55,1.34-2.32.36-.76.58-1.5.73-2.03.15-.53.22-.86.22-.86,0,0-.93-.55-2.22-.88-1.29-.32-2.95-.43-4.4.38h0Z"/><path class="ak" d="M181.35,128.58c.67,1.67.56,3.62.19,5.09-.18.74-.38,1.38-.56,1.81-.18.44-.31.69-.31.69,0,0-.97-.43-2.08-1.29-1.12-.86-2.35-2.14-2.99-3.8-.32-.83-.44-1.66-.46-2.46-.04-.81.04-1.57.16-2.23.13-.66.26-1.24.39-1.64.12-.4.22-.64.22-.64,0,0,1,.3,2.19.99,1.18.69,2.55,1.79,3.27,3.48h0Z"/><path class="ak" d="M189.88,116.38c-1.29,1.1-2.12,2.82-2.57,4.3-.51,1.46-.67,2.67-.67,2.67,0,0,.96.48,2.26.72,1.3.24,2.95.23,4.36-.84.72-.53,1.25-1.29,1.7-2.12.44-.83.78-1.73.99-2.57.22-.84.35-1.6.43-2.15.04-.28.07-.5.08-.66,0-.15.01-.24.01-.24,0,0-.99-.35-2.31-.4-1.31-.05-2.97.19-4.29,1.29Z"/><path class="ak" d="M184.44,115.11c.95,1.52,1.04,3.45.95,4.99-.15,1.53-.5,2.65-.5,2.65,0,0-1.01-.22-2.23-.83-1.22-.61-2.65-1.63-3.49-3.12-.41-.74-.69-1.56-.83-2.34-.14-.78-.15-1.55-.16-2.23,0-.68.08-1.27.15-1.7.03-.21.07-.38.09-.5.02-.12.03-.18.03-.18,0,0,1.02.08,2.29.52,1.28.44,2.76,1.23,3.69,2.75h0Z"/><path class="ak" d="M191.06,101.3c-.58.68-.99,1.48-1.28,2.32-.3.83-.51,1.68-.64,2.46-.13.77-.18,1.47-.22,1.97-.04.5-.04.81-.04.81,0,0,1.01.27,2.32.24.66-.02,1.39-.12,2.12-.38.73-.26,1.45-.68,2.05-1.36.6-.67,1.04-1.53,1.37-2.44.17-.45.28-.92.37-1.38.09-.46.16-.92.21-1.35.1-.87.14-1.65.12-2.21-.01-.56-.04-.9-.04-.9,0,0-1.02-.14-2.33.08-.65.11-1.37.31-2.07.65-.69.34-1.36.83-1.95,1.5h0Z"/><path class="ak" d="M185.53,101.17c.56.65.94,1.45,1.21,2.28.26.83.37,1.68.43,2.45.05.77.04,1.45-.01,1.94-.04.49-.1.78-.1.78,0,0-1.03,0-2.31-.36-.64-.18-1.35-.44-2.02-.82-.68-.38-1.31-.88-1.86-1.53-.54-.65-.9-1.39-1.15-2.14-.12-.37-.23-.75-.31-1.12-.08-.37-.14-.73-.18-1.06-.08-.68-.08-1.28-.1-1.71,0-.43.02-.7.02-.7,0,0,1.02-.13,2.33.04.65.08,1.38.25,2.09.55.71.3,1.4.75,1.95,1.4h0Z"/><path class="ak" d="M190.08,86.17c-.46.79-.77,1.67-.95,2.55-.09.44-.15.88-.18,1.31-.05.43-.08.85-.09,1.25-.02.79.02,1.49.06,1.99.02.25.04.45.06.59.02.14.02.22.02.22,0,0,1.03.06,2.32-.24.65-.15,1.36-.4,2.03-.81.67-.4,1.31-.97,1.81-1.76.25-.39.46-.83.62-1.28.17-.45.3-.93.38-1.41.17-.96.21-1.95.2-2.82,0-.44-.04-.85-.08-1.22-.04-.37-.09-.7-.13-.98-.09-.55-.17-.88-.17-.88,0,0-1.03.07-2.28.56-1.25.49-2.72,1.39-3.63,2.95Z"/><path class="ak" d="M184.62,87.17c.65.53,1.12,1.24,1.5,2,.19.38.35.78.48,1.17.12.39.22.79.29,1.16.15.75.23,1.43.27,1.92.02.24.02.44.02.58,0,.14,0,.21,0,.21,0,0-1.01.21-2.33.12-.66-.04-1.38-.16-2.1-.4-.72-.24-1.44-.6-2.06-1.13-.31-.27-.58-.57-.81-.88-.23-.32-.43-.65-.62-.99-.37-.68-.61-1.4-.78-2.05-.08-.33-.16-.64-.22-.92-.06-.28-.1-.53-.13-.75-.06-.43-.08-.69-.08-.69,0,0,.99-.34,2.3-.44,1.31-.1,2.94.04,4.26,1.1h0Z"/><path class="ak" d="M186.91,71.43c-.66,1.74-.65,3.73-.43,5.29.17,1.57.53,2.73.53,2.73,0,0,1.02-.15,2.24-.72,1.22-.57,2.64-1.56,3.41-3.34.4-.89.54-1.87.58-2.86.03-.99-.04-1.98-.21-2.83-.16-.86-.36-1.61-.52-2.14-.16-.53-.29-.84-.29-.84,0,0-1,.28-2.15,1.03-1.15.74-2.48,1.94-3.16,3.68h0Z"/><path class="ak" d="M181.7,73.56c1.45.76,2.33,2.39,2.88,3.79.5,1.42.66,2.62.66,2.62,0,0-.96.41-2.27.6-1.31.19-2.96.15-4.3-.65-.66-.41-1.24-.95-1.68-1.55-.45-.6-.77-1.26-1.06-1.86-.27-.6-.46-1.16-.58-1.57-.11-.41-.17-.67-.17-.67,0,0,.92-.54,2.19-.91,1.28-.38,2.9-.57,4.32.2h0Z"/><path class="ak" d="M181.67,57.54c-.44,1.88-.07,3.8.32,5.32.21.76.46,1.39.62,1.85.18.46.3.73.3.73,0,0,.98-.36,2.1-1.18.56-.41,1.15-.93,1.67-1.6.26-.33.5-.7.71-1.1.2-.4.37-.84.49-1.31.24-.95.27-1.97.17-2.96-.12-.98-.36-1.92-.63-2.74-.26-.83-.58-1.51-.83-2-.24-.49-.41-.77-.41-.77,0,0-.94.49-1.97,1.46-1.03.97-2.14,2.42-2.56,4.28h0Z"/><path class="ak" d="M176.86,60.73c1.49.48,2.66,1.86,3.36,3.15.36.64.64,1.24.8,1.7.16.45.24.74.24.74,0,0-.89.61-2.14,1.06-.63.23-1.34.42-2.08.49-.37.03-.74.04-1.12,0-.38-.03-.75-.11-1.12-.23-.73-.25-1.35-.68-1.87-1.19-.54-.5-.98-1.06-1.32-1.61-.34-.55-.62-1.05-.8-1.43-.18-.38-.27-.62-.27-.62,0,0,.83-.72,2.02-1.36,1.19-.63,2.77-1.17,4.29-.71h0Z"/><path class="ak" d="M174.51,44.93c-.12,1.91.45,3.79,1.1,5.17.61,1.42,1.28,2.36,1.28,2.36,0,0,.91-.56,1.89-1.6.98-1.04,2.02-2.55,2.24-4.55.12-1-.02-1.99-.27-2.94-.25-.95-.6-1.85-1-2.59-.39-.75-.79-1.37-1.09-1.81-.15-.22-.28-.39-.37-.5-.09-.11-.14-.17-.14-.17,0,0-.86.68-1.72,1.85-.87,1.17-1.76,2.84-1.91,4.77h0Z"/><path class="ak" d="M170.24,49.07c1.57.13,2.86,1.3,3.78,2.4.88,1.13,1.37,2.2,1.37,2.2,0,0-.78.79-1.95,1.5-1.17.71-2.72,1.36-4.21,1.15-.74-.11-1.43-.39-2.02-.78-.59-.39-1.09-.88-1.53-1.33-.43-.46-.76-.91-.99-1.25-.11-.17-.2-.31-.26-.41-.06-.1-.09-.15-.09-.15,0,0,.71-.88,1.79-1.76,1.09-.88,2.55-1.73,4.1-1.58h0Z"/><path class="ak" d="M165.68,33.94c.06.97.31,1.89.65,2.7.17.41.37.79.56,1.16.19.37.4.72.6,1.03.41.63.82,1.13,1.11,1.49.29.37.49.57.49.57,0,0,.81-.74,1.63-1.97.81-1.23,1.64-2.97,1.55-4.95-.05-.99-.3-1.97-.68-2.86-.39-.87-.88-1.67-1.36-2.34-.12-.17-.24-.33-.36-.48-.12-.14-.24-.28-.36-.41-.23-.26-.44-.48-.62-.66-.36-.36-.6-.56-.6-.56,0,0-.74.84-1.43,2.18-.69,1.34-1.33,3.17-1.18,5.08h0Z"/><path class="ak" d="M162.08,38.91c.77-.08,1.52.1,2.21.4.34.16.68.33.98.54.3.21.59.44.85.67.52.46.95.92,1.23,1.28.28.36.43.6.43.6,0,0-.66.94-1.7,1.88-1.05.95-2.46,1.88-3.97,2.01-.76.06-1.45-.1-2.08-.36-.64-.25-1.22-.61-1.69-.99-.12-.09-.23-.19-.34-.28-.11-.09-.22-.18-.31-.26-.2-.17-.36-.34-.5-.48-.28-.28-.43-.48-.43-.48,0,0,.57-1.02,1.51-2.1.94-1.08,2.26-2.23,3.82-2.42h0Z"/><path class="ak" d="M155.41,24.94c.1.47.25.91.43,1.33.18.42.39.8.61,1.19.44.75.96,1.4,1.46,1.92.49.53.95.97,1.3,1.26.35.29.57.45.57.45,0,0,.7-.9,1.32-2.28.62-1.38,1.17-3.24.81-5.21-.18-.99-.59-1.87-1.09-2.67-.25-.4-.52-.77-.8-1.12-.29-.33-.58-.64-.87-.91-.58-.55-1.13-.98-1.53-1.27-.41-.28-.68-.42-.68-.42,0,0-.61.99-1.09,2.45-.24.73-.45,1.58-.55,2.47-.1.9-.09,1.86.11,2.8h0Z"/><path class="ak" d="M152.58,30.59c.37-.12.75-.18,1.13-.19.38-.01.75.02,1.11.11.72.17,1.39.48,1.98.82.58.34,1.05.74,1.38,1.02.33.29.52.49.52.49,0,0-.51,1.06-1.4,2.21-.89,1.15-2.16,2.38-3.61,2.79-.73.2-1.45.22-2.11.09-.33-.06-.65-.16-.95-.28-.31-.1-.59-.22-.86-.36-.53-.26-.97-.56-1.27-.79-.31-.22-.49-.37-.49-.37,0,0,.41-1.12,1.18-2.39.38-.63.86-1.3,1.43-1.88.57-.57,1.22-1.04,1.97-1.28h0Z"/><path class="ak" d="M142.4,25.03c.7.36,1.43.49,2.16.47.72,0,1.42-.11,2.05-.28.62-.16,1.18-.39,1.56-.54.39-.16.62-.28.62-.28,0,0-.21-1.22-.85-2.63-.32-.7-.73-1.48-1.26-2.16-.54-.67-1.19-1.26-1.96-1.66-.77-.39-1.58-.49-2.35-.47-.39.02-.76.06-1.12.14-.36.09-.7.2-1.01.32-1.26.49-2.09,1.15-2.09,1.15,0,0,.39,1.16,1.11,2.47.18.33.38.66.6.98.22.32.46.67.72.98.52.63,1.13,1.15,1.83,1.5h0Z"/><path class="ak" d="M117.75,6.23c-.91,0-1.66.74-1.66,1.66,0,.37.13.72.34,1-5.17,5.62-7.91,5.41-8.42.14.87-.05,1.56-.77,1.56-1.65s-.74-1.66-1.66-1.66-1.65.74-1.65,1.66c0,.61.33,1.13.81,1.42-3.36,5.23-6.22,4.71-8.26-5.5.77-.14,1.35-.82,1.35-1.63,0-.92-.74-1.66-1.65-1.66s-1.65.74-1.65,1.66c0,.81.58,1.49,1.35,1.63-2.04,10.21-4.9,10.73-8.26,5.5.48-.29.81-.81.81-1.42,0-.92-.74-1.66-1.65-1.66s-1.65.74-1.65,1.66.69,1.6,1.56,1.65c-.51,5.2-3.17,5.49-8.21.1.34-.3.55-.74.55-1.23,0-.92-.74-1.66-1.65-1.66s-1.65.74-1.65,1.66.74,1.66,1.65,1.66c.24,0,.47-.05.68-.15,1.36,3.17,4.29,10.69,4.29,16.45h27.73c0-5.88,3.07-13.61,4.38-16.65.28.22.63.35,1.01.35.91,0,1.65-.74,1.65-1.66s-.74-1.66-1.65-1.66h0Z"/><path class="af" d="M50.9,132.94l29.03-36.39h.14v30.16h5.88v6.3h-5.88v10.83h-8.28v-10.9h-20.88ZM72.21,114.89l-9.34,12.18-.99-.35h9.91v-12.81l.42.99ZM94.51,140.09c0-1.04.38-1.91,1.13-2.62.8-.75,1.68-1.13,2.62-1.13.85,0,1.65.38,2.41,1.13.8.71,1.2,1.58,1.2,2.62,0,1.13-.4,2.05-1.2,2.76-.76.66-1.56.99-2.41.99-.94,0-1.82-.33-2.62-.99-.76-.71-1.13-1.63-1.13-2.76ZM123.89,128.83c-2.36,0-4.6-.64-6.73-1.91-2.08-1.27-3.8-3.04-5.17-5.31-1.37-2.26-2.05-4.84-2.05-7.72,0-3.54.8-6.56,2.41-9.06,1.61-2.5,3.68-4.41,6.23-5.73,2.55-1.37,5.26-2.05,8.14-2.05,3.26,0,6.18.73,8.78,2.19,2.6,1.42,4.65,3.4,6.16,5.95,1.56,2.55,2.34,5.45,2.34,8.71,0,3.73-.68,7.13-2.05,10.19-1.37,3.07-3.18,5.83-5.45,8.28-2.26,2.45-4.77,4.72-7.5,6.8-2.74,2.03-5.47,3.94-8.21,5.74l-5.52-6.02c3.87-1.84,7.24-3.82,10.12-5.95,2.88-2.17,5.12-4.37,6.73-6.58,1.65-2.22,2.57-4.34,2.76-6.37l2.19.14c-1.37,2.79-3.04,4.93-5.03,6.44-1.93,1.51-4.65,2.26-8.14,2.26ZM127,121.9c2.45,0,4.48-.73,6.09-2.19,1.6-1.51,2.41-3.33,2.41-5.45v-1.49c-.05-1.51-.45-2.88-1.2-4.11-.76-1.27-1.77-2.29-3.04-3.04-1.23-.8-2.64-1.2-4.25-1.2s-3,.38-4.32,1.13c-1.27.71-2.29,1.72-3.04,3.04-.75,1.32-1.13,2.88-1.13,4.67s.38,3.35,1.13,4.67c.8,1.27,1.84,2.26,3.12,2.97,1.27.66,2.69.99,4.25.99Z"/><path class="ab" d="M55.33,57.09c-1.27,0-2.4-.3-3.38-.9-.97-.6-1.74-1.45-2.3-2.54-.55-1.11-.82-2.41-.82-3.91s.27-2.81.82-3.91c.56-1.11,1.33-1.96,2.3-2.56.99-.61,2.12-.92,3.38-.92,1.07,0,2.05.19,2.94.58.89.37,1.63.83,2.2,1.38l-1.64,2.04c-.37-.43-.87-.77-1.5-1.04-.63-.28-1.3-.42-2-.42-.79,0-1.47.21-2.04.62-.56.4-.99.96-1.3,1.68-.29.72-.44,1.57-.44,2.54s.15,1.8.44,2.52c.31.72.74,1.29,1.3,1.7.57.4,1.26.6,2.04.6.61,0,1.11-.05,1.5-.16.39-.12.71-.27.98-.44v-2.7h-2.12v-2.4h4.77v6.83c-.68.45-1.48.8-2.38,1.04-.89.24-1.81.36-2.74.36Z"/><path class="ag" d="M66.84,56.97c-.89,0-1.7-.21-2.42-.62-.71-.41-1.27-1-1.68-1.76-.4-.76-.6-1.65-.6-2.66s.2-1.92.6-2.66c.41-.76.97-1.35,1.68-1.76.72-.43,1.53-.64,2.42-.64s1.72.21,2.42.64c.71.41,1.26,1,1.66,1.76.41.75.62,1.64.62,2.66s-.21,1.9-.62,2.66c-.4.76-.95,1.35-1.66,1.76-.71.41-1.52.62-2.42.62ZM66.84,54.69c.64,0,1.16-.23,1.56-.7.41-.48.62-1.17.62-2.06s-.21-1.6-.62-2.06c-.4-.48-.92-.72-1.56-.72s-1.16.24-1.56.72c-.39.47-.58,1.15-.58,2.06s.19,1.58.58,2.06c.4.47.92.7,1.56.7ZM104.22,56.97c-1.42,0-2.56-.41-3.44-1.24-.88-.84-1.32-2.11-1.32-3.81,0-1.05.19-1.96.58-2.7.4-.76.95-1.34,1.64-1.74.69-.41,1.5-.62,2.4-.62s1.68.22,2.3.66c.64.43,1.13,1.02,1.46,1.78.33.76.5,1.64.5,2.62v.54h-6.41c.07.89.31,1.51.72,1.84.43.32.96.48,1.6.48.59,0,1.07-.14,1.44-.42.37-.28.71-.7,1-1.26l1.84,1.3c-.52.92-1.14,1.58-1.86,1.98-.71.39-1.53.58-2.46.58ZM102.04,50.54h3.83c-.24-1.15-.85-1.72-1.82-1.72-.53,0-.97.13-1.3.4-.33.27-.57.71-.7,1.32Z"/><path class="ai" d="M77.6,56.97c-.89,0-1.7-.21-2.42-.62-.71-.41-1.27-1-1.68-1.76-.4-.76-.6-1.65-.6-2.66s.2-1.92.6-2.66c.41-.76.97-1.35,1.68-1.76.72-.43,1.53-.64,2.42-.64s1.72.21,2.42.64c.71.41,1.26,1,1.66,1.76.41.75.62,1.64.62,2.66s-.21,1.9-.62,2.66c-.4.76-.95,1.35-1.66,1.76-.71.41-1.52.62-2.42.62ZM77.6,54.69c.64,0,1.16-.23,1.56-.7.41-.48.62-1.17.62-2.06s-.21-1.6-.62-2.06c-.4-.48-.92-.72-1.56-.72s-1.16.24-1.56.72c-.39.47-.58,1.15-.58,2.06s.19,1.58.58,2.06c.4.47.92.7,1.56.7Z"/><path class="al" d="M88.14,60.66c-1.03,0-1.9-.19-2.62-.58-.71-.37-1.3-.97-1.78-1.78l2.02-1.34c.27.48.59.83.96,1.06.37.24.85.36,1.42.36.73,0,1.27-.22,1.6-.66.35-.44.52-1.15.52-2.14v-.22c-.61.52-1.35.78-2.2.78s-1.62-.17-2.28-.5c-.65-.35-1.17-.87-1.56-1.56-.37-.69-.56-1.56-.56-2.58s.19-1.88.56-2.56c.39-.69.91-1.21,1.56-1.54.67-.35,1.43-.52,2.28-.52.96,0,1.77.33,2.42.98l.1-.74h2.18v8.47c0,1.56-.37,2.8-1.1,3.71-.72.92-1.9,1.38-3.52,1.38ZM88.26,53.95c.64,0,1.16-.22,1.56-.66.41-.44.62-1.04.62-1.8s-.21-1.36-.62-1.78c-.4-.43-.92-.64-1.56-.64s-1.14.21-1.5.64c-.36.43-.54,1.02-.54,1.78s.18,1.36.54,1.8c.36.44.86.66,1.5.66Z"/><path class="ad" d="M95.1,56.75v-14.24h2.52v14.24h-2.52Z"/><path class="ae" d="M116.15,56.75v-14.02h2.6l3.81,6.61,3.76-6.61h2.62v14.02h-2.64v-9.51l-3,5.45h-1.52l-3-5.45v9.51h-2.62ZM134.75,56.87c-1.06.05-1.94-.17-2.64-.68-.69-.51-1.04-1.24-1.04-2.2,0-.68.2-1.26.6-1.74.41-.49.94-.87,1.58-1.14.65-.28,1.33-.43,2.02-.44.31-.03.6,0,.88.08.28.07.54.16.78.28v-.64c0-.56-.12-.92-.36-1.08-.24-.17-.58-.26-1.02-.26-.57,0-1.17.11-1.78.32-.6.2-1.12.46-1.56.78l-1.14-1.94c.56-.35,1.23-.65,2-.92.79-.28,1.62-.42,2.48-.42,1.24,0,2.18.25,2.82.76.64.51.96,1.43.96,2.76v4.21c0,.28.06.44.18.48.13.04.42,0,.86-.14v1.54c-.21.09-.48.19-.8.28-.32.08-.67.12-1.06.12-.79,0-1.29-.27-1.5-.8-.61.47-1.37.73-2.26.8ZM134.69,54.71c.71-.04,1.27-.17,1.68-.4.43-.24.63-.57.6-.98-.01-.31-.17-.51-.46-.6-.28-.09-.63-.13-1.04-.1-.61.03-1.1.19-1.46.48-.36.28-.53.58-.52.9.01.23.11.41.3.54.2.12.5.17.9.16ZM142.14,60.64v-13.54h2.18l.12.9c.68-.76,1.52-1.14,2.52-1.14.91,0,1.72.2,2.42.6.71.39,1.26.96,1.66,1.72.41.75.62,1.66.62,2.74s-.21,1.98-.62,2.74c-.4.75-.96,1.32-1.66,1.72-.71.39-1.52.58-2.42.58s-1.64-.3-2.3-.9v4.57h-2.52ZM146.87,54.69c.64,0,1.18-.23,1.6-.7.44-.48.66-1.17.66-2.06s-.22-1.6-.66-2.06c-.43-.48-.96-.72-1.6-.72s-1.18.24-1.6.72c-.43.47-.64,1.15-.64,2.06s.21,1.58.64,2.06c.43.47.96.7,1.6.7Z"/><path class="ac" d="M54.93,86.8c-.42.17-.84.17-1.26,0-.4-.16-.7-.44-.89-.84-.17-.4-.18-.81-.03-1.23.17-.42.46-.72.86-.89,2.9-1.27,5.4-2.85,7.51-4.74,2.11-1.88,3.78-4.03,5-6.44.3-.56.35-.98.16-1.26-.17-.28-.62-.42-1.33-.42h-3.48c-.84,1.12-1.77,2.21-2.8,3.27-1.03,1.05-2.1,1.95-3.22,2.72-.35.26-.75.36-1.2.29-.44-.09-.78-.31-1.05-.68-.24-.37-.33-.77-.26-1.2.09-.45.31-.8.68-1.05.98-.66,1.93-1.46,2.85-2.38s1.76-1.89,2.51-2.9c.77-1.03,1.37-2.03,1.81-3.01.17-.4.47-.68.89-.84.42-.17.83-.17,1.23.03.4.17.68.47.84.89.17.42.17.83-.03,1.23-.07.17-.16.35-.26.52h1.81c2.08,0,3.45.53,4.13,1.6.7,1.06.61,2.5-.26,4.32-.89,1.85-2.06,3.6-3.51,5.26-1.43,1.66-3.05,3.15-4.87,4.47-1.81,1.31-3.76,2.4-5.83,3.27ZM83.84,86.39c-.35.26-.75.36-1.2.29-.44-.05-.78-.25-1.05-.6-.28-.37-.38-.77-.31-1.2s.28-.79.63-1.07c1.15-.85,2.12-1.89,2.9-3.11.78-1.22,1.36-2.56,1.73-4h-8.95c-.44,0-.81-.15-1.12-.44-.3-.31-.44-.69-.44-1.12s.15-.8.44-1.1c.31-.31.69-.47,1.12-.47h9.39c.02-.91-.03-1.83-.16-2.77-1.05.17-2.08.32-3.11.44-1.03.1-1.99.18-2.88.24-.44.03-.82-.1-1.15-.42-.31-.31-.48-.69-.5-1.12-.02-.45.13-.83.44-1.12.31-.31.69-.48,1.12-.5.87-.03,1.81-.11,2.83-.24,1.01-.12,2.03-.27,3.06-.44s2.01-.37,2.93-.58c.94-.23,1.77-.45,2.49-.68.44-.14.85-.12,1.26.05.4.17.68.47.84.89.16.42.14.83-.05,1.23-.17.4-.48.67-.92.81-.44.16-.93.31-1.49.44-.56.14-1.15.28-1.78.42.09.54.14,1.1.16,1.67.03.56.04,1.12.03,1.67h7.56c.44,0,.8.16,1.1.47.31.3.47.66.47,1.1s-.16.81-.47,1.12c-.3.3-.66.44-1.1.44h-7.95c-.4,1.99-1.11,3.84-2.12,5.55-.99,1.69-2.24,3.08-3.74,4.16ZM106.65,83.19c-.44,0-.82-.16-1.15-.47-.31-.33-.47-.71-.47-1.15s.16-.83.47-1.12c.33-.31.72-.47,1.15-.47h9.13c1.06,0,1.87-.08,2.41-.24.54-.17.9-.53,1.07-1.07.19-.54.29-1.37.29-2.49s-.1-1.96-.29-2.49c-.17-.54-.53-.89-1.07-1.05-.52-.17-1.32-.26-2.38-.26h-8.87c-.44,0-.81-.16-1.12-.47-.31-.31-.47-.7-.47-1.15s.16-.83.47-1.12c.31-.31.69-.47,1.12-.47h8.87c1.36,0,2.49.1,3.37.31.91.21,1.62.58,2.15,1.1.52.52.89,1.24,1.1,2.15.23.91.34,2.06.34,3.45s-.11,2.55-.34,3.45c-.21.91-.58,1.62-1.1,2.15-.52.52-1.24.89-2.15,1.1-.91.21-2.04.31-3.4.31h-9.13ZM144.84,86.7c-.59-.49-1.29-.99-2.09-1.49-.78-.52-1.61-1.04-2.49-1.54-.85-.51-1.71-.98-2.56-1.41-.84-.44-1.62-.82-2.35-1.15-.4-.19-.68-.5-.84-.92-.16-.42-.14-.83.05-1.23.19-.4.49-.68.89-.84.42-.16.83-.14,1.23.05.8.37,1.66.79,2.56,1.28.92.47,1.85.98,2.77,1.52.92.54,1.8,1.09,2.62,1.65.84.54,1.58,1.06,2.22,1.57.35.28.55.65.6,1.1.05.44-.07.83-.37,1.18-.28.33-.64.52-1.07.58-.44.05-.83-.06-1.18-.34ZM142.57,77.91c-.42-.26-.94-.56-1.57-.89-.63-.35-1.29-.69-1.99-1.02-.7-.33-1.37-.63-2.01-.89-.63-.28-1.17-.5-1.62-.65-.42-.14-.73-.4-.94-.78-.19-.4-.23-.82-.1-1.26.14-.42.41-.73.81-.94.4-.21.81-.24,1.23-.1.54.19,1.18.45,1.91.78.73.31,1.48.66,2.25,1.05.77.37,1.49.73,2.17,1.1.68.35,1.23.65,1.65.92.37.23.59.56.68.99.1.44.04.85-.21,1.23-.24.38-.58.62-1.02.71-.44.09-.85,0-1.23-.24ZM144.19,72.23c-.42-.3-.94-.62-1.57-.97-.61-.37-1.26-.72-1.94-1.07-.68-.35-1.33-.66-1.96-.94-.63-.3-1.16-.52-1.6-.68-.42-.14-.72-.41-.92-.81-.17-.42-.18-.84-.03-1.26.16-.42.44-.72.84-.92.4-.19.81-.2,1.23-.03.52.21,1.14.49,1.86.84.73.33,1.47.7,2.22,1.1.77.38,1.48.77,2.15,1.15.66.37,1.19.69,1.6.97.37.24.58.59.65,1.05.07.44-.03.84-.29,1.2-.24.37-.59.58-1.05.65-.44.07-.84-.03-1.2-.29Z"/><path class="aj" d="M64.87,154.35c-.2,0-.39.06-.56.16-.16.1-.3.25-.38.43l-1.58,3.2s0,.01,0,.02c0,0,0,0,0,0,0,0,0,0,0,0,0,0-.01,0-.02,0l-3.47.52c-.19.02-.38.09-.53.21-.16.12-.28.29-.35.48-.07.19-.08.39-.03.59.05.19.15.37.29.51l2.54,2.46h0s0,.01,0,.02,0,0,0,.01h0s-.61,3.56-.61,3.56h0c-.03.19-.01.39.06.57.07.18.2.34.35.45.16.11.35.18.54.2.19.01.39-.03.56-.12h0l3.13-1.66s.02,0,.04,0,.02,0,.04,0l3.13,1.66h0c.17.09.37.13.56.12.19-.01.38-.08.54-.2.16-.12.28-.27.35-.45.07-.18.09-.38.06-.57h0s-.61-3.56-.61-3.56h0s0-.01,0-.02c0,0,0,0,0-.01h0s2.54-2.47,2.54-2.47c.14-.14.25-.31.29-.51.05-.2.04-.4-.03-.59-.07-.19-.19-.35-.35-.48-.15-.12-.34-.19-.53-.21l-3.47-.52s-.01,0-.02,0c0,0,0,0,0,0,0,0,0,0,0,0,0,0,0-.01,0-.02l-1.58-3.2c-.08-.18-.21-.33-.38-.43-.17-.11-.36-.16-.56-.16Z"/><g class="z"><path class="af" d="M64.31,154.51l.32.51h0l-.32-.51ZM63.93,154.94l.54.27h0s-.54-.27-.54-.27ZM62.35,158.14l-.54-.27h0l.54.27ZM62.34,158.16l.55.25h0s-.55-.25-.55-.25ZM62.34,158.16l-.07-.6h0l.07.6ZM62.32,158.17l.09.59h0l-.09-.59ZM58.84,158.68l.06.6h.02s.01,0,.01,0l-.09-.59ZM58.32,158.89l-.37-.48h0l.37.48ZM57.97,159.37l-.57-.2h0l.57.2ZM57.94,159.96l-.58.14h0l.58-.14ZM58.23,160.47l.42-.43h0s-.42.43-.42.43ZM60.77,162.93l-.42.43h0s.41-.43.41-.43ZM60.78,162.93l-.41.43h0s.41-.43.41-.43ZM60.79,162.95l-.57.19h0s.57-.19.57-.19ZM60.79,162.96l-.59-.11h0s.59.11.59.11ZM60.79,162.96l-.59-.1h0l.59.1ZM60.18,166.52l-.59-.1h0s.59.1.59.1ZM60.18,166.52l.59.1h0s-.59-.1-.59-.1ZM60.24,167.1l.56-.23h0l-.56.23ZM60.6,167.55l-.35.49h0l.35-.49ZM61.14,167.75l.04-.6h0l-.04.6ZM61.7,167.63l.28.53h0s0,0,0,0l-.3-.52ZM61.7,167.63l-.28-.53h0s0,0,0,0l.3.52ZM64.83,165.97l-.24-.55h-.02s-.02.02-.02.02l.28.53ZM64.9,165.97l.28-.53h-.02s-.02-.02-.02-.02l-.24.55ZM68.03,167.63l-.28.53h.01s.27-.53.27-.53ZM68.03,167.63l.28-.53h0s0,0,0,0l-.27.54ZM68.59,167.75l-.04-.6h0l.04.6ZM69.13,167.55l.35.49h0l-.35-.49ZM69.49,167.1l-.56-.23h0l.56.23ZM69.55,166.52l-.6.06v.02s0,.02,0,.02l.59-.1ZM69.55,166.52l.6-.05v-.02s0-.02,0-.02l-.59.1ZM68.94,162.96l-.59.09h0s.59-.09.59-.09ZM68.94,162.96l.59-.09h0s0-.02,0-.02l-.59.11ZM68.94,162.95l-.57-.19h0s.57.19.57.19ZM68.95,162.93l.41.43h0s-.42-.43-.42-.43ZM68.96,162.93l.42.44h0s-.42-.44-.42-.44ZM71.5,160.47l-.42-.43h0s.42.43.42.43ZM71.79,159.96l-.58-.14h0l.58.14ZM71.42,158.89l-.37.48h0l.37-.48ZM70.89,158.68l-.09.59h.01s.02,0,.02,0l.06-.6ZM67.41,158.17l-.09.59h0l.09-.59ZM67.4,158.16l.07-.6h0l-.07.6ZM67.39,158.16l-.55.24h0s.55-.24.55-.24ZM67.38,158.14l.54-.27h0l-.54.27ZM65.8,154.94l-.54.26h0s.54-.26.54-.26ZM65.42,154.51l.32-.51h0l-.32.51ZM64.87,153.75c-.31,0-.62.09-.88.26l.65,1.01c.07-.04.15-.07.23-.07v-1.2ZM63.98,154.01c-.26.17-.47.4-.6.68l1.09.51c.04-.07.09-.14.16-.18l-.65-1.01ZM63.39,154.68l-1.58,3.2,1.08.53,1.58-3.2-1.08-.53ZM61.81,157.87s-.01.03-.02.04l1.1.49s0,0,0,0l-1.08-.53ZM61.8,157.91c.04-.09.11-.18.19-.24l.71.97c.09-.06.15-.15.2-.24l-1.1-.49ZM61.99,157.68c.08-.06.18-.1.28-.11l.13,1.2c.11-.01.21-.05.29-.12l-.71-.97ZM62.27,157.57s-.03,0-.04,0l.18,1.19s0,0,0,0l-.13-1.2ZM62.23,157.57l-3.47.52.18,1.19,3.47-.52-.18-1.19ZM58.79,158.09c-.3.03-.59.14-.84.33l.73.95c.06-.05.14-.08.22-.09l-.12-1.2ZM57.95,158.42c-.25.19-.44.45-.55.75l1.13.4c.03-.08.08-.15.15-.2l-.73-.95ZM57.4,159.17c-.11.3-.12.62-.05.93l1.17-.28c-.02-.08-.02-.17.01-.25l-1.13-.4ZM57.35,160.1c.07.31.23.59.46.8l.83-.87c-.06-.06-.1-.13-.12-.21l-1.17.28ZM57.81,160.9l2.54,2.46.84-.86-2.54-2.46-.84.86ZM60.36,163.36h0s.83-.87.83-.87h0s-.83.87-.83.87ZM60.37,163.37c-.07-.06-.12-.15-.15-.24l1.14-.38c-.03-.1-.09-.19-.17-.26l-.82.88ZM60.22,163.14c-.03-.09-.04-.19-.02-.28l1.18.21c.02-.1.01-.21-.02-.31l-1.14.38ZM60.2,162.86h0s1.19.21,1.19.21h0s-1.19-.21-1.19-.21ZM60.2,162.86l-.61,3.56,1.19.2.61-3.56-1.19-.2ZM59.59,166.42h0s1.19.2,1.19.2h0s-1.19-.2-1.19-.2ZM59.59,166.42c-.05.3-.02.61.1.9l1.11-.45c-.03-.08-.04-.16-.03-.24l-1.19-.21ZM59.69,167.32c.12.29.31.53.56.71l.71-.97c-.07-.05-.12-.12-.15-.19l-1.11.45ZM60.24,168.04c.25.18.54.29.85.31l.08-1.2c-.08,0-.16-.04-.23-.08l-.71.97ZM61.1,168.35c.31.02.61-.04.89-.19l-.56-1.06c-.07.04-.16.06-.24.05l-.08,1.2ZM62,168.15h0s-.6-1.04-.6-1.04h0l.6,1.04ZM61.98,168.16l3.13-1.66-.56-1.06-3.13,1.66.56,1.06ZM65.07,166.52c-.06.03-.13.04-.2.04v-1.2c-.1,0-.19.02-.28.06l.48,1.1ZM64.87,166.56c-.07,0-.14-.02-.2-.04l.48-1.1c-.08-.04-.18-.06-.28-.06v1.2ZM64.62,166.5l3.13,1.66.56-1.06-3.13-1.66-.56,1.06ZM67.76,168.16h0l.54-1.07h0l-.54,1.07ZM67.75,168.16c.27.15.58.21.89.19l-.08-1.2c-.08,0-.16-.01-.24-.05l-.57,1.06ZM68.64,168.35c.31-.02.6-.13.85-.31l-.71-.97c-.07.05-.15.08-.23.08l.08,1.2ZM69.49,168.04c.25-.18.44-.43.56-.71l-1.11-.45c-.03.08-.08.15-.15.19l.71.97ZM70.05,167.32c.12-.29.15-.6.1-.9l-1.19.21c.01.08,0,.17-.03.24l1.11.45ZM70.15,166.47h0s-1.2.11-1.2.11h0s1.2-.11,1.2-.11ZM70.14,166.42l-.61-3.56-1.19.2.61,3.56,1.19-.2ZM69.54,162.87h0s-1.19.18-1.19.18h0s1.19-.18,1.19-.18ZM69.53,162.85c.02.1,0,.19-.02.27l-1.15-.36c-.03.09-.04.2-.02.3l1.18-.22ZM69.51,163.14c-.03.09-.08.17-.15.23l-.83-.87c-.07.07-.13.15-.16.26l1.14.38ZM69.37,163.37h0s-.83-.87-.83-.87h0s.83.87.83.87ZM69.38,163.36l2.54-2.46-.84-.86-2.54,2.46.84.86ZM71.92,160.9c.23-.22.39-.5.46-.8l-1.17-.28c-.02.08-.06.16-.12.21l.83.87ZM72.38,160.1c.07-.31.06-.63-.05-.93l-1.13.4c.03.08.03.16.01.25l1.17.28ZM72.33,159.17c-.11-.3-.29-.56-.55-.75l-.73.95c.07.05.12.12.15.2l1.13-.4ZM71.78,158.42c-.24-.19-.53-.3-.84-.33l-.12,1.2c.08,0,.16.04.22.09l.73-.95ZM70.98,158.09l-3.47-.52-.18,1.19,3.47.52.18-1.19ZM67.5,157.57s-.03,0-.04,0l-.13,1.2s0,0,0,0l.18-1.19ZM67.46,157.57c.1.01.2.05.29.11l-.71.97c.09.06.19.1.29.12l.13-1.2ZM67.75,157.68c.09.06.15.15.19.24l-1.1.49c.04.09.11.18.2.24l.71-.97ZM67.94,157.92s-.01-.03-.02-.04l-1.08.53s0,0,0,0l1.1-.49ZM67.92,157.87l-1.58-3.2-1.08.53,1.58,3.2,1.08-.53ZM66.34,154.69c-.13-.28-.34-.51-.6-.68l-.65,1.01c.07.04.12.11.16.18l1.09-.51ZM65.75,154.01c-.26-.17-.57-.26-.88-.26v1.2c.08,0,.16.02.23.07l.65-1.01Z"/></g><path class="aj" d="M99.11,154.35c-.2,0-.39.06-.56.16-.16.1-.29.25-.38.43l-1.58,3.2s0,.01,0,.02c0,0,0,0,0,0,0,0,0,0,0,0,0,0-.01,0-.02,0l-3.47.52c-.19.02-.38.09-.53.21-.16.12-.28.29-.35.48-.07.19-.08.39-.03.59.05.19.15.37.29.51l2.54,2.46h0s0,.01,0,.02c0,0,0,0,0,.01h0s-.61,3.56-.61,3.56h0c-.03.19-.01.39.06.57.07.18.2.34.35.45.16.11.35.18.54.2.19.01.39-.03.56-.12h0l3.13-1.66s.02,0,.04,0c.01,0,.02,0,.04,0l3.13,1.66h0c.17.09.37.13.56.12.19-.01.38-.08.54-.2.16-.12.28-.27.35-.45.07-.18.1-.38.06-.57h0s-.61-3.56-.61-3.56h0s0-.01,0-.02c0,0,0,0,0-.01h0s2.54-2.47,2.54-2.47c.14-.14.25-.31.29-.51.05-.2.03-.4-.03-.59-.07-.19-.19-.35-.35-.48-.15-.12-.34-.19-.53-.21l-3.47-.52s-.01,0-.02,0c0,0,0,0,0,0,0,0,0,0,0,0,0,0,0-.01,0-.02l-1.58-3.2c-.08-.18-.21-.33-.38-.43-.17-.11-.36-.16-.56-.16Z"/><g class="aa"><path class="af" d="M98.55,154.51l.32.51h0l-.32-.51ZM98.17,154.94l.54.27h0s-.54-.27-.54-.27ZM96.6,158.14l-.54-.27h0l.54.27ZM96.59,158.16l.55.25h0s-.55-.25-.55-.25ZM96.58,158.16l-.07-.6h0l.07.6ZM96.56,158.17l.09.59h0l-.09-.59ZM93.09,158.68l.06.6h.01s.01,0,.01,0l-.09-.59ZM92.56,158.89l-.37-.48h0l.37.48ZM92.21,159.37l-.57-.2h0l.57.2ZM92.18,159.96l-.58.14h0l.58-.14ZM92.47,160.47l.42-.43h0s-.42.43-.42.43ZM95.02,162.93l-.42.43h0s.41-.43.41-.43ZM95.02,162.93l-.41.43h0s.41-.43.41-.43ZM95.03,162.95l-.57.19h0s.57-.19.57-.19ZM95.03,162.96l-.59-.11h0s.59.11.59.11ZM95.03,162.96l-.59-.1h0l.59.1ZM94.42,166.52l-.59-.1h0s.59.1.59.1ZM94.42,166.52l.59.1h0s-.59-.1-.59-.1ZM94.49,167.1l.56-.23h0l-.56.23ZM94.84,167.55l-.35.49h0l.35-.49ZM95.38,167.75l.04-.6h0l-.04.6ZM95.94,167.63l.28.53h0s0,0,0,0l-.3-.52ZM95.94,167.63l-.28-.53h0s0,0,0,0l.3.52ZM99.07,165.97l-.24-.55h-.02s-.02.02-.02.02l.28.53ZM99.14,165.97l.28-.53h-.02s-.02-.02-.02-.02l-.24.55ZM102.27,167.63l-.28.53h.01s.27-.53.27-.53ZM102.27,167.63l.28-.53h0s0,0,0,0l-.27.54ZM102.84,167.75l-.04-.6h0l.04.6ZM103.38,167.55l.35.49h0l-.35-.49ZM103.73,167.1l-.56-.23h0l.56.23ZM103.79,166.52l-.6.06v.02s0,.02,0,.02l.59-.1ZM103.79,166.52l.6-.05v-.02s0-.02,0-.02l-.59.1ZM103.19,162.96l-.59.09h0s.59-.09.59-.09ZM103.19,162.96l.59-.09h0s0-.02,0-.02l-.59.11ZM103.19,162.95l-.57-.19h0s.57.19.57.19ZM103.19,162.93l.42.43h0s-.42-.43-.42-.43ZM103.2,162.93l.42.44h0s-.42-.44-.42-.44ZM105.74,160.47l-.42-.43h0s.42.43.42.43ZM106.04,159.96l-.58-.14h0l.58.14ZM105.66,158.89l-.37.48h0l.37-.48ZM105.13,158.68l-.09.59h.01s.02,0,.02,0l.06-.6ZM101.66,158.17l-.09.59h0l.09-.59ZM101.64,158.16l.07-.6h0l-.07.6ZM101.63,158.16l-.55.24h0s.55-.24.55-.24ZM101.62,158.14l.54-.27h0l-.54.27ZM100.04,154.94l-.54.26h0s.54-.26.54-.26ZM99.66,154.51l.33-.51h0l-.32.51ZM99.11,153.75c-.31,0-.62.09-.88.26l.65,1.01c.07-.04.15-.07.23-.07v-1.2ZM98.23,154.01c-.26.17-.47.4-.6.68l1.09.51c.04-.07.09-.14.16-.18l-.65-1.01ZM97.63,154.68l-1.58,3.2,1.08.53,1.58-3.2-1.08-.53ZM96.06,157.87s-.01.03-.02.04l1.1.49s0,0,0,0l-1.08-.53ZM96.04,157.91c.04-.09.11-.18.19-.24l.71.97c.09-.06.15-.15.2-.24l-1.1-.49ZM96.23,157.68c.08-.06.18-.1.28-.11l.13,1.2c.11-.01.21-.05.29-.12l-.71-.97ZM96.51,157.57s-.03,0-.04,0l.18,1.19s0,0,0,0l-.13-1.2ZM96.47,157.57l-3.47.52.18,1.19,3.47-.52-.18-1.19ZM93.03,158.09c-.3.03-.59.14-.84.33l.73.95c.06-.05.14-.08.22-.09l-.12-1.2ZM92.19,158.42c-.25.19-.44.45-.55.75l1.13.4c.03-.08.08-.15.15-.2l-.73-.95ZM91.65,159.17c-.11.3-.12.62-.05.93l1.17-.28c-.02-.08-.02-.17.01-.25l-1.13-.4ZM91.6,160.1c.07.31.23.59.46.8l.83-.87c-.06-.06-.1-.13-.12-.21l-1.17.28ZM92.05,160.9l2.54,2.46.84-.86-2.54-2.46-.84.86ZM94.6,163.36h0s.83-.87.83-.87h0s-.83.87-.83.87ZM94.61,163.37c-.07-.06-.12-.15-.15-.24l1.14-.38c-.03-.1-.09-.19-.17-.26l-.82.88ZM94.46,163.14c-.03-.09-.04-.19-.02-.28l1.18.21c.02-.1.01-.21-.02-.31l-1.14.38ZM94.44,162.86h0s1.19.21,1.19.21h0s-1.19-.21-1.19-.21ZM94.44,162.86l-.61,3.56,1.19.2.61-3.56-1.19-.2ZM93.83,166.42h0s1.19.2,1.19.2h0s-1.19-.2-1.19-.2ZM93.83,166.42c-.05.3-.02.61.1.9l1.11-.45c-.03-.08-.04-.16-.03-.24l-1.18-.21ZM93.93,167.32c.12.29.31.53.56.71l.71-.97c-.07-.05-.12-.12-.15-.19l-1.11.45ZM94.49,168.04c.25.18.54.29.85.31l.08-1.2c-.08,0-.16-.04-.23-.08l-.71.97ZM95.34,168.35c.31.02.61-.04.89-.19l-.56-1.06c-.07.04-.16.06-.24.05l-.08,1.2ZM96.24,168.15h0s-.6-1.04-.6-1.04h0l.6,1.04ZM96.22,168.16l3.13-1.66-.56-1.06-3.13,1.66.56,1.06ZM99.31,166.52c-.06.03-.13.04-.2.04v-1.2c-.1,0-.19.02-.28.06l.48,1.1ZM99.11,166.56c-.07,0-.14-.02-.21-.04l.48-1.1c-.08-.04-.18-.06-.28-.06v1.2ZM98.86,166.5l3.13,1.66.56-1.06-3.13-1.66-.56,1.06ZM102,168.16h0l.54-1.07h0l-.54,1.07ZM101.99,168.16c.27.15.58.21.89.19l-.08-1.2c-.08,0-.16-.01-.24-.05l-.57,1.06ZM102.88,168.35c.31-.02.6-.13.85-.31l-.71-.97c-.07.05-.15.08-.23.08l.08,1.2ZM103.73,168.04c.25-.18.44-.43.56-.71l-1.11-.45c-.03.08-.08.15-.15.19l.71.97ZM104.29,167.32c.11-.29.15-.6.1-.9l-1.18.21c.01.08,0,.17-.03.24l1.11.45ZM104.39,166.47h0s-1.2.11-1.2.11h0s1.2-.11,1.2-.11ZM104.38,166.42l-.61-3.56-1.18.2.61,3.56,1.18-.2ZM103.78,162.87h0s-1.19.18-1.19.18h0s1.19-.18,1.19-.18ZM103.78,162.85c.02.1,0,.19-.02.27l-1.15-.36c-.03.09-.04.2-.02.3l1.18-.22ZM103.76,163.14c-.03.09-.08.17-.15.23l-.83-.87c-.07.07-.13.15-.16.26l1.14.38ZM103.61,163.37h0s-.83-.87-.83-.87h0s.83.87.83.87ZM103.62,163.36l2.54-2.46-.84-.86-2.54,2.46.84.86ZM106.16,160.9c.23-.22.39-.5.46-.8l-1.17-.28c-.02.08-.06.16-.12.21l.83.87ZM106.62,160.1c.07-.31.06-.63-.05-.93l-1.13.4c.03.08.03.16.01.25l1.17.28ZM106.57,159.17c-.1-.3-.29-.56-.55-.75l-.73.95c.07.05.12.12.15.2l1.13-.4ZM106.02,158.42c-.24-.19-.53-.3-.84-.33l-.12,1.2c.08,0,.16.04.22.09l.73-.95ZM105.22,158.09l-3.47-.52-.18,1.19,3.47.52.18-1.19ZM101.74,157.57s-.03,0-.04,0l-.13,1.2s0,0,0,0l.18-1.19ZM101.7,157.57c.1.01.2.05.29.11l-.71.97c.09.06.19.1.3.12l.13-1.2ZM101.99,157.68c.08.06.15.15.19.24l-1.1.49c.04.09.11.18.2.24l.71-.97ZM102.18,157.92s-.01-.03-.02-.04l-1.08.53s0,0,0,0l1.1-.49ZM102.16,157.87l-1.58-3.2-1.08.53,1.58,3.2,1.08-.53ZM100.59,154.69c-.13-.28-.34-.51-.6-.68l-.65,1.01c.07.04.12.11.16.18l1.09-.51ZM99.99,154.01c-.26-.17-.57-.26-.88-.26v1.2c.08,0,.16.02.23.07l.65-1.01Z"/></g><path class="aj" d="M81.99,154.35c-.2,0-.39.06-.56.16-.16.1-.3.25-.38.43l-1.58,3.2s0,.01,0,.02c0,0,0,0,0,0,0,0,0,0,0,0,0,0-.01,0-.02,0l-3.47.52c-.19.02-.38.09-.53.21-.16.12-.28.29-.35.48-.07.19-.08.39-.03.59.05.19.15.37.29.51l2.54,2.46h0s0,.01,0,.02,0,0,0,.01h0s-.61,3.56-.61,3.56h0c-.03.19-.01.39.06.57.07.18.2.34.35.45.16.11.35.18.54.2.19.01.39-.03.56-.12h0l3.13-1.66s.02,0,.04,0,.02,0,.04,0l3.13,1.66h0c.17.09.37.13.56.12.19-.01.38-.08.54-.2.16-.12.28-.27.35-.45.07-.18.09-.38.06-.57h0s-.61-3.56-.61-3.56h0s0-.01,0-.02c0,0,0,0,0-.01h0s2.54-2.47,2.54-2.47c.14-.14.25-.31.29-.51.05-.2.04-.4-.03-.59-.07-.19-.19-.35-.35-.48-.15-.12-.34-.19-.53-.21l-3.47-.52s-.01,0-.02,0c0,0,0,0,0,0,0,0,0,0,0,0,0,0,0-.01,0-.02l-1.58-3.2c-.08-.18-.21-.33-.38-.43-.17-.11-.36-.16-.56-.16Z"/><g class="x"><path class="af" d="M81.44,154.51l.32.51h0l-.32-.51ZM81.06,154.94l.54.27h0s-.54-.27-.54-.27ZM79.48,158.14l-.54-.27h0l.54.27ZM79.47,158.16l.55.25h0s-.55-.25-.55-.25ZM79.47,158.16l-.07-.6h0l.07.6ZM79.45,158.17l.09.59h0l-.09-.59ZM75.97,158.68l.06.6h.02s.01,0,.01,0l-.09-.59ZM75.44,158.89l-.37-.48h0l.37.48ZM75.1,159.37l-.57-.2h0l.57.2ZM75.07,159.96l-.58.14h0l.58-.14ZM75.36,160.47l.42-.43h0s-.42.43-.42.43ZM77.9,162.93l-.42.43h0s.41-.43.41-.43ZM77.91,162.93l-.41.43h0s.41-.43.41-.43ZM77.92,162.95l-.57.19h0s.57-.19.57-.19ZM77.92,162.96l-.59-.11h0s.59.11.59.11ZM77.92,162.96l-.59-.1h0l.59.1ZM77.31,166.52l-.59-.1h0s.59.1.59.1ZM77.31,166.52l.59.1h0s-.59-.1-.59-.1ZM77.37,167.1l.56-.23h0l-.56.23ZM77.73,167.55l-.35.49h0l.35-.49ZM78.27,167.75l.04-.6h0l-.04.6ZM78.83,167.63l.28.53h0s0,0,0,0l-.3-.52ZM78.83,167.63l-.28-.53h0s0,0,0,0l.3.52ZM81.96,165.97l-.24-.55h-.02s-.02.02-.02.02l.28.53ZM82.03,165.97l.28-.53h-.02s-.02-.02-.02-.02l-.24.55ZM85.16,167.63l-.28.53h.01s.27-.53.27-.53ZM85.16,167.63l.28-.53h0s0,0,0,0l-.27.54ZM85.72,167.75l-.04-.6h0l.04.6ZM86.26,167.55l.35.49h0l-.35-.49ZM86.62,167.1l-.56-.23h0l.56.23ZM86.68,166.52l-.6.06v.02s0,.02,0,.02l.59-.1ZM86.68,166.52l.6-.05v-.02s0-.02,0-.02l-.59.1ZM86.07,162.96l-.59.09h0s.59-.09.59-.09ZM86.07,162.96l.59-.09h0s0-.02,0-.02l-.59.11ZM86.07,162.95l-.57-.19h0s.57.19.57.19ZM86.08,162.93l.41.43h0s-.42-.43-.42-.43ZM86.09,162.93l.42.44h0s-.42-.44-.42-.44ZM88.63,160.47l-.42-.43h0s.42.43.42.43ZM88.92,159.96l-.58-.14h0l.58.14ZM88.55,158.89l-.37.48h0l.37-.48ZM88.02,158.68l-.09.59h.01s.02,0,.02,0l.06-.6ZM84.54,158.17l-.09.59h0l.09-.59ZM84.52,158.16l.07-.6h0l-.07.6ZM84.52,158.16l-.55.24h0s.55-.24.55-.24ZM84.51,158.14l.54-.27h0l-.54.27ZM82.93,154.94l-.54.26h0s.54-.26.54-.26ZM82.55,154.51l.32-.51h0l-.32.51ZM81.99,153.75c-.31,0-.62.09-.88.26l.65,1.01c.07-.04.15-.07.23-.07v-1.2ZM81.11,154.01c-.26.17-.47.4-.6.68l1.09.51c.04-.07.09-.14.16-.18l-.65-1.01ZM80.52,154.68l-1.58,3.2,1.08.53,1.58-3.2-1.08-.53ZM78.94,157.87s-.01.03-.02.04l1.1.49s0,0,0,0l-1.08-.53ZM78.92,157.91c.04-.09.11-.18.19-.24l.71.97c.09-.06.15-.15.2-.24l-1.1-.49ZM79.11,157.68c.08-.06.18-.1.28-.11l.13,1.2c.11-.01.21-.05.29-.12l-.71-.97ZM79.4,157.57s-.03,0-.04,0l.18,1.19s0,0,0,0l-.13-1.2ZM79.36,157.57l-3.47.52.18,1.19,3.47-.52-.18-1.19ZM75.91,158.09c-.3.03-.59.14-.84.33l.73.95c.06-.05.14-.08.22-.09l-.12-1.2ZM75.08,158.42c-.25.19-.44.45-.55.75l1.13.4c.03-.08.08-.15.15-.2l-.73-.95ZM74.53,159.17c-.11.3-.12.62-.05.93l1.17-.28c-.02-.08-.02-.17.01-.25l-1.13-.4ZM74.48,160.1c.07.31.23.59.46.8l.83-.87c-.06-.06-.1-.13-.12-.21l-1.17.28ZM74.94,160.9l2.54,2.46.84-.86-2.54-2.46-.84.86ZM77.49,163.36h0s.83-.87.83-.87h0s-.83.87-.83.87ZM77.5,163.37c-.07-.06-.12-.15-.15-.24l1.14-.38c-.03-.1-.09-.19-.17-.26l-.82.88ZM77.35,163.14c-.03-.09-.04-.19-.02-.28l1.18.21c.02-.1.01-.21-.02-.31l-1.14.38ZM77.32,162.86h0s1.19.21,1.19.21h0s-1.19-.21-1.19-.21ZM77.32,162.86l-.61,3.56,1.19.2.61-3.56-1.19-.2ZM76.72,166.42h0s1.19.2,1.19.2h0s-1.19-.2-1.19-.2ZM76.72,166.42c-.05.3-.02.61.1.9l1.11-.45c-.03-.08-.04-.16-.03-.24l-1.19-.21ZM76.81,167.32c.12.29.31.53.56.71l.71-.97c-.07-.05-.12-.12-.15-.19l-1.11.45ZM77.37,168.04c.25.18.54.29.85.31l.08-1.2c-.08,0-.16-.04-.23-.08l-.71.97ZM78.22,168.35c.31.02.61-.04.89-.19l-.56-1.06c-.07.04-.16.06-.24.05l-.08,1.2ZM79.13,168.15h0s-.6-1.04-.6-1.04h0l.6,1.04ZM79.11,168.16l3.13-1.66-.56-1.06-3.13,1.66.56,1.06ZM82.2,166.52c-.06.03-.13.04-.2.04v-1.2c-.1,0-.19.02-.28.06l.48,1.1ZM81.99,166.56c-.07,0-.14-.02-.2-.04l.48-1.1c-.08-.04-.18-.06-.28-.06v1.2ZM81.75,166.5l3.13,1.66.56-1.06-3.13-1.66-.56,1.06ZM84.89,168.16h0l.54-1.07h0l-.54,1.07ZM84.88,168.16c.27.15.58.21.89.19l-.08-1.2c-.08,0-.16-.01-.24-.05l-.57,1.06ZM85.76,168.35c.31-.02.6-.13.85-.31l-.71-.97c-.07.05-.15.08-.23.08l.08,1.2ZM86.62,168.04c.25-.18.44-.43.56-.71l-1.11-.45c-.03.08-.08.15-.15.19l.71.97ZM87.17,167.32c.12-.29.15-.6.1-.9l-1.19.21c.01.08,0,.17-.03.24l1.11.45ZM87.28,166.47h0s-1.2.11-1.2.11h0s1.2-.11,1.2-.11ZM87.27,166.42l-.61-3.56-1.19.2.61,3.56,1.19-.2ZM86.67,162.87h0s-1.19.18-1.19.18h0s1.19-.18,1.19-.18ZM86.66,162.85c.02.1,0,.19-.02.27l-1.15-.36c-.03.09-.04.2-.02.3l1.18-.22ZM86.64,163.14c-.03.09-.08.17-.15.23l-.83-.87c-.07.07-.13.15-.16.26l1.14.38ZM86.5,163.37h0s-.83-.87-.83-.87h0s.83.87.83.87ZM86.51,163.36l2.54-2.46-.84-.86-2.54,2.46.84.86ZM89.05,160.9c.23-.22.39-.5.46-.8l-1.17-.28c-.02.08-.06.16-.12.21l.83.87ZM89.51,160.1c.07-.31.06-.63-.05-.93l-1.13.4c.03.08.03.16.01.25l1.17.28ZM89.46,159.17c-.11-.3-.29-.56-.55-.75l-.73.95c.07.05.12.12.15.2l1.13-.4ZM88.91,158.42c-.24-.19-.53-.3-.84-.33l-.12,1.2c.08,0,.16.04.22.09l.73-.95ZM88.11,158.09l-3.47-.52-.18,1.19,3.47.52.18-1.19ZM84.63,157.57s-.03,0-.04,0l-.13,1.2s0,0,0,0l.18-1.19ZM84.59,157.57c.1.01.2.05.29.11l-.71.97c.09.06.19.1.29.12l.13-1.2ZM84.88,157.68c.09.06.15.15.19.24l-1.1.49c.04.09.11.18.2.24l.71-.97ZM85.07,157.92s-.01-.03-.02-.04l-1.08.53s0,0,0,0l1.1-.49ZM85.05,157.87l-1.58-3.2-1.08.53,1.58,3.2,1.08-.53ZM83.47,154.69c-.13-.28-.34-.51-.6-.68l-.65,1.01c.07.04.12.11.16.18l1.09-.51ZM82.88,154.01c-.26-.17-.57-.26-.88-.26v1.2c.08,0,.16.02.23.07l.65-1.01Z"/></g><path class="aj" d="M116.24,154.35c-.2,0-.39.06-.56.16-.16.1-.29.25-.38.43l-1.58,3.2s0,.01,0,.02c0,0,0,0,0,0,0,0,0,0,0,0,0,0-.01,0-.02,0l-3.47.52c-.19.02-.38.09-.53.21-.16.12-.28.29-.35.48-.07.19-.08.39-.03.59.05.19.15.37.29.51l2.54,2.46h0s0,.01,0,.02,0,0,0,.01h0s-.61,3.56-.61,3.56h0c-.03.19-.01.39.06.57.07.18.2.34.35.45.16.11.35.18.54.2.19.01.39-.03.56-.12h0l3.13-1.66s.02,0,.03,0c.01,0,.03,0,.04,0l3.13,1.66h0c.17.09.37.13.56.12.19-.01.38-.08.54-.2.16-.12.28-.27.35-.45.07-.18.1-.38.06-.57h0s-.61-3.56-.61-3.56h0s0-.01,0-.02c0,0,0,0,0-.01h0s2.54-2.47,2.54-2.47c.14-.14.25-.31.29-.51.05-.2.04-.4-.03-.59-.07-.19-.19-.35-.35-.48-.15-.12-.34-.19-.53-.21l-3.47-.52s-.01,0-.02,0c0,0,0,0,0,0,0,0,0,0,0,0,0,0,0-.01,0-.02l-1.58-3.2c-.08-.18-.21-.33-.38-.43-.17-.11-.36-.16-.56-.16Z"/><g class="t"><path class="af" d="M115.68,154.51l.32.51h0l-.32-.51ZM115.3,154.94l.54.27h0s-.54-.27-.54-.27ZM113.72,158.14l-.54-.27h0l.54.27ZM113.72,158.16l.55.25h0s-.55-.25-.55-.25ZM113.71,158.16l-.07-.6h0l.07.6ZM113.69,158.17l.09.59h0l-.09-.59ZM110.21,158.68l.06.6h.01s.01,0,.01,0l-.09-.59ZM109.69,158.89l-.37-.48h0l.37.48ZM109.34,159.37l-.57-.2h0l.57.2ZM109.31,159.96l-.58.14h0l.58-.14ZM109.6,160.47l.42-.43h0s-.42.43-.42.43ZM112.14,162.93l-.42.43h0s.41-.43.41-.43ZM112.15,162.93l-.41.43h0s.41-.43.41-.43ZM112.16,162.95l-.57.19h0s.57-.19.57-.19ZM112.16,162.96l-.59-.11h0s.59.11.59.11ZM112.16,162.96l-.59-.1h0l.59.1ZM111.55,166.52l-.59-.1h0s.59.1.59.1ZM111.55,166.52l.59.1h0s-.59-.1-.59-.1ZM111.61,167.1l.56-.23h0l-.56.23ZM111.97,167.55l-.35.49h0l.35-.49ZM112.51,167.75l.04-.6h0l-.04.6ZM113.07,167.63l.28.53h0s0,0,0,0l-.3-.52ZM113.07,167.63l-.28-.53h0s0,0,0,0l.3.52ZM116.2,165.97l-.24-.55h-.02s-.02.02-.02.02l.28.53ZM116.27,165.97l.28-.53h-.02s-.02-.02-.02-.02l-.24.55ZM119.4,167.63l-.28.53h.01s.27-.53.27-.53ZM119.4,167.63l.28-.53h0s0,0,0,0l-.27.54ZM119.97,167.75l-.04-.6h0l.04.6ZM120.51,167.55l.35.49h0l-.35-.49ZM120.86,167.1l-.56-.23h0l.56.23ZM120.92,166.52l-.6.06v.02s0,.02,0,.02l.59-.1ZM120.92,166.52l.6-.05v-.02s0-.02,0-.02l-.59.1ZM120.31,162.96l-.59.09h0s.59-.09.59-.09ZM120.31,162.96l.59-.09h0s0-.02,0-.02l-.59.11ZM120.32,162.95l-.57-.19h0s.57.19.57.19ZM120.32,162.93l.42.43h0s-.42-.43-.42-.43ZM120.33,162.93l.42.44h0s-.42-.44-.42-.44ZM122.87,160.47l-.42-.43h0s.42.43.42.43ZM123.16,159.96l-.58-.14h0l.58.14ZM122.79,158.89l-.37.48h0l.37-.48ZM122.26,158.68l-.09.59h.01s.01,0,.01,0l.06-.6ZM118.78,158.17l-.09.59h0l.09-.59ZM118.77,158.16l.07-.6h0l-.06.6ZM118.76,158.16l-.55.24h0s.55-.24.55-.24ZM118.75,158.14l.54-.27h0l-.54.27ZM117.17,154.94l-.54.26h0s.54-.26.54-.26ZM116.79,154.51l.32-.51h0l-.32.51ZM116.24,153.75c-.31,0-.62.09-.88.26l.65,1.01c.07-.04.15-.07.23-.07v-1.2ZM115.36,154.01c-.26.17-.47.4-.6.68l1.09.51c.04-.07.09-.14.16-.18l-.65-1.01ZM114.76,154.68l-1.58,3.2,1.08.53,1.58-3.2-1.08-.53ZM113.19,157.87s-.01.03-.02.04l1.1.49s0,0,0,0l-1.08-.53ZM113.17,157.91c.04-.09.11-.18.19-.24l.71.97c.09-.06.15-.15.2-.24l-1.1-.49ZM113.36,157.68c.08-.06.18-.1.29-.11l.13,1.2c.11-.01.21-.05.29-.12l-.71-.97ZM113.64,157.57s-.03,0-.04,0l.18,1.19s0,0,0,0l-.13-1.2ZM113.6,157.57l-3.47.52.18,1.19,3.47-.52-.18-1.19ZM110.16,158.09c-.3.03-.59.14-.84.33l.73.95c.06-.05.14-.08.22-.09l-.12-1.2ZM109.32,158.42c-.25.19-.44.45-.55.75l1.13.4c.03-.08.08-.15.14-.2l-.73-.95ZM108.77,159.17c-.1.3-.12.62-.05.93l1.17-.28c-.02-.08-.01-.17.01-.25l-1.13-.4ZM108.72,160.1c.07.31.23.59.46.8l.83-.87c-.06-.06-.1-.13-.12-.21l-1.17.28ZM109.18,160.9l2.54,2.46.84-.86-2.54-2.46-.84.86ZM111.73,163.36h0s.83-.87.83-.87h0s-.83.87-.83.87ZM111.74,163.37c-.07-.06-.12-.15-.15-.24l1.14-.38c-.03-.1-.09-.19-.17-.26l-.82.88ZM111.59,163.14c-.03-.09-.04-.19-.02-.28l1.18.21c.02-.1.01-.21-.02-.31l-1.14.38ZM111.57,162.86h0s1.19.21,1.19.21h0s-1.19-.21-1.19-.21ZM111.57,162.86l-.61,3.56,1.18.2.61-3.56-1.19-.2ZM110.96,166.42h0s1.19.2,1.19.2h0s-1.19-.2-1.19-.2ZM110.96,166.42c-.05.3-.02.61.1.9l1.12-.45c-.03-.08-.04-.16-.03-.24l-1.18-.21ZM111.06,167.32c.12.29.31.53.56.71l.71-.97c-.07-.05-.12-.12-.15-.19l-1.12.45ZM111.62,168.04c.25.18.54.29.85.31l.08-1.2c-.08,0-.16-.04-.23-.08l-.71.97ZM112.47,168.35c.31.02.61-.04.89-.19l-.57-1.06c-.07.04-.15.06-.24.05l-.08,1.2ZM113.37,168.15h0s-.6-1.04-.6-1.04h0l.6,1.04ZM113.35,168.16l3.13-1.66-.56-1.06-3.13,1.66.56,1.06ZM116.44,166.52c-.06.03-.13.04-.21.04v-1.2c-.1,0-.19.02-.27.06l.48,1.1ZM116.24,166.56c-.07,0-.14-.02-.2-.04l.48-1.1c-.08-.04-.18-.06-.28-.06v1.2ZM115.99,166.5l3.13,1.66.56-1.06-3.13-1.66-.56,1.06ZM119.13,168.16h0l.54-1.07h0l-.54,1.07ZM119.12,168.16c.27.15.58.21.89.19l-.08-1.2c-.08,0-.16-.01-.24-.05l-.57,1.06ZM120.01,168.35c.31-.02.6-.13.85-.31l-.71-.97c-.07.05-.15.08-.23.08l.08,1.2ZM120.86,168.04c.25-.18.44-.43.56-.71l-1.11-.45c-.03.08-.08.15-.15.19l.71.97ZM121.42,167.32c.12-.29.15-.6.1-.9l-1.18.21c.01.08,0,.17-.03.24l1.11.45ZM121.52,166.47h0s-1.2.11-1.2.11h0s1.2-.11,1.2-.11ZM121.51,166.42l-.61-3.56-1.19.2.61,3.56,1.18-.2ZM120.91,162.87h0s-1.19.18-1.19.18h0s1.19-.18,1.19-.18ZM120.91,162.85c.02.1,0,.19-.02.27l-1.15-.36c-.03.09-.04.2-.02.3l1.18-.22ZM120.89,163.14c-.03.09-.08.17-.15.23l-.83-.87c-.07.07-.13.15-.16.26l1.14.38ZM120.74,163.37h0s-.83-.87-.83-.87h0s.83.87.83.87ZM120.75,163.36l2.54-2.46-.84-.86-2.54,2.46.84.86ZM123.29,160.9c.23-.22.39-.5.46-.8l-1.17-.28c-.02.08-.06.16-.12.21l.83.87ZM123.75,160.1c.07-.31.06-.63-.05-.93l-1.13.4c.03.08.03.16.01.25l1.17.28ZM123.7,159.17c-.11-.3-.29-.56-.55-.75l-.73.95c.07.05.12.12.14.2l1.13-.4ZM123.15,158.42c-.24-.19-.53-.3-.84-.33l-.12,1.2c.08,0,.16.04.22.09l.73-.95ZM122.35,158.09l-3.47-.52-.18,1.19,3.47.52.18-1.19ZM118.87,157.57s-.03,0-.04,0l-.13,1.2s0,0,0,0l.18-1.19ZM118.83,157.57c.11.01.2.05.29.11l-.71.97c.08.06.19.1.29.12l.13-1.2ZM119.12,157.68c.08.06.15.15.19.24l-1.1.49c.04.09.11.18.2.24l.71-.97ZM119.31,157.92s-.01-.03-.02-.04l-1.08.53s0,0,0,0l1.1-.49ZM119.29,157.87l-1.58-3.2-1.08.53,1.58,3.2,1.08-.53ZM117.72,154.69c-.13-.28-.34-.51-.6-.68l-.65,1.01c.07.04.12.11.16.18l1.09-.51ZM117.12,154.01c-.26-.17-.57-.26-.88-.26v1.2c.08,0,.16.02.23.07l.65-1.01Z"/></g><g class="v"><path class="aj" d="M133.35,154.35c-.2,0-.39.06-.56.16-.16.1-.29.25-.38.43l-1.58,3.2s0,.01,0,.02c0,0,0,0,0,0,0,0,0,0,0,0,0,0-.01,0-.02,0l-3.47.52c-.19.02-.38.09-.53.21-.16.12-.28.29-.35.48-.07.19-.08.39-.03.59.05.2.15.37.29.51l2.54,2.46h0s0,.01,0,.02c0,0,0,0,0,.01h0s-.61,3.56-.61,3.56h0c-.03.19-.01.39.06.57.07.18.2.34.35.45.16.12.35.18.54.2.19.01.39-.03.56-.12h0l3.13-1.66s.02,0,.04,0,.02,0,.04,0l3.13,1.66h0c.17.09.37.13.56.12.2-.01.38-.08.54-.2.16-.11.28-.27.35-.45.07-.18.09-.38.06-.57h0s-.61-3.56-.61-3.56h0s0-.01,0-.02c0,0,0,0,0-.01h0s2.54-2.47,2.54-2.47c.14-.14.25-.31.29-.51.05-.19.04-.4-.03-.59-.07-.19-.19-.35-.35-.48-.15-.12-.34-.19-.53-.21l-3.48-.52s-.01,0-.02,0c0,0,0,0,0,0,0,0,0,0,0,0,0,0,0-.01,0-.02l-1.58-3.2c-.08-.18-.21-.33-.38-.43-.17-.11-.36-.16-.56-.16Z"/><g class="y"><path class="af" d="M132.79,154.51l.32.51h0l-.32-.51ZM132.41,154.95l.54.27h0s-.54-.27-.54-.27ZM130.83,158.14l-.54-.27h0l.54.27ZM130.82,158.16l.55.24h0s-.55-.24-.55-.24ZM130.82,158.17l-.07-.6h0l.07.6ZM130.8,158.17l.09.6h0l-.09-.6ZM127.32,158.68l.06.6h.02s.01,0,.01,0l-.09-.59ZM126.8,158.89l-.37-.48h0l.37.48ZM126.45,159.37l-.57-.2h0l.57.2ZM126.42,159.96l-.58.14h0l.58-.14ZM126.71,160.47l.42-.43h0s-.42.43-.42.43ZM129.25,162.93l-.42.43h0s.42-.43.42-.43ZM129.26,162.93l-.41.43h0s.41-.43.41-.43ZM129.27,162.95l-.57.19h0s.57-.19.57-.19ZM129.27,162.96l-.59-.11h0s.59.11.59.11ZM129.27,162.96l-.59-.1h0l.59.1ZM128.66,166.52l-.59-.1h0s.59.1.59.1ZM128.66,166.52l.59.1h0s-.59-.1-.59-.1ZM128.72,167.1l.56-.23h0l-.56.23ZM129.08,167.55l-.35.49h0l.35-.49ZM129.62,167.75l.04-.6h0l-.04.6ZM130.18,167.63l.28.53h0s0,0,0,0l-.3-.52ZM130.18,167.63l-.28-.53h0s0,.01,0,.01l.3.52ZM133.31,165.97l-.24-.55h-.02s-.02.02-.02.02l.28.53ZM133.38,165.97l.28-.53h-.02s-.02-.02-.02-.02l-.24.55ZM136.51,167.63l-.28.53h.01s.27-.53.27-.53ZM136.51,167.63l.28-.53h0s0,0,0,0l-.27.54ZM137.07,167.75l-.04-.6h0l.04.6ZM137.61,167.55l.35.49h0l-.35-.49ZM137.97,167.1l-.56-.23h0l.56.23ZM138.03,166.52l-.6.05v.02s0,.02,0,.02l.59-.1ZM138.03,166.52l.6-.05v-.02s0-.02,0-.02l-.59.1ZM137.42,162.96l-.6.09h0s.59-.09.59-.09ZM137.42,162.96l.6-.09h0s0-.02,0-.02l-.59.11ZM137.42,162.95l-.57-.19h0s.57.19.57.19ZM137.43,162.93l.42.43h0s-.42-.43-.42-.43ZM137.44,162.93l.42.43h0s-.42-.43-.42-.43ZM139.98,160.47l-.42-.43h0s.42.43.42.43ZM140.27,159.96l-.59-.14h0l.59.14ZM139.9,158.89l-.37.48h0l.37-.48ZM139.37,158.68l-.09.59h.01s.01,0,.01,0l.06-.6ZM135.89,158.17l-.09.6h0l.09-.6ZM135.88,158.17l.07-.6h0l-.07.6ZM135.87,158.16l-.55.24h0s.55-.24.55-.24ZM135.86,158.14l.54-.27h0l-.54.27ZM134.28,154.95l-.54.26h0s.54-.26.54-.26ZM133.9,154.51l.32-.51h0l-.32.51ZM133.35,153.75c-.31,0-.62.09-.88.26l.65,1.01c.07-.04.15-.07.23-.07v-1.2ZM132.47,154.01c-.26.17-.47.4-.6.68l1.09.51c.03-.07.09-.14.16-.18l-.65-1.01ZM131.87,154.68l-1.58,3.2,1.08.53,1.58-3.2-1.08-.53ZM130.29,157.88s-.01.03-.02.04l1.1.49s0,0,0,0l-1.08-.53ZM130.28,157.92c.04-.09.11-.18.19-.24l.71.97c.09-.06.15-.15.2-.24l-1.1-.49ZM130.47,157.68c.08-.06.18-.1.28-.11l.13,1.2c.11-.01.21-.05.29-.12l-.71-.97ZM130.75,157.57s-.03,0-.04,0l.18,1.19s0,0,0,0l-.13-1.2ZM130.71,157.57l-3.47.52.18,1.19,3.47-.52-.18-1.19ZM127.27,158.09c-.3.03-.59.14-.84.33l.73.95c.06-.05.14-.08.22-.09l-.12-1.2ZM126.43,158.42c-.25.19-.44.45-.55.75l1.13.4c.03-.08.08-.15.15-.2l-.73-.95ZM125.88,159.17c-.11.3-.12.62-.05.93l1.17-.28c-.02-.08-.01-.17.01-.25l-1.13-.4ZM125.83,160.1c.07.31.23.59.46.8l.83-.87c-.06-.06-.1-.13-.12-.21l-1.17.28ZM126.29,160.9l2.54,2.46.84-.86-2.54-2.46-.84.86ZM128.84,163.37h0s.83-.87.83-.87h0s-.83.87-.83.87ZM128.85,163.37c-.07-.07-.12-.15-.15-.24l1.14-.38c-.03-.1-.09-.19-.17-.26l-.82.88ZM128.7,163.14c-.03-.09-.04-.19-.02-.28l1.18.21c.02-.1.01-.21-.02-.31l-1.14.38ZM128.68,162.86h0s1.19.21,1.19.21h0s-1.18-.21-1.18-.21ZM128.68,162.86l-.61,3.56,1.19.2.61-3.56-1.19-.2ZM128.07,166.43h0s1.19.2,1.19.2h0s-1.19-.2-1.19-.2ZM128.07,166.42c-.05.3-.02.62.1.9l1.11-.45c-.03-.08-.04-.16-.03-.24l-1.18-.21ZM128.17,167.32c.11.29.31.53.56.71l.71-.97c-.07-.05-.12-.12-.15-.19l-1.11.45ZM128.72,168.04c.25.18.54.29.85.31l.08-1.2c-.08,0-.16-.03-.23-.08l-.71.97ZM129.58,168.35c.31.02.61-.04.89-.19l-.56-1.06c-.07.04-.16.06-.24.05l-.08,1.2ZM130.48,168.15h0s-.6-1.04-.6-1.04h0l.6,1.04ZM130.46,168.16l3.13-1.66-.56-1.06-3.13,1.66.56,1.06ZM133.55,166.52c-.06.03-.13.04-.2.04v-1.2c-.1,0-.19.02-.28.06l.48,1.1ZM133.35,166.56c-.07,0-.14-.02-.2-.04l.48-1.1c-.09-.04-.18-.06-.28-.06v1.2ZM133.1,166.5l3.13,1.66.56-1.06-3.13-1.66-.56,1.06ZM136.24,168.16h0l.54-1.07h0l-.54,1.07ZM136.23,168.16c.27.14.58.21.89.19l-.08-1.2c-.08,0-.16-.01-.24-.05l-.57,1.06ZM137.12,168.35c.31-.02.6-.13.85-.31l-.71-.97c-.07.05-.15.08-.23.08l.08,1.2ZM137.97,168.04c.25-.18.44-.43.56-.71l-1.12-.45c-.03.08-.08.15-.15.19l.71.97ZM138.53,167.32c.11-.29.15-.6.1-.9l-1.18.21c.01.08,0,.17-.03.24l1.12.45ZM138.63,166.47h0s-1.2.11-1.2.11h0s1.2-.11,1.2-.11ZM138.62,166.42l-.61-3.56-1.18.2.61,3.56,1.18-.2ZM138.02,162.87h0s-1.19.18-1.19.18h0s1.19-.18,1.19-.18ZM138.02,162.85c.02.1,0,.19-.02.27l-1.15-.36c-.03.09-.04.2-.02.3l1.18-.22ZM137.99,163.14c-.03.09-.08.17-.15.23l-.83-.87c-.07.07-.13.16-.16.26l1.14.38ZM137.85,163.37h0s-.83-.87-.83-.87h0s.83.87.83.87ZM137.86,163.36l2.54-2.46-.84-.86-2.54,2.46.84.86ZM140.4,160.9c.23-.22.39-.5.46-.8l-1.17-.28c-.02.08-.06.16-.12.21l.83.87ZM140.86,160.1c.07-.31.06-.63-.05-.93l-1.13.4c.03.08.03.16.01.25l1.17.28ZM140.81,159.17c-.11-.3-.29-.56-.55-.75l-.73.95c.07.05.12.12.15.2l1.13-.4ZM140.26,158.42c-.24-.19-.53-.3-.84-.33l-.12,1.2c.08,0,.16.04.22.09l.73-.95ZM139.46,158.09l-3.47-.52-.18,1.19,3.47.52.18-1.19ZM135.98,157.57s-.03,0-.04,0l-.13,1.2s0,0,0,0l.18-1.19ZM135.94,157.57c.1.01.2.05.29.11l-.71.97c.09.06.19.1.29.12l.13-1.2ZM136.23,157.68c.08.06.15.15.19.24l-1.1.49c.04.09.11.18.2.24l.71-.97ZM136.42,157.92s-.01-.03-.02-.04l-1.08.53s0,0,0,0l1.1-.49ZM136.4,157.88l-1.58-3.2-1.08.53,1.58,3.2,1.08-.53ZM134.83,154.69c-.13-.28-.34-.51-.6-.68l-.65,1.01c.07.04.12.11.16.18l1.09-.51ZM134.23,154.01c-.26-.17-.57-.26-.88-.26v1.2c.08,0,.16.02.23.07l.65-1.01Z"/></g></g><g class="u"><g class="w"><path class="af" d="M132.8,154.51l.32.51h0l-.32-.51ZM132.42,154.95l.54.27h0s-.54-.27-.54-.27ZM130.84,158.14l-.54-.27h0l.54.27ZM130.83,158.16l.55.24h0s-.55-.24-.55-.24ZM130.82,158.17l-.07-.6h0l.07.6ZM130.81,158.17l.09.6h0l-.09-.6ZM127.33,158.68l.06.6h.01s.01,0,.01,0l-.09-.59ZM126.8,158.89l-.37-.48h0l.37.48ZM126.46,159.37l-.57-.2h0l.57.2ZM126.43,159.96l-.58.14h0l.58-.14ZM126.72,160.47l.42-.43h0s-.42.43-.42.43ZM129.26,162.93l-.42.43h0s.41-.43.41-.43ZM129.27,162.93l-.41.43h0s.41-.43.41-.43ZM129.28,162.95l-.57.19h0s.57-.19.57-.19ZM129.28,162.96l-.59-.11h0s.59.11.59.11ZM129.28,162.96l-.59-.1h0l.59.1ZM128.67,166.52l-.59-.1h0s.59.1.59.1ZM128.67,166.52l.59.1h0s-.59-.1-.59-.1ZM128.73,167.1l.56-.23h0l-.56.23ZM129.09,167.55l-.35.49h0l.35-.49ZM129.63,167.75l.04-.6h0l-.04.6ZM130.19,167.63l.28.53h0s0,0,0,0l-.3-.52ZM130.19,167.63l-.28-.53h0s0,.01,0,.01l.3.52ZM133.32,165.97l-.24-.55h-.02s-.02.02-.02.02l.28.53ZM133.39,165.97l.28-.53h-.02s-.02-.02-.02-.02l-.24.55ZM136.52,167.63l-.28.53h.01s.27-.53.27-.53ZM136.52,167.63l.28-.53h0s0,0,0,0l-.27.54ZM137.08,167.75l-.04-.6h0l.04.6ZM137.62,167.55l.35.49h0l-.35-.49ZM137.98,167.1l-.56-.23h0l.56.23ZM138.04,166.52l-.6.05v.02s0,.02,0,.02l.59-.1ZM138.04,166.52l.6-.05v-.02s0-.02,0-.02l-.59.1ZM137.43,162.96l-.59.09h0s.59-.09.59-.09ZM137.43,162.96l.59-.09h0s0-.02,0-.02l-.59.11ZM137.43,162.95l-.57-.19h0s.57.19.57.19ZM137.44,162.93l.41.43h0s-.42-.43-.42-.43ZM137.45,162.93l.41.43h0s-.42-.43-.42-.43ZM139.99,160.47l-.42-.43h0s.42.43.42.43ZM140.28,159.96l-.58-.14h0l.58.14ZM139.9,158.89l-.37.48h0l.37-.48ZM139.38,158.68l-.09.59h.01s.01,0,.01,0l.06-.6ZM135.9,158.17l-.09.6h0l.09-.6ZM135.88,158.17l.07-.6h0l-.07.6ZM135.88,158.16l-.55.24h0s.55-.24.55-.24ZM135.87,158.14l.54-.27h0l-.54.27ZM134.29,154.95l-.54.26h0s.54-.26.54-.26ZM133.91,154.51l.33-.51h0l-.33.51ZM133.35,153.75c-.31,0-.62.09-.88.26l.65,1.01c.07-.04.15-.07.23-.07v-1.2ZM132.47,154.01c-.26.17-.47.4-.6.68l1.09.51c.04-.07.09-.14.16-.18l-.65-1.01ZM131.88,154.68l-1.58,3.2,1.08.53,1.58-3.2-1.08-.53ZM130.3,157.88s-.01.03-.02.04l1.1.49s0,0,0,0l-1.08-.53ZM130.28,157.92c.04-.09.11-.18.19-.24l.71.97c.09-.06.15-.15.2-.24l-1.1-.49ZM130.47,157.68c.08-.06.18-.1.29-.11l.13,1.2c.11-.01.21-.05.29-.12l-.71-.97ZM130.76,157.57s-.03,0-.04,0l.18,1.19s0,0,0,0l-.13-1.2ZM130.72,157.57l-3.48.52.18,1.19,3.47-.52-.18-1.19ZM127.27,158.09c-.3.03-.59.14-.84.33l.73.95c.07-.05.14-.08.22-.09l-.12-1.2ZM126.44,158.42c-.25.19-.44.45-.55.75l1.13.4c.03-.08.08-.15.14-.2l-.73-.95ZM125.89,159.17c-.11.3-.12.62-.05.93l1.17-.28c-.02-.08-.01-.17.01-.25l-1.13-.4ZM125.84,160.1c.07.31.23.59.46.8l.83-.87c-.06-.06-.1-.13-.12-.21l-1.17.28ZM126.3,160.9l2.54,2.46.84-.86-2.54-2.46-.84.86ZM128.85,163.37h0s.83-.87.83-.87h0s-.83.87-.83.87ZM128.86,163.37c-.07-.07-.12-.15-.15-.24l1.14-.38c-.03-.1-.09-.19-.17-.26l-.82.88ZM128.71,163.14c-.03-.09-.04-.19-.02-.28l1.18.21c.02-.1.01-.21-.02-.31l-1.14.38ZM128.68,162.86h0s1.18.21,1.18.21h0s-1.19-.21-1.19-.21ZM128.68,162.86l-.61,3.56,1.18.2.61-3.56-1.18-.2ZM128.08,166.43h0s1.19.2,1.19.2h0s-1.19-.2-1.19-.2ZM128.08,166.42c-.05.3-.02.62.1.9l1.12-.45c-.03-.08-.04-.16-.03-.24l-1.18-.21ZM128.17,167.32c.12.29.31.53.56.71l.71-.97c-.07-.05-.12-.12-.15-.19l-1.12.45ZM128.73,168.04c.25.18.54.29.85.31l.08-1.2c-.08,0-.16-.03-.23-.08l-.71.97ZM129.58,168.35c.31.02.61-.04.88-.19l-.57-1.06c-.07.04-.15.06-.24.05l-.08,1.2ZM130.49,168.15h0s-.6-1.04-.6-1.04h0l.6,1.04ZM130.47,168.16l3.13-1.66-.56-1.06-3.13,1.66.56,1.06ZM133.56,166.52c-.06.03-.13.04-.2.04v-1.2c-.1,0-.19.02-.28.06l.48,1.1ZM133.35,166.56c-.07,0-.14-.02-.2-.04l.48-1.1c-.09-.04-.18-.06-.28-.06v1.2ZM133.11,166.5l3.13,1.66.56-1.06-3.13-1.66-.56,1.06ZM136.25,168.16h0l.54-1.07h0l-.54,1.07ZM136.24,168.16c.27.14.58.21.89.19l-.08-1.2c-.08,0-.16-.01-.24-.05l-.57,1.06ZM137.12,168.35c.31-.02.6-.13.85-.31l-.71-.97c-.07.05-.15.08-.23.08l.08,1.2ZM137.98,168.04c.25-.18.44-.43.56-.71l-1.12-.45c-.03.08-.08.15-.15.19l.71.97ZM138.53,167.32c.12-.29.15-.6.1-.9l-1.18.21c.01.08,0,.17-.03.24l1.12.45ZM138.64,166.47h0s-1.2.11-1.2.11h0s1.2-.11,1.2-.11ZM138.63,166.42l-.61-3.56-1.19.2.61,3.56,1.18-.2ZM138.03,162.87h0s-1.19.18-1.19.18h0s1.19-.18,1.19-.18ZM138.02,162.85c.02.1,0,.19-.02.27l-1.15-.36c-.03.09-.04.2-.02.3l1.18-.22ZM138,163.14c-.03.09-.08.17-.15.23l-.83-.87c-.07.07-.13.16-.16.26l1.14.38ZM137.86,163.37h0s-.83-.87-.83-.87h0s.83.87.83.87ZM137.86,163.36l2.54-2.46-.84-.86-2.54,2.46.84.86ZM140.41,160.9c.23-.22.39-.5.46-.8l-1.17-.28c-.02.08-.06.16-.12.21l.83.87ZM140.87,160.1c.07-.31.06-.63-.05-.93l-1.13.4c.03.08.03.16.01.25l1.17.28ZM140.82,159.17c-.11-.3-.29-.56-.55-.75l-.73.95c.07.05.12.12.15.2l1.13-.4ZM140.27,158.42c-.24-.19-.53-.3-.84-.33l-.12,1.2c.08,0,.16.04.22.09l.73-.95ZM139.46,158.09l-3.47-.52-.18,1.19,3.47.52.18-1.19ZM135.99,157.57s-.03,0-.04,0l-.13,1.2s0,0,0,0l.18-1.19ZM135.95,157.57c.1.01.2.05.29.11l-.71.97c.09.06.19.1.29.12l.13-1.2ZM136.23,157.68c.09.06.15.15.19.24l-1.1.49c.04.09.11.18.2.24l.71-.97ZM136.43,157.92s-.01-.03-.02-.04l-1.08.53s0,0,0,0l1.1-.49ZM136.41,157.88l-1.58-3.2-1.08.53,1.58,3.2,1.08-.53ZM134.83,154.69c-.13-.28-.34-.51-.6-.68l-.65,1.01c.07.04.12.11.16.18l1.09-.51ZM134.24,154.01c-.26-.17-.57-.26-.88-.26v1.2c.08,0,.16.02.23.07l.65-1.01Z"/></g></g></g></svg>