<svg width="129" height="129" viewBox="0 0 129 129" fill="none" xmlns="http://www.w3.org/2000/svg">
<circle cx="64.7421" cy="64.6132" r="63.371" fill="white" stroke="black"/>
<path d="M94.1719 83.7422H33.1719V86.7422H94.1719V83.7422Z" fill="#EB701F"/>
<path d="M94.1719 59.1264V51.3219C92.3529 50.9979 90.5935 50.3113 88.9965 49.2623C87.2046 48.087 85.7375 46.5382 84.6602 44.7422H33.1719V71.7422H94.1665V59.1264H94.1719ZM69.0638 57.5447L69.1179 59.8349H65.009V61.9495H69.1179V64.2397H65.009V68.5292H62.6271V64.2397H58.5182V61.9495H62.6271V59.8349H58.5182V57.5447H61.5443L57.7007 48.812H60.1747L63.818 57.4019L67.954 48.812H70.5146L66.0593 57.5447H69.0638Z" fill="#EB701F"/>
<path d="M94.1719 78.7422H33.1719V81.7422H94.1719V78.7422Z" fill="#EB701F"/>
<path d="M94.1719 73.7422H33.1719V76.7422H94.1719V73.7422Z" fill="#EB701F"/>
<path d="M89.6499 47.8092C92.3403 49.5543 95.5485 50.1413 98.682 49.4742C101.816 48.8072 104.506 46.9553 106.246 44.2657C109.844 38.7156 108.253 31.2709 102.702 27.6741C100.732 26.3986 98.4899 25.7422 96.1998 25.7422C95.3564 25.7422 94.5129 25.8329 93.6695 26.009C90.536 26.6761 87.8456 28.5279 86.1054 31.2176C84.3598 33.9072 83.7726 37.1146 84.4399 40.2472C85.1072 43.3798 86.9595 46.0695 89.6499 47.8092ZM91.4702 36.8531C91.8119 36.5115 92.367 36.5115 92.714 36.8531L94.9934 39.1318L99.6482 34.4836C99.9899 34.1421 100.545 34.1421 100.892 34.4836C101.234 34.8252 101.234 35.3802 100.892 35.727L95.6179 40.9996C95.4471 41.1704 95.2229 41.2558 94.9987 41.2558C94.7745 41.2558 94.5503 41.1704 94.3795 40.9996L91.4756 38.0965C91.1339 37.755 91.1339 37.2 91.4756 36.8531H91.4702Z" fill="white"/>
<path d="M67.5741 48.7422L63.378 57.4504L59.6818 48.7422H57.1719L61.0713 57.5952H58.0012V59.9226H62.1698V62.0662H58.0012V64.3936H62.1698V68.7422H64.5863V64.3936H68.7549V62.0662H64.5863V59.9226H68.7549L68.7 57.5952H65.6573L70.1719 48.7422H67.5741Z" fill="black"/>
<path d="M103.819 26.0034C100.695 23.9689 96.9723 23.2725 93.3356 24.0559C89.699 24.8392 86.5811 26.9989 84.5547 30.1432C82.5337 33.2875 81.8474 37.0356 82.6202 40.6967C82.8093 41.5888 83.0795 42.4483 83.4253 43.2698H32.0635C31.5717 43.2698 31.1719 43.6723 31.1719 44.1673V87.8446C31.1719 88.3396 31.5717 88.7422 32.0635 88.7422H94.7244C95.2161 88.7422 95.616 88.3396 95.616 87.8446V51.7778C95.8159 51.7887 96.0159 51.7996 96.2212 51.7996C97.1993 51.7996 98.1827 51.6962 99.1554 51.4841C102.792 50.7007 105.91 48.5411 107.936 45.3968C112.113 38.9069 110.265 30.2085 103.824 26.0034H103.819ZM93.8328 81.6703H32.9497V78.6837H93.8328V81.6703ZM93.8328 76.894H32.9497V73.592H93.8328V76.894ZM93.8328 86.947H32.9497V83.46H93.8328V86.947ZM93.8328 54.0299V71.8022H32.9497V45.0595H84.3439C85.4193 46.8384 86.8837 48.367 88.6723 49.5366C90.2664 50.5756 92.0171 51.2556 93.8382 51.5765V54.0299H93.8328ZM106.44 44.4176C104.673 47.1593 101.954 49.047 98.7825 49.727C95.6106 50.4069 92.363 49.8086 89.6395 48.0297C86.9161 46.2508 85.041 43.5146 84.3656 40.3213C83.6901 37.1281 84.2845 33.8587 86.0515 31.1169C87.8185 28.3752 90.5365 26.4875 93.7085 25.8076C94.5623 25.6226 95.4215 25.5356 96.2698 25.5356C98.588 25.5356 100.863 26.2047 102.851 27.5048C108.471 31.1713 110.082 38.76 106.44 44.4176Z" fill="black"/>
<path d="M99.6665 34.0338L94.9783 39.3246L92.6826 36.7308C92.3385 36.342 91.7794 36.342 91.4299 36.7308C91.0859 37.1196 91.0859 37.7513 91.4299 38.1461L94.3547 41.4506C94.5267 41.645 94.7525 41.7422 94.9783 41.7422C95.2041 41.7422 95.4299 41.645 95.602 41.4506L100.914 35.4491C101.258 35.0603 101.258 34.4286 100.914 34.0338C100.57 33.645 100.011 33.645 99.6611 34.0338H99.6665Z" fill="black"/>
</svg>
