<?xml version="1.0" encoding="UTF-8"?><svg id="b" xmlns="http://www.w3.org/2000/svg" width="243" height="259" xmlns:xlink="http://www.w3.org/1999/xlink" viewBox="0 0 243 259"><defs><style>.e{fill:none;}.e,.f{stroke-width:0px;}.g{clip-path:url(#d);}.f{fill:#fff;}</style><clipPath id="d"><rect class="e" width="243" height="259"/></clipPath></defs><g id="c"><g class="g"><path class="f" d="M59.2,243.51v-1.86c0-.85-.41-1.27-1.24-1.27h-.44c-.8,0-1.21.42-1.21,1.27v3.51c0,.4.08.66.24.8.16.14.41.31.77.53l2.69,1.45c.59.33,1,.6,1.25.78.25.19.44.42.57.68.14.26.21.78.21,1.52v4.52c0,2.38-1.14,3.57-3.42,3.57h-1.74c-2.26,0-3.39-1.3-3.39-3.89v-1.06h2.83v1.15c0,.83.42,1.24,1.27,1.24h.5c.75,0,1.12-.41,1.12-1.24v-3.6c0-.4-.08-.66-.24-.8-.16-.14-.41-.32-.77-.53l-2.68-1.5c-.59-.31-1.02-.58-1.28-.8-.27-.21-.46-.5-.57-.84-.12-.35-.18-.79-.18-1.34v-4.34c0-2.42,1.13-3.63,3.39-3.63h1.76c2.26,0,3.39,1.21,3.39,3.63v2.06h-2.83Z"/><path class="f" d="M70.13,250.27l2.62-12.45h3.12v21.19h-2.83l.3-13.87-2.12,10.04h-2.18l-2.12-10.04.3,13.87h-2.83v-21.19h3.12l2.62,12.45h0Z"/><path class="f" d="M78.54,259v-21.19h2.83v21.19h-2.83Z"/><path class="f" d="M90.75,259h-6.72v-21.19h2.83v18.62h3.89v2.57Z"/><path class="f" d="M92.37,259v-21.19h7.02v2.57h-4.19v6.43h3.72v2.57h-3.72v7.05h4.19v2.57h-7.02Z"/><path class="f" d="M106.7,259h-2.83v-7.79l-3.48-13.4h2.8l2.12,9.21h.09l1.92-9.21h2.8l-3.42,13.4v7.79h0Z"/><path class="f" d="M123,246.82v2.57h-3.72v9.62h-2.83v-21.19h7.02v2.57h-4.19v6.43h3.72Z"/><path class="f" d="M132.11,259h-6.72v-21.19h2.83v18.62h3.89v2.57Z"/><path class="f" d="M137.01,259c-2.28,0-3.42-1.2-3.42-3.6v-13.96c0-2.42,1.13-3.63,3.39-3.63h2.71c2.26,0,3.39,1.21,3.39,3.63v13.96c0,2.4-1.14,3.6-3.42,3.6h-2.66ZM137.69,256.43h1.45c.75,0,1.12-.42,1.12-1.24v-13.57c0-.82-.42-1.24-1.27-1.24h-1.33c-.82,0-1.24.42-1.24,1.24v13.57c0,.82.42,1.24,1.27,1.24Z"/><path class="f" d="M160.39,237.82l-3.12,21.19h-3.07l-1.74-12.27-1.71,12.27h-3.07l-3.13-21.19h2.8l2.01,15.88,2.01-15.88h2.21l2.01,15.88,2.01-15.88h2.8-.01Z"/><path class="f" d="M162.01,259v-21.19h7.02v2.57h-4.19v6.43h3.72v2.57h-3.72v7.05h4.19v2.57h-7.02Z"/><path class="f" d="M171.06,237.82h5.54c2.16,0,3.25,1.21,3.25,3.63v5.22c0,1.85-.56,3.02-1.68,3.51l1.97,8.82h-2.68l-1.86-8.55h-1.71v8.55h-2.83v-21.19ZM173.9,248.03h1.85c.85,0,1.27-.51,1.27-1.53v-4.57c0-1.03-.42-1.54-1.27-1.54h-1.85v7.65h0Z"/><path class="f" d="M187.63,243.51v-1.86c0-.85-.41-1.27-1.24-1.27h-.44c-.8,0-1.21.42-1.21,1.27v3.51c0,.4.08.66.24.8.16.14.42.31.77.53l2.68,1.45c.59.33,1.01.6,1.25.78.24.19.44.42.57.68.14.26.21.78.21,1.52v4.52c0,2.38-1.14,3.57-3.42,3.57h-1.74c-2.26,0-3.39-1.3-3.39-3.89v-1.06h2.83v1.15c0,.83.42,1.24,1.27,1.24h.5c.75,0,1.12-.41,1.12-1.24v-3.6c0-.4-.08-.66-.24-.8-.16-.14-.41-.32-.77-.53l-2.69-1.5c-.59-.31-1.02-.58-1.28-.8-.26-.21-.46-.5-.57-.84-.12-.35-.17-.79-.17-1.34v-4.34c0-2.42,1.13-3.63,3.39-3.63h1.76c2.26,0,3.39,1.21,3.39,3.63v2.06h-2.83Z"/><path class="f" d="M46.84,169.89l3.85,6.77v-6.77h1.2v7.99h-1.81l-3.83-6.77v6.77h-1.2v-7.99h1.81Z"/><path class="f" d="M58.01,169.89c1.87,0,2.43.92,2.43,2.51,0,1.83-.74,2.53-2.57,2.53h-2.93v2.96h-1.2v-7.99h4.27ZM54.94,170.99v2.84h2.91c.82,0,1.38-.12,1.38-1.41s-.54-1.43-1.38-1.43h-2.91Z"/><path class="f" d="M68.6,173.89c0,2.78-.53,4.08-3.44,4.08-2.75,0-3.71-.64-3.71-4.08,0-3.1.71-4.08,3.56-4.08s3.58.85,3.58,4.08h0ZM62.67,173.89c0,2.44.26,2.99,2.47,2.99s2.24-.9,2.24-2.99c0-2.3-.2-2.99-2.36-2.99s-2.35.73-2.35,2.99Z"/><path class="f" d="M73.13,175.19c-.44,1.46-1.29,2.78-1.92,3.6l-.73-.97c1.09-1.32,1.68-2.91,1.81-3.28l.83.65h0ZM71.08,172.09c.64.26,1.16.55,1.72.96l-.6.93c-.57-.44-.92-.66-1.68-1.02l.55-.87h0ZM71.6,169.32c.35.12,1.29.57,1.73,1l-.65.91c-.54-.46-1.26-.87-1.66-1.07l.58-.85ZM73.89,174.1c.07-.7.11-1.31.15-2.06-.13.15-.21.24-.52.52l-.87-.76c.93-.71,1.56-1.44,1.97-2.54l1.07.16c-.07.22-.12.41-.28.74h4.78v.93h-5.36c-.11.15-.25.35-.66.8h5.56c-.01.23-.02,1.38-.03,2.21h.5v.85h-.51c-.01.21-.03.69-.1,1.46h.46v.87h-.55c-.08.74-.16,1.5-1.34,1.5h-1.32l-.17-.89h1.32c.43,0,.46-.26.5-.61h-4.1c-.04.22-.09.39-.21.79l-1.03-.27c.15-.44.44-1.3.67-2.85h-.56v-.85h.65ZM76.05,176.42c.12-.65.17-1.13.2-1.46h-1.44c-.08.55-.1.76-.24,1.46h1.47ZM76.33,174.1c.04-.62.06-1.07.08-1.35h-1.36c-.04.48-.07.86-.13,1.35h1.41ZM78.58,176.42c.06-.79.09-1.36.09-1.46h-1.45c-.07.81-.14,1.24-.17,1.46h1.54ZM78.7,174.1c0-.64,0-.96-.02-1.35h-1.33c0,.39-.04.95-.07,1.35h1.42Z"/><path class="f" d="M81,173.5c1.28-1.35,1.72-2.54,2.03-4.24l1.02.05c-.05.35-.11.69-.24,1.21h2.89c-.34,3.68-1.52,6.12-4.78,8.34l-.75-.91c1.76-1.11,2.56-2.02,3.09-2.82-.55-.72-1.07-1.22-1.74-1.75-.33.49-.57.74-.81.96l-.7-.83h0ZM83.47,171.53c-.08.21-.23.58-.46,1.02.65.48.77.61,1.77,1.66.5-1.02.67-1.95.78-2.69h-2.09ZM87.32,171.96c.17.28.37.6.79,1.06v-3.76h1.09v4.72c.71.5,1.29.76,1.72.96l-.33,1.2c-.35-.17-.78-.37-1.39-.8v3.43h-1.09v-4.31c-.98-.89-1.35-1.55-1.58-1.94l.79-.55Z"/><path class="f" d="M91.51,172.88c.24-.04.33-.06.5-.09v-3.13c.46-.02,2.23-.07,3.55-.48l.35.85c-1.02.35-2.6.43-2.95.44v2.1c.26-.06.86-.22,1.51-.44-.26-.59-.3-.68-.43-.88l.86-.42c.17.29.68,1.12.96,2.1l-.94.39c-.06-.2-.07-.24-.13-.41-.66.26-1.99.65-3.05.91l-.24-.96h0ZM100.28,174.12v4.68h-.98v-.41h-5.93v.41h-.97v-4.68h7.88ZM93.36,174.97v.85h2.53v-.85h-2.53ZM93.36,176.62v.9h2.53v-.9h-2.53ZM100.78,169.66c0,.19-.03,2.74-.31,3.39-.23.54-.5.68-1.16.68h-1.16l-.17-1h1.18c.31,0,.59,0,.65-2.17h-1.39c-.16,1.63-.87,2.64-2.1,3.44l-.66-.86c1.14-.61,1.71-1.53,1.75-2.58h-1.26v-.91h4.62ZM96.78,174.97v.85h2.51v-.85h-2.51ZM96.78,176.62v.9h2.51v-.9h-2.51Z"/><path class="f" d="M109.79,172.62v.84c-.57.52-1.78,1.29-2.59,1.62v.08h4.26v1h-4.26v1.82c0,.73-.73.84-.83.84h-1.99l-.19-1.07h1.63c.28,0,.28-.15.28-.32v-1.25h-4.25v-1h4.25v-.79h.44c.35-.11,1.04-.4,1.5-.8h-4.51v-.96h6.25ZM103.46,170.9c-.21-.55-.46-1-.61-1.25l.98-.37c.27.39.59.98.76,1.52l-.24.09h2.03c-.26-.59-.45-.93-.69-1.31l1-.38c.22.33.61,1.07.77,1.58l-.34.11h1.64c.12-.24.28-.54.67-1.66l1.16.35c-.24.54-.37.8-.66,1.32h1.29v2.33h-1.02v-1.36h-7.04v1.36h-1.03v-2.33h1.32Z"/><path class="f" d="M115.82,174.03c0,.59-.46,1.05-1.05,1.05s-1.07-.46-1.05-1.05c0-.59.48-1.05,1.05-1.05s1.05.47,1.05,1.05Z"/><path class="f" d="M125.96,178.24h-6.61v.51h-1.03v-9.02h8.69v9.02h-1.04v-.51ZM125.96,170.7h-6.61v6.56h6.61v-6.56ZM124.41,175.65h1.18v.9h-5.88v-.9h2.33v-1.43h-1.94v-.84h1.94v-1.14h-2.12v-.89h5.52v.89h-2.4v1.14h2.2v.84h-.68c.04.06.33.52.55,1.14l-.7.28h0ZM124.07,174.22h-1.03v1.43h1.12c-.1-.27-.34-.84-.61-1.23l.52-.2Z"/><path class="f" d="M130.84,173.65c.6-.3.92-.56,1.16-.78-.39-.37-.71-.61-.78-.66-.09.07-.1.08-.2.15l-.4-.67c-.24.69-.32.89-.41,1.16.83,1.29.83,2.36.83,2.56,0,.24,0,1.41-1.09,1.41h-.35l-.33-.98h.5c.28,0,.35-.22.35-.52,0-.83-.35-1.66-.78-2.4.26-.59.59-1.84.68-2.49h-.78v8.35h-.96v-9.22h2.68v.87c-.05.24-.07.37-.29,1.07.46-.35,1.25-1.32,1.49-2.19l.91.11c-.07.19-.1.28-.15.39h1.29c-.02-.1-.03-.15-.04-.31l.79-.1c.03.13.03.16.08.37h2.42v.89c-.22.59-.73,1.3-1.12,1.67.59.72,1.11,1.01,1.39,1.17l-.67.8c-.24-.17-.51-.37-.97-.85v.62h-3.41v-.69c-.48.48-.86.77-1.22,1.02l-.62-.77h0ZM133.11,176.59c-.46.78-1.16,1.57-1.88,1.95l-.72-.7c.65-.35,1.27-.85,1.71-1.66l.88.42h0ZM137.3,175.84h-2.49v1.9c0,.68-.16,1.05-.93,1.05h-1l-.2-1.05h.86c.21,0,.26-.05.26-.27v-1.63h-2.34v-.92h5.85v.92h0ZM132.8,171.96c-.2-.16-.32-.24-.85-.55-.15.19-.19.24-.28.33.31.19.54.39.81.64.04-.04.19-.23.32-.42ZM132.56,170.53c-.11.17-.15.24-.22.34.33.14.57.29.8.46.18-.39.26-.6.33-.79h-.92ZM135.84,173.2c-.19-.2-1.05-1.2-1.44-2.56-.35,1.19-1.06,2.05-1.52,2.56h2.96ZM135.27,170.53c.19.5.35.77.56,1.11.37-.4.56-.67.73-1.11h-1.29ZM136.91,178.6c-.65-.57-1.16-1.47-1.44-2.04l.91-.46c.2.6.72,1.32,1.28,1.79l-.75.71h0Z"/><path class="f" d="M142.51,177.79c.39-.17,1.53-.67,2.36-1.72-.65-1.14-.82-1.99-.9-2.39-.12.19-.17.28-.33.52l-.82-.77c.16-.22.24-.33.35-.55h-1.42c-.16.16-.35.37-.77.73h1.77v.85c-.53.51-.82.73-1.29,1.03v.19c.21-.03,1.83-.24,1.92-.26v.89c-.42.08-.83.16-1.92.32v1.38c0,.33-.21.75-.7.75h-1.51l-.19-.97h1.16c.13,0,.26-.02.26-.24v-.8c-.87.1-1.59.16-2.24.21l-.08-.98c.69-.04,1.36-.08,2.32-.19v-.71h.28c.21-.15.57-.46.7-.63h-1.59c-.61.42-.93.6-1.29.79l-.46-.9c.44-.22,1.23-.6,2.27-1.47h-2.16v-.92h1.87v-.96h-1.61v-.92h1.61v-.81h.94v.81h1.18v.75c.31-.46.5-.86.68-1.27l.9.41c-.19.38-.5,1.05-1.24,1.97h.67v.81c.61-1.09.91-2.51,1.07-3.54l1,.1c-.04.36-.1.81-.23,1.46h2.6v1.05h-.5c-.11,1.47-.35,2.95-1.11,4.22.53.65,1.09,1.16,1.77,1.72l-.6.98c-.33-.26-1.07-.8-1.81-1.81-.89,1.01-1.76,1.51-2.27,1.81l-.67-.97h.01ZM141.06,171v.96h.3c.19-.21.43-.49.76-.96h-1.07ZM144.8,171.85c-.08.24-.1.3-.15.42.1,1.01.33,1.99.81,2.88.48-1.03.66-2.16.73-3.3h-1.39,0Z"/><path class="f" d="M156.63,173.12c-.26-.24-.42-.4-.96-.77-4.91.37-5.14.39-6.98.41l-.08-.96c.06,0,1.81-.02,2.01-.03.19-.27.37-.55.54-.85h-2.84v-.93h4.28v-.73h1.02v.73h4.24v.93h-2.54c.26.13,1.37.78,2.14,1.49l-.83.71h0ZM156.63,173.2v4.57c0,.64-.33,1.03-1.02,1.03h-1.71l-.24-1.03h1.62c.26,0,.3-.02.3-.26v-.55h-4.98v1.84h-1.04v-5.61h7.07ZM150.6,174.03v.65h4.98v-.65h-4.98ZM150.6,175.47v.67h4.98v-.67h-4.98ZM154.82,170.92h-2.44c-.27.44-.3.49-.57.83.07,0,2.48-.09,2.75-.1-.13-.08-.24-.14-.55-.31l.8-.42Z"/><path class="f" d="M161.22,173.89c.3.44.86,1.32,1.99,2.14,1.02-.76,1.66-1.64,2.14-2.34h-6.13v-.99h3.49v-1.33h-4.22v-1.01h4.22v-1.11h1.02v1.11h4.26v1.01h-4.26v1.33h2.86v1.01c-.46.76-1.22,1.92-2.43,2.92.9.48,1.99.86,3.82.98l-.41,1.15c-1.54-.24-3.06-.63-4.39-1.44-.83.51-1.96,1.05-4.21,1.48l-.48-1.14c1.58-.19,2.73-.49,3.75-1.02-1.02-.86-1.56-1.71-1.86-2.2l.85-.54h0Z"/><path class="f" d="M168.5,174.58c.31-.06.65-.13,1.25-.32v-2.24h-1.16v-.96h1.16v-1.77h1.05v1.77h.84v.96h-.84v1.88c.24-.09.43-.17.75-.31l-.03,1.03c-.17.1-.3.17-.72.35v3.06c0,.66-.46.79-.75.79h-1.3l-.11-1.04h.85c.21,0,.26-.06.26-.3v-2.11c-.66.24-.91.29-1.16.35l-.09-1.12ZM174.18,174.58c-.02.12-.05.28-.16.65h3.49v.77c-.1.2-.36.78-1.2,1.44.89.31,1.45.31,1.96.33l-.46,1.04c-.37-.06-1.38-.24-2.44-.79-.88.46-1.58.66-2.1.79l-.39-1c.39-.04.83-.08,1.56-.37-.48-.35-.63-.58-.78-.81l.82-.44c.15.21.29.44.86.79.64-.41.84-.68,1.07-.98h-2.65c-.69,1.57-1.48,2.35-1.92,2.81l-.74-.7c.85-.87,1.72-1.91,2.11-3.53h-1.44v-.85h1.58c.02-.24.03-.37.04-.64h-1.41v-.85h4.13c.15-.26.48-.8.88-1.79l.96.37c-.1.25-.25.64-.72,1.42h.7v.85h-3.58c0,.27,0,.39-.02.64h3.8v.85h-3.93ZM177.93,170.18c-1.07.33-3.52.69-5.97.68l-.31-.96c3.07-.02,4.55-.2,5.9-.65l.39.94h0ZM173.19,170.88c.17.38.28.75.39,1.14l-1.02.21c-.08-.3-.26-.8-.41-1.12l1.04-.22ZM175.2,170.77c.21.65.28.89.32,1.18l-1.03.2c-.1-.42-.18-.69-.35-1.18l1.07-.2h0Z"/><path class="f" d="M183.85,177.38c-.41-.46-.96-.76-1.12-.84-.16,1.22-.5,1.74-.87,2.24l-.73-.76c.61-.81.7-1.4.73-2.93h-.32v-.71l-.37.66c-.15-.26-.3-.53-.46-1.02v4.76h-.95v-4c-.15.67-.26,1.03-.61,1.81l-.51-1.36c.55-.95.9-2.04,1.05-3.12h-.94v-.98h1v-1.83h.95v1.83h.66v.98h-.66v.37c.1.27.33.89.96,1.71h2.75c-.19-1.18-.33-2.99-.33-4.9h1.01c0,.47,0,.73.02,1.33l.49-.58c.09.1.12.11.16.15.22-.3.37-.56.58-.96l.76.26c-.15.26-.35.6-.83,1.18.12.13.22.24.35.38.41-.53.56-.78.67-.96l.67.33c-.69.98-.78,1.09-1.66,2.1.59-.02.76-.03,1.04-.05-.09-.22-.13-.33-.2-.49l.68-.24c.39.77.52,1.32.57,1.57l-.73.3c-.07-.3-.09-.35-.12-.47-.26.04-.55.06-.8.08.21.13.26.17.73.52l-.4.46h1.21v.91h-2.68c.1.49.24.98.35,1.25.5-.49.68-.78.87-1.09l.91.37c-.19.35-.56.98-1.35,1.66.11.2.35.53.6.53s.51-.75.63-1.16l.76.68c-.35,1.18-.73,1.48-1.36,1.48-.72,0-1.12-.3-1.45-.9-.92.57-1.54.73-1.96.86l-.4-.88c.41-.1,1.05-.25,1.94-.86-.15-.37-.37-1.05-.55-1.92h-1.73c0,.24,0,.37-.01.59.77.27,1.26.62,1.59.86l-.56.83h-.01ZM181.34,172.72c.19-.2.42-.46.81-.93-.15-.19-.55-.66-1.09-1.14l.55-.62c.09.07.17.12.21.16.24-.3.39-.54.62-.96l.76.27c-.17.3-.41.7-.85,1.16.11.12.21.24.35.41.35-.48.5-.69.67-.94l.66.4c-.6.88-1.66,2.06-1.75,2.15.26-.01.64-.02.88-.04-.07-.19-.11-.3-.18-.46l.69-.24c.27.56.41,1.09.5,1.54l-.75.26c-.02-.15-.04-.26-.08-.42-.04,0-1.92.17-2.08.19l-.11-.8h.19,0ZM186.1,171.7c-.31-.42-.65-.73-1-1.03,0,.46.06,1.35.11,1.9h.13c.46-.48.65-.72.76-.87ZM186.25,173.24c-.12,0-.91.06-.96.06.04.37.1.76.12.88h1.35c-.35-.26-.49-.35-.83-.53l.32-.41h0Z"/><path class="f" d="M188.67,175.23c.83-.96,1.21-2.33,1.34-3.1h-1.15v-.96h1.22v-1.9h.96v1.9h.91v.96h-.91v.26c.29.85.68,1.38,1.2,1.93l-.48.98c-.37-.61-.52-.87-.71-1.35v4.83h-.96v-4.57c-.22.9-.48,1.68-1.02,2.44l-.39-1.42ZM193.45,169.27h.94v.52h1.54v-.52h.95v.52h1.27v.78h-1.27v.53h.91v.71h-.91v.6h1.5v.79h-2.8v.51h2.25v2.7h.55v.78h-.55v.89c0,.41-.13.72-.85.72h-1.35l-.08-.91h.97c.32,0,.35-.04.35-.28v-.42h-3.5v1.61h-.93v-1.61h-.65v-.78h.65v-2.7h2.26v-.51h-2.75v-.79h1.49v-.6h-1v-.71h1v-.53h-1.33v-.78h1.33v-.52h0ZM193.39,174.43v.61h1.33v-.61h-1.33ZM193.39,175.74v.65h1.33v-.65h-1.33ZM194.39,170.56v.53h1.54v-.53h-1.54ZM194.39,171.8v.6h1.54v-.6h-1.54ZM195.59,174.43v.61h1.29v-.61h-1.29ZM195.59,175.74v.65h1.29v-.65h-1.29Z"/><path class="f" d="M165.33,208.96h-.08v19.29h34.06v-19.29h-33.99ZM179.23,212.45v4.43h-7.93v-4.43h7.93ZM171.29,220.37h7.93v4.4h-7.93v-4.4ZM185.27,224.77v-4.4h7.98v4.4h-7.98ZM193.25,216.88h-7.98v-4.43h7.98v4.43Z"/><path class="f" d="M180.45,207.25v-9.49h-6.05v3.44h-5v-4.46l8.46-2.3-.17-6.22-14.31,3.89h0s-.03,0-.03,0v15.14h17.1Z"/><path class="f" d="M32.18,205.47l-.02-.04h.05v-15.2c0-1.08-.89-1.97-1.97-1.97l-27.3.02v6.05h23.22v8.33L0,223.53l3.73,4.72,17.11-13.7,16.79,13.99.07-7.56-12.11-10.24,6.58-5.26h0Z"/><path class="f" d="M155.21,188.18h-31.08v6.05h31.08v-6.05Z"/><path class="f" d="M243,212.53h-15.6l7.88-4.88v-6.05h-22.75v6.05h13.91l-5.09,2.98v1.9h-16.11v6.05h16.11v3.62h-7.95v6.05h9.07c2.75,0,4.93-1.45,4.93-4.64v-5.03h15.6v-6.05Z"/><path class="f" d="M211.18,200.19h25.58v4.34h6.05l-.03-8.44c0-1.08-.89-1.97-1.97-1.97h-4.01l1.98-5.94h-6.05l-1.99,5.94h-4.92l-1.99-5.94h-6.05l1.99,5.95h-3.85l-1.99-5.95h-6.05l1.99,5.94h-4.76v10.4h6.05v-4.34h0Z"/><path class="f" d="M74.31,190.24c0-1.08-.89-1.97-1.97-1.97l-35.98.02v6.05h31.91v11.23l-12.9,7.94-6.61-5.59-4.42,4.13,19.81,16.49.07-7.56-4.02-3.4,14.11-8.62-.02-.04h.05v-18.68h-.03Z"/><path class="f" d="M114.39,188.27l-36.1.02v6.05h31.96v11.48l-25.45,17.7,3.73,4.72,27.75-19.3-.02-.04h.05l.06-18.68c0-1.08-.89-1.97-1.97-1.97h0Z"/><path class="f" d="M155.95,197.42l-35.94.02v6.05h31.85v5.43l-25.45,14.61,3.73,4.72,27.75-15.81h.03v-13.05c0-1.09-.88-1.97-1.97-1.97h0Z"/><path class="f" d="M199.2,189.95l-17.76.02v6.05h3.06l-1.77,11.27h6.05l1.77-11.27h4.57v5.22h-3.3v6.05h4.42c2.75,0,4.93-1.46,4.93-4.64v-10.73c0-1.08-.88-1.97-1.96-1.97h0Z"/><path class="f" d="M215.8,68.19c-.66-.34-1.46-.09-1.8.57-.04.08-1.65,3.17-3.69,7.04-1.71-.67-3.28-.79-4.69-.35-1.63.51-2.97,1.75-3.99,3.66l-11.83,22.29c-.48.9-.78,2.08-.82,3.32l-1.36,12.46c-2.97.64-12.4,2.67-19.82,4.31,4.41-5.54,8.71-11.76,10.92-16.63,3.72-8.19,5.45-15.37,5.45-22.58,0-7.92-.26-16.69-2.15-22.53.6-1.66,1.24-3.48,1.67-5.18.94-3.77.5-9.42-.49-12.13-.87-2.4-1.39-3.26-3.58-6.9l-.54-.89c-2.78-4.64-5.08-6.93-8.02-9.64-3.09-2.85-6.2-4.29-7.54-4.56-1.07-.21-2.09.09-2.76.81-.56.6-1.11,1.73-.56,3.74.49,1.79,1.83,3.65,3.7,6.23,1.01,1.39,2.16,2.98,3.36,4.82,3.16,4.84,9.59,17.61,11.88,23.56.01.03.03.07.04.11-.6,1.64-1.07,2.94-1.22,3.86-.19,1.07-.26,2.07-.32,3.03-.09,1.31-.18,2.55-.54,3.99-.09.37-.18.73-.26,1.09-.49,2.07-.96,4.02-1.98,4.9-.4.35-.56.38-.55.39-.26-.06-1.02-.82-1.63-1.43-.68-.67-1.69-1.99-2.77-3.39-1.61-2.1-3.45-4.47-4.92-5.71-1.5-1.25-4.6-3.86-6.65-1.8-1.33,1.32-1.61,4.29-.98,6.07s1.47,2.94,2.62,4.56c.9,1.26,1.24,2.63.91,3.75l-.21.78c-.32,1.16-.57,2.08-1.25,3.44-.61,1.22-1.9,2.66-3.03,3.93-.36.4-.7.78-1.01,1.14-.26.3-.55.62-.87.97-1.43,1.56-3.22,3.5-3.65,5.65-.17.83-.59,2.32-1.04,3.9-.74,2.6-1.58,5.56-1.86,7.53-.44,3.12-2.34,7.83-4.98,7.98-1.67.09-3.41-.55-4.66-1.73-.77-.74-1.7-2-1.7-3.84v-1.61c.04-6.4-.04-11.87-1.3-13.98-1.59-2.65-5.91-5.03-8.56-5.32-3.79-.4-8.17-1.68-9.13-4.07-.89-2.23-2.07-6.41.07-9.41,5.33-7.47,8.48-8.71,9.88-8.79,2.84-.16,8.37-.09,12.41-.03,1.55.02,2.88.03,3.74.03,4.05,0,7.54-.72,10.38-2.15,3.41-1.7,4.79-3.01,4.51-6.64-.2-2.62-1.98-6.67-4.2-8.28-1.23-.89-2.31-.87-3-.7-3.23.79-3.34,2.5-2.99,4.23.15.71.4,1.32.63,1.85.17.38.41.97.35,1.12-.26.57-.54.89-.69.99-.04-.03-.11-.09-.2-.19-.44-.52-.91-1.44-1.35-2.33-.82-1.64-1.6-3.19-2.87-3.8-1.15-.54-3.84-1.81-6.24-.1-1.07.77-2.13,2.13-3.16,3.44-.65.83-1.32,1.68-1.9,2.27-1.34,1.34-2.98,2.85-5.48,3.68-2.52.84-5.36.6-5.97-.49-1.43-2.56-1.63-4.23-.62-4.93.74-.52,1.64-.95,2.51-1.36,1.65-.78,3.36-1.59,4.14-3.14,1.12-2.24.88-4.48-.65-6.17-.25-.28-.52-.55-.78-.81-1.43-1.45-1.57-1.81-1.29-2.25.55-.87,1.95-2.31,3.32-3.69,1.21-1.23,2.46-2.51,3.47-3.73l.79-.94c1.8-2.12,2.88-3.4,2.47-4.75-.12-.37-.46-1.05-1.47-1.34-.64-.19-1.41-.2-2.24-.21-1.69-.03-3-.12-3.39-.89-.67-1.34.75-3.39,2.44-4.52,1.97-1.32,5.14-2.67,7.05-2.67,2.38,0,6.8.89,9.19,2.08,1.99,1,7.74,2.92,9.87,2.11.66-.25.96-.69,1.08-1.02.69-1.73-1.07-3.74-4.36-6.62-1.94-1.7-12.41-7.14-17.56-8.94-4.97-1.73-10.91-3.59-17.19-4.29-6.78-.75-12.58-.25-14.76,0-2.49.29-6.09.91-8.68,2.95-.8.63-1.41,1.27-1.84,1.93-2.52-.24-4.9-.3-6.51.03-3.53.75-6.96,1.81-12.24,4.57-4.93,2.58-8.02,4.71-11.83,7.44-3.67,2.63-5.04,4.3-5.96,6.02-.71,1.32-1.13,3.16-.15,4.36.38.47,1.29,1.19,3.04.67,2.36-.71,3.6-1.21,6.42-3.32,2.55-1.91,6.78-4.11,9.57-4.41,2.01-.21,3.24-.01,4.59.39.22.07.46.13.71.2,1.11.31,2.64.74,3.13,1.39.78,1.05,1.18,1.81.09,3.53-.46.71-.84,1.29-1.18,1.77-.84,1.24-1.4,2.06-1.67,3.26-.39,1.76.3,4.79,1.76,6.05,1.29,1.1,3.54,2.12,5.72,1.95,1.42-.12,2.5-.62,3.2-1.48.72-.89,1-2.08.82-3.56-.12-1.01-.34-1.9-.53-2.69-.16-.63-.37-1.5-.36-1.65.01-.01.1-.08.3-.09.39-.03,1,.12,1.49.55.23.2.57.48.98.82,1.25,1.03,4.59,3.74,5.01,4.99.74,2.22-.02,2.98-.27,3.23-.61.61-1.57,1.5-2.59,2.44-.69.63-1.37,1.27-2.01,1.87-.83.15-1.7.3-2.55.48l-.6.12c-3,.6-4.24.85-6.69,2.07-2.66,1.34-4.91,4.47-3.92,6.67.21.46.66,1.08,1.65,1.39,1.85.57,4.67-.26,6.49-1.39,2.48-1.52,3.56-2.96,4.51-4.22.31-.42.62-.82.98-1.23.32-.37.81-.85,1.38-1.41,2.28-.39,4.1-.62,4.91-.69.93-.08,1.5-.06,1.63,0,0,0,.02.08,0,.29-.24,1.7-1.53,4.56-3.18,6.21-.66.66-1.43,1.23-2.17,1.77-1.14.84-2.32,1.7-3.07,2.93-1.01,1.66-1.56,3.14-1.22,5.35l.07.44c.28,1.77.55,3.44,1.3,4.65.17.26.39.56.64.89.3.4,1.02,1.35,1.04,1.61-.09.08-.75.15-2.38-1.14-.8-.64-3.65-2.31-5.73-2.06-1.85.22-6.36,1.48-7.67,3.77-1.27,2.22-1.68,4.46-1.18,6.48.55,2.22,2.09,5.21,4.59,6.37,1.69.79,3.97.97,6.97.56l.88-.12c2.24-.33,3.26-.44,4.19.29,1.25,1,2.77,2.05,4.24,3.08.9.62,1.8,1.25,2.62,1.86,1.96,1.43,4.53,3.51,6.12,4.95,1.56,1.42,2.08,2.12,2.08,3.46,0,1.68-.08,2.62-2,5.49-1.09,1.65-2.56,3.52-3.97,5.33-1.22,1.57-2.5,3.2-3.57,4.73-1.99,2.82-3,4.3-4.46,7.13-1.52,2.93-2.18,4.69-2.82,6.38l-.25.67c-.86,2.26-1.4,2.8-1.57,2.92-.75-.08-2.26-.42-2.26-4.3,0-1.15.07-2.44.14-3.81.17-3.21.34-6.54-.36-8.63l-.17-.51c-.82-2.49-1.47-4.46-4.39-6.92-1.15-.97-2.26-1.64-3.25-2.23-1.43-.86-2.24-1.38-2.39-2.07-.62-2.92-.61-5.24.03-6.54.69-1.37,2.06-2.5,3.28-3.5.37-.3.71-.58,1.01-.85.96-.85,1.35-1.97,1.08-3.05-.19-.8-.94-2.25-3.72-2.95-3.12-.78-5.23-1.42-6.1-3.16-.89-1.78-1.69-3.14-2.71-4.86-.36-.62-.75-1.28-1.18-2.03-1.11-1.93-2.8-4.16-4.49-3.93-.75.1-1.32.65-1.52,1.45-.11.44-.26,1.04-.42,1.6-1.23-.85-2.93-2.1-3.99-3.23-.48-.53-1.05-1.04-1.58-1.54-1.56-1.45-3.18-2.96-3.11-4.61.06-1.27.21-2.82.36-4.32.2-2.05.39-3.99.39-5.39,0-2.43-1.62-8.68-4.77-9.72-2.69-.89-6.38.48-8.97,3.34-2.61,2.88-4.23,5.4-5.35,10.4-1.23,5.48-1.88,13.47-1.66,20.36.2,6.3,1.24,12.43,3.17,18.74,1.98,6.45,7.32,16.41,10.87,21.31,3.09,4.27,7.83,9.18,14.08,14.62,3.87,3.37,8.95,6.42,13.93,8.39l2.43.96c4.28,1.7,10.14,4.04,12.69,4.72.71.19,1.45-.23,1.63-.95.19-.71-.24-1.45-.95-1.63-2.39-.64-8.17-2.94-12.39-4.62l-2.44-.97c-4.71-1.86-9.52-4.74-13.16-7.92-6.1-5.31-10.69-10.07-13.67-14.17-3.43-4.74-8.58-14.33-10.48-20.52-1.87-6.09-2.87-11.99-3.05-18.04-.21-6.68.42-14.41,1.6-19.69,1-4.45,2.37-6.59,4.73-9.19,1.84-2.04,4.49-3.15,6.15-2.6,1.3.44,2.94,4.83,2.94,7.19,0,1.27-.19,3.23-.37,5.13-.15,1.53-.3,3.12-.37,4.45-.15,2.9,2.03,4.92,3.95,6.7.53.48,1.02.95,1.44,1.4,2.03,2.18,5.9,4.58,6.06,4.68.36.22.8.26,1.19.1.39-.16.69-.48.8-.9,0,0,.31-1.18.6-2.28.37.42.85,1.05,1.4,2.01.44.75.83,1.43,1.2,2.05.99,1.68,1.77,3.01,2.62,4.7,1.48,2.96,4.86,3.81,7.84,4.56,1.34.33,1.74.83,1.78.99.02.09-.08.26-.26.42-.28.24-.6.51-.93.78-1.35,1.11-3.03,2.49-3.97,4.37-.95,1.89-1.03,4.68-.26,8.29.4,1.86,1.97,2.8,3.62,3.79.9.54,1.92,1.16,2.91,1.99,2.35,1.97,2.81,3.38,3.57,5.72l.17.51c.53,1.61.37,4.82.22,7.65-.08,1.41-.15,2.74-.15,3.96,0,5.35,2.59,6.74,4.76,6.97,2.1.2,3.32-2.22,4.24-4.64l.26-.67c.61-1.62,1.24-3.3,2.69-6.08,1.39-2.67,2.32-4.02,4.28-6.82,1.03-1.47,2.29-3.07,3.49-4.62,1.45-1.85,2.93-3.77,4.09-5.5,2.21-3.31,2.45-4.73,2.45-6.98,0-2.55-1.28-3.91-2.96-5.44-1.65-1.5-4.31-3.66-6.34-5.14-.84-.61-1.75-1.25-2.67-1.89-1.43-1-2.91-2.03-4.11-2.97-1.87-1.48-3.89-1.18-6.23-.85l-.86.12c-2.44.33-4.28.22-5.48-.33-1.47-.68-2.68-2.83-3.12-4.6-.34-1.35-.03-2.86.91-4.5.51-.9,3.48-2.19,5.67-2.45.96-.11,3.02.92,3.75,1.5,3.16,2.51,4.97,1.89,5.92.94,1.76-1.76.1-3.95-.8-5.12-.19-.25-.37-.48-.49-.68-.47-.76-.7-2.17-.93-3.66l-.07-.44c-.23-1.43.1-2.29.86-3.55.47-.78,1.35-1.42,2.37-2.16.78-.57,1.67-1.23,2.48-2.04,1.88-1.88,3.57-5.21,3.94-7.73.18-1.25-.26-2.02-.66-2.45-1.05-1.12-2.8-.96-3.83-.87-.32.03-.74.07-1.22.13.71-.65,1.34-1.25,1.79-1.7,1-1,1.97-2.84.91-5.97-.61-1.82-3.23-4.07-5.85-6.21-.38-.31-.7-.57-.91-.75-.97-.85-2.26-1.3-3.47-1.2-.89.08-1.65.45-2.15,1.07-.88,1.07-.53,2.49-.17,3.98.17.71.37,1.52.47,2.36.06.51.07,1.18-.24,1.56-.29.35-.9.48-1.36.51-1.36.1-2.91-.58-3.77-1.32-.59-.51-1.11-2.5-.9-3.44.15-.66.48-1.16,1.27-2.33.35-.51.75-1.1,1.23-1.84,1.9-3,.96-5-.21-6.56-1.03-1.38-2.98-1.93-4.54-2.36-.23-.06-.46-.13-.66-.19-1.62-.48-3.2-.75-5.64-.49-3.3.35-7.98,2.75-10.89,4.93-2.5,1.88-3.47,2.26-5.59,2.9-.07.02-.13.03-.18.05.01-.26.11-.71.4-1.25.6-1.12,1.54-2.53,5.16-5.11,3.73-2.67,6.74-4.75,11.52-7.25,5-2.62,8.24-3.62,11.56-4.33,1.09-.24,2.85-.24,5.15-.04,0,.47.05.96.17,1.48.62,2.72,3.11,4.99,5.74,7.4l.57.53c2.8,2.57,5.97,5.48,9.39,6.21,1.56.34,3.52-.09,5.09-1.13,1.25-.82,2.06-1.89,2.28-3.03.57-2.86-1.7-6.46-5.52-8.75-3.29-1.98-6.35-3.67-10.46-4.4-1.02-.18-2.12-.36-3.25-.52.09-.08.19-.15.28-.23,1.56-1.24,3.89-1.99,7.33-2.39,1.63-.19,7.47-.74,14.15,0,6.02.67,11.77,2.48,16.61,4.16,5.03,1.75,15.12,7.06,16.68,8.42,1.8,1.58,2.71,2.55,3.16,3.14-1.69-.18-4.92-1.05-6.8-1.99-2.82-1.41-7.65-2.37-10.38-2.37s-6.65,1.86-8.52,3.12c-2.73,1.81-4.75,5.13-3.34,7.94,1.13,2.27,3.9,2.33,5.72,2.35.26,0,.54.01.78.02-.39.54-1,1.27-1.54,1.89l-.8.96c-.95,1.14-2.16,2.37-3.32,3.56-1.6,1.63-2.98,3.03-3.68,4.16-1.48,2.37.42,4.28,1.67,5.55.24.24.48.48.71.73.98,1.07.67,2.32.24,3.18-.37.73-1.59,1.31-2.89,1.93-.97.46-1.98.94-2.91,1.59-1.59,1.12-2.92,3.48-.18,8.42,1.45,2.63,5.8,2.85,9.15,1.73,2.9-.96,4.85-2.65,6.53-4.32.7-.7,1.42-1.62,2.12-2.51.91-1.16,1.85-2.37,2.61-2.91.8-.57,1.82-.46,3.55.35.44.21,1.18,1.69,1.62,2.57.52,1.04,1.05,2.11,1.72,2.87.94,1.1,1.92,1.23,2.56,1.13,1.5-.21,2.38-1.69,2.78-2.56.55-1.22.07-2.35-.32-3.28-.19-.45-.38-.88-.47-1.33-.08-.39-.11-.63-.12-.66,0,0,.19-.21,1.13-.44.21-.06.48.04.8.27,1.49,1.08,2.95,4.38,3.11,6.32.16,2.03-.07,2.56-3.05,4.05-2.47,1.24-5.56,1.86-9.19,1.86-.86,0-2.17-.02-3.71-.03-4.08-.06-9.65-.12-12.6.03-3.34.19-7.35,3.52-11.91,9.9-2.87,4.02-1.47,9.22-.37,11.96,1.64,4.11,7.8,5.35,11.33,5.73,1.93.21,5.45,2.2,6.56,4.03.99,1.65.95,9.04.93,12.59v1.64c0,2.18.89,4.23,2.53,5.78,1.78,1.68,4.26,2.59,6.66,2.45,4.79-.28,6.98-6.84,7.47-10.27.26-1.79,1.11-4.77,1.79-7.17.48-1.7.91-3.17,1.09-4.1.28-1.41,1.79-3.05,2.99-4.36.34-.37.66-.72.93-1.04.3-.35.63-.72.97-1.1,1.25-1.39,2.66-2.98,3.43-4.51.8-1.59,1.11-2.73,1.44-3.93l.21-.76c.55-1.9.07-4.11-1.31-6.04-1.07-1.49-1.76-2.48-2.28-3.9-.39-1.09-.06-2.87.28-3.24.08,0,.78-.04,3.12,1.93,1.25,1.05,2.99,3.3,4.52,5.29,1.18,1.53,2.19,2.85,3,3.65,1.7,1.7,3.32,3.32,5.81,1.18,1.68-1.43,2.24-3.8,2.84-6.3.08-.35.17-.71.26-1.06.41-1.67.52-3.08.62-4.45.05-.69.1-1.34.18-2.01.87,5.14,1.02,11.55,1.02,17.48,0,6.82-1.65,13.65-5.22,21.48-2.37,5.24-7.62,12.58-12.7,18.67-8.55,1.93-25.51,6.18-34.28,8.87-9.47,2.89-13.58,4.54-17.85,6.57-3.46,1.65-7.59,4.31-7.56,7.63.03,3.1,4.94,3.66,7.05,3.77.35.01.71.02,1.09.02,3.53,0,8.29-.69,11.5-1.39,3.32-.73,16.58-4.48,21.46-7.02,5.92-3.09,10.89-5.91,16.38-11.85,1.17-1.27,2.42-2.68,3.7-4.19,8.88-2,23.91-5.22,24.07-5.24.02,0,.04-.02.06-.03.12-.03.22-.08.32-.14.04-.02.08-.04.12-.07,0,0,.02,0,.03-.01l10.48-8.06c.21-.15.42-.31.62-.48l.13-.1s.05-.07.08-.1c.52-.49.96-1.04,1.29-1.66,0,0,3.16-5.92,3.2-6.01.35-.65.1-1.46-.55-1.8-.65-.34-1.46-.1-1.81.55,0,.02-3.2,6-3.2,6-.18.34-.45.69-.8,1.02l-.65.5c-1.11.69-2.68.98-4.5.01-1.79-.95-2.35-2.84-2.3-4.45l.07-.62s0-.05,0-.08c.08-.55.24-1.04.43-1.41l11.83-22.29c.68-1.28,1.49-2.08,2.43-2.38.75-.23,1.63-.17,2.64.19-3.05,5.83-6.48,12.38-6.94,13.26-1.45,2.74-1.05,5.26,1.05,6.58.96.6,2.02.77,3.09.48,1.26-.33,2.38-1.28,3.07-2.59l5.38-10.14c.74-1.39.98-3.08.65-4.63-.25-1.18-.93-2.77-2.71-4.07,2.04-3.89,3.65-7,3.7-7.08.34-.66.09-1.46-.56-1.8v-.07ZM91.35,47.11c-.89,1.18-1.73,2.29-3.78,3.55-1.72,1.06-3.77,1.34-4.33,1.11-.04-.55.98-2.26,2.69-3.12,2.02-1.01,3-1.24,5.56-1.75-.05.07-.1.14-.15.21ZM99.01,8.83c3.66.64,6.49,2.22,9.55,4.06,3.05,1.83,4.57,4.45,4.27,5.94-.08.42-.51.91-1.13,1.32-.96.64-2.19.93-3.07.75-2.71-.58-5.59-3.23-8.14-5.57l-.57-.53c-2.32-2.12-4.51-4.12-4.94-6.03-.05-.2-.08-.4-.09-.59,1.27.17,2.64.38,4.12.64h0ZM181.12,53.92c-.17.66-.37,1.34-.59,2.02-2.76-6.34-8.01-16.73-11.01-21.35-1.24-1.9-2.4-3.51-3.43-4.93-1.64-2.26-2.93-4.05-3.29-5.37-.23-.83-.1-1.18-.06-1.22,0,0,.06-.03.15-.03.04,0,.08,0,.13.01.81.17,3.52,1.37,6.25,3.9,2.78,2.57,4.94,4.72,7.54,9.05l.54.89c2.18,3.64,2.58,4.29,3.36,6.44.83,2.3,1.19,7.41.4,10.57h0ZM159.42,127.22c-5.61,6.06-10.94,8.85-15.65,11.29-4.47,2.33-17.34,6.02-20.79,6.78-3.49.77-8.7,1.46-11.89,1.3-2.81-.13-4.35-.84-4.51-1.12-.01-1.41,2.36-3.44,6.03-5.19,4.25-2.02,8.12-3.57,17.48-6.42,7.63-2.33,21.51-5.86,30.55-7.99-.41.47-.83.92-1.24,1.36h0ZM192.73,111.58c.6.31,1.18.54,1.77.69l-3.97,3.06.54-4.99c.46.47,1.01.89,1.65,1.24ZM212.77,81.7c.29,1.39-.23,2.51-.4,2.83l-5.38,10.14c-.35.65-.87,1.12-1.41,1.27-.35.1-.66.04-.99-.16-1.14-.71-.55-2.22-.11-3.07.47-.89,3.88-7.4,6.92-13.23.73.62,1.18,1.36,1.36,2.22h0Z"/></g></g></svg>