<svg width="255" height="265" viewBox="0 0 255 265" fill="none" xmlns="http://www.w3.org/2000/svg">
<path d="M252.064 260.485C250.786 260.273 249.492 260.025 248.218 259.725L248.453 258.78C249.702 259.07 250.986 259.344 252.248 259.521L252.09 260.495L252.064 260.485ZM242.569 258.024C242.387 257.956 242.206 257.889 242.051 257.83C241.016 257.443 239.964 257.02 238.932 256.545L239.323 255.659C240.329 256.124 241.355 256.537 242.364 256.915C242.545 256.983 242.7 257.041 242.882 257.108L242.533 258.04L242.569 258.024ZM287.943 117.989C287.472 119.17 286.903 120.374 286.309 121.568L285.442 121.125C286.027 119.957 286.585 118.779 287.047 117.624L287.979 117.973L287.943 117.989ZM289.757 112.353L288.812 112.117C289.112 110.843 289.351 109.574 289.482 108.355L290.45 108.451C290.299 109.723 290.067 111.052 289.757 112.353ZM283.343 126.655C282.649 127.723 281.857 128.813 281.059 129.842L280.276 129.254C281.074 128.225 281.83 127.151 282.515 126.109L283.343 126.655ZM290.568 102.535L289.595 102.613C289.484 101.333 289.302 100.084 289.032 98.8325L289.993 98.6312C290.279 99.9184 290.493 101.238 290.594 102.545L290.568 102.535ZM234.207 253.007L233.712 253.855C232.573 253.192 231.479 252.488 230.395 251.758L230.958 250.965C232.016 251.685 233.11 252.39 234.223 253.042L234.207 253.007ZM277.316 134.403C276.46 135.351 275.542 136.306 274.582 137.216L273.899 136.517C274.823 135.624 275.741 134.669 276.588 133.747L277.316 134.403ZM270.241 141.168C269.248 142.007 268.204 142.826 267.179 143.593L266.587 142.811C267.612 142.044 268.62 141.241 269.613 140.402L270.241 141.168ZM288.081 93.0172L287.191 93.4222C286.657 92.2484 286.041 91.1329 285.345 90.0757L286.17 89.5284C286.882 90.6212 287.53 91.8079 288.09 92.9913L288.081 93.0172ZM226.381 247.423L225.751 248.161C224.767 247.321 223.786 246.393 222.857 245.485L223.555 244.802C224.459 245.7 225.397 246.583 226.381 247.423ZM262.333 147.003C261.311 147.683 260.228 148.369 259.054 149.14L258.533 148.325C259.697 147.581 260.78 146.894 261.802 146.214L262.349 147.038L262.333 147.003ZM282.382 84.9832L281.7 85.7018C280.787 84.8291 279.829 83.9985 278.79 83.2261L279.378 82.443C280.443 83.225 281.479 84.0847 282.408 84.9929L282.382 84.9832ZM254.098 152.213C252.989 152.89 251.88 153.567 250.771 154.244L250.259 153.403C251.368 152.726 252.477 152.05 253.586 151.373L254.098 152.213ZM219.716 240.473L218.96 241.075C218.14 240.031 217.357 238.971 216.635 237.904L217.459 237.357C218.155 238.414 218.939 239.474 219.742 240.483L219.716 240.473ZM245.747 157.262C244.521 158.014 243.448 158.674 242.445 159.303L241.934 158.462C242.936 157.834 244.019 157.147 245.245 156.396L245.756 157.236L245.747 157.262ZM274.268 79.3802L273.852 80.2572C272.881 79.7759 271.855 79.3625 270.82 78.9751C270.639 78.9073 270.483 78.8492 270.302 78.7814L270.651 77.8496C270.806 77.9077 270.987 77.9756 271.169 78.0433C272.23 78.4404 273.272 78.8893 274.268 79.3802ZM214.509 232.387L213.636 232.828C213.04 231.66 212.515 230.461 212 229.235L212.905 228.866C213.404 230.056 213.939 231.23 214.509 232.387ZM237.563 162.492C236.451 163.256 235.375 164.004 234.369 164.72L233.786 163.912C234.792 163.196 235.878 162.422 236.99 161.658L237.538 162.482L237.563 162.492ZM211.057 223.394L210.103 223.657C209.747 222.402 209.461 221.115 209.201 219.837L210.162 219.636C210.396 220.904 210.691 222.165 211.031 223.384L211.057 223.394ZM264.744 77.2328C263.511 76.9781 262.224 76.7915 260.927 76.6307L261.023 75.6635C262.33 75.7984 263.634 76.0206 264.892 76.2849L264.708 77.249L264.744 77.2328ZM229.772 168.252C228.754 169.081 227.752 169.945 226.846 170.787L226.173 170.063C227.114 169.205 228.116 168.341 229.134 167.512L229.762 168.278L229.772 168.252ZM209.417 213.898L208.443 213.977C208.342 212.67 208.277 211.347 208.263 210.043L209.243 210.027C209.266 211.304 209.306 212.617 209.417 213.898ZM222.729 174.853C221.836 175.817 220.996 176.801 220.217 177.779L219.444 177.165C220.232 176.161 221.108 175.161 222 174.197L222.729 174.853ZM209.514 204.256L208.546 204.159C208.681 202.852 208.878 201.539 209.09 200.261L210.054 200.445C209.825 201.687 209.665 202.984 209.514 204.256ZM216.853 182.51C216.185 183.588 215.522 184.727 214.947 185.869L214.08 185.427C214.691 184.268 215.327 183.119 216.041 182L216.879 182.52L216.853 182.51ZM211.37 194.799L210.435 194.538C210.793 193.344 211.187 192.134 211.632 190.944L211.69 190.788L212.622 191.137L212.564 191.292C212.138 192.431 211.754 193.615 211.396 194.809L211.37 194.799ZM255.166 76.3341C253.898 76.3317 252.601 76.4071 251.303 76.4824L251.225 75.5088C252.532 75.4076 253.855 75.342 255.149 75.354L255.166 76.3341ZM245.582 77.2628C244.314 77.4967 243.053 77.792 241.808 78.1228L241.545 77.1688C242.79 76.8379 244.087 76.5265 245.381 76.3023L245.556 77.2532L245.582 77.2628ZM236.32 79.935C235.114 80.3984 233.94 80.9329 232.782 81.503L232.342 80.63C233.499 80.0599 234.709 79.5091 235.95 79.0295L236.32 79.935ZM227.754 84.3726C226.671 85.0591 225.604 85.7812 224.554 86.5389L223.997 85.7404C225.083 84.9665 226.176 84.2541 227.259 83.5676L227.78 84.3823L227.754 84.3726ZM219.931 90.0615C218.958 90.8483 217.965 91.6868 216.979 92.5867L216.341 91.8465C217.353 90.9562 218.346 90.1177 219.328 89.3051L219.957 90.0712L219.931 90.0615ZM212.725 96.5426C211.836 97.4198 210.902 98.3391 209.984 99.294L209.266 98.612C210.184 97.6571 211.127 96.7119 212.016 95.8347L212.699 96.5329L212.725 96.5426ZM205.983 103.521C205.146 104.418 204.289 105.366 203.368 106.409L202.64 105.752C203.561 104.71 204.417 103.762 205.255 102.865L205.983 103.521ZM199.519 110.781C198.743 111.671 197.967 112.562 197.227 113.435L196.972 113.724L196.234 113.093L196.489 112.805C197.265 111.915 198.041 111.025 198.807 110.161L199.545 110.791L199.519 110.781ZM155.124 148.2C153.908 148.689 152.65 149.133 151.438 149.535L151.14 148.597C152.352 148.195 153.575 147.767 154.765 147.268L155.134 148.174L155.124 148.2ZM145.749 151.095C144.436 151.371 143.142 151.595 141.878 151.741L141.738 150.774C142.977 150.618 144.27 150.394 145.548 150.134L145.749 151.095ZM135.962 152.095C134.642 152.073 133.316 151.99 132.035 151.865L132.131 150.898C133.377 151.039 134.677 151.113 135.971 151.125L135.962 152.095ZM126.208 150.718C125.273 150.456 124.306 150.124 123.4 149.785C123.089 149.669 122.779 149.552 122.468 149.436L122.817 148.504C123.127 148.621 123.438 148.737 123.749 148.853C124.655 149.192 125.57 149.505 126.479 149.757L126.218 150.692L126.208 150.718ZM117.698 145.94L117.178 146.778C116.074 146.099 114.964 145.36 113.909 144.552L114.497 143.768C115.51 144.531 116.585 145.287 117.672 145.93L117.698 145.94ZM110.228 139.958L109.53 140.641C108.636 139.716 107.762 138.74 106.907 137.712L107.674 137.084C108.502 138.102 109.36 139.043 110.228 139.958ZM104.258 132.413L103.433 132.96C102.737 131.903 102.07 130.768 101.412 129.607L102.269 129.131C102.927 130.292 103.578 131.391 104.274 132.448L104.258 132.413ZM99.6065 123.944L98.7173 124.349C98.1731 123.201 97.6482 122.002 97.1071 120.766L98.0125 120.397C98.5277 121.623 99.0623 122.796 99.6065 123.944ZM95.8737 114.993L94.9521 115.327C94.5307 114.166 94.077 112.934 93.6427 111.65L94.5643 111.317C95.0083 112.575 95.4524 113.833 95.8834 114.968L95.8737 114.993ZM92.7101 105.783L91.7722 106.082C91.4026 104.94 91.0265 103.737 90.5953 102.366L91.5332 102.068C91.9644 103.439 92.3308 104.668 92.7101 105.783ZM89.8115 96.4957L88.8737 96.7939C88.4814 95.5553 88.0988 94.2908 87.6968 93.0781L88.6347 92.7798C89.027 94.0184 89.4193 95.2571 89.8115 96.4957ZM86.7287 87.2274L85.8071 87.5611C85.3436 86.355 84.8543 85.1391 84.3456 83.975L85.2607 83.5797C85.7597 84.7697 86.2491 85.9856 86.7287 87.2274ZM82.7953 78.2605L81.9223 78.701C81.3262 77.5338 80.7206 76.3923 80.1052 75.2768L80.962 74.8007C81.5774 75.9162 82.1993 77.0932 82.7953 78.2605ZM77.9178 69.7665L77.0933 70.3138C76.3809 69.221 75.6233 68.1703 74.8818 67.1551L75.6642 66.5627C76.4315 67.5875 77.1795 68.6641 77.9178 69.7665ZM71.9119 62.0013L71.1878 62.6746C70.3137 61.6984 69.3847 60.7901 68.4719 59.9174L69.1539 59.1988C70.0926 60.0812 71.0119 61.0153 71.9119 62.0013ZM64.5936 55.4564L64.0313 56.2493C62.9569 55.4932 61.8793 54.8244 60.7823 54.2074L61.2506 53.3498C62.3735 53.9765 63.4933 54.6905 64.5936 55.4564ZM55.5049 51.9081C54.2948 51.5143 53.0298 51.1885 51.7779 50.9857L51.9616 50.0216C53.2394 50.2342 54.5303 50.5696 55.7921 50.9827L55.4952 51.934L55.5049 51.9081Z" fill="#3E3E3E"/>
<path d="M46.0054 50.5623C45.3747 50.5919 44.7084 50.6377 44.0938 50.7028L43.9896 49.7195C44.6656 49.6479 45.3319 49.6022 45.9885 49.5823L46.0313 50.572L46.0054 50.5623Z" fill="#3E3E3E"/>
<path d="M157.04 147.179C154.411 143.953 193.503 114.082 195.187 116.128C196.844 118.164 159.669 150.405 157.04 147.179Z" fill="#3E3E3E"/>
<path d="M200.478 152.541L166.021 141.95L175.826 133.963L202.948 150.515L200.478 152.541Z" fill="#3E3E3E"/>
<path d="M160.613 103.57L163.98 139.444L173.785 131.456L163.083 101.544L160.613 103.57Z" fill="#3E3E3E"/>
<path d="M190.576 121.193L200.919 123.204L202.703 121.747L194.807 116.904L190.576 121.193Z" fill="#3E3E3E"/>
<path d="M189.306 119.623L189.444 109.082L191.228 107.625L194.34 116.343L189.306 119.623Z" fill="#3E3E3E"/>
<path d="M185.082 147.317C186.957 145.776 188.849 144.979 189.292 145.529C189.736 146.078 188.572 147.768 186.697 149.309C184.822 150.85 182.931 151.647 182.487 151.097C182.044 150.548 183.207 148.858 185.082 147.317Z" fill="#3E3E3E"/>
<path d="M179.516 145.083C181.391 143.542 183.282 142.745 183.726 143.294C184.169 143.844 183.006 145.533 181.131 147.074C179.256 148.615 177.364 149.412 176.921 148.863C176.477 148.313 177.641 146.624 179.516 145.083Z" fill="#3E3E3E"/>
<path d="M162.178 119.178C164.053 117.637 165.216 115.947 164.773 115.398C164.329 114.848 162.437 115.645 160.562 117.186C158.687 118.727 157.524 120.417 157.968 120.966C158.411 121.516 160.303 120.719 162.178 119.178Z" fill="#3E3E3E"/>
<path d="M163.225 125.053C165.1 123.512 166.263 121.822 165.819 121.273C165.376 120.723 163.484 121.52 161.609 123.061C159.734 124.602 158.571 126.292 159.015 126.841C159.458 127.391 161.35 126.594 163.225 125.053Z" fill="#3E3E3E"/>
</svg>
