<?xml version="1.0" encoding="UTF-8"?><svg id="b" xmlns="http://www.w3.org/2000/svg" width="407.45" height="98.99" viewBox="0 0 407.45 98.99"><defs><style>.d{fill:#fff;stroke-width:0px;}</style></defs><g id="c"><path class="d" d="M207.62,80.97v-2.02c0-.92-.45-1.38-1.35-1.38h-.48c-.88,0-1.31.46-1.31,1.38v3.82c0,.43.08.71.26.87.17.15.45.34.83.58l2.92,1.57c.64.36,1.09.65,1.36.85.27.21.48.45.62.74.15.29.22.84.22,1.65v4.9c0,2.59-1.24,3.88-3.72,3.88h-1.89c-2.46,0-3.69-1.41-3.69-4.23v-1.15h3.08v1.25c0,.9.46,1.35,1.38,1.35h.54c.81,0,1.22-.45,1.22-1.35v-3.91c0-.43-.08-.72-.26-.87-.17-.15-.45-.34-.83-.58l-2.92-1.63c-.64-.34-1.11-.63-1.39-.87-.29-.23-.5-.54-.62-.91-.13-.37-.19-.86-.19-1.46v-4.71c0-2.63,1.23-3.94,3.69-3.94h1.92c2.46,0,3.69,1.31,3.69,3.94v2.24h-3.08Z"/><path class="d" d="M219.53,88.31l2.85-13.53h3.4v23.02h-3.08l.32-15.07-2.31,10.9h-2.37l-2.31-10.9.32,15.07h-3.08v-23.02h3.4l2.85,13.53h0Z"/><path class="d" d="M228.66,97.8v-23.02h3.08v23.02h-3.08Z"/><path class="d" d="M241.92,97.8h-7.31v-23.02h3.08v20.23h4.23v2.79Z"/><path class="d" d="M243.7,97.8v-23.02h7.63v2.79h-4.55v6.99h4.04v2.79h-4.04v7.66h4.55v2.79h-7.63Z"/><path class="d" d="M259.27,97.8h-3.08v-8.46l-3.78-14.55h3.05l2.31,10h.1l2.08-10h3.05l-3.72,14.55v8.46h-.01Z"/><path class="d" d="M276.99,84.56v2.79h-4.04v10.45h-3.08v-23.02h7.63v2.79h-4.55v6.99h4.04Z"/><path class="d" d="M286.9,97.8h-7.31v-23.02h3.08v20.23h4.23v2.79Z"/><path class="d" d="M292.22,97.8c-2.48,0-3.72-1.3-3.72-3.91v-15.16c0-2.63,1.23-3.94,3.69-3.94h2.95c2.46,0,3.69,1.31,3.69,3.94v15.16c0,2.61-1.24,3.91-3.72,3.91h-2.89ZM292.96,95.01h1.57c.81,0,1.22-.45,1.22-1.35v-14.75c0-.9-.46-1.35-1.38-1.35h-1.44c-.9,0-1.35.45-1.35,1.35v14.75c0,.9.46,1.35,1.38,1.35Z"/><path class="d" d="M317.64,74.78l-3.4,23.02h-3.33l-1.89-13.34-1.86,13.34h-3.33l-3.4-23.02h3.05l2.18,17.25,2.18-17.25h2.4l2.18,17.25,2.18-17.25h3.04Z"/><path class="d" d="M319.41,97.8v-23.02h7.63v2.79h-4.55v6.99h4.04v2.79h-4.04v7.66h4.55v2.79h-7.63Z"/><path class="d" d="M329.25,74.78h6.03c2.35,0,3.53,1.31,3.53,3.94v5.67c0,2.01-.61,3.28-1.83,3.81l2.15,9.58h-2.92l-2.02-9.29h-1.86v9.29h-3.08v-23.02.02ZM332.33,85.87h2.02c.92,0,1.38-.56,1.38-1.67v-4.97c0-1.11-.46-1.67-1.38-1.67h-2.02v8.3h0Z"/><path class="d" d="M347.26,80.97v-2.02c0-.92-.45-1.38-1.35-1.38h-.48c-.88,0-1.31.46-1.31,1.38v3.82c0,.43.08.71.26.87.17.15.45.34.83.58l2.92,1.57c.64.36,1.09.65,1.36.85.27.21.48.45.62.74.15.29.23.84.23,1.65v4.9c0,2.59-1.24,3.88-3.72,3.88h-1.89c-2.46,0-3.69-1.41-3.69-4.23v-1.15h3.08v1.25c0,.9.46,1.35,1.38,1.35h.55c.81,0,1.22-.45,1.22-1.35v-3.91c0-.43-.09-.72-.26-.87-.17-.15-.45-.34-.83-.58l-2.92-1.63c-.64-.34-1.11-.63-1.39-.87-.29-.23-.5-.54-.62-.91-.13-.37-.19-.86-.19-1.46v-4.71c0-2.63,1.23-3.94,3.69-3.94h1.92c2.46,0,3.69,1.31,3.69,3.94v2.24h-3.1Z"/><path class="d" d="M194.18.98l4.19,7.36V.98h1.3v8.68h-1.97l-4.16-7.36v7.36h-1.31V.98h1.96,0Z"/><path class="d" d="M206.33.98c2.03,0,2.64,1,2.64,2.72,0,1.98-.8,2.74-2.79,2.74h-3.2v3.22h-1.3V.98h4.65ZM202.99,2.17v3.08h3.16c.89,0,1.51-.13,1.51-1.53s-.58-1.55-1.51-1.55h-3.16Z"/><path class="d" d="M217.84,5.33c0,3.02-.57,4.43-3.74,4.43-2.99,0-4.03-.69-4.03-4.43,0-3.36.77-4.43,3.88-4.43s3.89.93,3.89,4.43ZM211.39,5.33c0,2.66.28,3.25,2.69,3.25s2.44-.98,2.44-3.25c0-2.5-.22-3.25-2.57-3.25s-2.56.79-2.56,3.25Z"/><path class="d" d="M222.76,6.74c-.47,1.59-1.4,3.02-2.08,3.91l-.79-1.06c1.19-1.43,1.83-3.16,1.97-3.56l.9.71ZM220.54,3.38c.69.28,1.27.61,1.87,1.04l-.65,1.02c-.63-.49-1-.72-1.82-1.11l.6-.95ZM221.1.36c.39.13,1.4.62,1.88,1.09l-.71.99c-.58-.5-1.37-.95-1.81-1.17l.63-.91h0ZM223.6,5.56c.08-.76.12-1.42.15-2.24-.14.15-.23.25-.56.56l-.94-.83c1.01-.77,1.7-1.56,2.14-2.77l1.17.18c-.08.24-.13.44-.31.8h5.2v1.01h-5.83c-.12.17-.28.38-.72.87h6.04c0,.25-.02,1.5-.03,2.4h.54v.93h-.56c0,.23-.03.75-.1,1.59h.5v.95h-.6c-.09.8-.18,1.63-1.45,1.63h-1.43l-.19-.97h1.43c.46,0,.5-.28.54-.66h-4.46c-.04.24-.1.42-.23.86l-1.12-.3c.17-.47.49-1.41.73-3.1h-.61v-.93h.7v.02ZM225.93,8.07c.13-.7.19-1.22.22-1.59h-1.56c-.09.61-.11.83-.25,1.59h1.6-.01ZM226.24,5.56c.04-.67.07-1.16.09-1.46h-1.48c-.04.52-.08.94-.14,1.46h1.53ZM228.7,8.07c.07-.86.1-1.48.1-1.59h-1.58c-.08.88-.15,1.34-.19,1.59h1.67ZM228.82,5.56c0-.69,0-1.04-.02-1.46h-1.44c0,.42-.04,1.04-.08,1.46h1.54Z"/><path class="d" d="M231.32,4.9c1.39-1.47,1.86-2.76,2.2-4.61l1.11.05c-.06.38-.12.75-.26,1.31h3.14c-.36,4-1.65,6.64-5.2,9.06l-.81-.99c1.92-1.2,2.79-2.19,3.36-3.06-.59-.78-1.17-1.32-1.89-1.91-.35.53-.63.8-.88,1.04l-.76-.9h0ZM234.01,2.75c-.09.23-.25.63-.51,1.11.71.52.84.66,1.93,1.81.54-1.11.73-2.12.85-2.92h-2.27ZM238.2,3.22c.19.31.4.65.86,1.16V.29h1.18v5.13c.77.54,1.4.83,1.87,1.04l-.36,1.3c-.38-.19-.85-.41-1.51-.87v3.72h-1.18v-4.68c-1.06-.97-1.47-1.69-1.72-2.1l.86-.61Z"/><path class="d" d="M242.75,4.22c.26-.04.36-.07.54-.1V.72c.51-.02,2.42-.08,3.86-.52l.38.93c-1.11.38-2.82.46-3.21.47v2.28c.29-.07.94-.24,1.64-.47-.28-.64-.33-.74-.46-.96l.94-.45c.19.32.74,1.22,1.05,2.28l-1.03.43c-.07-.22-.08-.26-.14-.44-.73.29-2.17.7-3.32.99l-.25-1.04ZM252.28,5.56v5.08h-1.07v-.44h-6.45v.44h-1.06v-5.08h8.58ZM244.76,6.49v.92h2.75v-.92h-2.75ZM244.76,8.29v.98h2.75v-.98h-2.75ZM252.83.72c0,.21-.03,2.99-.33,3.68-.24.58-.54.75-1.26.75h-1.27l-.19-1.08h1.28c.34,0,.64,0,.7-2.36h-1.51c-.18,1.77-.95,2.87-2.28,3.73l-.72-.94c1.23-.66,1.86-1.66,1.91-2.8h-1.37v-.99h5.04ZM248.48,6.49v.92h2.73v-.92h-2.73ZM248.48,8.29v.98h2.73v-.98h-2.73Z"/><path class="d" d="M262.64,3.95v.91c-.63.56-1.94,1.41-2.81,1.76v.09h4.63v1.08h-4.63v1.97c0,.79-.79.91-.9.91h-2.16l-.21-1.17h1.77c.31,0,.31-.15.31-.35v-1.37h-4.62v-1.08h4.62v-.86h.49c.37-.12,1.13-.43,1.63-.87h-4.9v-1.04h6.79v.02ZM255.75,2.08c-.23-.6-.51-1.09-.66-1.36l1.07-.4c.3.42.64,1.07.83,1.65l-.25.1h2.2c-.28-.64-.48-1.01-.75-1.42l1.09-.42c.23.35.66,1.17.84,1.72l-.37.12h1.79c.13-.25.3-.58.73-1.81l1.27.37c-.25.58-.4.87-.73,1.43h1.4v2.52h-1.11v-1.48h-7.66v1.48h-1.11v-2.52h1.43v.02Z"/><path class="d" d="M269.2,5.48c0,.64-.51,1.15-1.15,1.15s-1.16-.51-1.15-1.15c0-.64.52-1.14,1.15-1.14s1.15.51,1.15,1.14Z"/><path class="d" d="M280.21,10.04h-7.18v.55h-1.12V.79h9.44v9.8h-1.13v-.55h-.01ZM280.21,1.85h-7.18v7.13h7.18V1.85ZM278.52,7.23h1.29v.98h-6.39v-.98h2.52v-1.55h-2.11v-.91h2.11v-1.23h-2.3v-.96h6.01v.96h-2.61v1.23h2.39v.91h-.74c.04.07.36.56.59,1.25l-.76.31h0ZM278.16,5.68h-1.12v1.55h1.22c-.11-.3-.36-.92-.66-1.33l.56-.22Z"/><path class="d" d="M285.52,5.06c.65-.33,1-.61,1.27-.85-.43-.41-.77-.66-.85-.71-.1.08-.11.09-.22.16l-.44-.73c-.25.75-.34.96-.45,1.26.9,1.4.9,2.57.9,2.79,0,.27,0,1.53-1.18,1.53h-.38l-.36-1.07h.55c.31,0,.37-.24.37-.56,0-.9-.39-1.81-.85-2.6.29-.64.64-1.99.74-2.7h-.85v9.07h-1.05V.63h2.92v.95c-.05.26-.08.4-.32,1.16.5-.38,1.37-1.43,1.62-2.38l.99.12c-.08.21-.11.3-.17.42h1.41c-.02-.11-.03-.16-.04-.34l.86-.11c.03.14.03.18.09.41h2.63v.97c-.24.64-.79,1.41-1.22,1.81.64.78,1.2,1.1,1.51,1.28l-.73.87c-.26-.19-.55-.4-1.06-.92v.67h-3.7v-.75c-.53.52-.94.84-1.33,1.11l-.67-.84h.01ZM287.98,8.26c-.5.85-1.26,1.7-2.04,2.12l-.78-.76c.71-.39,1.39-.93,1.86-1.81l.96.45ZM292.55,7.44h-2.71v2.07c0,.74-.18,1.13-1.01,1.13h-1.08l-.22-1.13h.94c.23,0,.28-.05.28-.3v-1.78h-2.55v-1h6.36v1h0ZM287.65,3.22c-.22-.18-.35-.26-.93-.61-.17.21-.21.27-.3.36.34.21.58.42.88.7.04-.04.21-.25.34-.45h.01ZM287.39,1.67c-.12.19-.16.27-.23.36.36.15.62.32.87.5.2-.42.29-.65.36-.86h-1ZM290.95,4.57c-.2-.22-1.14-1.3-1.56-2.78-.37,1.3-1.15,2.23-1.65,2.78h3.22-.01ZM290.35,1.67c.21.55.37.84.61,1.21.4-.43.61-.73.79-1.21h-1.4ZM292.11,10.44c-.7-.62-1.27-1.6-1.56-2.21l.99-.5c.22.65.78,1.43,1.39,1.94l-.81.77h-.01Z"/><path class="d" d="M298.19,9.57c.42-.19,1.66-.73,2.57-1.87-.71-1.24-.89-2.16-.98-2.6-.13.21-.18.3-.35.56l-.89-.84c.18-.24.25-.35.39-.6h-1.54c-.18.18-.39.41-.84.79h1.93v.93c-.57.55-.89.79-1.4,1.12v.21c.23-.03,2-.25,2.08-.28v.97c-.46.09-.9.18-2.08.34v1.5c0,.37-.23.82-.76.82h-1.64l-.21-1.06h1.26c.14,0,.29-.02.29-.25v-.87c-.95.11-1.73.18-2.44.23l-.09-1.07c.75-.05,1.48-.08,2.52-.21v-.77h.31c.23-.15.63-.51.76-.68h-1.73c-.66.45-1.01.65-1.4.86l-.5-.98c.47-.23,1.33-.65,2.47-1.6h-2.35v-1h2.03v-1.04h-1.75v-.99h1.75V.31h1.02v.88h1.28v.82c.34-.51.54-.94.74-1.38l.98.44c-.2.42-.54,1.14-1.35,2.15h.73v.88c.66-1.19.99-2.72,1.16-3.85l1.09.11c-.04.4-.11.88-.25,1.59h2.83v1.15h-.54c-.12,1.6-.39,3.21-1.2,4.58.57.71,1.19,1.26,1.93,1.87l-.65,1.07c-.36-.28-1.16-.87-1.97-1.96-.96,1.09-1.92,1.64-2.47,1.96l-.73-1.06h-.01ZM296.61,2.19v1.04h.33c.21-.23.46-.53.83-1.04h-1.16ZM300.68,3.11c-.09.26-.11.33-.17.46.11,1.1.36,2.16.88,3.12.52-1.12.72-2.35.79-3.58h-1.51.01Z"/><path class="d" d="M313.55,4.49c-.28-.26-.45-.43-1.04-.84-5.33.41-5.59.43-7.59.44l-.09-1.04c.07,0,1.96-.02,2.19-.03.21-.3.41-.61.58-.93h-3.08v-1.01h4.65V.29h1.11v.79h4.61v1.01h-2.77c.28.14,1.49.85,2.33,1.62l-.9.77h0ZM313.55,4.58v4.97c0,.7-.36,1.12-1.1,1.12h-1.86l-.25-1.12h1.76c.29,0,.33-.02.33-.28v-.61h-5.42v2.01h-1.13v-6.09h7.68-.01ZM307,5.47v.71h5.42v-.71h-5.42ZM307,7.04v.73h5.42v-.73h-5.42ZM311.58,2.09h-2.64c-.3.47-.33.53-.62.9.08,0,2.7-.1,2.99-.11-.14-.09-.25-.15-.59-.34l.87-.45h-.01Z"/><path class="d" d="M318.55,5.33c.32.48.94,1.43,2.16,2.33,1.11-.83,1.81-1.79,2.32-2.55h-6.67v-1.08h3.79v-1.44h-4.59v-1.1h4.59V.29h1.11v1.2h4.64v1.1h-4.64v1.44h3.11v1.1c-.5.83-1.32,2.08-2.65,3.16.98.52,2.17.94,4.15,1.07l-.44,1.25c-1.68-.27-3.33-.68-4.77-1.56-.9.55-2.14,1.13-4.58,1.61l-.52-1.24c1.72-.21,2.96-.53,4.08-1.1-1.11-.94-1.7-1.86-2.03-2.39l.93-.58v-.02Z"/><path class="d" d="M326.46,6.08c.34-.07.7-.14,1.35-.35v-2.44h-1.26v-1.04h1.26V.33h1.15v1.92h.91v1.04h-.91v2.05c.27-.1.46-.19.82-.34l-.03,1.11c-.19.11-.32.19-.78.38v3.33c0,.72-.5.86-.81.86h-1.41l-.12-1.13h.92c.23,0,.28-.07.28-.33v-2.29c-.72.25-.99.32-1.26.37l-.1-1.21h-.01ZM332.64,6.08c-.02.13-.05.3-.18.71h3.79v.84c-.11.22-.4.84-1.3,1.56.97.33,1.58.34,2.13.35l-.51,1.13c-.4-.07-1.5-.27-2.64-.86-.96.5-1.72.72-2.28.86l-.43-1.09c.43-.04.9-.09,1.7-.4-.52-.38-.68-.63-.85-.88l.89-.49c.16.23.32.49.94.86.69-.44.91-.74,1.16-1.06h-2.89c-.75,1.71-1.61,2.56-2.09,3.05l-.8-.76c.93-.95,1.86-2.07,2.29-3.83h-1.56v-.93h1.72c.02-.27.03-.4.05-.7h-1.53v-.93h4.5c.17-.29.53-.87.96-1.94l1.04.4c-.11.28-.27.69-.78,1.54h.76v.93h-3.89c0,.3,0,.43-.02.7h4.13v.93h-4.31ZM336.71,1.3c-1.16.36-3.83.75-6.49.74l-.34-1.05c3.34-.02,4.95-.22,6.41-.71l.42,1.02ZM331.55,2.06c.18.42.31.82.43,1.23l-1.11.23c-.09-.33-.29-.87-.44-1.22l1.12-.24ZM333.73,1.94c.23.71.3.96.35,1.29l-1.12.22c-.11-.45-.2-.75-.38-1.29l1.16-.22h-.01Z"/><path class="d" d="M343.15,9.12c-.44-.5-1.05-.83-1.21-.91-.18,1.32-.54,1.89-.95,2.44l-.79-.82c.66-.88.76-1.52.79-3.18h-.35v-.77l-.41.71c-.17-.29-.33-.57-.51-1.11v5.18h-1.04v-4.35c-.16.73-.28,1.11-.66,1.96l-.55-1.48c.6-1.03.98-2.21,1.15-3.39h-1.02v-1.07h1.09V.34h1.04v1.99h.72v1.07h-.72v.4c.11.3.36.97,1.04,1.86h2.99c-.21-1.29-.36-3.25-.36-5.32h1.1c0,.51,0,.79.02,1.44l.53-.63c.1.1.13.12.18.17.24-.33.41-.61.63-1.04l.83.29c-.16.28-.37.65-.9,1.29.13.14.24.25.37.42.44-.58.61-.85.73-1.05l.73.35c-.75,1.07-.85,1.19-1.81,2.28.64-.02.83-.03,1.13-.07-.1-.24-.14-.35-.22-.53l.74-.26c.43.84.56,1.43.63,1.7l-.79.32c-.08-.32-.1-.39-.13-.51-.29.05-.61.07-.87.09.23.14.29.19.79.56l-.43.5h1.31v.99h-2.91c.11.53.26,1.07.37,1.35.54-.53.74-.85.95-1.18l.98.41c-.21.38-.61,1.06-1.47,1.8.12.22.37.57.65.57s.55-.81.68-1.27l.83.74c-.38,1.28-.79,1.6-1.48,1.6-.78,0-1.22-.33-1.57-.98-1,.62-1.68.8-2.13.94l-.43-.96c.44-.11,1.15-.28,2.1-.94-.16-.41-.41-1.15-.61-2.08h-1.88c0,.26,0,.41-.01.64.84.3,1.37.67,1.73.94l-.61.9h0ZM340.42,4.05c.21-.22.45-.5.88-1.01-.16-.2-.6-.72-1.19-1.23l.61-.67c.1.08.18.13.23.18.26-.33.43-.58.67-1.04l.83.3c-.19.33-.44.76-.93,1.27.12.13.23.25.37.44.39-.52.54-.75.73-1.02l.72.44c-.65.96-1.81,2.24-1.89,2.34.28,0,.69-.02.96-.04-.08-.21-.12-.33-.2-.5l.75-.27c.3.61.45,1.18.55,1.68l-.82.28c-.02-.16-.04-.28-.09-.46-.04,0-2.08.19-2.27.21l-.12-.87h.21v-.03ZM345.6,2.95c-.34-.46-.71-.79-1.09-1.11.01.49.07,1.46.12,2.06h.14c.5-.52.71-.78.83-.95ZM345.76,4.62c-.13.01-.99.07-1.05.07.04.4.11.83.13.96h1.46c-.38-.28-.53-.39-.9-.58l.35-.44h.01Z"/><path class="d" d="M348.39,6.77c.9-1.05,1.31-2.54,1.46-3.36h-1.25v-1.05h1.32V.29h1.05v2.07h.99v1.05h-.99v.29c.32.91.74,1.5,1.3,2.09l-.53,1.06c-.41-.66-.56-.95-.77-1.46v5.25h-1.05v-4.96c-.24.98-.52,1.82-1.11,2.64l-.42-1.54h0ZM353.58.29h1.02v.56h1.68V.29h1.04v.56h1.38v.84h-1.38v.58h.99v.76h-.99v.65h1.63v.86h-3.04v.55h2.45v2.93h.6v.85h-.6v.97c0,.44-.14.78-.91.78h-1.46l-.09-.99h1.06c.35,0,.38-.04.38-.3v-.46h-3.8v1.75h-1.01v-1.75h-.7v-.85h.7v-2.93h2.46v-.55h-3v-.86h1.62v-.65h-1.08v-.76h1.08v-.58h-1.44v-.84h1.44V.29h-.03ZM353.52,5.9v.66h1.44v-.66h-1.44ZM353.52,7.32v.7h1.44v-.7h-1.44ZM354.61,1.69v.58h1.68v-.58h-1.68ZM354.61,3.03v.65h1.68v-.65h-1.68ZM355.9,5.9v.66h1.41v-.66h-1.41ZM355.9,7.32v.7h1.41v-.7h-1.41Z"/><path class="d" d="M323.01,43.43h-.09v20.96h37.03v-20.96h-36.94ZM338.12,47.22v4.82h-8.62v-4.82h8.62ZM329.5,55.83h8.62v4.78h-8.62v-4.78ZM344.7,60.61v-4.78h8.68v4.78h-8.68ZM353.38,52.04h-8.68v-4.82h8.68v4.82Z"/><path class="d" d="M339.45,41.57v-10.32h-6.58v3.74h-5.43v-4.84l9.2-2.5-.19-6.76-15.55,4.22h0s-.03,0-.03,0v16.46h18.58Z"/><path class="d" d="M178.24,39.64l-.02-.04h.05v-16.52c0-1.18-.96-2.14-2.14-2.14l-29.68.02v6.58h25.25v9.05l-28.43,22.67,4.05,5.13,18.61-14.89,18.26,15.19.08-8.21-13.17-11.12,7.15-5.72h-.01Z"/><path class="d" d="M312.01,20.85h-33.79v6.58h33.79v-6.58Z"/><path class="d" d="M407.45,47.3h-16.96l8.57-5.31v-6.58h-24.73v6.58h15.12l-5.53,3.24v2.07h-17.51v6.58h17.51v3.93h-8.65v6.58h9.86c2.99,0,5.36-1.58,5.36-5.04v-5.47h16.96v-6.58Z"/><path class="d" d="M372.86,33.9h27.81v4.72h6.58l-.03-9.17c0-1.18-.96-2.14-2.14-2.14h-4.36l2.15-6.45h-6.58l-2.16,6.46h-5.35l-2.16-6.46h-6.58l2.16,6.46h-4.18l-2.16-6.46h-6.58l2.16,6.46h-5.17v11.3h6.58v-4.72h.01Z"/><path class="d" d="M224.05,23.09c0-1.18-.96-2.14-2.14-2.14l-39.12.02v6.58h34.69v12.2l-14.03,8.62-7.19-6.07-4.81,4.48,21.54,17.92.08-8.21-4.38-3.7,15.34-9.36-.02-.04h.05v-20.29h-.01Z"/><path class="d" d="M267.62,20.94l-39.24.02v6.58h34.74v12.48l-27.67,19.24,4.05,5.13,30.16-20.96-.02-.04h.05l.06-20.29c0-1.18-.96-2.14-2.14-2.14v-.02Z"/><path class="d" d="M312.81,30.89l-39.07.02v6.58h34.63v5.9l-27.67,15.88,4.05,5.13,30.17-17.18h.03v-14.18c0-1.18-.96-2.14-2.13-2.14h0Z"/><path class="d" d="M359.83,22.78l-19.31.02v6.58h3.32l-1.93,12.24h6.58l1.93-12.24h4.97v5.66h-3.59v6.58h4.8c2.99,0,5.36-1.58,5.36-5.04v-11.66c0-1.18-.96-2.14-2.14-2.14h.01Z"/><path class="d" d="M119.31,45.13c-.43-.22-.97-.06-1.19.37-.03.05-1.1,2.1-2.44,4.67-1.13-.45-2.17-.52-3.11-.23-1.08.34-1.97,1.16-2.64,2.43l-7.84,14.77c-.32.6-.51,1.38-.54,2.2l-.9,8.25c-1.97.42-8.22,1.77-13.14,2.86,2.92-3.67,5.77-7.8,7.24-11.02,2.47-5.43,3.62-10.18,3.62-14.96,0-5.24-.18-11.05-1.43-14.93.4-1.1.82-2.3,1.11-3.43.62-2.5.33-6.24-.32-8.04-.58-1.59-.92-2.16-2.37-4.57l-.36-.59c-1.84-3.07-3.37-4.59-5.32-6.39-2.05-1.89-4.11-2.84-5-3.02-.71-.14-1.39.06-1.83.54-.37.4-.74,1.15-.37,2.48.32,1.18,1.22,2.42,2.46,4.13.67.93,1.43,1.97,2.23,3.2,2.09,3.21,6.36,11.67,7.88,15.61,0,.02.02.05.03.07-.4,1.09-.71,1.95-.81,2.56-.12.71-.17,1.37-.22,2.01-.06.87-.12,1.69-.36,2.64-.06.24-.12.48-.17.72-.33,1.37-.64,2.67-1.31,3.25-.26.23-.37.25-.37.26-.18-.04-.68-.54-1.08-.95-.45-.45-1.12-1.32-1.83-2.25-1.07-1.39-2.29-2.96-3.26-3.78-.99-.83-3.05-2.55-4.41-1.2-.88.88-1.07,2.85-.65,4.02.42,1.18.97,1.95,1.74,3.02.6.84.82,1.74.61,2.49l-.14.52c-.21.77-.38,1.38-.83,2.28-.4.8-1.26,1.76-2.01,2.6-.24.27-.47.52-.67.76-.17.2-.37.41-.58.64-.95,1.03-2.13,2.32-2.42,3.74-.11.55-.39,1.54-.69,2.58-.49,1.72-1.05,3.68-1.24,4.99-.29,2.07-1.55,5.18-3.3,5.29-1.11.06-2.26-.36-3.09-1.15-.51-.48-1.13-1.32-1.13-2.54v-1.07c.03-4.24-.02-7.86-.86-9.26-1.05-1.75-3.92-3.33-5.68-3.52-2.51-.27-5.42-1.11-6.05-2.69-.59-1.48-1.37-4.25.04-6.23,3.53-4.95,5.62-5.77,6.55-5.82,1.89-.1,5.55-.06,8.23-.02,1.03,0,1.91.02,2.48.02,2.68,0,5-.48,6.88-1.42,2.26-1.13,3.18-1.99,2.99-4.4-.13-1.74-1.31-4.42-2.79-5.49-.81-.59-1.53-.58-1.99-.46-2.14.53-2.21,1.66-1.98,2.8.1.47.27.87.42,1.23.11.26.28.64.23.74-.17.38-.36.59-.46.66-.03-.02-.07-.06-.13-.13-.29-.34-.6-.95-.89-1.54-.54-1.09-1.06-2.12-1.91-2.51-.76-.36-2.55-1.2-4.13-.07-.71.51-1.41,1.41-2.09,2.28-.43.55-.87,1.12-1.26,1.51-.89.89-1.98,1.89-3.63,2.44-1.67.56-3.55.4-3.96-.33-.95-1.7-1.08-2.8-.41-3.27.49-.35,1.09-.63,1.67-.9,1.09-.52,2.23-1.05,2.74-2.08.74-1.48.58-2.97-.43-4.09-.17-.18-.34-.36-.52-.54-.95-.96-1.04-1.2-.86-1.49.36-.58,1.29-1.53,2.2-2.45.8-.81,1.63-1.66,2.3-2.46l.52-.62c1.19-1.41,1.91-2.25,1.64-3.15-.08-.25-.3-.7-.98-.89-.42-.12-.94-.13-1.48-.14-1.12-.02-1.99-.08-2.25-.58-.44-.89.49-2.25,1.62-3,1.3-.87,3.41-1.77,4.67-1.77,1.57,0,4.51.59,6.09,1.38,1.32.66,5.13,1.93,6.54,1.39.44-.17.63-.46.72-.68.46-1.15-.71-2.48-2.89-4.38-1.29-1.12-8.23-4.73-11.64-5.92-3.3-1.15-7.23-2.38-11.4-2.84-4.5-.5-8.34-.17-9.78,0-1.65.19-4.04.6-5.75,1.95-.53.42-.93.84-1.22,1.28-1.67-.16-3.25-.2-4.31.02-2.34.5-4.62,1.2-8.11,3.03-3.27,1.71-5.31,3.12-7.84,4.93-2.43,1.74-3.34,2.85-3.95,3.98-.47.88-.75,2.1-.1,2.89.26.31.86.79,2.02.44,1.56-.47,2.38-.8,4.26-2.2,1.69-1.27,4.49-2.72,6.35-2.92,1.33-.14,2.15,0,3.04.26.15.04.31.09.47.13.74.21,1.75.49,2.07.92.52.7.78,1.2.06,2.34-.3.47-.56.85-.78,1.18-.56.82-.93,1.37-1.11,2.15-.26,1.17.2,3.17,1.17,4.01.85.73,2.35,1.41,3.8,1.29.94-.08,1.65-.41,2.12-.98.48-.59.66-1.38.55-2.36-.08-.67-.22-1.26-.35-1.78-.1-.42-.24-.99-.24-1.1,0,0,.07-.05.2-.06.26-.02.67.08.99.36.15.13.38.32.65.54.83.68,3.04,2.48,3.32,3.3.49,1.46-.01,1.97-.18,2.14-.41.41-1.04.99-1.72,1.62-.45.42-.91.84-1.33,1.24-.55.1-1.12.2-1.69.32l-.4.08c-1.98.4-2.81.56-4.43,1.37-1.77.88-3.25,2.96-2.6,4.42.14.31.44.71,1.09.92,1.23.38,3.09-.18,4.3-.92,1.64-1.01,2.36-1.96,2.99-2.79.21-.27.41-.54.65-.81.21-.24.54-.57.92-.93,1.51-.26,2.71-.41,3.25-.46.62-.05,1-.04,1.08,0,0,0,.02.05,0,.19-.16,1.13-1.01,3.02-2.11,4.12-.44.44-.95.81-1.44,1.18-.76.55-1.54,1.13-2.03,1.94-.67,1.1-1.04,2.08-.81,3.55l.05.29c.19,1.17.36,2.28.86,3.09.11.17.26.37.42.59.2.27.68.89.69,1.07-.06.06-.5.1-1.58-.75-.53-.42-2.42-1.53-3.8-1.37-1.23.15-4.22.98-5.08,2.5-.84,1.47-1.11,2.95-.78,4.29.37,1.47,1.38,3.45,3.04,4.22,1.12.52,2.63.64,4.62.37l.58-.08c1.48-.21,2.16-.29,2.78.2.83.66,1.84,1.36,2.81,2.04.6.42,1.19.83,1.74,1.23,1.3.95,3,2.32,4.05,3.28,1.04.94,1.38,1.4,1.38,2.29,0,1.11-.06,1.73-1.33,3.64-.73,1.09-1.7,2.33-2.63,3.53-.81,1.04-1.66,2.12-2.37,3.13-1.31,1.87-1.99,2.85-2.96,4.72-1.01,1.94-1.45,3.1-1.87,4.22l-.17.44c-.57,1.5-.93,1.85-1.04,1.93-.5-.06-1.5-.28-1.5-2.85,0-.76.04-1.62.09-2.52.11-2.13.23-4.33-.24-5.72l-.11-.33c-.54-1.65-.97-2.95-2.91-4.58-.76-.64-1.5-1.09-2.15-1.48-.95-.57-1.48-.91-1.58-1.37-.41-1.93-.41-3.47.03-4.33.45-.91,1.37-1.66,2.17-2.32.24-.2.47-.38.67-.56.63-.56.9-1.3.72-2.03-.13-.53-.62-1.49-2.47-1.95-2.07-.52-3.47-.94-4.04-2.09-.59-1.18-1.12-2.08-1.79-3.22-.24-.41-.5-.85-.79-1.34-.74-1.27-1.85-2.76-2.98-2.6-.5.07-.87.43-1.01.96-.07.29-.18.69-.27,1.06-.82-.56-1.95-1.39-2.64-2.14-.32-.35-.69-.69-1.05-1.02-1.04-.96-2.11-1.96-2.06-3.05.04-.84.14-1.87.24-2.86.13-1.36.26-2.64.26-3.57,0-1.61-1.08-5.75-3.16-6.44-1.79-.6-4.23.31-5.95,2.21-1.73,1.91-2.81,3.57-3.55,6.89C.32,42.29-.11,47.6.03,52.15c.13,4.17.82,8.23,2.1,12.42,1.31,4.27,4.85,10.87,7.21,14.12,2.05,2.83,5.19,6.08,9.33,9.69,2.57,2.23,5.93,4.26,9.24,5.56l1.61.64c2.84,1.13,6.72,2.68,8.41,3.13.47.12.96-.15,1.08-.63.13-.47-.15-.96-.63-1.08-1.59-.42-5.42-1.95-8.21-3.06l-1.62-.64c-3.13-1.23-6.31-3.14-8.73-5.25-4.04-3.51-7.09-6.67-9.06-9.39-2.27-3.14-5.69-9.49-6.95-13.6-1.24-4.03-1.9-7.94-2.03-11.96-.14-4.43.28-9.55,1.06-13.05.66-2.95,1.57-4.36,3.13-6.09,1.22-1.35,2.98-2.09,4.08-1.72.86.29,1.95,3.2,1.95,4.76,0,.84-.12,2.14-.25,3.4-.1,1.02-.2,2.06-.24,2.95-.1,1.92,1.35,3.26,2.62,4.44.35.32.68.63.95.93,1.34,1.45,3.91,3.03,4.02,3.1.24.15.53.17.79.07.26-.1.46-.32.53-.59,0,0,.21-.78.4-1.51.24.27.56.7.93,1.33.29.5.55.94.79,1.36.65,1.11,1.17,1.99,1.74,3.12.98,1.96,3.22,2.52,5.2,3.02.89.22,1.15.55,1.18.66.02.06-.05.17-.17.28-.18.16-.39.33-.62.52-.9.73-2.01,1.65-2.63,2.89-.63,1.25-.68,3.1-.17,5.5.26,1.23,1.3,1.85,2.4,2.52.6.36,1.27.77,1.93,1.32,1.55,1.31,1.86,2.24,2.37,3.79l.11.34c.36,1.07.25,3.19.15,5.06-.05.93-.09,1.81-.09,2.62,0,3.54,1.71,4.47,3.15,4.62,1.39.13,2.2-1.47,2.81-3.07l.17-.45c.4-1.07.82-2.18,1.78-4.03.92-1.77,1.54-2.67,2.84-4.52.68-.97,1.51-2.04,2.31-3.06.96-1.23,1.95-2.5,2.71-3.64,1.46-2.19,1.62-3.13,1.62-4.62,0-1.69-.85-2.59-1.96-3.6-1.09-.99-2.86-2.42-4.2-3.4-.56-.41-1.16-.83-1.77-1.25-.95-.66-1.93-1.35-2.72-1.97-1.24-.98-2.58-.78-4.13-.56l-.57.08c-1.62.22-2.84.15-3.63-.22-.97-.45-1.78-1.88-2.07-3.05-.22-.89-.02-1.9.6-2.98.34-.6,2.31-1.45,3.76-1.62.63-.07,2,.61,2.49.99,2.1,1.66,3.29,1.26,3.93.62,1.17-1.17.06-2.62-.53-3.39-.13-.17-.25-.32-.33-.45-.31-.5-.46-1.44-.62-2.43l-.05-.29c-.15-.95.06-1.51.57-2.35.31-.51.89-.94,1.57-1.43.52-.38,1.11-.81,1.65-1.35,1.25-1.25,2.37-3.45,2.61-5.12.12-.83-.17-1.34-.44-1.62-.7-.74-1.85-.64-2.54-.58-.22.02-.49.05-.81.09.47-.43.88-.83,1.18-1.12.66-.66,1.3-1.88.61-3.96-.41-1.21-2.14-2.69-3.88-4.11-.25-.21-.46-.38-.6-.5-.64-.56-1.5-.86-2.3-.8-.59.05-1.09.3-1.42.7-.58.71-.35,1.65-.11,2.64.11.47.25,1,.31,1.57.04.33.04.78-.16,1.03-.19.23-.6.31-.9.34-.9.07-1.93-.38-2.5-.87-.39-.33-.74-1.66-.6-2.28.1-.44.32-.77.84-1.54.23-.34.5-.73.81-1.22,1.26-1.98.64-3.31-.14-4.35-.68-.91-1.97-1.27-3.01-1.57-.15-.04-.3-.08-.44-.13-1.07-.32-2.12-.5-3.74-.33-2.19.23-5.29,1.82-7.22,3.27-1.66,1.24-2.3,1.5-3.7,1.92-.04,0-.08.02-.12.03.01-.17.07-.47.27-.83.4-.74,1.02-1.67,3.42-3.38,2.47-1.77,4.47-3.15,7.63-4.8,3.32-1.74,5.46-2.4,7.66-2.87.72-.16,1.89-.16,3.41-.03,0,.31.03.64.11.98.41,1.8,2.06,3.31,3.81,4.91l.38.35c1.85,1.7,3.96,3.63,6.22,4.11,1.04.22,2.33-.06,3.37-.75.82-.54,1.36-1.25,1.51-2.01.38-1.89-1.12-4.28-3.65-5.8-2.18-1.31-4.21-2.43-6.94-2.91-.67-.12-1.4-.24-2.15-.35.06-.05.12-.1.19-.15,1.04-.82,2.58-1.32,4.86-1.58,1.08-.12,4.95-.49,9.38,0,3.99.44,7.81,1.64,11.01,2.76,3.34,1.16,10.03,4.68,11.06,5.58,1.2,1.05,1.8,1.69,2.1,2.08-1.12-.12-3.26-.7-4.51-1.32-1.87-.94-5.07-1.57-6.88-1.57s-4.41,1.24-5.65,2.07c-1.81,1.2-3.15,3.4-2.22,5.26.75,1.51,2.59,1.54,3.8,1.56.18,0,.36,0,.52.01-.26.36-.67.84-1.02,1.25l-.53.63c-.63.75-1.43,1.57-2.21,2.36-1.06,1.08-1.97,2.01-2.44,2.75-.98,1.57.27,2.84,1.1,3.68.16.16.32.32.47.48.65.71.44,1.54.16,2.11-.24.48-1.06.87-1.92,1.27-.64.3-1.31.62-1.93,1.05-1.06.74-1.94,2.31-.12,5.58.96,1.74,3.84,1.89,6.07,1.15,1.92-.64,3.22-1.76,4.33-2.87.46-.46.94-1.07,1.4-1.66.6-.77,1.23-1.57,1.73-1.93.53-.38,1.21-.31,2.35.23.29.14.78,1.12,1.08,1.7.34.69.7,1.4,1.13,1.91.63.73,1.28.81,1.7.75,1-.14,1.58-1.12,1.84-1.7.37-.81.04-1.56-.22-2.17-.13-.3-.25-.59-.31-.88-.05-.26-.07-.42-.08-.44,0,0,.13-.14.75-.29.14-.03.32.03.53.18.99.72,1.96,2.9,2.06,4.19.1,1.34-.05,1.69-2.02,2.68-1.64.82-3.69,1.23-6.09,1.23-.57,0-1.44,0-2.46-.02-2.7-.04-6.4-.08-8.35.03-2.22.12-4.87,2.33-7.89,6.56-1.9,2.67-.97,6.11-.25,7.92,1.09,2.72,5.17,3.55,7.51,3.79,1.28.13,3.62,1.46,4.35,2.67.66,1.09.63,5.99.62,8.34v1.08c0,1.45.59,2.8,1.68,3.83,1.18,1.11,2.82,1.72,4.41,1.63,3.18-.19,4.63-4.53,4.95-6.8.17-1.19.73-3.16,1.19-4.75.32-1.13.6-2.1.72-2.72.19-.94,1.18-2.02,1.98-2.89.23-.25.44-.48.62-.69.2-.23.42-.47.64-.73.83-.92,1.77-1.97,2.28-2.99.53-1.05.73-1.8.95-2.6l.14-.5c.36-1.26.04-2.72-.87-4-.71-.99-1.17-1.64-1.51-2.58-.26-.72-.04-1.9.19-2.15.05,0,.51-.03,2.07,1.28.83.7,1.98,2.19,3,3.51.78,1.02,1.46,1.89,1.99,2.42,1.13,1.13,2.2,2.2,3.85.78,1.11-.95,1.49-2.52,1.88-4.18.05-.23.11-.47.17-.7.28-1.11.34-2.04.41-2.95.03-.45.06-.89.12-1.33.58,3.4.68,7.65.68,11.58,0,4.52-1.1,9.04-3.46,14.23-1.58,3.47-5.05,8.33-8.42,12.37-5.67,1.28-16.91,4.1-22.73,5.87-6.28,1.91-9,3-11.83,4.35-2.3,1.09-5.03,2.85-5.01,5.05.02,2.05,3.28,2.43,4.68,2.5.23,0,.47.02.72.02,2.34,0,5.49-.46,7.62-.92,2.2-.48,11-2.97,14.22-4.65,3.93-2.05,7.22-3.92,10.86-7.85.78-.84,1.61-1.78,2.45-2.78,5.89-1.32,15.85-3.45,15.96-3.47.01,0,.03-.01.04-.02.08-.02.15-.05.21-.09.03-.02.06-.03.08-.04h.02l6.95-5.34c.14-.1.28-.2.41-.32l.08-.06s.04-.05.06-.07c.34-.32.64-.69.85-1.1,0,0,2.09-3.92,2.12-3.98.23-.43.06-.97-.37-1.2-.43-.23-.97-.06-1.2.37,0,.01-2.12,3.97-2.12,3.97-.12.23-.3.46-.53.67l-.43.33c-.73.46-1.78.65-2.98,0-1.19-.63-1.56-1.88-1.52-2.95l.04-.41v-.05c.05-.36.16-.69.28-.93l7.84-14.77c.45-.85.99-1.38,1.61-1.57.5-.15,1.08-.11,1.75.12-2.02,3.87-4.29,8.2-4.6,8.79-.96,1.82-.7,3.49.7,4.36.63.39,1.34.5,2.05.31.83-.22,1.58-.85,2.04-1.72l3.57-6.72c.49-.92.65-2.04.43-3.07-.16-.79-.62-1.84-1.8-2.7,1.35-2.58,2.43-4.63,2.45-4.69.23-.43.06-.97-.37-1.19l-.05-.12ZM36.81,31.16c-.59.78-1.15,1.52-2.51,2.35-1.14.7-2.5.89-2.87.74-.03-.36.64-1.5,1.78-2.07,1.34-.67,1.99-.82,3.69-1.16-.03.05-.07.09-.1.14h0ZM41.89,5.8c2.43.43,4.3,1.47,6.33,2.69,2.02,1.21,3.03,2.95,2.83,3.93-.06.28-.34.6-.75.88-.64.42-1.46.62-2.03.5-1.79-.38-3.71-2.14-5.4-3.69l-.38-.35c-1.54-1.41-2.99-2.73-3.28-3.99-.03-.14-.05-.27-.06-.39.84.11,1.75.25,2.73.43h.01ZM96.32,35.67c-.11.43-.24.88-.39,1.34-1.83-4.2-5.31-11.08-7.3-14.14-.82-1.26-1.59-2.33-2.28-3.27-1.09-1.5-1.94-2.69-2.18-3.56-.15-.55-.07-.78-.04-.81,0,0,.04-.02.1-.02h.09c.54.11,2.33.91,4.14,2.58,1.84,1.7,3.28,3.13,5,6l.36.59c1.45,2.41,1.71,2.84,2.22,4.27.55,1.52.79,4.91.27,7v.02ZM81.93,84.22c-3.72,4.02-7.25,5.86-10.37,7.48-2.96,1.54-11.5,3.99-13.79,4.49-2.31.51-5.77.97-7.88.87-1.86-.09-2.88-.55-2.99-.75,0-.93,1.56-2.28,4-3.44,2.82-1.34,5.38-2.36,11.59-4.26,5.06-1.54,14.26-3.88,20.25-5.29-.28.31-.55.61-.82.9h0ZM104.01,73.87c.39.21.79.36,1.17.46l-2.63,2.03.36-3.3c.31.31.67.59,1.1.82h0ZM117.3,54.08c.19.92-.15,1.67-.26,1.87l-3.57,6.72c-.23.43-.58.74-.93.84-.23.06-.44.03-.66-.11-.75-.47-.37-1.47-.07-2.03.31-.59,2.57-4.9,4.59-8.76.48.41.78.9.9,1.47Z"/></g></svg>