<svg width="133" height="105" viewBox="0 0 133 105" fill="none" xmlns="http://www.w3.org/2000/svg">
<mask id="mask0_170_1988" style="mask-type:luminance" maskUnits="userSpaceOnUse" x="21" y="9" width="94" height="87">
<path d="M24.0661 90.9242C53.4407 106.68 82.8153 72.5231 112.19 88.2766C113.449 88.9503 114.466 88.581 114.469 87.3208V17.4472C114.469 16.1895 113.449 14.5176 112.19 13.8439C82.8153 -1.91207 53.4407 32.2449 24.0661 16.489C22.8094 15.8152 21.7871 16.1845 21.7871 17.4447V87.3208C21.7871 88.5785 22.8069 90.2504 24.0661 90.9242Z" fill="white"/>
</mask>
<g mask="url(#mask0_170_1988)">
<path d="M116.372 8.90527H16.9629V98.0658H116.372V8.90527Z" fill="#F6F5F4"/>
<path d="M18.1816 8.90527L65.2443 53.5953H116.371V8.90527H18.1816Z" fill="#133377"/>
<path d="M65.2444 53.5952L65.3042 53.6052L65.2892 53.6202L65.3042 53.6277L18.5781 98.0657H58.0534H65.2568H116.371V78.5941V53.5952H65.2444Z" fill="#BE2121"/>
<path d="M65.2897 53.6203L65.2448 53.5953L18.1822 8.90527H16.9629V53.5953V78.5044V98.0658H18.5786L65.3047 53.6278L65.2897 53.6203Z" fill="#F6F5F4"/>
<path d="M28.615 27.3364L30.9937 29.1506L33.4546 27.4487L32.4623 30.276L34.841 32.0902L31.8514 32.0203L30.859 34.8451L30.0013 31.9779L27.0117 31.9055L29.4727 30.2036L28.615 27.3364Z" fill="#F1C41E"/>
<path d="M30.7452 71.2007L31.8473 73.9855L34.8319 73.7959L32.528 75.7049L33.63 78.4872L31.1042 76.8852L28.8003 78.7917L29.5434 75.892L27.0176 74.29L30.0022 74.1003L30.7452 71.2007Z" fill="#F1C41E"/>
<path d="M57.3891 49.5352L57.5462 52.5246L60.4335 53.2982L57.6409 54.3712L57.798 57.3607L55.9155 55.035L53.1229 56.1055L54.7536 53.5952L52.8711 51.2695L55.7584 52.0455L57.3891 49.5352Z" fill="#F1C41E"/>
<path d="M46.4468 54.5111L47.6636 53.4655L46.4468 52.42L41.7418 53.0264C41.7293 52.8891 41.7119 52.7544 41.6894 52.6196L46.0304 52.0606L45.2001 51.347L41.6371 52.3551C41.5124 51.8086 41.2955 51.2945 41.0062 50.8329L44.2377 49.0237L44.32 47.9332L40.8566 50.6108C40.7769 50.4985 40.6946 50.3912 40.6073 50.2864L44.3623 47.3843L44.4845 45.7822L42.8838 45.9045L39.984 49.6626C39.8792 49.5752 39.7695 49.4929 39.6598 49.413L42.3352 45.9469L41.2456 46.0293L39.4379 49.2633C38.9766 48.9738 38.463 48.7567 37.9169 48.632L38.9243 45.066L38.2112 44.2351L37.6526 48.5796C37.518 48.5571 37.3834 48.5396 37.2462 48.5272L37.8521 43.8183L36.8074 42.6006L35.7627 43.8183L36.3685 48.5272C36.2314 48.5396 36.0968 48.5571 35.9621 48.5796L35.4036 44.2351L34.6905 45.066L35.6978 48.632C35.1518 48.7567 34.6381 48.9738 34.1769 49.2633L32.3692 46.0293L31.2795 45.9469L33.9549 49.413C33.8427 49.4929 33.7355 49.5752 33.6308 49.6626L30.731 45.9045L29.1302 45.7822L29.2524 47.3843L33.0075 50.2864C32.9202 50.3912 32.8379 50.501 32.7581 50.6108L29.2948 47.9332L29.3771 49.0237L32.6085 50.8329C32.3193 51.2945 32.1024 51.8086 31.9777 52.3551L28.4146 51.347L27.5843 52.0606L31.9253 52.6196C31.9029 52.7544 31.8854 52.8891 31.873 53.0264L27.1679 52.42L25.9512 53.4655L27.1679 54.5111L31.873 53.9047C31.8854 54.042 31.9029 54.1767 31.9253 54.3115L27.5843 54.8704L28.4146 55.5841L31.9777 54.576C32.1024 55.1225 32.3193 55.6365 32.6085 56.0982L29.3771 57.9073L29.2948 58.9978L32.7581 56.3203C32.8379 56.4326 32.9202 56.5399 33.0075 56.6447L29.2524 59.5468L29.1302 61.1489L30.731 61.0266L33.6308 57.2685C33.7355 57.3559 33.8452 57.4382 33.9549 57.5181L31.2795 60.9842L32.3692 60.9018L34.1769 57.6678C34.6381 57.9573 35.1518 58.1744 35.6978 58.2991L34.6905 61.865L35.4036 62.696L35.9621 58.3515C36.0968 58.374 36.2314 58.3915 36.3685 58.4039L35.7627 63.1127L36.8074 64.3305L37.8521 63.1127L37.2462 58.4039C37.3834 58.3915 37.518 58.374 37.6526 58.3515L38.2112 62.696L38.9243 61.865L37.9169 58.2991C38.463 58.1744 38.9766 57.9573 39.4379 57.6678L41.2456 60.9018L42.3352 60.9842L39.6598 57.5181C39.772 57.4382 39.8792 57.3559 39.984 57.2685L42.8838 61.0266L44.4845 61.1489L44.3623 59.5468L40.6073 56.6447C40.6946 56.5399 40.7769 56.4301 40.8566 56.3203L44.32 58.9978L44.2377 57.9073L41.0062 56.0982C41.2955 55.6365 41.5124 55.1225 41.6371 54.576L45.2001 55.5841L46.0304 54.8704L41.6894 54.3115C41.7119 54.1767 41.7293 54.042 41.7418 53.9047L46.4468 54.5111Z" fill="#F1C41E"/>
</g>
</svg>
