<svg width="128" height="129" viewBox="0 0 128 129" fill="none" xmlns="http://www.w3.org/2000/svg">
<path d="M127.371 64.6132C127.371 99.612 98.9987 127.984 63.9999 127.984C29.0011 127.984 0.628906 99.612 0.628906 64.6132C0.628906 29.6143 29.0011 1.24219 63.9999 1.24219C98.9987 1.24219 127.371 29.6143 127.371 64.6132Z" fill="white" stroke="black"/>
<path d="M57.7742 93.7561C57.7742 86.6338 57.4487 82.1927 53.1684 78.8565C49.4916 75.9918 45.6136 73.0462 44.2032 71.602C41.8914 69.2364 40.195 67.2635 38.6584 68.0625C36.3151 69.2818 37.254 73.4289 40.3903 76.6389C37.6465 75.8024 34.2439 73.2592 32.2675 71.7519C29.8452 69.9072 28.423 66.4841 27.8352 64.3474C26.6793 60.1372 23.7816 61.5518 23.0814 66.5729C22.5212 70.6036 24.9533 75.0487 27.2809 77.6451C30.9557 81.7429 36.4196 83.8204 42.138 85.452C45.2171 86.3319 48.7203 88.2122 48.7203 93.7522H57.7722L57.7742 93.7561Z" fill="white"/>
<path d="M69.2539 93.7561C69.2539 86.6338 69.5794 82.1927 73.8598 78.8565C77.5365 75.9918 81.4145 73.0462 82.8249 71.602C85.1367 69.2364 86.8331 67.2635 88.3697 68.0625C90.713 69.2818 89.7741 73.4289 86.6378 76.6389C89.3816 75.8024 92.7842 73.2592 94.7607 71.7519C97.1829 69.9072 98.6051 66.4841 99.1929 64.3474C100.349 60.1372 103.246 61.5518 103.947 66.5729C104.507 70.6036 102.075 75.0487 99.7472 77.6451C96.0724 81.7429 90.6085 83.8204 84.8901 85.452C81.811 86.3319 78.3078 88.2122 78.3078 93.7522H69.2559L69.2539 93.7561Z" fill="white"/>
<path d="M40.3903 76.6389C37.6465 75.8024 34.2439 73.2592 32.2675 71.7519C29.8452 69.9072 28.423 66.4841 27.8352 64.3474C26.6793 60.1372 23.7816 61.5518 23.0814 66.5729C22.5212 70.6036 24.9533 75.0487 27.2809 77.6451C30.9557 81.7429 36.4196 83.8204 42.138 85.452C45.2171 86.3319 48.7203 88.2122 48.7203 93.7522" stroke="black" stroke-width="1.5" stroke-miterlimit="10"/>
<path d="M57.7745 93.7566C57.7745 86.6343 57.449 82.1932 53.1686 78.8569C49.4918 75.9922 45.6138 73.0466 44.2035 71.6024C41.8917 69.2369 40.1953 67.2639 38.6587 68.063C36.3153 69.2822 37.2543 73.4294 40.3906 76.6393" stroke="black" stroke-width="1.5" stroke-miterlimit="10"/>
<path d="M86.6386 76.6389C89.3824 75.8024 92.785 73.2592 94.7614 71.7519C97.1837 69.9072 98.6059 66.4841 99.1937 64.3474C100.35 60.1372 103.247 61.5518 103.947 66.5729C104.508 70.6036 102.076 75.0487 99.748 77.6451C96.0732 81.7429 90.6093 83.8204 84.8909 85.452C81.8118 86.3319 78.3086 88.2122 78.3086 93.7522" stroke="black" stroke-width="1.5" stroke-miterlimit="10"/>
<path d="M69.2539 93.7566C69.2539 86.6343 69.5794 82.1932 73.8598 78.8569C77.5365 75.9922 81.4145 73.0466 82.8249 71.6024C85.1367 69.2369 86.8331 67.2639 88.3697 68.063C90.713 69.2822 89.7741 73.4294 86.6378 76.6393" stroke="black" stroke-width="1.5" stroke-miterlimit="10"/>
<path d="M63.5148 36.0893C70.1208 29.8943 81.5497 29.4681 85.8853 40.4436C89.9881 50.8272 76.6085 65.3421 63.5148 70.166C50.4212 65.3421 37.0416 50.8272 41.1444 40.4436C45.48 29.4681 56.9088 29.8943 63.5148 36.0893Z" fill="#EB701F"/>
<path d="M63.5148 36.0893C70.1208 29.8943 81.5497 29.4681 85.8853 40.4436C89.9881 50.8272 76.6085 65.3421 63.5148 70.166C50.4212 65.3421 37.0416 50.8272 41.1444 40.4436C45.48 29.4681 56.9088 29.8943 63.5148 36.0893Z" stroke="black" stroke-width="1.5" stroke-miterlimit="10"/>
</svg>
