<svg width="326" height="220" viewBox="0 0 326 220" fill="none" xmlns="http://www.w3.org/2000/svg">
<path d="M71.5838 1.95277C72.2291 1.99908 72.9109 2.03141 73.5702 2.11422L73.4641 3.09614C72.8301 3.02461 72.1849 2.97831 71.5283 2.95724L71.5725 1.97799L71.5838 1.95277Z" fill="#EB701F"/>
<path d="M79.3864 3.04961C80.6485 3.34139 81.9245 3.66964 83.178 4.0484L82.8842 4.9766C81.6559 4.60913 80.3911 4.25559 79.143 4.00032L79.3611 3.03831L79.3864 3.04961ZM88.71 6.0977C88.8867 6.17666 89.0633 6.25563 89.2147 6.32331C90.2239 6.77448 91.247 7.26219 92.2477 7.80034L91.8024 8.6608C90.827 8.13393 89.829 7.65754 88.8451 7.21764C88.6685 7.13869 88.5171 7.07103 88.3405 6.99207L88.7466 6.08377L88.71 6.0977ZM34.6969 143.033C35.241 141.884 35.8834 140.718 36.5509 139.563L37.3889 140.059C36.7326 141.188 36.1015 142.329 35.5687 143.453L34.6604 143.047L34.6969 143.033ZM32.5354 148.545L33.4636 148.839C33.0849 150.093 32.7679 151.343 32.5604 152.552L31.601 152.396C31.831 151.137 32.1454 149.824 32.5354 148.545ZM39.8279 134.671C40.5877 133.648 41.4459 132.609 42.3067 131.632L43.0518 132.268C42.191 133.245 41.3693 134.27 40.6207 135.267L39.8279 134.671ZM31.114 158.293L32.0904 158.276C32.1213 159.561 32.2253 160.818 32.4161 162.084L31.4449 162.225C31.2401 160.923 31.1083 159.593 31.0887 158.282L31.114 158.293ZM96.7431 11.6264L97.2892 10.811C98.3848 11.543 99.4327 12.3142 100.469 13.1106L99.8587 13.8669C98.8474 13.0818 97.7995 12.3106 96.7291 11.5899L96.7431 11.6264ZM46.326 127.313C47.2399 126.42 48.2156 125.524 49.2305 124.676L49.8687 125.416C48.8904 126.25 47.9147 127.146 47.012 128.014L46.326 127.313ZM53.8096 121.002C54.8524 120.227 55.9457 119.474 57.0163 118.772L57.5589 119.59C56.4882 120.292 55.4315 121.031 54.3888 121.806L53.8096 121.002ZM33.0038 167.948L33.9166 167.599C34.3769 168.804 34.9217 169.955 35.5507 171.054L34.6936 171.549C34.0507 170.414 33.4781 169.189 32.9925 167.973L33.0038 167.948ZM104.205 17.6871L104.88 16.9898C105.81 17.8898 106.731 18.8767 107.602 19.8411L106.862 20.4793C106.017 19.5262 105.135 18.5871 104.205 17.6871ZM62.0656 115.672C63.1277 115.056 64.2515 114.439 65.4709 113.743L65.9404 114.588C64.7323 115.259 63.6085 115.877 62.5465 116.492L62.0517 115.635L62.0656 115.672ZM38.1909 176.321L38.9163 175.647C39.773 176.574 40.6774 177.463 41.6662 178.299L41.0304 179.044C40.0164 178.197 39.0363 177.274 38.1657 176.31L38.1909 176.321ZM70.6092 110.984C71.7583 110.378 72.9073 109.771 74.0563 109.165L74.5146 110.036C73.3656 110.642 72.2166 111.249 71.0676 111.855L70.6092 110.984ZM110.425 25.0386L111.217 24.4847C111.969 25.5779 112.685 26.6851 113.34 27.7949L112.483 28.2898C111.854 27.1912 111.138 26.084 110.399 25.0273L110.425 25.0386ZM79.2591 106.466C80.5289 105.792 81.6414 105.2 82.6809 104.635L83.1392 105.506C82.0997 106.071 80.976 106.688 79.7061 107.362L79.2479 106.491L79.2591 106.466ZM45.9393 182.419L46.4098 181.57C47.3487 182.111 48.3466 182.587 49.3558 183.038C49.5324 183.117 49.6838 183.185 49.8604 183.264L49.4544 184.172C49.303 184.104 49.1264 184.025 48.9498 183.946C47.9153 183.484 46.9034 182.971 45.9393 182.419ZM115.118 33.4335L116.016 33.0482C116.539 34.2504 116.988 35.4804 117.426 36.7357L116.499 37.048C116.075 35.8292 115.615 34.6244 115.118 33.4335ZM87.7522 101.756C88.9099 101.063 90.031 100.383 91.0791 99.7315L91.6104 100.575C90.5623 101.226 89.43 101.931 88.2723 102.624L87.7775 101.767L87.7522 101.756ZM118.002 42.6242L118.971 42.4214C119.248 43.696 119.453 44.9985 119.633 46.2897L118.662 46.4307C118.507 45.1508 118.291 43.8735 118.027 42.6355L118.002 42.6242ZM55.3113 185.156C56.5257 185.487 57.799 185.753 59.0837 185.995L58.9273 186.954C57.6313 186.738 56.344 186.435 55.1045 186.093L55.3479 185.142L55.3113 185.156ZM95.8874 96.4925C96.9554 95.7288 98.0095 94.9286 98.9652 94.1449L99.5921 94.9096C98.5998 95.7071 97.5458 96.5074 96.4778 97.2711L95.8987 96.4673L95.8874 96.4925ZM119.047 52.2037L120.024 52.1862C120.044 53.4967 120.027 54.8211 119.959 56.123L118.98 56.0788C119.036 54.8021 119.078 53.489 119.047 52.2037ZM103.329 90.3437C104.279 89.4366 105.179 88.507 106.017 87.58L106.751 88.241C105.901 89.1932 104.965 90.1369 104.015 91.044L103.329 90.3437ZM118.35 61.8215L119.31 61.978C119.093 63.2739 118.816 64.5725 118.524 65.8346L117.573 65.5912C117.879 64.3656 118.12 63.0809 118.35 61.8215ZM109.669 83.0673C110.404 82.0334 111.136 80.9378 111.781 79.8336L112.619 80.3294C111.938 81.4475 111.231 82.5544 110.448 83.6274L109.644 83.056L109.669 83.0673ZM115.908 71.1437L116.825 71.4628C116.393 72.632 115.925 73.8151 115.406 74.9757L115.338 75.1271L114.43 74.7211L114.498 74.5697C114.994 73.4595 115.451 72.3016 115.883 71.1324L115.908 71.1437ZM64.8152 186.65C66.0805 186.731 67.3798 186.737 68.679 186.742L68.6965 187.719C67.386 187.738 66.0616 187.721 64.7709 187.629L64.8152 186.65ZM74.4381 186.32C75.718 186.166 76.9953 185.949 78.2586 185.697L78.4613 186.665C77.198 186.918 75.8842 187.148 74.579 187.291L74.4633 186.331L74.4381 186.32ZM83.8487 184.23C85.0814 183.843 86.2862 183.382 87.4771 182.886L87.8624 183.784C86.6715 184.281 85.4302 184.756 84.161 185.157L83.8487 184.23ZM92.674 180.335C93.7978 179.717 94.9076 179.063 96.0035 178.372L96.5096 179.204C95.3772 179.909 94.2421 180.552 93.1183 181.169L92.6488 180.324L92.674 180.335ZM100.837 175.145C101.857 174.42 102.9 173.645 103.94 172.808L104.531 173.587C103.465 174.412 102.422 175.187 101.391 175.937L100.812 175.133L100.837 175.145ZM108.432 169.125C109.374 168.305 110.364 167.446 111.339 166.55L112.014 167.275C111.038 168.171 110.038 169.056 109.096 169.876L108.458 169.136L108.432 169.125ZM115.597 162.58C116.488 161.737 117.402 160.844 118.386 159.861L119.072 160.562C118.088 161.544 117.174 162.438 116.283 163.28L115.597 162.58ZM122.5 155.737C123.33 154.897 124.16 154.057 124.953 153.231L125.226 152.959L125.923 153.634L125.65 153.906C124.82 154.746 123.991 155.586 123.172 156.401L122.475 155.726L122.5 155.737ZM169.14 121.158C170.384 120.745 171.668 120.381 172.903 120.055L173.142 121.01C171.907 121.335 170.66 121.686 169.441 122.11L169.129 121.183L169.14 121.158ZM178.678 118.853C180.006 118.659 181.311 118.516 182.582 118.449L182.661 119.422C181.415 119.501 180.11 119.644 178.819 119.824L178.678 118.853ZM188.508 118.464C189.824 118.568 191.143 118.734 192.414 118.939L192.257 119.898C191.023 119.679 189.73 119.525 188.439 119.432L188.508 118.464ZM198.157 120.447C199.074 120.766 200.019 121.158 200.902 121.553C201.205 121.688 201.507 121.823 201.81 121.959L201.404 122.867C201.101 122.732 200.799 122.596 200.496 122.461C199.613 122.066 198.718 121.697 197.827 121.389L198.146 120.472L198.157 120.447ZM206.353 125.746L206.925 124.942C207.984 125.688 209.046 126.495 210.048 127.367L209.413 128.112C208.449 127.288 207.424 126.466 206.379 125.757L206.353 125.746ZM213.436 132.182L214.175 131.543C215.01 132.522 215.821 133.551 216.61 134.63L215.806 135.209C215.043 134.141 214.245 133.149 213.436 132.182ZM218.924 140.084L219.781 139.59C220.41 140.688 221.006 141.862 221.589 143.062L220.705 143.484C220.121 142.284 219.539 141.146 218.91 140.048L218.924 140.084ZM223.039 148.826L223.952 148.477C224.423 149.657 224.872 150.887 225.335 152.153L224.409 152.466C223.971 151.21 223.51 150.005 223.039 148.826ZM226.207 157.992L227.147 157.716C227.495 158.901 227.871 160.159 228.225 161.468L227.284 161.743C226.92 160.46 226.555 159.177 226.195 158.017L226.207 157.992ZM228.79 167.381L229.745 167.142C230.042 168.304 230.343 169.529 230.688 170.924L229.733 171.163C229.388 169.768 229.099 168.518 228.79 167.381ZM231.104 176.832L232.059 176.592C232.373 177.853 232.676 179.139 233.002 180.374L232.047 180.614C231.733 179.353 231.419 178.092 231.104 176.832ZM233.604 186.274L234.544 185.998C234.932 187.231 235.344 188.475 235.779 189.669L234.841 190.006C234.417 188.787 234.005 187.543 233.604 186.274ZM236.97 195.469L237.869 195.083C238.391 196.285 238.925 197.462 239.469 198.614L238.585 199.036C238.04 197.884 237.493 196.671 236.97 195.469ZM241.309 204.25L242.166 203.755C242.809 204.89 243.5 205.986 244.177 207.045L243.359 207.588C242.657 206.517 241.977 205.396 241.309 204.25ZM246.819 212.374L247.584 211.748C248.396 212.776 249.266 213.741 250.123 214.669L249.397 215.343C248.516 214.404 247.656 213.415 246.819 212.374ZM253.716 219.363L254.326 218.606C255.352 219.428 256.385 220.163 257.442 220.847L256.921 221.673C255.839 220.978 254.766 220.196 253.716 219.363ZM262.566 223.47C263.749 223.939 264.991 224.343 266.228 224.623L265.984 225.574C264.722 225.282 263.455 224.867 262.221 224.376L262.577 223.445L262.566 223.47Z" fill="#EB701F"/>
<path d="M167.161 122.056C169.583 125.44 128.706 152.817 127.153 150.67C125.626 148.534 164.738 118.673 167.161 122.056Z" fill="#EB701F"/>
<path d="M124.141 113.997L157.871 126.715L147.587 134.075L121.55 115.866L124.141 113.997Z" fill="#EB701F"/>
<path d="M160.879 165.361L159.753 129.348L149.47 136.708L158.287 167.23L160.879 165.361Z" fill="#EB701F"/>
<path d="M132.07 145.902L121.873 143.251L120.001 144.594L127.58 149.919L132.07 145.902Z" fill="#EB701F"/>
<path d="M133.241 147.549L132.447 158.062L130.575 159.404L128.013 150.509L133.241 147.549Z" fill="#EB701F"/>
<path d="M139.181 120.173C137.213 121.594 135.276 122.272 134.867 121.696C134.459 121.12 135.725 119.506 137.692 118.085C139.66 116.664 141.597 115.986 142.006 116.562C142.414 117.138 141.148 118.752 139.181 120.173Z" fill="#EB701F"/>
<path d="M144.599 122.749C142.631 124.171 140.694 124.848 140.285 124.272C139.877 123.696 141.143 122.082 143.11 120.661C145.078 119.24 147.015 118.562 147.424 119.139C147.832 119.715 146.566 121.328 144.599 122.749Z" fill="#EB701F"/>
<path d="M160.29 149.685C158.323 151.106 157.056 152.719 157.465 153.296C157.873 153.872 159.811 153.194 161.778 151.773C163.746 150.352 165.012 148.738 164.604 148.162C164.195 147.586 162.257 148.263 160.29 149.685Z" fill="#EB701F"/>
<path d="M159.61 143.757C157.643 145.178 156.377 146.792 156.785 147.368C157.194 147.944 159.131 147.266 161.099 145.845C163.066 144.424 164.332 142.81 163.924 142.234C163.515 141.658 161.578 142.336 159.61 143.757Z" fill="#EB701F"/>
</svg>
