<svg width="134" height="106" viewBox="0 0 134 106" fill="none" xmlns="http://www.w3.org/2000/svg">
<g clip-path="url(#clip0_170_1953)">
<mask id="mask0_170_1953" style="mask-type:luminance" maskUnits="userSpaceOnUse" x="22" y="13" width="90" height="83">
<path d="M24.6343 91.8661C52.875 107.002 81.1157 74.1893 109.356 89.3227C110.567 89.97 111.545 89.6152 111.547 88.4046V21.2787C111.547 20.0705 110.567 18.4644 109.356 17.8171C81.1157 2.68133 52.875 35.494 24.6343 20.3606C23.4262 19.7157 22.4434 20.0681 22.4434 21.2787V88.4046C22.4434 89.6128 23.4238 91.2189 24.6343 91.8661Z" fill="white"/>
</mask>
<g mask="url(#mask0_170_1953)">
<path d="M129.543 12.5674H4.45312V95.9606H129.543V12.5674Z" fill="#003D8B"/>
<path d="M71.4364 18.3566L53.4147 30.2754H51.0559V29.1151L68.0708 17.8604H65.7L51.0559 27.5474V17.8604H49.1406V28.8131V30.2754V30.3808V32.1907H50.5214H51.0559H56.7515H71.4364V30.2754H59.6449L71.4364 22.4773V18.3566Z" fill="white"/>
<path d="M42.5288 27.7727L27.5419 17.8604H21.4004V17.9179L40.0861 30.2754H35.9702L21.4004 20.6411V22.2088L33.5994 30.2754H21.4004V32.1907H36.4928H38.8635H42.5288H42.9794H44.1972H44.4417V32.0277V30.2754V29.0384V17.8604H42.5288V27.7727Z" fill="white"/>
<path d="M54.2441 36.8892H51.2885H51.0559H49.1406V36.9419V37.3326V38.8021V40.1349V40.3555V51.2171H51.0559V41.6212L65.5634 51.2171H71.4364V50.9822L53.0216 38.8021H57.1375L71.4364 48.259V46.6912L59.5082 38.8021H71.4364V36.8892H56.6149H54.2441Z" fill="white"/>
<path d="M43.5955 36.8892H43.3246H42.5288H37.0944H21.4004V38.8021H34.2011L21.4004 47.269V51.2171H21.6593L40.4313 38.8021H42.5288V40.1373L25.7752 51.2171H28.1459L42.5288 41.7051V51.2171H44.4417V40.4394V38.8716V38.8021V36.8892H44.0174H43.5955Z" fill="white"/>
<path d="M21.6602 51.2168H25.776L42.5296 40.137V38.8018H40.4321L21.6602 51.2168Z" fill="#D71718"/>
<path d="M68.0696 17.8604L51.0547 29.1151V30.2754H53.4135L71.4351 18.3566V17.8604H68.0696Z" fill="#D71718"/>
<path d="M40.0861 30.2754L21.4004 17.918V20.6412L35.9702 30.2754H40.0861Z" fill="#D71718"/>
<path d="M53.0215 38.8022L71.4363 50.9823V48.2591L57.1374 38.8022H53.0215Z" fill="#D71718"/>
<path d="M51.0554 32.1907H50.5208H49.1401V30.3808V30.2754V28.8131V17.8604H44.4417V29.0384V30.2754V32.0277V32.1907H44.1972H42.9794H42.5288H38.8635H36.4928H21.4004V36.8892H37.0944H42.5288H43.3246H43.5955H44.0174H44.4417V38.8021V38.8717V40.4394V51.2172H49.1401V40.3555V40.135V38.8021V37.3327V36.9419V36.8892H51.0554H51.2879H54.2436H56.6143H71.4358V32.1907H56.751H51.0554Z" fill="#D71718"/>
<path d="M46.4152 71.8185L50.4592 71.3678L47.3285 69.2055L49.2414 65.6625L45.2814 67.0529L43.9438 63.2222L42.6086 67.0505L38.6533 65.6625L40.8826 69.2055L37.4355 71.3678L41.4795 71.8185L41.0073 75.98L43.9462 73.0338L46.8875 75.98L46.4152 71.8185Z" fill="white"/>
<path d="M93.8922 76.076L95.9154 75.8506L94.1918 74.7695L95.3065 72.998L93.3265 73.6932L92.6577 71.7778L91.9889 73.6932L90.0112 72.998L91.1283 74.7695L89.4023 75.8506L91.4255 76.076L91.1882 78.1567L92.6601 76.6825L94.1295 78.1567L93.8922 76.076Z" fill="white"/>
<path d="M82.7476 50.2059L84.7708 49.9805L83.0449 48.8994L84.1596 47.1279L82.1819 47.8231L81.5131 45.9077L80.8443 47.8231L78.8667 47.1279L79.9814 48.8994L78.2578 49.9805L80.281 50.2059L80.0437 52.2866L81.5131 50.8147L82.985 52.2866L82.7476 50.2059Z" fill="white"/>
<path d="M94.7965 31.8675L96.8173 31.6421L95.0937 30.561L96.2084 28.7895L94.2284 29.4847L93.562 27.5693L92.8932 29.4847L90.9155 28.7895L92.0302 30.561L90.3066 31.6421L92.3274 31.8675L92.0925 33.9482L93.562 32.474L95.0338 33.9482L94.7965 31.8675Z" fill="white"/>
<path d="M106.586 44.5096L108.606 44.2842L106.883 43.2031L107.997 41.4316L106.017 42.1268L105.349 40.2114L104.682 42.1268L102.705 41.4316L103.819 43.2031L102.096 44.2842L104.116 44.5096L103.882 46.5903L105.351 45.1185L106.82 46.5903L106.586 44.5096Z" fill="white"/>
<path d="M100.154 57.0762L100.545 58.2772H101.808L100.787 59.0203L101.178 60.2237L100.154 59.4805L99.1328 60.2237L99.5236 59.0203L98.5 58.2772H99.7633L100.154 57.0762Z" fill="white"/>
</g>
</g>
<defs>
<clipPath id="clip0_170_1953">
<rect width="125.09" height="83.3932" fill="white" transform="translate(4.45508 12.5674)"/>
</clipPath>
</defs>
</svg>
